%TF.GenerationSoftware,KiCad,Pcbnew,8.0.8*%
%TF.CreationDate,2025-07-23T18:15:36+02:00*%
%TF.ProjectId,CartridgeMk3ReaderMk6,43617274-7269-4646-9765-4d6b33526561,rev?*%
%TF.SameCoordinates,PX30a32c0PY5466720*%
%TF.FileFunction,Copper,L1,Top*%
%TF.FilePolarity,Positive*%
%FSLAX46Y46*%
G04 Gerber Fmt 4.6, Leading zero omitted, Abs format (unit mm)*
G04 Created by KiCad (PCBNEW 8.0.8) date 2025-07-23 18:15:36*
%MOMM*%
%LPD*%
G01*
G04 APERTURE LIST*
G04 Aperture macros list*
%AMRoundRect*
0 Rectangle with rounded corners*
0 $1 Rounding radius*
0 $2 $3 $4 $5 $6 $7 $8 $9 X,Y pos of 4 corners*
0 Add a 4 corners polygon primitive as box body*
4,1,4,$2,$3,$4,$5,$6,$7,$8,$9,$2,$3,0*
0 Add four circle primitives for the rounded corners*
1,1,$1+$1,$2,$3*
1,1,$1+$1,$4,$5*
1,1,$1+$1,$6,$7*
1,1,$1+$1,$8,$9*
0 Add four rect primitives between the rounded corners*
20,1,$1+$1,$2,$3,$4,$5,0*
20,1,$1+$1,$4,$5,$6,$7,0*
20,1,$1+$1,$6,$7,$8,$9,0*
20,1,$1+$1,$8,$9,$2,$3,0*%
G04 Aperture macros list end*
%TA.AperFunction,SMDPad,CuDef*%
%ADD10RoundRect,0.100000X0.100000X-0.130000X0.100000X0.130000X-0.100000X0.130000X-0.100000X-0.130000X0*%
%TD*%
%TA.AperFunction,SMDPad,CuDef*%
%ADD11RoundRect,0.100000X-0.130000X-0.100000X0.130000X-0.100000X0.130000X0.100000X-0.130000X0.100000X0*%
%TD*%
%TA.AperFunction,SMDPad,CuDef*%
%ADD12C,3.000000*%
%TD*%
%TA.AperFunction,SMDPad,CuDef*%
%ADD13RoundRect,0.250000X-0.325000X-0.650000X0.325000X-0.650000X0.325000X0.650000X-0.325000X0.650000X0*%
%TD*%
%TA.AperFunction,SMDPad,CuDef*%
%ADD14R,1.050000X0.300000*%
%TD*%
%TA.AperFunction,SMDPad,CuDef*%
%ADD15R,0.300000X1.050000*%
%TD*%
%TA.AperFunction,SMDPad,CuDef*%
%ADD16R,4.200000X4.200000*%
%TD*%
%TA.AperFunction,SMDPad,CuDef*%
%ADD17R,1.550000X4.500000*%
%TD*%
%TA.AperFunction,SMDPad,CuDef*%
%ADD18RoundRect,0.100000X-0.100000X0.130000X-0.100000X-0.130000X0.100000X-0.130000X0.100000X0.130000X0*%
%TD*%
%TA.AperFunction,ComponentPad*%
%ADD19R,1.200000X1.200000*%
%TD*%
%TA.AperFunction,ComponentPad*%
%ADD20C,1.200000*%
%TD*%
%TA.AperFunction,SMDPad,CuDef*%
%ADD21R,1.000000X0.900000*%
%TD*%
%TA.AperFunction,SMDPad,CuDef*%
%ADD22R,0.300000X0.700000*%
%TD*%
%TA.AperFunction,SMDPad,CuDef*%
%ADD23R,1.000000X0.700000*%
%TD*%
%TA.AperFunction,HeatsinkPad*%
%ADD24O,1.100000X2.100000*%
%TD*%
%TA.AperFunction,HeatsinkPad*%
%ADD25O,1.100000X2.600000*%
%TD*%
%TA.AperFunction,SMDPad,CuDef*%
%ADD26RoundRect,0.250000X0.325000X0.650000X-0.325000X0.650000X-0.325000X-0.650000X0.325000X-0.650000X0*%
%TD*%
%TA.AperFunction,SMDPad,CuDef*%
%ADD27R,0.825000X0.300000*%
%TD*%
%TA.AperFunction,SMDPad,CuDef*%
%ADD28R,0.725000X0.300000*%
%TD*%
%TA.AperFunction,SMDPad,CuDef*%
%ADD29RoundRect,0.100000X0.130000X0.100000X-0.130000X0.100000X-0.130000X-0.100000X0.130000X-0.100000X0*%
%TD*%
%TA.AperFunction,ViaPad*%
%ADD30C,0.600000*%
%TD*%
%TA.AperFunction,ViaPad*%
%ADD31C,0.400000*%
%TD*%
%TA.AperFunction,Conductor*%
%ADD32C,0.200000*%
%TD*%
G04 APERTURE END LIST*
D10*
%TO.P,R3,1*%
%TO.N,USB_RBIAS*%
X16150000Y48425000D03*
%TO.P,R3,2*%
%TO.N,GND*%
X16150000Y49065000D03*
%TD*%
D11*
%TO.P,R4,1*%
%TO.N,SD_WP*%
X22810000Y48150000D03*
%TO.P,R4,2*%
%TO.N,GND*%
X23450000Y48150000D03*
%TD*%
D12*
%TO.P,TP3,1,1*%
%TO.N,3V3*%
X46850000Y59900000D03*
%TD*%
D10*
%TO.P,C4,1*%
%TO.N,Net-(IC1-VDD18PLL)*%
X16850000Y50375000D03*
%TO.P,C4,2*%
%TO.N,GND*%
X16850000Y51015000D03*
%TD*%
D13*
%TO.P,C6,1*%
%TO.N,GND*%
X33725000Y59800000D03*
%TO.P,C6,2*%
%TO.N,3V3*%
X36675000Y59800000D03*
%TD*%
D10*
%TO.P,R8,1*%
%TO.N,SD_CMD*%
X16500000Y38180000D03*
%TO.P,R8,2*%
%TO.N,Net-(IC1-SD_CMD)*%
X16500000Y38820000D03*
%TD*%
D14*
%TO.P,IC1,1,LED*%
%TO.N,unconnected-(IC1-LED-Pad1)*%
X15150000Y45500000D03*
%TO.P,IC1,2,USB+*%
%TO.N,D+*%
X15150000Y45000000D03*
%TO.P,IC1,3,USB-*%
%TO.N,D-*%
X15150000Y44500000D03*
%TO.P,IC1,4,SD_D1*%
%TO.N,Net-(IC1-SD_D1)*%
X15150000Y44000000D03*
%TO.P,IC1,5,SD_D0*%
%TO.N,Net-(IC1-SD_D0)*%
X15150000Y43500000D03*
%TO.P,IC1,6,VDD33_1*%
%TO.N,3V3*%
X15150000Y43000000D03*
%TO.P,IC1,7,SD_D7*%
%TO.N,unconnected-(IC1-SD_D7-Pad7)*%
X15150000Y42500000D03*
%TO.P,IC1,8,SD_D6*%
%TO.N,unconnected-(IC1-SD_D6-Pad8)*%
X15150000Y42000000D03*
%TO.P,IC1,9,SD_CLK*%
%TO.N,Net-(IC1-SD_CLK)*%
X15150000Y41500000D03*
D15*
%TO.P,IC1,10,SD_D5*%
%TO.N,unconnected-(IC1-SD_D5-Pad10)*%
X16000000Y40650000D03*
%TO.P,IC1,11,SD_CMD*%
%TO.N,Net-(IC1-SD_CMD)*%
X16500000Y40650000D03*
%TO.P,IC1,12,NC_1*%
%TO.N,unconnected-(IC1-NC_1-Pad12)*%
X17000000Y40650000D03*
%TO.P,IC1,13,VDD18*%
%TO.N,Net-(IC1-VDD18)*%
X17500000Y40650000D03*
%TO.P,IC1,14,VDD33_2*%
%TO.N,3V3*%
X18000000Y40650000D03*
%TO.P,IC1,15,NC_2*%
%TO.N,unconnected-(IC1-NC_2-Pad15)*%
X18500000Y40650000D03*
%TO.P,IC1,16,NC_3*%
%TO.N,unconnected-(IC1-NC_3-Pad16)*%
X19000000Y40650000D03*
%TO.P,IC1,17,NC_4*%
%TO.N,unconnected-(IC1-NC_4-Pad17)*%
X19500000Y40650000D03*
%TO.P,IC1,18,RESET_N*%
%TO.N,Net-(IC1-RESET_N)*%
X20000000Y40650000D03*
D14*
%TO.P,IC1,19,NC_5*%
%TO.N,unconnected-(IC1-NC_5-Pad19)*%
X20850000Y41500000D03*
%TO.P,IC1,20,SD_D4*%
%TO.N,unconnected-(IC1-SD_D4-Pad20)*%
X20850000Y42000000D03*
%TO.P,IC1,21,CRD_PWR*%
%TO.N,unconnected-(IC1-CRD_PWR-Pad21)*%
X20850000Y42500000D03*
%TO.P,IC1,22,VDD33_3*%
%TO.N,3V3*%
X20850000Y43000000D03*
%TO.P,IC1,23,SD_D3*%
%TO.N,Net-(IC1-SD_D3)*%
X20850000Y43500000D03*
%TO.P,IC1,24,NC_6*%
%TO.N,unconnected-(IC1-NC_6-Pad24)*%
X20850000Y44000000D03*
%TO.P,IC1,25,SD_D2*%
%TO.N,Net-(IC1-SD_D2)*%
X20850000Y44500000D03*
%TO.P,IC1,26,SD_NCD*%
%TO.N,CARD_PRESENT*%
X20850000Y45000000D03*
%TO.P,IC1,27,RXD/SDA*%
%TO.N,unconnected-(IC1-RXD{slash}SDA-Pad27)*%
X20850000Y45500000D03*
D15*
%TO.P,IC1,28,TEST*%
%TO.N,GND*%
X20000000Y46350000D03*
%TO.P,IC1,29,NC_7*%
%TO.N,unconnected-(IC1-NC_7-Pad29)*%
X19500000Y46350000D03*
%TO.P,IC1,30,SD_WP*%
%TO.N,SD_WP*%
X19000000Y46350000D03*
%TO.P,IC1,31,TXD/SCK*%
%TO.N,unconnected-(IC1-TXD{slash}SCK-Pad31)*%
X18500000Y46350000D03*
%TO.P,IC1,32,XTAL2*%
%TO.N,USB_XTAL_OUT*%
X18000000Y46350000D03*
%TO.P,IC1,33,XTAL1_(CLKIN)*%
%TO.N,USB_XTAL_IN*%
X17500000Y46350000D03*
%TO.P,IC1,34,VDD18PLL*%
%TO.N,Net-(IC1-VDD18PLL)*%
X17000000Y46350000D03*
%TO.P,IC1,35,RBIAS*%
%TO.N,USB_RBIAS*%
X16500000Y46350000D03*
%TO.P,IC1,36,VDDA33*%
%TO.N,3V3*%
X16000000Y46350000D03*
D16*
%TO.P,IC1,37,VSS*%
%TO.N,GND*%
X18000000Y43500000D03*
%TD*%
D17*
%TO.P,L1,1,1*%
%TO.N,3V3*%
X36875000Y64600000D03*
%TO.P,L1,2,2*%
%TO.N,Net-(IC2-LX)*%
X33025000Y64600000D03*
%TD*%
D11*
%TO.P,R1,1*%
%TO.N,GND*%
X15525000Y57000000D03*
%TO.P,R1,2*%
%TO.N,Net-(J2-CC1)*%
X16165000Y57000000D03*
%TD*%
%TO.P,R5,1*%
%TO.N,SUPPLY*%
X41280000Y18450000D03*
%TO.P,R5,2*%
%TO.N,GND*%
X41920000Y18450000D03*
%TD*%
D18*
%TO.P,C5,1*%
%TO.N,Net-(IC2-VCC)*%
X25900000Y61015000D03*
%TO.P,C5,2*%
%TO.N,GND*%
X25900000Y60375000D03*
%TD*%
D11*
%TO.P,C3,1*%
%TO.N,Net-(IC1-VDD18)*%
X18180000Y37500000D03*
%TO.P,C3,2*%
%TO.N,GND*%
X18820000Y37500000D03*
%TD*%
D18*
%TO.P,R11,1*%
%TO.N,Net-(IC1-SD_D1)*%
X9250000Y42920000D03*
%TO.P,R11,2*%
%TO.N,SD_DAT1*%
X9250000Y42280000D03*
%TD*%
D19*
%TO.P,J1,A1,A1*%
%TO.N,SUPPLY*%
X34000000Y18000000D03*
D20*
%TO.P,J1,A2,A2*%
%TO.N,VCC*%
X33000000Y16000000D03*
%TO.P,J1,A3,A3*%
%TO.N,3V3*%
X32000000Y18000000D03*
%TO.P,J1,A4,A4*%
%TO.N,GND*%
X31000000Y16000000D03*
%TO.P,J1,A5,A5*%
%TO.N,SD_CLK*%
X30000000Y18000000D03*
%TO.P,J1,A6,A6*%
%TO.N,SD_CMD*%
X29000000Y16000000D03*
%TO.P,J1,A7,A7*%
%TO.N,SD_DAT0*%
X28000000Y18000000D03*
%TO.P,J1,A8,A8*%
%TO.N,SD_DAT1*%
X27000000Y16000000D03*
%TO.P,J1,A9,A9*%
%TO.N,SD_DAT2*%
X26000000Y18000000D03*
%TO.P,J1,A10,A10*%
%TO.N,SD_DAT3*%
X25000000Y16000000D03*
%TO.P,J1,A11,A11*%
%TO.N,unconnected-(J1-PadA11)*%
X24000000Y18000000D03*
%TO.P,J1,A12,A12*%
%TO.N,unconnected-(J1-PadA12)*%
X21000000Y16000000D03*
%TO.P,J1,A13,A13*%
%TO.N,unconnected-(J1-PadA13)*%
X20000000Y18000000D03*
%TO.P,J1,A14,A14*%
%TO.N,unconnected-(J1-PadA14)*%
X19000000Y16000000D03*
%TO.P,J1,A15,A15*%
%TO.N,unconnected-(J1-PadA15)*%
X18000000Y18000000D03*
%TO.P,J1,A16,A16*%
%TO.N,unconnected-(J1-PadA16)*%
X17000000Y16000000D03*
%TO.P,J1,A17,A17*%
%TO.N,CARD_PRESENT*%
X16000000Y18000000D03*
%TO.P,J1,A18,A18*%
%TO.N,unconnected-(J1-PadA18)*%
X15000000Y16000000D03*
%TO.P,J1,B1,B1*%
%TO.N,GND*%
X34000000Y20500000D03*
%TO.P,J1,B2,B2*%
X33000000Y22500000D03*
%TO.P,J1,B3,B3*%
X32000000Y20500000D03*
%TO.P,J1,B4,B4*%
X31000000Y22500000D03*
%TO.P,J1,B5,B5*%
X30000000Y20500000D03*
%TO.P,J1,B6,B6*%
X29000000Y22500000D03*
%TO.P,J1,B7,B7*%
X28000000Y20500000D03*
%TO.P,J1,B8,B8*%
X27000000Y22500000D03*
%TO.P,J1,B9,B9*%
X26000000Y20500000D03*
%TO.P,J1,B10,B10*%
X25000000Y22500000D03*
%TO.P,J1,B11,B11*%
%TO.N,unconnected-(J1-PadB11)*%
X24000000Y20500000D03*
%TO.P,J1,B12,B12*%
%TO.N,unconnected-(J1-PadB12)*%
X21000000Y22500000D03*
%TO.P,J1,B13,B13*%
%TO.N,unconnected-(J1-PadB13)*%
X20000000Y20500000D03*
%TO.P,J1,B14,B14*%
%TO.N,unconnected-(J1-PadB14)*%
X19000000Y22500000D03*
%TO.P,J1,B15,B15*%
%TO.N,unconnected-(J1-PadB15)*%
X18000000Y20500000D03*
%TO.P,J1,B16,B16*%
%TO.N,unconnected-(J1-PadB16)*%
X17000000Y22500000D03*
%TO.P,J1,B17,B17*%
%TO.N,unconnected-(J1-PadB17)*%
X16000000Y20500000D03*
%TO.P,J1,B18,B18*%
%TO.N,unconnected-(J1-PadB18)*%
X15000000Y22500000D03*
%TD*%
D21*
%TO.P,Y1,1,CRYSTAL_1*%
%TO.N,USB_XTAL_OUT*%
X23000000Y54226000D03*
%TO.P,Y1,2,GND_1*%
%TO.N,GND*%
X21350000Y54226000D03*
%TO.P,Y1,3,CRYSTAL_2*%
%TO.N,USB_XTAL_IN*%
X21350000Y53000000D03*
%TO.P,Y1,4,GND_2*%
%TO.N,GND*%
X23000000Y53000000D03*
%TD*%
D10*
%TO.P,C2,1*%
%TO.N,USB_XTAL_IN*%
X17000000Y52180000D03*
%TO.P,C2,2*%
%TO.N,GND*%
X17000000Y52820000D03*
%TD*%
D12*
%TO.P,TP4,1,1*%
%TO.N,GND*%
X41100000Y54250000D03*
%TD*%
D22*
%TO.P,J2,A1,GND*%
%TO.N,GND*%
X16250000Y61700000D03*
%TO.P,J2,A2,TX1+*%
%TO.N,unconnected-(J2-TX1+-PadA2)*%
X15750000Y61700000D03*
%TO.P,J2,A3,TX1-*%
%TO.N,unconnected-(J2-TX1--PadA3)*%
X15250000Y61700000D03*
%TO.P,J2,A4,VBUS*%
%TO.N,VCC*%
X14750000Y61700000D03*
%TO.P,J2,A5,CC1*%
%TO.N,Net-(J2-CC1)*%
X14250000Y61700000D03*
%TO.P,J2,A6,D+*%
%TO.N,D+*%
X13750000Y61700000D03*
%TO.P,J2,A7,D-*%
%TO.N,D-*%
X12750000Y61700000D03*
%TO.P,J2,A8,SBU1*%
%TO.N,unconnected-(J2-SBU1-PadA8)*%
X12250000Y61700000D03*
%TO.P,J2,A9,VBUS*%
%TO.N,VCC*%
X11750000Y61700000D03*
%TO.P,J2,A10,RX2-*%
%TO.N,unconnected-(J2-RX2--PadA10)*%
X11250000Y61700000D03*
%TO.P,J2,A11,RX2+*%
%TO.N,unconnected-(J2-RX2+-PadA11)*%
X10750000Y61700000D03*
%TO.P,J2,A12,GND*%
%TO.N,GND*%
X10250000Y61700000D03*
D23*
%TO.P,J2,B1,GND*%
X10150000Y63000000D03*
D22*
%TO.P,J2,B2,TX2+*%
%TO.N,unconnected-(J2-TX2+-PadB2)*%
X11000000Y63000000D03*
%TO.P,J2,B3,TX2-*%
%TO.N,unconnected-(J2-TX2--PadB3)*%
X11500000Y63000000D03*
%TO.P,J2,B4,VBUS*%
%TO.N,VCC*%
X12000000Y63000000D03*
%TO.P,J2,B5,CC2*%
%TO.N,Net-(J2-CC2)*%
X12500000Y63000000D03*
%TO.P,J2,B6,D+*%
%TO.N,D+*%
X13000000Y63000000D03*
%TO.P,J2,B7,D-*%
%TO.N,D-*%
X13500000Y63000000D03*
%TO.P,J2,B8,SBU2*%
%TO.N,unconnected-(J2-SBU2-PadB8)*%
X14000000Y63000000D03*
%TO.P,J2,B9,VBUS*%
%TO.N,VCC*%
X14500000Y63000000D03*
%TO.P,J2,B10,RX1-*%
%TO.N,unconnected-(J2-RX1--PadB10)*%
X15000000Y63000000D03*
%TO.P,J2,B11,RX1+*%
%TO.N,unconnected-(J2-RX1+-PadB11)*%
X15500000Y63000000D03*
D23*
%TO.P,J2,B12,GND*%
%TO.N,GND*%
X16350000Y63000000D03*
D24*
%TO.P,J2,S1,SHIELD*%
X17570000Y62110000D03*
D25*
X17570000Y67470000D03*
D24*
X8930000Y62110000D03*
D25*
X8930000Y67470000D03*
%TD*%
D26*
%TO.P,C8,1*%
%TO.N,GND*%
X28700000Y67250000D03*
%TO.P,C8,2*%
%TO.N,VCC*%
X25750000Y67250000D03*
%TD*%
D18*
%TO.P,C1,1*%
%TO.N,GND*%
X27500000Y53320000D03*
%TO.P,C1,2*%
%TO.N,USB_XTAL_OUT*%
X27500000Y52680000D03*
%TD*%
D12*
%TO.P,TP2,1,1*%
%TO.N,VCC*%
X3550000Y50850000D03*
%TD*%
D27*
%TO.P,IC2,1,VIN*%
%TO.N,VCC*%
X27862000Y62188000D03*
D28*
%TO.P,IC2,2,EN/UVLO*%
X27812000Y61688000D03*
%TO.P,IC2,3,VCC*%
%TO.N,Net-(IC2-VCC)*%
X27812000Y61188000D03*
%TO.P,IC2,4,FB/VOUT*%
%TO.N,3V3*%
X27812000Y60688000D03*
%TO.P,IC2,5,MODE*%
%TO.N,unconnected-(IC2-MODE-Pad5)*%
X29688000Y60688000D03*
%TO.P,IC2,6,~{RESET}*%
%TO.N,unconnected-(IC2-~{RESET}-Pad6)*%
X29688000Y61188000D03*
%TO.P,IC2,7,GND*%
%TO.N,GND*%
X29688000Y61688000D03*
%TO.P,IC2,8,LX*%
%TO.N,Net-(IC2-LX)*%
X29688000Y62188000D03*
%TD*%
D12*
%TO.P,TP1,1,1*%
%TO.N,Net-(IC1-RESET_N)*%
X23450000Y39050000D03*
%TD*%
D29*
%TO.P,R6,1*%
%TO.N,SD_DAT2*%
X24700000Y44500000D03*
%TO.P,R6,2*%
%TO.N,Net-(IC1-SD_D2)*%
X24060000Y44500000D03*
%TD*%
D13*
%TO.P,C7,1*%
%TO.N,VCC*%
X25725000Y64800000D03*
%TO.P,C7,2*%
%TO.N,GND*%
X28675000Y64800000D03*
%TD*%
D18*
%TO.P,R9,1*%
%TO.N,Net-(IC1-SD_CLK)*%
X12850000Y41165000D03*
%TO.P,R9,2*%
%TO.N,SD_CLK*%
X12850000Y40525000D03*
%TD*%
%TO.P,R10,1*%
%TO.N,Net-(IC1-SD_D0)*%
X11250000Y42920000D03*
%TO.P,R10,2*%
%TO.N,SD_DAT0*%
X11250000Y42280000D03*
%TD*%
D11*
%TO.P,R2,1*%
%TO.N,Net-(J2-CC2)*%
X9025000Y57000000D03*
%TO.P,R2,2*%
%TO.N,GND*%
X9665000Y57000000D03*
%TD*%
D29*
%TO.P,R7,1*%
%TO.N,SD_DAT3*%
X23020000Y43550000D03*
%TO.P,R7,2*%
%TO.N,Net-(IC1-SD_D3)*%
X22380000Y43550000D03*
%TD*%
D30*
%TO.N,GND*%
X32550000Y58250000D03*
D31*
X21400000Y54226000D03*
X27500000Y53320000D03*
X18820000Y37500000D03*
X16850000Y51015000D03*
X10100000Y63000000D03*
X41920000Y18450000D03*
X16250000Y61700000D03*
D30*
X28850000Y61050000D03*
D31*
X41100000Y54250000D03*
X23025000Y52975000D03*
X10250000Y61700000D03*
X15525000Y57000000D03*
X16350000Y63000000D03*
D30*
X28850000Y61700000D03*
D31*
X9665000Y57000000D03*
D30*
X20000000Y47500000D03*
D31*
X23450000Y48150000D03*
X17000000Y52820000D03*
D30*
X33250000Y58250000D03*
D31*
X25900000Y60375000D03*
X16150000Y49065000D03*
D30*
X18000000Y43500000D03*
%TO.N,3V3*%
X22100000Y42300000D03*
X46850000Y60050000D03*
X12750000Y43000000D03*
X19050000Y39100000D03*
%TO.N,SD_DAT2*%
X21994871Y28344871D03*
X20555908Y26905908D03*
D31*
%TO.N,D-*%
X12750000Y61700000D03*
X13500000Y63000000D03*
D30*
%TO.N,VCC*%
X17000000Y59500000D03*
X11750000Y60250000D03*
D31*
X11750000Y61700000D03*
X12000000Y63000000D03*
%TD*%
D32*
%TO.N,GND*%
X23320000Y52680000D02*
X23025000Y52975000D01*
X22650000Y53000000D02*
X23000000Y53000000D01*
X16350000Y63000000D02*
X16680000Y63000000D01*
X23025000Y52975000D02*
X23000000Y53000000D01*
X16250000Y62900000D02*
X16350000Y63000000D01*
X21350000Y54226000D02*
X21400000Y54226000D01*
X10250000Y62900000D02*
X10150000Y63000000D01*
X17600000Y67500000D02*
X17570000Y67470000D01*
X10100000Y63000000D02*
X9820000Y63000000D01*
X20000000Y46350000D02*
X20000000Y47500000D01*
X10150000Y63000000D02*
X10100000Y63000000D01*
%TO.N,USB_XTAL_OUT*%
X25920000Y52680000D02*
X21740000Y48500000D01*
X24374000Y54226000D02*
X25920000Y52680000D01*
X21740000Y48500000D02*
X18500000Y48500000D01*
X23000000Y54226000D02*
X24374000Y54226000D01*
X18000000Y46350000D02*
X18000000Y48000000D01*
X18000000Y48000000D02*
X18500000Y48500000D01*
X25920000Y52680000D02*
X27500000Y52680000D01*
%TO.N,USB_XTAL_IN*%
X17500000Y51680000D02*
X17500000Y46350000D01*
X17000000Y52180000D02*
X17500000Y51680000D01*
X20530000Y52180000D02*
X21350000Y53000000D01*
X17000000Y52180000D02*
X20530000Y52180000D01*
%TO.N,Net-(IC1-VDD18)*%
X17500000Y38180000D02*
X17500000Y40650000D01*
X18180000Y37500000D02*
X17500000Y38180000D01*
%TO.N,Net-(IC1-VDD18PLL)*%
X16900000Y47290686D02*
X16900000Y49361028D01*
X16850000Y49411028D02*
X16850000Y50375000D01*
X17000000Y47190686D02*
X17000000Y46350000D01*
X16900000Y49361028D02*
X16850000Y49411028D01*
X17000000Y47190686D02*
X16900000Y47290686D01*
%TO.N,3V3*%
X14250000Y48100000D02*
X16000000Y46350000D01*
X18825000Y39100000D02*
X19050000Y39100000D01*
X30350000Y55000000D02*
X34250000Y55000000D01*
X34250000Y55000000D02*
X36500000Y57250000D01*
X28175000Y57175000D02*
X30350000Y55000000D01*
X18625000Y57175000D02*
X14250000Y52800000D01*
X15150000Y43000000D02*
X12750000Y43000000D01*
X14250000Y52800000D02*
X14250000Y48100000D01*
X36500000Y57250000D02*
X36550000Y57250000D01*
X28000000Y57350000D02*
X28175000Y57175000D01*
X21400000Y43000000D02*
X22100000Y42300000D01*
X18000000Y40650000D02*
X18000000Y39925000D01*
X46825000Y60075000D02*
X46850000Y60050000D01*
X18000000Y39925000D02*
X18825000Y39100000D01*
X20850000Y43000000D02*
X21400000Y43000000D01*
X28175000Y57175000D02*
X18625000Y57175000D01*
%TO.N,SD_CMD*%
X17384000Y36627892D02*
X16696000Y36627892D01*
X16500000Y38180000D02*
X16500000Y37313892D01*
X17448610Y32022804D02*
X17512248Y32086445D01*
X15420000Y34471892D02*
X15420000Y34373892D01*
X16500000Y34667892D02*
X15616000Y34667892D01*
X30173000Y22527000D02*
X30173000Y21577000D01*
X16500000Y33491892D02*
X16500000Y33393892D01*
X15616000Y35157892D02*
X16500000Y35157892D01*
X16696000Y34177892D02*
X17384000Y34177892D01*
X25805003Y23327000D02*
X29373000Y23327000D01*
X16500000Y34177892D02*
X16696000Y34177892D01*
X17384000Y35647892D02*
X16500000Y35647892D01*
X17580000Y34961892D02*
X17580000Y34863892D01*
X17580000Y33981892D02*
X17580000Y33883892D01*
X16500000Y36627892D02*
X15616000Y36627892D01*
X17957726Y31174277D02*
X18101919Y31030084D01*
X16696000Y36627892D02*
X16500000Y36627892D01*
X15420000Y36431892D02*
X15420000Y36333892D01*
X16500000Y35647892D02*
X15616000Y35647892D01*
X18101919Y31030084D02*
X25805003Y23327000D01*
X17936512Y31662180D02*
X17872871Y31598542D01*
X30173000Y21577000D02*
X30827000Y20923000D01*
X29373000Y23327000D02*
X30173000Y22527000D01*
X16500000Y35157892D02*
X17384000Y35157892D01*
X17384000Y34667892D02*
X16500000Y34667892D01*
X17580000Y35941892D02*
X17580000Y35843892D01*
X17872872Y31259130D02*
X17957726Y31174277D01*
X15616000Y36137892D02*
X16500000Y36137892D01*
X16696000Y37117892D02*
X17384000Y37117892D01*
X29550000Y16000000D02*
X29000000Y16000000D01*
X30827000Y20923000D02*
X30827000Y17277000D01*
X16500000Y36137892D02*
X17384000Y36137892D01*
X30827000Y17277000D02*
X29550000Y16000000D01*
X16500000Y33393892D02*
X16500000Y32737061D01*
X16500000Y32737061D02*
X16500000Y32632003D01*
X17580000Y36921892D02*
X17580000Y36823892D01*
X16500000Y32632003D02*
X17109198Y32022805D01*
X17384000Y33687892D02*
X16696000Y33687892D01*
X17851660Y32086444D02*
X17936512Y32001592D01*
X15616000Y34177892D02*
X16500000Y34177892D01*
X15420000Y35451892D02*
X15420000Y35353892D01*
X17384000Y35157892D02*
G75*
G02*
X17579992Y34961892I0J-195992D01*
G01*
X17512248Y32086445D02*
G75*
G02*
X17851706Y32086491I169752J-169745D01*
G01*
X17109198Y32022805D02*
G75*
G03*
X17448605Y32022808I169702J169695D01*
G01*
X15616000Y34667892D02*
G75*
G03*
X15420008Y34471892I0J-195992D01*
G01*
X15616000Y35647892D02*
G75*
G03*
X15420008Y35451892I0J-195992D01*
G01*
X17384000Y36137892D02*
G75*
G02*
X17579992Y35941892I0J-195992D01*
G01*
X17580000Y35843892D02*
G75*
G02*
X17384000Y35647900I-196000J8D01*
G01*
X15420000Y34373892D02*
G75*
G03*
X15616000Y34177900I196000J8D01*
G01*
X17936512Y32001592D02*
G75*
G02*
X17936498Y31662194I-169712J-169692D01*
G01*
X17580000Y36823892D02*
G75*
G02*
X17384000Y36627900I-196000J8D01*
G01*
X17384000Y34177892D02*
G75*
G02*
X17579992Y33981892I0J-195992D01*
G01*
X16696000Y33687892D02*
G75*
G03*
X16500008Y33491892I0J-195992D01*
G01*
X16500000Y37313892D02*
G75*
G03*
X16696000Y37117900I196000J8D01*
G01*
X15616000Y36627892D02*
G75*
G03*
X15420008Y36431892I0J-195992D01*
G01*
X17872871Y31598542D02*
G75*
G03*
X17872835Y31259094I169729J-169742D01*
G01*
X17384000Y37117892D02*
G75*
G02*
X17579992Y36921892I0J-195992D01*
G01*
X17580000Y34863892D02*
G75*
G02*
X17384000Y34667900I-196000J8D01*
G01*
X15420000Y35353892D02*
G75*
G03*
X15616000Y35157900I196000J8D01*
G01*
X15420000Y36333892D02*
G75*
G03*
X15616000Y36137900I196000J8D01*
G01*
X17580000Y33883892D02*
G75*
G02*
X17384000Y33687900I-196000J8D01*
G01*
%TO.N,SD_DAT3*%
X25940451Y23654000D02*
X31015555Y23654000D01*
X23020000Y43550000D02*
X25177000Y41393000D01*
X31800000Y16369555D02*
X31827000Y16342555D01*
X31015555Y23654000D02*
X32100000Y22569555D01*
X25177000Y41393000D02*
X25177000Y33427000D01*
X31827000Y15627000D02*
X31350000Y15150000D01*
X32827000Y20873000D02*
X32827000Y17657445D01*
X25177000Y33427000D02*
X21300000Y29550000D01*
X25850000Y15150000D02*
X25000000Y16000000D01*
X21300000Y28294451D02*
X25940451Y23654000D01*
X32827000Y17657445D02*
X32342555Y17173000D01*
X32100000Y21600000D02*
X32827000Y20873000D01*
X31350000Y15150000D02*
X25850000Y15150000D01*
X32342555Y17173000D02*
X32323000Y17173000D01*
X31800000Y16650000D02*
X31800000Y16369555D01*
X32323000Y17173000D02*
X31800000Y16650000D01*
X21300000Y29550000D02*
X21300000Y28294451D01*
X31827000Y16342555D02*
X31827000Y15627000D01*
X32100000Y22569555D02*
X32100000Y21600000D01*
%TO.N,USB_RBIAS*%
X16500000Y47125000D02*
X16150000Y47475000D01*
X16500000Y46350000D02*
X16500000Y47125000D01*
X16150000Y47475000D02*
X16150000Y48425000D01*
%TO.N,SD_WP*%
X19000000Y47500000D02*
X19000000Y46350000D01*
X19600000Y48100000D02*
X19000000Y47500000D01*
X22760000Y48100000D02*
X19600000Y48100000D01*
X22810000Y48150000D02*
X22760000Y48100000D01*
%TO.N,SD_DAT0*%
X11250000Y37603852D02*
X11058000Y37603852D01*
X11570190Y37923757D02*
X11570190Y37763947D01*
X11250000Y36387552D02*
X11308119Y36329433D01*
X10323347Y40291852D02*
X10323347Y40195852D01*
X24730445Y21600000D02*
X26069555Y21600000D01*
X12176650Y39811852D02*
X12176650Y39715852D01*
X10323350Y39331852D02*
X10323350Y39235852D01*
X10515351Y38083852D02*
X11250000Y38083852D01*
X10515347Y37123852D02*
X11058000Y37123852D01*
X11308119Y36329433D02*
X15114552Y32523000D01*
X11250000Y39523852D02*
X10515350Y39523852D01*
X11442000Y40963852D02*
X11984653Y40963852D01*
X11058000Y37603852D02*
X10515347Y37603852D01*
X11442000Y40483852D02*
X11250000Y40483852D01*
X10515347Y40003852D02*
X11250000Y40003852D01*
X11410095Y37603852D02*
X11250000Y37603852D01*
X24173000Y22157445D02*
X24730445Y21600000D01*
X10323347Y37411852D02*
X10323347Y37315852D01*
X24173000Y22842555D02*
X24173000Y22157445D01*
X11984653Y40483852D02*
X11442000Y40483852D01*
X24078554Y22937001D02*
X24173000Y22842555D01*
X11570226Y38883739D02*
X11570226Y38723965D01*
X11410113Y38563852D02*
X11250000Y38563852D01*
X15114552Y32523000D02*
X15684107Y32523000D01*
X11250000Y40003852D02*
X11984650Y40003852D01*
X27150000Y18850000D02*
X28000000Y18000000D01*
X11984650Y39523852D02*
X11250000Y39523852D01*
X11250000Y38083852D02*
X11410095Y38083852D01*
X26069555Y21600000D02*
X27150000Y20519555D01*
X11250000Y38563852D02*
X10515351Y38563852D01*
X12176653Y40771852D02*
X12176653Y40675852D01*
X11250000Y36931852D02*
X11250000Y36835852D01*
X11250000Y40483852D02*
X10515347Y40483852D01*
X11250000Y42280000D02*
X11250000Y41155852D01*
X27150000Y20519555D02*
X27150000Y18850000D01*
X11250000Y36835852D02*
X11250000Y36387552D01*
X11250000Y39043852D02*
X11410113Y39043852D01*
X10515350Y39043852D02*
X11250000Y39043852D01*
X10323351Y38371852D02*
X10323351Y38275852D01*
X24078554Y24128553D02*
X24078554Y22937001D01*
X15684107Y32523000D02*
X24078554Y24128553D01*
X10515347Y40483852D02*
G75*
G03*
X10323348Y40291852I-47J-191952D01*
G01*
X10323350Y39235852D02*
G75*
G03*
X10515350Y39043950I191950J48D01*
G01*
X10323351Y38275852D02*
G75*
G03*
X10515351Y38083951I191949J48D01*
G01*
X10515350Y39523852D02*
G75*
G03*
X10323348Y39331852I-50J-191952D01*
G01*
X11984650Y40003852D02*
G75*
G02*
X12176652Y39811852I50J-191952D01*
G01*
X11410113Y39043852D02*
G75*
G02*
X11570252Y38883739I-13J-160152D01*
G01*
X11984653Y40963852D02*
G75*
G02*
X12176652Y40771852I47J-191952D01*
G01*
X10323347Y37315852D02*
G75*
G03*
X10515347Y37123947I191953J48D01*
G01*
X11570190Y37763947D02*
G75*
G02*
X11410095Y37603810I-160090J-47D01*
G01*
X12176653Y40675852D02*
G75*
G02*
X11984653Y40483947I-191953J48D01*
G01*
X11058000Y37123852D02*
G75*
G02*
X11249952Y36931852I0J-191952D01*
G01*
X10323347Y40195852D02*
G75*
G03*
X10515347Y40003947I191953J48D01*
G01*
X11410095Y38083852D02*
G75*
G02*
X11570152Y37923757I5J-160052D01*
G01*
X11570226Y38723965D02*
G75*
G02*
X11410113Y38563874I-160126J35D01*
G01*
X10515351Y38563852D02*
G75*
G03*
X10323348Y38371852I-51J-191952D01*
G01*
X12176650Y39715852D02*
G75*
G02*
X11984650Y39523950I-191950J48D01*
G01*
X10515347Y37603852D02*
G75*
G03*
X10323348Y37411852I-47J-191952D01*
G01*
X11250000Y41155852D02*
G75*
G03*
X11442000Y40963900I192000J48D01*
G01*
%TO.N,CARD_PRESENT*%
X34827000Y35156260D02*
X34827000Y20127000D01*
X32154000Y15491552D02*
X31462448Y14800000D01*
X31462448Y14800000D02*
X17030445Y14800000D01*
X33154000Y17323555D02*
X32154000Y16323555D01*
X17030445Y14800000D02*
X16000000Y15830445D01*
X20850000Y45000000D02*
X24983260Y45000000D01*
X16000000Y15830445D02*
X16000000Y18000000D01*
X33154000Y18808000D02*
X33154000Y17323555D01*
X33546000Y19200000D02*
X33154000Y18808000D01*
X32154000Y16323555D02*
X32154000Y15491552D01*
X24983260Y45000000D02*
X34827000Y35156260D01*
X34827000Y20127000D02*
X33900000Y19200000D01*
X33900000Y19200000D02*
X33546000Y19200000D01*
%TO.N,SD_DAT2*%
X26967959Y41837165D02*
X26340000Y41837165D01*
X25542035Y40397165D02*
X25542035Y40277165D01*
X25782035Y38837165D02*
X26100000Y38837165D01*
X26967948Y33437165D02*
X26340000Y33437165D01*
X26100000Y34637165D02*
X25782047Y34637165D01*
X25542035Y41597165D02*
X25542035Y41477165D01*
X25782035Y40037165D02*
X26100000Y40037165D01*
X26100000Y37637165D02*
X26967959Y37637165D01*
X27207959Y42197165D02*
X27207959Y42077165D01*
X26340000Y42437165D02*
X26967959Y42437165D01*
X26100000Y35237165D02*
X26967959Y35237165D01*
X25542047Y36797165D02*
X25542047Y36677165D01*
X26100000Y40637165D02*
X25782035Y40637165D01*
X24700000Y44500000D02*
X24750000Y44500000D01*
X27207959Y39797165D02*
X27207959Y39677165D01*
X27207959Y36197165D02*
X27207959Y36077165D01*
X26100000Y32450000D02*
X21994871Y28344871D01*
X25782035Y41237165D02*
X26100000Y41237165D01*
X26967959Y38237165D02*
X26100000Y38237165D01*
X25173000Y18827000D02*
X26000000Y18000000D01*
X26100000Y43150000D02*
X26100000Y42677165D01*
X26100000Y40037165D02*
X26967959Y40037165D01*
X26100000Y37037165D02*
X25782047Y37037165D01*
X26100000Y36437165D02*
X26967959Y36437165D01*
X25782035Y37637165D02*
X26100000Y37637165D01*
X27207948Y33797165D02*
X27207948Y33677165D01*
X25542047Y34397165D02*
X25542047Y34277165D01*
X26100000Y41837165D02*
X25782035Y41837165D01*
X26967959Y40637165D02*
X26100000Y40637165D01*
X25173000Y20496555D02*
X25173000Y18827000D01*
X26100000Y35837165D02*
X25782047Y35837165D01*
X26967959Y34637165D02*
X26100000Y34637165D01*
X27207959Y40997165D02*
X27207959Y40877165D01*
X25782047Y34037165D02*
X26100000Y34037165D01*
X26100000Y38237165D02*
X25782035Y38237165D01*
X26100000Y38837165D02*
X26967959Y38837165D01*
X26967959Y35837165D02*
X26100000Y35837165D01*
X25542035Y39197165D02*
X25542035Y39077165D01*
X26100000Y39437165D02*
X25782035Y39437165D01*
X26967959Y39437165D02*
X26100000Y39437165D01*
X26100000Y34037165D02*
X26340000Y34037165D01*
X20555908Y26905908D02*
X20555908Y25113647D01*
X26100000Y41237165D02*
X26967959Y41237165D01*
X25782047Y36437165D02*
X26100000Y36437165D01*
X25782047Y35237165D02*
X26100000Y35237165D01*
X25542047Y35597165D02*
X25542047Y35477165D01*
X27207959Y38597165D02*
X27207959Y38477165D01*
X27207959Y34997165D02*
X27207959Y34877165D01*
X26340000Y41837165D02*
X26100000Y41837165D01*
X26100000Y32500000D02*
X26100000Y32450000D01*
X26100000Y33077165D02*
X26100000Y32500000D01*
X27207959Y37397165D02*
X27207959Y37277165D01*
X26340000Y34037165D02*
X26967948Y34037165D01*
X24750000Y44500000D02*
X26100000Y43150000D01*
X25542035Y37997165D02*
X25542035Y37877165D01*
X20555908Y25113647D02*
X25173000Y20496555D01*
X26967959Y37037165D02*
X26100000Y37037165D01*
X26100000Y33197165D02*
X26100000Y33077165D01*
X26967959Y38837165D02*
G75*
G02*
X27207965Y38597165I41J-239965D01*
G01*
X26967959Y36437165D02*
G75*
G02*
X27207965Y36197165I41J-239965D01*
G01*
X27207959Y39677165D02*
G75*
G02*
X26967959Y39437241I-239959J35D01*
G01*
X25782035Y39437165D02*
G75*
G03*
X25542035Y39197165I-35J-239965D01*
G01*
X27207959Y42077165D02*
G75*
G02*
X26967959Y41837241I-239959J35D01*
G01*
X27207959Y38477165D02*
G75*
G02*
X26967959Y38237241I-239959J35D01*
G01*
X26100000Y42677165D02*
G75*
G03*
X26340000Y42437200I240000J35D01*
G01*
X25542047Y36677165D02*
G75*
G03*
X25782047Y36437247I239953J35D01*
G01*
X26967959Y41237165D02*
G75*
G02*
X27207965Y40997165I41J-239965D01*
G01*
X27207959Y37277165D02*
G75*
G02*
X26967959Y37037241I-239959J35D01*
G01*
X26967959Y42437165D02*
G75*
G02*
X27207965Y42197165I41J-239965D01*
G01*
X25542035Y40277165D02*
G75*
G03*
X25782035Y40037235I239965J35D01*
G01*
X26340000Y33437165D02*
G75*
G03*
X26100035Y33197165I0J-239965D01*
G01*
X27207959Y40877165D02*
G75*
G02*
X26967959Y40637241I-239959J35D01*
G01*
X25782035Y41837165D02*
G75*
G03*
X25542035Y41597165I-35J-239965D01*
G01*
X26967948Y34037165D02*
G75*
G02*
X27207865Y33797165I-48J-239965D01*
G01*
X25542035Y41477165D02*
G75*
G03*
X25782035Y41237235I239965J35D01*
G01*
X25782035Y38237165D02*
G75*
G03*
X25542035Y37997165I-35J-239965D01*
G01*
X25782035Y40637165D02*
G75*
G03*
X25542035Y40397165I-35J-239965D01*
G01*
X25542047Y34277165D02*
G75*
G03*
X25782047Y34037247I239953J35D01*
G01*
X27207948Y33677165D02*
G75*
G02*
X26967948Y33437152I-240048J35D01*
G01*
X25782047Y35837165D02*
G75*
G03*
X25542035Y35597165I-47J-239965D01*
G01*
X27207959Y36077165D02*
G75*
G02*
X26967959Y35837241I-239959J35D01*
G01*
X27207959Y34877165D02*
G75*
G02*
X26967959Y34637241I-239959J35D01*
G01*
X25542035Y37877165D02*
G75*
G03*
X25782035Y37637235I239965J35D01*
G01*
X25782047Y37037165D02*
G75*
G03*
X25542035Y36797165I-47J-239965D01*
G01*
X26967959Y37637165D02*
G75*
G02*
X27207965Y37397165I41J-239965D01*
G01*
X25542035Y39077165D02*
G75*
G03*
X25782035Y38837235I239965J35D01*
G01*
X26967959Y35237165D02*
G75*
G02*
X27207965Y34997165I41J-239965D01*
G01*
X25542047Y35477165D02*
G75*
G03*
X25782047Y35237247I239953J35D01*
G01*
X26967959Y40037165D02*
G75*
G02*
X27207965Y39797165I41J-239965D01*
G01*
X25782047Y34637165D02*
G75*
G03*
X25542035Y34397165I-47J-239965D01*
G01*
%TO.N,D-*%
X10000000Y56000000D02*
X10000000Y44500000D01*
X12000000Y58000000D02*
X10000000Y56000000D01*
X12750000Y61700000D02*
X12750000Y60250000D01*
X12000000Y59500000D02*
X12000000Y58000000D01*
X10000000Y44500000D02*
X15150000Y44500000D01*
X12750000Y60250000D02*
X12000000Y59500000D01*
%TO.N,D+*%
X13000000Y62450000D02*
X13750000Y61700000D01*
X11000000Y45250000D02*
X11000000Y56000000D01*
X13750000Y61700000D02*
X13750000Y60250000D01*
X11000000Y45250000D02*
X11250000Y45000000D01*
X11000000Y56000000D02*
X13000000Y58000000D01*
X11250000Y45000000D02*
X15150000Y45000000D01*
X13000000Y63000000D02*
X13000000Y62450000D01*
X13750000Y60250000D02*
X13000000Y59500000D01*
X13000000Y59500000D02*
X13000000Y58000000D01*
%TO.N,SD_CLK*%
X11970000Y38050077D02*
X11970000Y37970077D01*
X12130000Y37810077D02*
X12850000Y37810077D01*
X12850000Y37410077D02*
X12130000Y37410077D01*
X12690000Y36610077D02*
X12130000Y36610077D01*
X13010000Y39010077D02*
X12850000Y39010077D01*
X15250000Y32850000D02*
X15819555Y32850000D01*
X14179926Y33920074D02*
X14362797Y33737203D01*
X14362797Y33737203D02*
X15250000Y32850000D01*
X13570000Y37410077D02*
X12850000Y37410077D01*
X12850000Y35250000D02*
X13331398Y34768602D01*
X26980445Y21350000D02*
X28319555Y21350000D01*
X13570000Y39010077D02*
X13010000Y39010077D01*
X13570000Y38210077D02*
X12850000Y38210077D01*
X13730000Y39250077D02*
X13730000Y39170077D01*
X12850000Y40525000D02*
X12850000Y39570077D01*
X13010000Y39410077D02*
X13570000Y39410077D01*
X14095072Y34004927D02*
X14179926Y33920074D01*
X12850000Y36610077D02*
X12690000Y36610077D01*
X11970000Y36450077D02*
X11970000Y36370077D01*
X26173000Y22157445D02*
X26980445Y21350000D01*
X12850000Y38610077D02*
X13570000Y38610077D01*
X13730000Y38450077D02*
X13730000Y38370077D01*
X28319555Y21350000D02*
X29173000Y20496555D01*
X12850000Y35970077D02*
X12850000Y35470267D01*
X13570000Y36610077D02*
X12850000Y36610077D01*
X12130000Y36210077D02*
X12690000Y36210077D01*
X11970000Y38850077D02*
X11970000Y38770077D01*
X12850000Y36050077D02*
X12850000Y35970077D01*
X26173000Y22496555D02*
X26173000Y22157445D01*
X12130000Y37010077D02*
X12850000Y37010077D01*
X13730000Y36850077D02*
X13730000Y36770077D01*
X12130000Y38610077D02*
X12850000Y38610077D01*
X14420342Y34669607D02*
X14095071Y34344339D01*
X12850000Y38210077D02*
X12130000Y38210077D01*
X13670810Y34768601D02*
X13996078Y35093872D01*
X14335490Y35093871D02*
X14420342Y35009019D01*
X12850000Y37010077D02*
X13570000Y37010077D01*
X12850000Y37810077D02*
X13570000Y37810077D01*
X29173000Y20496555D02*
X29173000Y18827000D01*
X11970000Y37250077D02*
X11970000Y37170077D01*
X13730000Y37650077D02*
X13730000Y37570077D01*
X29173000Y18827000D02*
X30000000Y18000000D01*
X12850000Y35470267D02*
X12850000Y35250000D01*
X15819555Y32850000D02*
X26173000Y22496555D01*
X12850000Y39010077D02*
X12130000Y39010077D01*
X12130000Y38210077D02*
G75*
G03*
X11970023Y38050077I0J-159977D01*
G01*
X13570000Y39410077D02*
G75*
G02*
X13729977Y39250077I0J-159977D01*
G01*
X13570000Y37010077D02*
G75*
G02*
X13729977Y36850077I0J-159977D01*
G01*
X13730000Y37570077D02*
G75*
G02*
X13570000Y37410100I-160000J23D01*
G01*
X13331398Y34768602D02*
G75*
G03*
X13670805Y34768605I169702J169698D01*
G01*
X13570000Y37810077D02*
G75*
G02*
X13729977Y37650077I0J-159977D01*
G01*
X12130000Y39010077D02*
G75*
G03*
X11970023Y38850077I0J-159977D01*
G01*
X12850000Y39570077D02*
G75*
G03*
X13010000Y39410100I160000J23D01*
G01*
X13730000Y38370077D02*
G75*
G02*
X13570000Y38210100I-160000J23D01*
G01*
X11970000Y38770077D02*
G75*
G03*
X12130000Y38610100I160000J23D01*
G01*
X12130000Y36610077D02*
G75*
G03*
X11970023Y36450077I0J-159977D01*
G01*
X11970000Y37970077D02*
G75*
G03*
X12130000Y37810100I160000J23D01*
G01*
X11970000Y36370077D02*
G75*
G03*
X12130000Y36210100I160000J23D01*
G01*
X12690000Y36210077D02*
G75*
G02*
X12849977Y36050077I0J-159977D01*
G01*
X14420342Y35009019D02*
G75*
G02*
X14420355Y34669594I-169742J-169719D01*
G01*
X13730000Y39170077D02*
G75*
G02*
X13570000Y39010100I-160000J23D01*
G01*
X13570000Y38610077D02*
G75*
G02*
X13729977Y38450077I0J-159977D01*
G01*
X11970000Y37170077D02*
G75*
G03*
X12130000Y37010100I160000J23D01*
G01*
X14095071Y34344339D02*
G75*
G03*
X14095038Y34004894I169729J-169739D01*
G01*
X13730000Y36770077D02*
G75*
G02*
X13570000Y36610100I-160000J23D01*
G01*
X13996078Y35093872D02*
G75*
G02*
X14335507Y35093888I169722J-169672D01*
G01*
X12130000Y37410077D02*
G75*
G03*
X11970023Y37250077I0J-159977D01*
G01*
%TO.N,SD_DAT1*%
X9438000Y40092314D02*
X9715159Y40092314D01*
X26173000Y16827000D02*
X27000000Y16000000D01*
X9438000Y40562314D02*
X9250000Y40562314D01*
X22616324Y16827000D02*
X26173000Y16827000D01*
X9438000Y41032314D02*
X9715159Y41032314D01*
X8596812Y40374314D02*
X8596812Y40280314D01*
X8784812Y40092314D02*
X9250000Y40092314D01*
X16442555Y18827000D02*
X20616324Y18827000D01*
X9250000Y39340314D02*
X9250000Y38600000D01*
X9903159Y40844314D02*
X9903159Y40750314D01*
X9715159Y40562314D02*
X9438000Y40562314D01*
X9250000Y26019555D02*
X16442555Y18827000D01*
X9903159Y39904314D02*
X9903159Y39810314D01*
X20616324Y18827000D02*
X22616324Y16827000D01*
X9250000Y39434314D02*
X9250000Y39340314D01*
X9250000Y38600000D02*
X9250000Y26019555D01*
X9250000Y42280000D02*
X9250000Y41220314D01*
X9250000Y40562314D02*
X8784812Y40562314D01*
X9250000Y40092314D02*
X9438000Y40092314D01*
X9715159Y39622314D02*
X9438000Y39622314D01*
X8784812Y40562314D02*
G75*
G03*
X8596786Y40374314I-12J-188014D01*
G01*
X9715159Y41032314D02*
G75*
G02*
X9903214Y40844314I41J-188014D01*
G01*
X9250000Y41220314D02*
G75*
G03*
X9438000Y41032300I188000J-14D01*
G01*
X9438000Y39622314D02*
G75*
G03*
X9249986Y39434314I0J-188014D01*
G01*
X9715159Y40092314D02*
G75*
G02*
X9903214Y39904314I41J-188014D01*
G01*
X8596812Y40280314D02*
G75*
G03*
X8784812Y40092312I187988J-14D01*
G01*
X9903159Y40750314D02*
G75*
G02*
X9715159Y40562341I-187959J-14D01*
G01*
X9903159Y39810314D02*
G75*
G02*
X9715159Y39622341I-187959J-14D01*
G01*
%TO.N,Net-(IC1-RESET_N)*%
X21850000Y40650000D02*
X23450000Y39050000D01*
X20000000Y40650000D02*
X21850000Y40650000D01*
%TO.N,VCC*%
X17000000Y59500000D02*
X22900000Y59500000D01*
X6550000Y53012448D02*
X5712448Y53012448D01*
X14500000Y62450000D02*
X14750000Y62200000D01*
X11750000Y60250000D02*
X11673000Y60173000D01*
X14500000Y63000000D02*
X14500000Y62450000D01*
X16500000Y59500000D02*
X17000000Y59500000D01*
X33000000Y12650000D02*
X33000000Y16000000D01*
X6550000Y53012448D02*
X6550000Y43800000D01*
X14750000Y61250000D02*
X16500000Y59500000D01*
X14750000Y61700000D02*
X14750000Y61750000D01*
X30500000Y10150000D02*
X33000000Y12650000D01*
X10950000Y10150000D02*
X30500000Y10150000D01*
X11673000Y58135448D02*
X6550000Y53012448D01*
X11750000Y61700000D02*
X11750000Y61750000D01*
X11750000Y61700000D02*
X11750000Y60250000D01*
X11750000Y61750000D02*
X11750000Y61700000D01*
X22900000Y59500000D02*
X25000000Y61600000D01*
X11673000Y60173000D02*
X11673000Y58135448D01*
X6550000Y14550000D02*
X10950000Y10150000D01*
X14750000Y61750000D02*
X14750000Y61250000D01*
X14750000Y62200000D02*
X14750000Y61700000D01*
X6550000Y43800000D02*
X6550000Y14550000D01*
X5712448Y53012448D02*
X3550000Y50850000D01*
%TO.N,Net-(J2-CC1)*%
X16165000Y57000000D02*
X16165000Y59185000D01*
X16165000Y59185000D02*
X14250000Y61100000D01*
X14250000Y61100000D02*
X14250000Y61700000D01*
%TO.N,Net-(J2-CC2)*%
X9025000Y59525000D02*
X9750000Y60250000D01*
X9750000Y60250000D02*
X9750000Y62154000D01*
X9946000Y62350000D02*
X12304000Y62350000D01*
X12500000Y62546000D02*
X12500000Y63000000D01*
X9025000Y57000000D02*
X9025000Y59525000D01*
X9750000Y62154000D02*
X9946000Y62350000D01*
X12304000Y62350000D02*
X12500000Y62546000D01*
%TO.N,SUPPLY*%
X33727207Y18000000D02*
X34000000Y18000000D01*
X40830000Y18000000D02*
X41280000Y18450000D01*
X34000000Y18000000D02*
X40830000Y18000000D01*
%TO.N,Net-(IC1-SD_CMD)*%
X16500000Y40650000D02*
X16500000Y38820000D01*
%TO.N,Net-(IC1-SD_D3)*%
X22330000Y43500000D02*
X22380000Y43550000D01*
X20850000Y43500000D02*
X22330000Y43500000D01*
%TO.N,Net-(IC1-SD_CLK)*%
X13185000Y41500000D02*
X12850000Y41165000D01*
X15150000Y41500000D02*
X13185000Y41500000D01*
%TO.N,Net-(IC1-SD_D2)*%
X20850000Y44500000D02*
X24060000Y44500000D01*
%TO.N,Net-(IC1-SD_D0)*%
X15150000Y43500000D02*
X15123000Y43527000D01*
X11857000Y43527000D02*
X11250000Y42920000D01*
X15123000Y43527000D02*
X11857000Y43527000D01*
%TO.N,Net-(IC1-SD_D1)*%
X10330000Y44000000D02*
X9250000Y42920000D01*
X15150000Y44000000D02*
X10330000Y44000000D01*
%TD*%
%TA.AperFunction,Conductor*%
%TO.N,3V3*%
G36*
X44680567Y67380315D02*
G01*
X44726322Y67327511D01*
X44736266Y67258353D01*
X44729712Y67232675D01*
X44658152Y67040815D01*
X44658151Y67040812D01*
X44658150Y67040808D01*
X44599935Y66773196D01*
X44599934Y66773189D01*
X44580395Y66500002D01*
X44580395Y66499999D01*
X44599934Y66226812D01*
X44599935Y66226805D01*
X44657337Y65962932D01*
X44658152Y65959185D01*
X44753866Y65702567D01*
X44753868Y65702562D01*
X44885122Y65462189D01*
X44885127Y65462181D01*
X45049252Y65242934D01*
X45049268Y65242916D01*
X45242915Y65049269D01*
X45242933Y65049253D01*
X45462180Y64885128D01*
X45462188Y64885123D01*
X45702561Y64753869D01*
X45702560Y64753869D01*
X45702564Y64753868D01*
X45702567Y64753866D01*
X45959185Y64658152D01*
X46226812Y64599934D01*
X46480460Y64581793D01*
X46499999Y64580395D01*
X46500000Y64580395D01*
X46500001Y64580395D01*
X46518235Y64581700D01*
X46773188Y64599934D01*
X47040815Y64658152D01*
X47297433Y64753866D01*
X47537817Y64885126D01*
X47757074Y65049259D01*
X47950741Y65242926D01*
X48114874Y65462183D01*
X48246134Y65702567D01*
X48341848Y65959185D01*
X48400066Y66226812D01*
X48419605Y66500000D01*
X48400066Y66773188D01*
X48341848Y67040815D01*
X48270289Y67232670D01*
X48265306Y67302358D01*
X48298791Y67363681D01*
X48360114Y67397166D01*
X48386472Y67400000D01*
X48875500Y67400000D01*
X48942539Y67380315D01*
X48988294Y67327511D01*
X48999500Y67276000D01*
X48999500Y57274000D01*
X48979815Y57206961D01*
X48927011Y57161206D01*
X48875500Y57150000D01*
X35973394Y57150000D01*
X35906355Y57169685D01*
X35860600Y57222489D01*
X35849395Y57273392D01*
X35800366Y67275392D01*
X35819722Y67342527D01*
X35872301Y67388541D01*
X35924365Y67400000D01*
X44613528Y67400000D01*
X44680567Y67380315D01*
G37*
%TD.AperFunction*%
%TD*%
%TA.AperFunction,Conductor*%
%TO.N,GND*%
G36*
X29493039Y68330315D02*
G01*
X29538794Y68277511D01*
X29550000Y68226000D01*
X29550000Y63374000D01*
X29530315Y63306961D01*
X29477511Y63261206D01*
X29426000Y63250000D01*
X29100000Y63250000D01*
X29100000Y61900000D01*
X29226437Y61900000D01*
X29261373Y61894977D01*
X29269628Y61892553D01*
X29269630Y61892552D01*
X29336669Y61872867D01*
X29374000Y61867500D01*
X29374002Y61867500D01*
X31026000Y61867500D01*
X31093039Y61847815D01*
X31138794Y61795011D01*
X31150000Y61743500D01*
X31150000Y60850000D01*
X34276000Y60850000D01*
X34343039Y60830315D01*
X34388794Y60777511D01*
X34400000Y60726000D01*
X34400000Y57324000D01*
X34380315Y57256961D01*
X34327511Y57211206D01*
X34276000Y57200000D01*
X30374000Y57200000D01*
X30306961Y57219685D01*
X30261206Y57272489D01*
X30250000Y57324000D01*
X30250000Y61500000D01*
X29200000Y61500000D01*
X29200000Y61372827D01*
X29198405Y61356640D01*
X29198597Y61356621D01*
X29198000Y61350559D01*
X29198000Y61025438D01*
X29198597Y61019375D01*
X29198405Y61019357D01*
X29200000Y61003173D01*
X29200000Y60872827D01*
X29198405Y60856640D01*
X29198597Y60856621D01*
X29198000Y60850559D01*
X29198000Y60525438D01*
X29198597Y60519375D01*
X29198405Y60519357D01*
X29200000Y60503173D01*
X29200000Y60224000D01*
X29180315Y60156961D01*
X29127511Y60111206D01*
X29076000Y60100000D01*
X28524000Y60100000D01*
X28456961Y60119685D01*
X28411206Y60172489D01*
X28400000Y60224000D01*
X28400000Y61476438D01*
X28405023Y61511375D01*
X28407446Y61519628D01*
X28407448Y61519630D01*
X28427133Y61586669D01*
X28432500Y61624000D01*
X28432500Y62426000D01*
X28429472Y62454166D01*
X28418266Y62505677D01*
X28418265Y62505679D01*
X28418265Y62505680D01*
X28413116Y62515967D01*
X28400000Y62571470D01*
X28400000Y63250000D01*
X28074000Y63250000D01*
X28006961Y63269685D01*
X27961206Y63322489D01*
X27950000Y63374000D01*
X27950000Y68226000D01*
X27969685Y68293039D01*
X28022489Y68338794D01*
X28074000Y68350000D01*
X29426000Y68350000D01*
X29493039Y68330315D01*
G37*
%TD.AperFunction*%
%TD*%
%TA.AperFunction,Conductor*%
%TO.N,3V3*%
G36*
X28193039Y60830315D02*
G01*
X28238794Y60777511D01*
X28250000Y60726000D01*
X28250000Y57324000D01*
X28230315Y57256961D01*
X28177511Y57211206D01*
X28126000Y57200000D01*
X27524000Y57200000D01*
X27456961Y57219685D01*
X27411206Y57272489D01*
X27400000Y57324000D01*
X27400000Y60726000D01*
X27419685Y60793039D01*
X27472489Y60838794D01*
X27524000Y60850000D01*
X28126000Y60850000D01*
X28193039Y60830315D01*
G37*
%TD.AperFunction*%
%TD*%
%TA.AperFunction,Conductor*%
%TO.N,Net-(IC2-VCC)*%
G36*
X28193039Y61330315D02*
G01*
X28238794Y61277511D01*
X28250000Y61226000D01*
X28250000Y61124000D01*
X28230315Y61056961D01*
X28177511Y61011206D01*
X28126000Y61000000D01*
X26600000Y61000000D01*
X26600000Y60874000D01*
X26580315Y60806961D01*
X26527511Y60761206D01*
X26476000Y60750000D01*
X25774000Y60750000D01*
X25706961Y60769685D01*
X25661206Y60822489D01*
X25650000Y60874000D01*
X25650000Y61226000D01*
X25669685Y61293039D01*
X25722489Y61338794D01*
X25774000Y61350000D01*
X28126000Y61350000D01*
X28193039Y61330315D01*
G37*
%TD.AperFunction*%
%TD*%
%TA.AperFunction,Conductor*%
%TO.N,Net-(IC2-LX)*%
G36*
X33943039Y67330315D02*
G01*
X33988794Y67277511D01*
X34000000Y67226000D01*
X34000000Y62124000D01*
X33980315Y62056961D01*
X33927511Y62011206D01*
X33876000Y62000000D01*
X29374000Y62000000D01*
X29306961Y62019685D01*
X29261206Y62072489D01*
X29250000Y62124000D01*
X29250000Y62876000D01*
X29269685Y62943039D01*
X29322489Y62988794D01*
X29374000Y63000000D01*
X29700000Y63000000D01*
X29700000Y67226000D01*
X29719685Y67293039D01*
X29772489Y67338794D01*
X29824000Y67350000D01*
X33876000Y67350000D01*
X33943039Y67330315D01*
G37*
%TD.AperFunction*%
%TD*%
%TA.AperFunction,Conductor*%
%TO.N,VCC*%
G36*
X26443039Y68430315D02*
G01*
X26488794Y68377511D01*
X26500000Y68326000D01*
X26500000Y62550000D01*
X28176000Y62550000D01*
X28243039Y62530315D01*
X28288794Y62477511D01*
X28300000Y62426000D01*
X28300000Y61624000D01*
X28280315Y61556961D01*
X28227511Y61511206D01*
X28176000Y61500000D01*
X24974000Y61500000D01*
X24906961Y61519685D01*
X24861206Y61572489D01*
X24850000Y61624000D01*
X24850000Y68326000D01*
X24869685Y68393039D01*
X24922489Y68438794D01*
X24974000Y68450000D01*
X26376000Y68450000D01*
X26443039Y68430315D01*
G37*
%TD.AperFunction*%
%TD*%
M02*
