%TF.GenerationSoftware,KiCad,Pcbnew,8.0.8*%
%TF.CreationDate,2025-07-23T18:15:36+02:00*%
%TF.ProjectId,CartridgeMk3ReaderMk6,43617274-7269-4646-9765-4d6b33526561,rev?*%
%TF.SameCoordinates,PX30a32c0PY5466720*%
%TF.FileFunction,Soldermask,Top*%
%TF.FilePolarity,Negative*%
%FSLAX46Y46*%
G04 Gerber Fmt 4.6, Leading zero omitted, Abs format (unit mm)*
G04 Created by KiCad (PCBNEW 8.0.8) date 2025-07-23 18:15:36*
%MOMM*%
%LPD*%
G01*
G04 APERTURE LIST*
G04 Aperture macros list*
%AMRoundRect*
0 Rectangle with rounded corners*
0 $1 Rounding radius*
0 $2 $3 $4 $5 $6 $7 $8 $9 X,Y pos of 4 corners*
0 Add a 4 corners polygon primitive as box body*
4,1,4,$2,$3,$4,$5,$6,$7,$8,$9,$2,$3,0*
0 Add four circle primitives for the rounded corners*
1,1,$1+$1,$2,$3*
1,1,$1+$1,$4,$5*
1,1,$1+$1,$6,$7*
1,1,$1+$1,$8,$9*
0 Add four rect primitives between the rounded corners*
20,1,$1+$1,$2,$3,$4,$5,0*
20,1,$1+$1,$4,$5,$6,$7,0*
20,1,$1+$1,$6,$7,$8,$9,0*
20,1,$1+$1,$8,$9,$2,$3,0*%
G04 Aperture macros list end*
%ADD10RoundRect,0.100000X0.100000X-0.130000X0.100000X0.130000X-0.100000X0.130000X-0.100000X-0.130000X0*%
%ADD11RoundRect,0.100000X-0.130000X-0.100000X0.130000X-0.100000X0.130000X0.100000X-0.130000X0.100000X0*%
%ADD12C,3.000000*%
%ADD13RoundRect,0.250000X-0.325000X-0.650000X0.325000X-0.650000X0.325000X0.650000X-0.325000X0.650000X0*%
%ADD14R,1.050000X0.300000*%
%ADD15R,0.300000X1.050000*%
%ADD16R,4.200000X4.200000*%
%ADD17R,1.550000X4.500000*%
%ADD18RoundRect,0.100000X-0.100000X0.130000X-0.100000X-0.130000X0.100000X-0.130000X0.100000X0.130000X0*%
%ADD19C,2.350000*%
%ADD20R,1.200000X1.200000*%
%ADD21C,1.200000*%
%ADD22R,1.000000X0.900000*%
%ADD23R,0.300000X0.700000*%
%ADD24R,1.000000X0.700000*%
%ADD25O,1.100000X2.100000*%
%ADD26O,1.100000X2.600000*%
%ADD27RoundRect,0.250000X0.325000X0.650000X-0.325000X0.650000X-0.325000X-0.650000X0.325000X-0.650000X0*%
%ADD28R,0.825000X0.300000*%
%ADD29R,0.725000X0.300000*%
%ADD30RoundRect,0.100000X0.130000X0.100000X-0.130000X0.100000X-0.130000X-0.100000X0.130000X-0.100000X0*%
G04 APERTURE END LIST*
D10*
%TO.C,R3*%
X16150000Y48425000D03*
X16150000Y49065000D03*
%TD*%
D11*
%TO.C,R4*%
X22810000Y48150000D03*
X23450000Y48150000D03*
%TD*%
D12*
%TO.C,TP3*%
X46850000Y59900000D03*
%TD*%
D10*
%TO.C,C4*%
X16850000Y50375000D03*
X16850000Y51015000D03*
%TD*%
D13*
%TO.C,C6*%
X33725000Y59800000D03*
X36675000Y59800000D03*
%TD*%
D10*
%TO.C,R8*%
X16500000Y38180000D03*
X16500000Y38820000D03*
%TD*%
D14*
%TO.C,IC1*%
X15150000Y45500000D03*
X15150000Y45000000D03*
X15150000Y44500000D03*
X15150000Y44000000D03*
X15150000Y43500000D03*
X15150000Y43000000D03*
X15150000Y42500000D03*
X15150000Y42000000D03*
X15150000Y41500000D03*
D15*
X16000000Y40650000D03*
X16500000Y40650000D03*
X17000000Y40650000D03*
X17500000Y40650000D03*
X18000000Y40650000D03*
X18500000Y40650000D03*
X19000000Y40650000D03*
X19500000Y40650000D03*
X20000000Y40650000D03*
D14*
X20850000Y41500000D03*
X20850000Y42000000D03*
X20850000Y42500000D03*
X20850000Y43000000D03*
X20850000Y43500000D03*
X20850000Y44000000D03*
X20850000Y44500000D03*
X20850000Y45000000D03*
X20850000Y45500000D03*
D15*
X20000000Y46350000D03*
X19500000Y46350000D03*
X19000000Y46350000D03*
X18500000Y46350000D03*
X18000000Y46350000D03*
X17500000Y46350000D03*
X17000000Y46350000D03*
X16500000Y46350000D03*
X16000000Y46350000D03*
D16*
X18000000Y43500000D03*
%TD*%
D17*
%TO.C,L1*%
X36875000Y64600000D03*
X33025000Y64600000D03*
%TD*%
D11*
%TO.C,R1*%
X15525000Y57000000D03*
X16165000Y57000000D03*
%TD*%
%TO.C,R5*%
X41280000Y18450000D03*
X41920000Y18450000D03*
%TD*%
D18*
%TO.C,C5*%
X25900000Y61015000D03*
X25900000Y60375000D03*
%TD*%
D11*
%TO.C,C3*%
X18180000Y37500000D03*
X18820000Y37500000D03*
%TD*%
D18*
%TO.C,R11*%
X9250000Y42920000D03*
X9250000Y42280000D03*
%TD*%
D19*
%TO.C,J1*%
X22350000Y19250000D03*
X13200000Y19250000D03*
D20*
X34000000Y18000000D03*
D21*
X33000000Y16000000D03*
X32000000Y18000000D03*
X31000000Y16000000D03*
X30000000Y18000000D03*
X29000000Y16000000D03*
X28000000Y18000000D03*
X27000000Y16000000D03*
X26000000Y18000000D03*
X25000000Y16000000D03*
X24000000Y18000000D03*
X21000000Y16000000D03*
X20000000Y18000000D03*
X19000000Y16000000D03*
X18000000Y18000000D03*
X17000000Y16000000D03*
X16000000Y18000000D03*
X15000000Y16000000D03*
X34000000Y20500000D03*
X33000000Y22500000D03*
X32000000Y20500000D03*
X31000000Y22500000D03*
X30000000Y20500000D03*
X29000000Y22500000D03*
X28000000Y20500000D03*
X27000000Y22500000D03*
X26000000Y20500000D03*
X25000000Y22500000D03*
X24000000Y20500000D03*
X21000000Y22500000D03*
X20000000Y20500000D03*
X19000000Y22500000D03*
X18000000Y20500000D03*
X17000000Y22500000D03*
X16000000Y20500000D03*
X15000000Y22500000D03*
%TD*%
D22*
%TO.C,Y1*%
X23000000Y54226000D03*
X21350000Y54226000D03*
X21350000Y53000000D03*
X23000000Y53000000D03*
%TD*%
D10*
%TO.C,C2*%
X17000000Y52180000D03*
X17000000Y52820000D03*
%TD*%
D12*
%TO.C,TP4*%
X41100000Y54250000D03*
%TD*%
D23*
%TO.C,J2*%
X16250000Y61700000D03*
X15750000Y61700000D03*
X15250000Y61700000D03*
X14750000Y61700000D03*
X14250000Y61700000D03*
X13750000Y61700000D03*
X12750000Y61700000D03*
X12250000Y61700000D03*
X11750000Y61700000D03*
X11250000Y61700000D03*
X10750000Y61700000D03*
X10250000Y61700000D03*
D24*
X10150000Y63000000D03*
D23*
X11000000Y63000000D03*
X11500000Y63000000D03*
X12000000Y63000000D03*
X12500000Y63000000D03*
X13000000Y63000000D03*
X13500000Y63000000D03*
X14000000Y63000000D03*
X14500000Y63000000D03*
X15000000Y63000000D03*
X15500000Y63000000D03*
D24*
X16350000Y63000000D03*
D25*
X17570000Y62110000D03*
D26*
X17570000Y67470000D03*
D25*
X8930000Y62110000D03*
D26*
X8930000Y67470000D03*
%TD*%
D27*
%TO.C,C8*%
X28700000Y67250000D03*
X25750000Y67250000D03*
%TD*%
D18*
%TO.C,C1*%
X27500000Y53320000D03*
X27500000Y52680000D03*
%TD*%
D12*
%TO.C,TP2*%
X3550000Y50850000D03*
%TD*%
D28*
%TO.C,IC2*%
X27862000Y62188000D03*
D29*
X27812000Y61688000D03*
X27812000Y61188000D03*
X27812000Y60688000D03*
X29688000Y60688000D03*
X29688000Y61188000D03*
X29688000Y61688000D03*
X29688000Y62188000D03*
%TD*%
D12*
%TO.C,TP1*%
X23450000Y39050000D03*
%TD*%
D30*
%TO.C,R6*%
X24700000Y44500000D03*
X24060000Y44500000D03*
%TD*%
D13*
%TO.C,C7*%
X25725000Y64800000D03*
X28675000Y64800000D03*
%TD*%
D18*
%TO.C,R9*%
X12850000Y41165000D03*
X12850000Y40525000D03*
%TD*%
%TO.C,R10*%
X11250000Y42920000D03*
X11250000Y42280000D03*
%TD*%
D11*
%TO.C,R2*%
X9025000Y57000000D03*
X9665000Y57000000D03*
%TD*%
D30*
%TO.C,R7*%
X23020000Y43550000D03*
X22380000Y43550000D03*
%TD*%
M02*
