%TF.GenerationSoftware,KiCad,Pcbnew,8.0.8*%
%TF.CreationDate,2025-07-23T18:15:36+02:00*%
%TF.ProjectId,CartridgeMk3ReaderMk6,43617274-7269-4646-9765-4d6b33526561,rev?*%
%TF.SameCoordinates,PX30a32c0PY5466720*%
%TF.FileFunction,Paste,Top*%
%TF.FilePolarity,Positive*%
%FSLAX46Y46*%
G04 Gerber Fmt 4.6, Leading zero omitted, Abs format (unit mm)*
G04 Created by KiCad (PCBNEW 8.0.8) date 2025-07-23 18:15:36*
%MOMM*%
%LPD*%
G01*
G04 APERTURE LIST*
G04 Aperture macros list*
%AMRoundRect*
0 Rectangle with rounded corners*
0 $1 Rounding radius*
0 $2 $3 $4 $5 $6 $7 $8 $9 X,Y pos of 4 corners*
0 Add a 4 corners polygon primitive as box body*
4,1,4,$2,$3,$4,$5,$6,$7,$8,$9,$2,$3,0*
0 Add four circle primitives for the rounded corners*
1,1,$1+$1,$2,$3*
1,1,$1+$1,$4,$5*
1,1,$1+$1,$6,$7*
1,1,$1+$1,$8,$9*
0 Add four rect primitives between the rounded corners*
20,1,$1+$1,$2,$3,$4,$5,0*
20,1,$1+$1,$4,$5,$6,$7,0*
20,1,$1+$1,$6,$7,$8,$9,0*
20,1,$1+$1,$8,$9,$2,$3,0*%
G04 Aperture macros list end*
%ADD10RoundRect,0.079500X0.100500X-0.079500X0.100500X0.079500X-0.100500X0.079500X-0.100500X-0.079500X0*%
%ADD11RoundRect,0.079500X-0.079500X-0.100500X0.079500X-0.100500X0.079500X0.100500X-0.079500X0.100500X0*%
%ADD12RoundRect,0.250000X-0.325000X-0.650000X0.325000X-0.650000X0.325000X0.650000X-0.325000X0.650000X0*%
%ADD13R,1.050000X0.300000*%
%ADD14R,0.300000X1.050000*%
%ADD15R,4.200000X4.200000*%
%ADD16R,1.550000X4.500000*%
%ADD17RoundRect,0.079500X-0.100500X0.079500X-0.100500X-0.079500X0.100500X-0.079500X0.100500X0.079500X0*%
%ADD18R,1.000000X0.900000*%
%ADD19R,0.300000X0.700000*%
%ADD20R,1.000000X0.700000*%
%ADD21RoundRect,0.250000X0.325000X0.650000X-0.325000X0.650000X-0.325000X-0.650000X0.325000X-0.650000X0*%
%ADD22R,0.825000X0.300000*%
%ADD23R,0.725000X0.300000*%
%ADD24RoundRect,0.079500X0.079500X0.100500X-0.079500X0.100500X-0.079500X-0.100500X0.079500X-0.100500X0*%
G04 APERTURE END LIST*
D10*
%TO.C,R3*%
X16150000Y48400000D03*
X16150000Y49090000D03*
%TD*%
D11*
%TO.C,R4*%
X22785000Y48150000D03*
X23475000Y48150000D03*
%TD*%
D10*
%TO.C,C4*%
X16850000Y50350000D03*
X16850000Y51040000D03*
%TD*%
D12*
%TO.C,C6*%
X33725000Y59800000D03*
X36675000Y59800000D03*
%TD*%
D10*
%TO.C,R8*%
X16500000Y38155000D03*
X16500000Y38845000D03*
%TD*%
D13*
%TO.C,IC1*%
X15150000Y45500000D03*
X15150000Y45000000D03*
X15150000Y44500000D03*
X15150000Y44000000D03*
X15150000Y43500000D03*
X15150000Y43000000D03*
X15150000Y42500000D03*
X15150000Y42000000D03*
X15150000Y41500000D03*
D14*
X16000000Y40650000D03*
X16500000Y40650000D03*
X17000000Y40650000D03*
X17500000Y40650000D03*
X18000000Y40650000D03*
X18500000Y40650000D03*
X19000000Y40650000D03*
X19500000Y40650000D03*
X20000000Y40650000D03*
D13*
X20850000Y41500000D03*
X20850000Y42000000D03*
X20850000Y42500000D03*
X20850000Y43000000D03*
X20850000Y43500000D03*
X20850000Y44000000D03*
X20850000Y44500000D03*
X20850000Y45000000D03*
X20850000Y45500000D03*
D14*
X20000000Y46350000D03*
X19500000Y46350000D03*
X19000000Y46350000D03*
X18500000Y46350000D03*
X18000000Y46350000D03*
X17500000Y46350000D03*
X17000000Y46350000D03*
X16500000Y46350000D03*
X16000000Y46350000D03*
D15*
X18000000Y43500000D03*
%TD*%
D16*
%TO.C,L1*%
X36875000Y64600000D03*
X33025000Y64600000D03*
%TD*%
D11*
%TO.C,R1*%
X15500000Y57000000D03*
X16190000Y57000000D03*
%TD*%
%TO.C,R5*%
X41255000Y18450000D03*
X41945000Y18450000D03*
%TD*%
D17*
%TO.C,C5*%
X25900000Y61040000D03*
X25900000Y60350000D03*
%TD*%
D11*
%TO.C,C3*%
X18155000Y37500000D03*
X18845000Y37500000D03*
%TD*%
D17*
%TO.C,R11*%
X9250000Y42945000D03*
X9250000Y42255000D03*
%TD*%
D18*
%TO.C,Y1*%
X23000000Y54226000D03*
X21350000Y54226000D03*
X21350000Y53000000D03*
X23000000Y53000000D03*
%TD*%
D10*
%TO.C,C2*%
X17000000Y52155000D03*
X17000000Y52845000D03*
%TD*%
D19*
%TO.C,J2*%
X16250000Y61700000D03*
X15750000Y61700000D03*
X15250000Y61700000D03*
X14750000Y61700000D03*
X14250000Y61700000D03*
X13750000Y61700000D03*
X12750000Y61700000D03*
X12250000Y61700000D03*
X11750000Y61700000D03*
X11250000Y61700000D03*
X10750000Y61700000D03*
X10250000Y61700000D03*
D20*
X10150000Y63000000D03*
D19*
X11000000Y63000000D03*
X11500000Y63000000D03*
X12000000Y63000000D03*
X12500000Y63000000D03*
X13000000Y63000000D03*
X13500000Y63000000D03*
X14000000Y63000000D03*
X14500000Y63000000D03*
X15000000Y63000000D03*
X15500000Y63000000D03*
D20*
X16350000Y63000000D03*
%TD*%
D21*
%TO.C,C8*%
X28700000Y67250000D03*
X25750000Y67250000D03*
%TD*%
D17*
%TO.C,C1*%
X27500000Y53345000D03*
X27500000Y52655000D03*
%TD*%
D22*
%TO.C,IC2*%
X27862000Y62188000D03*
D23*
X27812000Y61688000D03*
X27812000Y61188000D03*
X27812000Y60688000D03*
X29688000Y60688000D03*
X29688000Y61188000D03*
X29688000Y61688000D03*
X29688000Y62188000D03*
%TD*%
D24*
%TO.C,R6*%
X24725000Y44500000D03*
X24035000Y44500000D03*
%TD*%
D12*
%TO.C,C7*%
X25725000Y64800000D03*
X28675000Y64800000D03*
%TD*%
D17*
%TO.C,R9*%
X12850000Y41190000D03*
X12850000Y40500000D03*
%TD*%
%TO.C,R10*%
X11250000Y42945000D03*
X11250000Y42255000D03*
%TD*%
D11*
%TO.C,R2*%
X9000000Y57000000D03*
X9690000Y57000000D03*
%TD*%
D24*
%TO.C,R7*%
X23045000Y43550000D03*
X22355000Y43550000D03*
%TD*%
M02*
