%TF.GenerationSoftware,KiCad,Pcbnew,8.0.8*%
%TF.CreationDate,2025-07-23T18:15:36+02:00*%
%TF.ProjectId,CartridgeMk3ReaderMk6,43617274-7269-4646-9765-4d6b33526561,rev?*%
%TF.SameCoordinates,PX30a32c0PY5466720*%
%TF.FileFunction,Copper,L2,Bot*%
%TF.FilePolarity,Positive*%
%FSLAX46Y46*%
G04 Gerber Fmt 4.6, Leading zero omitted, Abs format (unit mm)*
G04 Created by KiCad (PCBNEW 8.0.8) date 2025-07-23 18:15:36*
%MOMM*%
%LPD*%
G01*
G04 APERTURE LIST*
%TA.AperFunction,ComponentPad*%
%ADD10R,1.200000X1.200000*%
%TD*%
%TA.AperFunction,ComponentPad*%
%ADD11C,1.200000*%
%TD*%
%TA.AperFunction,HeatsinkPad*%
%ADD12O,1.100000X2.100000*%
%TD*%
%TA.AperFunction,HeatsinkPad*%
%ADD13O,1.100000X2.600000*%
%TD*%
%TA.AperFunction,ViaPad*%
%ADD14C,0.600000*%
%TD*%
%TA.AperFunction,ViaPad*%
%ADD15C,0.400000*%
%TD*%
%TA.AperFunction,Conductor*%
%ADD16C,0.200000*%
%TD*%
G04 APERTURE END LIST*
D10*
%TO.P,J1,A1,A1*%
%TO.N,SUPPLY*%
X34000000Y18000000D03*
D11*
%TO.P,J1,A2,A2*%
%TO.N,VCC*%
X33000000Y16000000D03*
%TO.P,J1,A3,A3*%
%TO.N,3V3*%
X32000000Y18000000D03*
%TO.P,J1,A4,A4*%
%TO.N,GND*%
X31000000Y16000000D03*
%TO.P,J1,A5,A5*%
%TO.N,SD_CLK*%
X30000000Y18000000D03*
%TO.P,J1,A6,A6*%
%TO.N,SD_CMD*%
X29000000Y16000000D03*
%TO.P,J1,A7,A7*%
%TO.N,SD_DAT0*%
X28000000Y18000000D03*
%TO.P,J1,A8,A8*%
%TO.N,SD_DAT1*%
X27000000Y16000000D03*
%TO.P,J1,A9,A9*%
%TO.N,SD_DAT2*%
X26000000Y18000000D03*
%TO.P,J1,A10,A10*%
%TO.N,SD_DAT3*%
X25000000Y16000000D03*
%TO.P,J1,A11,A11*%
%TO.N,unconnected-(J1-PadA11)*%
X24000000Y18000000D03*
%TO.P,J1,A12,A12*%
%TO.N,unconnected-(J1-PadA12)*%
X21000000Y16000000D03*
%TO.P,J1,A13,A13*%
%TO.N,unconnected-(J1-PadA13)*%
X20000000Y18000000D03*
%TO.P,J1,A14,A14*%
%TO.N,unconnected-(J1-PadA14)*%
X19000000Y16000000D03*
%TO.P,J1,A15,A15*%
%TO.N,unconnected-(J1-PadA15)*%
X18000000Y18000000D03*
%TO.P,J1,A16,A16*%
%TO.N,unconnected-(J1-PadA16)*%
X17000000Y16000000D03*
%TO.P,J1,A17,A17*%
%TO.N,CARD_PRESENT*%
X16000000Y18000000D03*
%TO.P,J1,A18,A18*%
%TO.N,unconnected-(J1-PadA18)*%
X15000000Y16000000D03*
%TO.P,J1,B1,B1*%
%TO.N,GND*%
X34000000Y20500000D03*
%TO.P,J1,B2,B2*%
X33000000Y22500000D03*
%TO.P,J1,B3,B3*%
X32000000Y20500000D03*
%TO.P,J1,B4,B4*%
X31000000Y22500000D03*
%TO.P,J1,B5,B5*%
X30000000Y20500000D03*
%TO.P,J1,B6,B6*%
X29000000Y22500000D03*
%TO.P,J1,B7,B7*%
X28000000Y20500000D03*
%TO.P,J1,B8,B8*%
X27000000Y22500000D03*
%TO.P,J1,B9,B9*%
X26000000Y20500000D03*
%TO.P,J1,B10,B10*%
X25000000Y22500000D03*
%TO.P,J1,B11,B11*%
%TO.N,unconnected-(J1-PadB11)*%
X24000000Y20500000D03*
%TO.P,J1,B12,B12*%
%TO.N,unconnected-(J1-PadB12)*%
X21000000Y22500000D03*
%TO.P,J1,B13,B13*%
%TO.N,unconnected-(J1-PadB13)*%
X20000000Y20500000D03*
%TO.P,J1,B14,B14*%
%TO.N,unconnected-(J1-PadB14)*%
X19000000Y22500000D03*
%TO.P,J1,B15,B15*%
%TO.N,unconnected-(J1-PadB15)*%
X18000000Y20500000D03*
%TO.P,J1,B16,B16*%
%TO.N,unconnected-(J1-PadB16)*%
X17000000Y22500000D03*
%TO.P,J1,B17,B17*%
%TO.N,unconnected-(J1-PadB17)*%
X16000000Y20500000D03*
%TO.P,J1,B18,B18*%
%TO.N,unconnected-(J1-PadB18)*%
X15000000Y22500000D03*
%TD*%
D12*
%TO.P,J2,S1,SHIELD*%
%TO.N,GND*%
X17570000Y62110000D03*
D13*
X17570000Y67470000D03*
D12*
X8930000Y62110000D03*
D13*
X8930000Y67470000D03*
%TD*%
D14*
%TO.N,GND*%
X32550000Y58250000D03*
D15*
X21400000Y54226000D03*
X27500000Y53320000D03*
X18820000Y37500000D03*
X16850000Y51015000D03*
X10100000Y63000000D03*
X41920000Y18450000D03*
X16250000Y61700000D03*
D14*
X28850000Y61050000D03*
D15*
X41100000Y54250000D03*
X23025000Y52975000D03*
X10250000Y61700000D03*
X15525000Y57000000D03*
X16350000Y63000000D03*
D14*
X28850000Y61700000D03*
D15*
X9665000Y57000000D03*
D14*
X20000000Y47500000D03*
D15*
X23450000Y48150000D03*
X17000000Y52820000D03*
D14*
X33250000Y58250000D03*
D15*
X25900000Y60375000D03*
X16150000Y49065000D03*
D14*
X18000000Y43500000D03*
%TO.N,3V3*%
X22100000Y42300000D03*
X46850000Y60050000D03*
X12750000Y43000000D03*
X19050000Y39100000D03*
%TO.N,SD_DAT2*%
X21994871Y28344871D03*
X20555908Y26905908D03*
D15*
%TO.N,D-*%
X12750000Y61700000D03*
X13500000Y63000000D03*
D14*
%TO.N,VCC*%
X17000000Y59500000D03*
X11750000Y60250000D03*
D15*
X11750000Y61700000D03*
X12000000Y63000000D03*
%TD*%
D16*
%TO.N,3V3*%
X7250000Y1950000D02*
X4150000Y5050000D01*
X12750000Y43000000D02*
X4350000Y43000000D01*
X46850000Y40500000D02*
X46850000Y19200000D01*
X45450000Y39100000D02*
X46850000Y40500000D01*
X41250000Y1950000D02*
X40200000Y1950000D01*
X46850000Y16900000D02*
X46850000Y7550000D01*
X32000000Y18000000D02*
X33200000Y19200000D01*
X4150000Y42950000D02*
X4200000Y43000000D01*
X4150000Y5050000D02*
X4150000Y42800000D01*
X40200000Y1950000D02*
X7250000Y1950000D01*
X4350000Y43000000D02*
X4150000Y42800000D01*
X19050000Y39100000D02*
X45450000Y39100000D01*
X46850000Y45750000D02*
X46850000Y40500000D01*
X22100000Y42300000D02*
X23600000Y43800000D01*
X23600000Y43800000D02*
X44900000Y43800000D01*
X33200000Y19200000D02*
X46850000Y19200000D01*
X46850000Y7550000D02*
X41250000Y1950000D01*
X46850000Y19200000D02*
X46850000Y16900000D01*
X4150000Y42800000D02*
X4150000Y42950000D01*
X44900000Y43800000D02*
X46850000Y45750000D01*
X46850000Y60050000D02*
X46850000Y45750000D01*
%TO.N,SD_DAT2*%
X21994871Y28344871D02*
X20555908Y26905908D01*
%TO.N,D-*%
X13500000Y63000000D02*
X13500000Y62450000D01*
X13500000Y62450000D02*
X12750000Y61700000D01*
%TO.N,VCC*%
X12000000Y63000000D02*
X12000000Y61950000D01*
X13000000Y59000000D02*
X16500000Y59000000D01*
X12000000Y61950000D02*
X11750000Y61700000D01*
X11750000Y60250000D02*
X13000000Y59000000D01*
X16500000Y59000000D02*
X17000000Y59500000D01*
%TD*%
%TA.AperFunction,Conductor*%
%TO.N,GND*%
G36*
X9593039Y68979815D02*
G01*
X9638794Y68927011D01*
X9650000Y68875500D01*
X9650000Y63500000D01*
X11729349Y63485561D01*
X11796247Y63465411D01*
X11841634Y63412291D01*
X11851097Y63343065D01*
X11821632Y63279712D01*
X11808192Y63266575D01*
X11745250Y63213760D01*
X11745247Y63213757D01*
X11687505Y63113745D01*
X11687502Y63113738D01*
X11667448Y63000001D01*
X11667448Y63000000D01*
X11687502Y62886263D01*
X11687505Y62886256D01*
X11750674Y62776845D01*
X11748953Y62775852D01*
X11771502Y62724336D01*
X11772500Y62708633D01*
X11772500Y62143534D01*
X11752815Y62076495D01*
X11700011Y62030740D01*
X11690912Y62027013D01*
X11583725Y61987999D01*
X11495249Y61913759D01*
X11495247Y61913757D01*
X11437505Y61813745D01*
X11437502Y61813738D01*
X11417448Y61700001D01*
X11417448Y61700000D01*
X11437502Y61586263D01*
X11437505Y61586256D01*
X11495247Y61486244D01*
X11495248Y61486243D01*
X11495250Y61486240D01*
X11583724Y61412002D01*
X11692253Y61372500D01*
X11692254Y61372500D01*
X11807745Y61372500D01*
X11807747Y61372500D01*
X11916276Y61412002D01*
X12004750Y61486240D01*
X12062497Y61586261D01*
X12078079Y61674632D01*
X12109106Y61737235D01*
X12112514Y61740782D01*
X12112515Y61740783D01*
X12192865Y61821132D01*
X12192867Y61821139D01*
X12199354Y61830846D01*
X12239745Y61864605D01*
X12234320Y61872223D01*
X12227500Y61912779D01*
X12227500Y62708633D01*
X12247185Y62775672D01*
X12253967Y62784885D01*
X12254748Y62786239D01*
X12254750Y62786240D01*
X12312497Y62886261D01*
X12332552Y63000000D01*
X12312497Y63113739D01*
X12254750Y63213760D01*
X12208859Y63252267D01*
X12196340Y63262772D01*
X12157638Y63320943D01*
X12156530Y63390804D01*
X12193367Y63450174D01*
X12256454Y63480203D01*
X12276902Y63481758D01*
X13217034Y63475229D01*
X13283935Y63455079D01*
X13329322Y63401959D01*
X13338785Y63332733D01*
X13309320Y63269380D01*
X13295879Y63256243D01*
X13245252Y63213763D01*
X13245247Y63213757D01*
X13187505Y63113745D01*
X13187502Y63113738D01*
X13167448Y63000001D01*
X13167448Y63000000D01*
X13187502Y62886263D01*
X13187505Y62886256D01*
X13250674Y62776845D01*
X13248953Y62775852D01*
X13271502Y62724336D01*
X13272500Y62708633D01*
X13272500Y62595595D01*
X13252815Y62528556D01*
X13236181Y62507914D01*
X12792086Y62063819D01*
X12730763Y62030334D01*
X12704405Y62027500D01*
X12692253Y62027500D01*
X12583727Y61987999D01*
X12583724Y61987998D01*
X12495249Y61913759D01*
X12458887Y61850778D01*
X12413924Y61807908D01*
X12422040Y61794771D01*
X12424576Y61740429D01*
X12417448Y61700003D01*
X12417448Y61700000D01*
X12437502Y61586263D01*
X12437505Y61586256D01*
X12495247Y61486244D01*
X12495248Y61486243D01*
X12495250Y61486240D01*
X12583724Y61412002D01*
X12692253Y61372500D01*
X12692254Y61372500D01*
X12807745Y61372500D01*
X12807747Y61372500D01*
X12916276Y61412002D01*
X13004750Y61486240D01*
X13062497Y61586261D01*
X13078079Y61674636D01*
X13109105Y61737237D01*
X13112487Y61740756D01*
X13692865Y62321132D01*
X13727500Y62404747D01*
X13727500Y62708633D01*
X13747185Y62775672D01*
X13753967Y62784885D01*
X13754748Y62786239D01*
X13754750Y62786240D01*
X13812497Y62886261D01*
X13832552Y63000000D01*
X13812497Y63113739D01*
X13754750Y63213760D01*
X13708856Y63252269D01*
X13670155Y63310438D01*
X13669046Y63380299D01*
X13705883Y63439669D01*
X13768970Y63469699D01*
X13789424Y63471254D01*
X16849999Y63450000D01*
X16849998Y63450001D01*
X16850000Y63450000D01*
X16801138Y68824873D01*
X16820212Y68892088D01*
X16872598Y68938321D01*
X16925133Y68950000D01*
X18400000Y68950000D01*
X44425251Y68900239D01*
X44492252Y68880426D01*
X44537906Y68827535D01*
X44549009Y68775255D01*
X44353575Y44150516D01*
X44333359Y44083635D01*
X44280194Y44038300D01*
X44229579Y44027500D01*
X23554746Y44027500D01*
X23471130Y43992864D01*
X22242085Y42763819D01*
X22180762Y42730334D01*
X22154404Y42727500D01*
X22038535Y42727500D01*
X21920584Y42692866D01*
X21920582Y42692866D01*
X21920582Y42692865D01*
X21817169Y42626406D01*
X21736667Y42533503D01*
X21736665Y42533500D01*
X21685599Y42421683D01*
X21685598Y42421679D01*
X21668104Y42300000D01*
X21685598Y42178322D01*
X21685599Y42178318D01*
X21736665Y42066501D01*
X21736666Y42066499D01*
X21817168Y41973595D01*
X21920584Y41907134D01*
X22038535Y41872500D01*
X22161465Y41872500D01*
X22279416Y41907134D01*
X22382832Y41973595D01*
X22463334Y42066499D01*
X22514401Y42178321D01*
X22531896Y42300000D01*
X22526881Y42334876D01*
X22536822Y42404033D01*
X22561934Y42440203D01*
X23657914Y43536181D01*
X23719237Y43569666D01*
X23745595Y43572500D01*
X44224000Y43572500D01*
X44291039Y43552815D01*
X44336794Y43500011D01*
X44347996Y43447516D01*
X44316274Y39450516D01*
X44296058Y39383635D01*
X44242893Y39338300D01*
X44192278Y39327500D01*
X19475162Y39327500D01*
X19408123Y39347185D01*
X19381452Y39370294D01*
X19332832Y39426405D01*
X19229416Y39492866D01*
X19111465Y39527500D01*
X18988535Y39527500D01*
X18870584Y39492866D01*
X18870582Y39492866D01*
X18870582Y39492865D01*
X18767169Y39426406D01*
X18686667Y39333503D01*
X18686665Y39333500D01*
X18635599Y39221683D01*
X18635598Y39221679D01*
X18618104Y39100000D01*
X18635598Y38978322D01*
X18635599Y38978318D01*
X18668108Y38907135D01*
X18686666Y38866499D01*
X18767168Y38773595D01*
X18870584Y38707134D01*
X18988535Y38672500D01*
X19111465Y38672500D01*
X19229416Y38707134D01*
X19332832Y38773595D01*
X19381451Y38829705D01*
X19440227Y38867477D01*
X19475162Y38872500D01*
X44186699Y38872500D01*
X44253738Y38852815D01*
X44299493Y38800011D01*
X44310694Y38747518D01*
X44234516Y29149016D01*
X44158337Y19550516D01*
X44138121Y19483635D01*
X44084956Y19438300D01*
X44034341Y19427500D01*
X33154746Y19427500D01*
X33071130Y19392864D01*
X32387720Y18709455D01*
X32326397Y18675970D01*
X32259085Y18680094D01*
X32175176Y18709455D01*
X32162908Y18713748D01*
X32162907Y18713749D01*
X32162905Y18713749D01*
X32162899Y18713750D01*
X32000004Y18732103D01*
X31999996Y18732103D01*
X31837100Y18713750D01*
X31837094Y18713749D01*
X31682352Y18659603D01*
X31543540Y18572381D01*
X31427619Y18456460D01*
X31340397Y18317648D01*
X31286251Y18162906D01*
X31286250Y18162900D01*
X31267897Y18000004D01*
X31267897Y17999997D01*
X31286250Y17837101D01*
X31286251Y17837095D01*
X31340397Y17682353D01*
X31340398Y17682352D01*
X31427619Y17543541D01*
X31543541Y17427619D01*
X31682352Y17340398D01*
X31837092Y17286252D01*
X31837098Y17286252D01*
X31837100Y17286251D01*
X31999996Y17267897D01*
X32000000Y17267897D01*
X32000004Y17267897D01*
X32162899Y17286251D01*
X32162898Y17286251D01*
X32162908Y17286252D01*
X32317648Y17340398D01*
X32456459Y17427619D01*
X32572381Y17543541D01*
X32659602Y17682352D01*
X32713748Y17837092D01*
X32726188Y17947500D01*
X32732103Y17999997D01*
X32732103Y18000004D01*
X32713749Y18162900D01*
X32713748Y18162906D01*
X32713748Y18162908D01*
X32680092Y18259089D01*
X32676532Y18328867D01*
X32709452Y18387721D01*
X33067435Y18745703D01*
X33128755Y18779186D01*
X33198447Y18774202D01*
X33254380Y18732330D01*
X33278797Y18666866D01*
X33276731Y18633830D01*
X33272500Y18612559D01*
X33272500Y17387442D01*
X33279898Y17350251D01*
X33308077Y17308078D01*
X33350250Y17279899D01*
X33350252Y17279898D01*
X33378205Y17274338D01*
X33387441Y17272500D01*
X33387442Y17272500D01*
X34612559Y17272500D01*
X34619957Y17273972D01*
X34649748Y17279898D01*
X34691922Y17308078D01*
X34720102Y17350252D01*
X34727500Y17387442D01*
X34727500Y18612558D01*
X34720102Y18649748D01*
X34702581Y18675970D01*
X34691922Y18691923D01*
X34649749Y18720102D01*
X34615660Y18726883D01*
X34553750Y18759270D01*
X34519177Y18819986D01*
X34522918Y18889756D01*
X34563786Y18946427D01*
X34628805Y18972007D01*
X34639854Y18972500D01*
X44028762Y18972500D01*
X44095801Y18952815D01*
X44141556Y18900011D01*
X44152758Y18847516D01*
X44050977Y6023178D01*
X44030761Y5956297D01*
X43977596Y5910962D01*
X43926818Y5900162D01*
X6123720Y5949838D01*
X6056707Y5969611D01*
X6011021Y6022475D01*
X5999883Y6073719D01*
X5990563Y16000004D01*
X14267897Y16000004D01*
X14267897Y15999997D01*
X14286250Y15837101D01*
X14286251Y15837095D01*
X14340397Y15682353D01*
X14340398Y15682352D01*
X14427619Y15543541D01*
X14543541Y15427619D01*
X14682352Y15340398D01*
X14837092Y15286252D01*
X14837098Y15286252D01*
X14837100Y15286251D01*
X14999996Y15267897D01*
X15000000Y15267897D01*
X15000004Y15267897D01*
X15162899Y15286251D01*
X15162898Y15286251D01*
X15162908Y15286252D01*
X15317648Y15340398D01*
X15456459Y15427619D01*
X15572381Y15543541D01*
X15659602Y15682352D01*
X15713748Y15837092D01*
X15732103Y16000000D01*
X15732103Y16000004D01*
X16267897Y16000004D01*
X16267897Y15999997D01*
X16286250Y15837101D01*
X16286251Y15837095D01*
X16340397Y15682353D01*
X16340398Y15682352D01*
X16427619Y15543541D01*
X16543541Y15427619D01*
X16682352Y15340398D01*
X16837092Y15286252D01*
X16837098Y15286252D01*
X16837100Y15286251D01*
X16999996Y15267897D01*
X17000000Y15267897D01*
X17000004Y15267897D01*
X17162899Y15286251D01*
X17162898Y15286251D01*
X17162908Y15286252D01*
X17317648Y15340398D01*
X17456459Y15427619D01*
X17572381Y15543541D01*
X17659602Y15682352D01*
X17713748Y15837092D01*
X17732103Y16000000D01*
X17732103Y16000004D01*
X18267897Y16000004D01*
X18267897Y15999997D01*
X18286250Y15837101D01*
X18286251Y15837095D01*
X18340397Y15682353D01*
X18340398Y15682352D01*
X18427619Y15543541D01*
X18543541Y15427619D01*
X18682352Y15340398D01*
X18837092Y15286252D01*
X18837098Y15286252D01*
X18837100Y15286251D01*
X18999996Y15267897D01*
X19000000Y15267897D01*
X19000004Y15267897D01*
X19162899Y15286251D01*
X19162898Y15286251D01*
X19162908Y15286252D01*
X19317648Y15340398D01*
X19456459Y15427619D01*
X19572381Y15543541D01*
X19659602Y15682352D01*
X19713748Y15837092D01*
X19732103Y16000000D01*
X19732103Y16000004D01*
X20267897Y16000004D01*
X20267897Y15999997D01*
X20286250Y15837101D01*
X20286251Y15837095D01*
X20340397Y15682353D01*
X20340398Y15682352D01*
X20427619Y15543541D01*
X20543541Y15427619D01*
X20682352Y15340398D01*
X20837092Y15286252D01*
X20837098Y15286252D01*
X20837100Y15286251D01*
X20999996Y15267897D01*
X21000000Y15267897D01*
X21000004Y15267897D01*
X21162899Y15286251D01*
X21162898Y15286251D01*
X21162908Y15286252D01*
X21317648Y15340398D01*
X21456459Y15427619D01*
X21572381Y15543541D01*
X21659602Y15682352D01*
X21713748Y15837092D01*
X21732103Y16000000D01*
X21732103Y16000004D01*
X24267897Y16000004D01*
X24267897Y15999997D01*
X24286250Y15837101D01*
X24286251Y15837095D01*
X24340397Y15682353D01*
X24340398Y15682352D01*
X24427619Y15543541D01*
X24543541Y15427619D01*
X24682352Y15340398D01*
X24837092Y15286252D01*
X24837098Y15286252D01*
X24837100Y15286251D01*
X24999996Y15267897D01*
X25000000Y15267897D01*
X25000004Y15267897D01*
X25162899Y15286251D01*
X25162898Y15286251D01*
X25162908Y15286252D01*
X25317648Y15340398D01*
X25456459Y15427619D01*
X25572381Y15543541D01*
X25659602Y15682352D01*
X25713748Y15837092D01*
X25732103Y16000000D01*
X25732103Y16000004D01*
X26267897Y16000004D01*
X26267897Y15999997D01*
X26286250Y15837101D01*
X26286251Y15837095D01*
X26340397Y15682353D01*
X26340398Y15682352D01*
X26427619Y15543541D01*
X26543541Y15427619D01*
X26682352Y15340398D01*
X26837092Y15286252D01*
X26837098Y15286252D01*
X26837100Y15286251D01*
X26999996Y15267897D01*
X27000000Y15267897D01*
X27000004Y15267897D01*
X27162899Y15286251D01*
X27162898Y15286251D01*
X27162908Y15286252D01*
X27317648Y15340398D01*
X27456459Y15427619D01*
X27572381Y15543541D01*
X27659602Y15682352D01*
X27713748Y15837092D01*
X27732103Y16000000D01*
X27732103Y16000004D01*
X28267897Y16000004D01*
X28267897Y15999997D01*
X28286250Y15837101D01*
X28286251Y15837095D01*
X28340397Y15682353D01*
X28340398Y15682352D01*
X28427619Y15543541D01*
X28543541Y15427619D01*
X28682352Y15340398D01*
X28837092Y15286252D01*
X28837098Y15286252D01*
X28837100Y15286251D01*
X28999996Y15267897D01*
X29000000Y15267897D01*
X29000004Y15267897D01*
X29162899Y15286251D01*
X29162898Y15286251D01*
X29162908Y15286252D01*
X29317648Y15340398D01*
X29456459Y15427619D01*
X29572381Y15543541D01*
X29659602Y15682352D01*
X29713748Y15837092D01*
X29732103Y16000000D01*
X29732103Y16000004D01*
X32267897Y16000004D01*
X32267897Y15999997D01*
X32286250Y15837101D01*
X32286251Y15837095D01*
X32340397Y15682353D01*
X32340398Y15682352D01*
X32427619Y15543541D01*
X32543541Y15427619D01*
X32682352Y15340398D01*
X32837092Y15286252D01*
X32837098Y15286252D01*
X32837100Y15286251D01*
X32999996Y15267897D01*
X33000000Y15267897D01*
X33000004Y15267897D01*
X33162899Y15286251D01*
X33162898Y15286251D01*
X33162908Y15286252D01*
X33317648Y15340398D01*
X33456459Y15427619D01*
X33572381Y15543541D01*
X33659602Y15682352D01*
X33713748Y15837092D01*
X33732103Y16000000D01*
X33713748Y16162908D01*
X33659602Y16317648D01*
X33572381Y16456459D01*
X33456459Y16572381D01*
X33317647Y16659603D01*
X33162905Y16713749D01*
X33162899Y16713750D01*
X33000004Y16732103D01*
X32999996Y16732103D01*
X32837100Y16713750D01*
X32837094Y16713749D01*
X32682352Y16659603D01*
X32543540Y16572381D01*
X32427619Y16456460D01*
X32340397Y16317648D01*
X32286251Y16162906D01*
X32286250Y16162900D01*
X32267897Y16000004D01*
X29732103Y16000004D01*
X29713748Y16162908D01*
X29659602Y16317648D01*
X29572381Y16456459D01*
X29456459Y16572381D01*
X29317647Y16659603D01*
X29162905Y16713749D01*
X29162899Y16713750D01*
X29000004Y16732103D01*
X28999996Y16732103D01*
X28837100Y16713750D01*
X28837094Y16713749D01*
X28682352Y16659603D01*
X28543540Y16572381D01*
X28427619Y16456460D01*
X28340397Y16317648D01*
X28286251Y16162906D01*
X28286250Y16162900D01*
X28267897Y16000004D01*
X27732103Y16000004D01*
X27713748Y16162908D01*
X27659602Y16317648D01*
X27572381Y16456459D01*
X27456459Y16572381D01*
X27317647Y16659603D01*
X27162905Y16713749D01*
X27162899Y16713750D01*
X27000004Y16732103D01*
X26999996Y16732103D01*
X26837100Y16713750D01*
X26837094Y16713749D01*
X26682352Y16659603D01*
X26543540Y16572381D01*
X26427619Y16456460D01*
X26340397Y16317648D01*
X26286251Y16162906D01*
X26286250Y16162900D01*
X26267897Y16000004D01*
X25732103Y16000004D01*
X25713748Y16162908D01*
X25659602Y16317648D01*
X25572381Y16456459D01*
X25456459Y16572381D01*
X25317647Y16659603D01*
X25162905Y16713749D01*
X25162899Y16713750D01*
X25000004Y16732103D01*
X24999996Y16732103D01*
X24837100Y16713750D01*
X24837094Y16713749D01*
X24682352Y16659603D01*
X24543540Y16572381D01*
X24427619Y16456460D01*
X24340397Y16317648D01*
X24286251Y16162906D01*
X24286250Y16162900D01*
X24267897Y16000004D01*
X21732103Y16000004D01*
X21713748Y16162908D01*
X21659602Y16317648D01*
X21572381Y16456459D01*
X21456459Y16572381D01*
X21317647Y16659603D01*
X21162905Y16713749D01*
X21162899Y16713750D01*
X21000004Y16732103D01*
X20999996Y16732103D01*
X20837100Y16713750D01*
X20837094Y16713749D01*
X20682352Y16659603D01*
X20543540Y16572381D01*
X20427619Y16456460D01*
X20340397Y16317648D01*
X20286251Y16162906D01*
X20286250Y16162900D01*
X20267897Y16000004D01*
X19732103Y16000004D01*
X19713748Y16162908D01*
X19659602Y16317648D01*
X19572381Y16456459D01*
X19456459Y16572381D01*
X19317647Y16659603D01*
X19162905Y16713749D01*
X19162899Y16713750D01*
X19000004Y16732103D01*
X18999996Y16732103D01*
X18837100Y16713750D01*
X18837094Y16713749D01*
X18682352Y16659603D01*
X18543540Y16572381D01*
X18427619Y16456460D01*
X18340397Y16317648D01*
X18286251Y16162906D01*
X18286250Y16162900D01*
X18267897Y16000004D01*
X17732103Y16000004D01*
X17713748Y16162908D01*
X17659602Y16317648D01*
X17572381Y16456459D01*
X17456459Y16572381D01*
X17317647Y16659603D01*
X17162905Y16713749D01*
X17162899Y16713750D01*
X17000004Y16732103D01*
X16999996Y16732103D01*
X16837100Y16713750D01*
X16837094Y16713749D01*
X16682352Y16659603D01*
X16543540Y16572381D01*
X16427619Y16456460D01*
X16340397Y16317648D01*
X16286251Y16162906D01*
X16286250Y16162900D01*
X16267897Y16000004D01*
X15732103Y16000004D01*
X15713748Y16162908D01*
X15659602Y16317648D01*
X15572381Y16456459D01*
X15456459Y16572381D01*
X15317647Y16659603D01*
X15162905Y16713749D01*
X15162899Y16713750D01*
X15000004Y16732103D01*
X14999996Y16732103D01*
X14837100Y16713750D01*
X14837094Y16713749D01*
X14682352Y16659603D01*
X14543540Y16572381D01*
X14427619Y16456460D01*
X14340397Y16317648D01*
X14286251Y16162906D01*
X14286250Y16162900D01*
X14267897Y16000004D01*
X5990563Y16000004D01*
X5987415Y19352514D01*
X11897500Y19352514D01*
X11897500Y19147487D01*
X11929570Y18945003D01*
X11929571Y18944997D01*
X11961245Y18847516D01*
X11992927Y18750009D01*
X12086004Y18567338D01*
X12206502Y18401485D01*
X12206506Y18401480D01*
X12351479Y18256507D01*
X12351484Y18256503D01*
X12439726Y18192392D01*
X12517341Y18136002D01*
X12633738Y18076695D01*
X12700008Y18042928D01*
X12700010Y18042928D01*
X12700013Y18042926D01*
X12894997Y17979571D01*
X13007493Y17961754D01*
X13097487Y17947500D01*
X13097491Y17947500D01*
X13302513Y17947500D01*
X13383506Y17960329D01*
X13505003Y17979571D01*
X13567888Y18000004D01*
X15267897Y18000004D01*
X15267897Y17999997D01*
X15286250Y17837101D01*
X15286251Y17837095D01*
X15340397Y17682353D01*
X15340398Y17682352D01*
X15427619Y17543541D01*
X15543541Y17427619D01*
X15682352Y17340398D01*
X15837092Y17286252D01*
X15837098Y17286252D01*
X15837100Y17286251D01*
X15999996Y17267897D01*
X16000000Y17267897D01*
X16000004Y17267897D01*
X16162899Y17286251D01*
X16162898Y17286251D01*
X16162908Y17286252D01*
X16317648Y17340398D01*
X16456459Y17427619D01*
X16572381Y17543541D01*
X16659602Y17682352D01*
X16713748Y17837092D01*
X16726188Y17947500D01*
X16732103Y17999997D01*
X16732103Y18000004D01*
X17267897Y18000004D01*
X17267897Y17999997D01*
X17286250Y17837101D01*
X17286251Y17837095D01*
X17340397Y17682353D01*
X17340398Y17682352D01*
X17427619Y17543541D01*
X17543541Y17427619D01*
X17682352Y17340398D01*
X17837092Y17286252D01*
X17837098Y17286252D01*
X17837100Y17286251D01*
X17999996Y17267897D01*
X18000000Y17267897D01*
X18000004Y17267897D01*
X18162899Y17286251D01*
X18162898Y17286251D01*
X18162908Y17286252D01*
X18317648Y17340398D01*
X18456459Y17427619D01*
X18572381Y17543541D01*
X18659602Y17682352D01*
X18713748Y17837092D01*
X18726188Y17947500D01*
X18732103Y17999997D01*
X18732103Y18000004D01*
X19267897Y18000004D01*
X19267897Y17999997D01*
X19286250Y17837101D01*
X19286251Y17837095D01*
X19340397Y17682353D01*
X19340398Y17682352D01*
X19427619Y17543541D01*
X19543541Y17427619D01*
X19682352Y17340398D01*
X19837092Y17286252D01*
X19837098Y17286252D01*
X19837100Y17286251D01*
X19999996Y17267897D01*
X20000000Y17267897D01*
X20000004Y17267897D01*
X20162899Y17286251D01*
X20162898Y17286251D01*
X20162908Y17286252D01*
X20317648Y17340398D01*
X20456459Y17427619D01*
X20572381Y17543541D01*
X20659602Y17682352D01*
X20713748Y17837092D01*
X20726188Y17947500D01*
X20732103Y17999997D01*
X20732103Y18000004D01*
X20713749Y18162900D01*
X20713748Y18162906D01*
X20713748Y18162908D01*
X20659602Y18317648D01*
X20572381Y18456459D01*
X20456459Y18572381D01*
X20392518Y18612558D01*
X20317647Y18659603D01*
X20162905Y18713749D01*
X20162899Y18713750D01*
X20000004Y18732103D01*
X19999996Y18732103D01*
X19837100Y18713750D01*
X19837094Y18713749D01*
X19682352Y18659603D01*
X19543540Y18572381D01*
X19427619Y18456460D01*
X19340397Y18317648D01*
X19286251Y18162906D01*
X19286250Y18162900D01*
X19267897Y18000004D01*
X18732103Y18000004D01*
X18713749Y18162900D01*
X18713748Y18162906D01*
X18713748Y18162908D01*
X18659602Y18317648D01*
X18572381Y18456459D01*
X18456459Y18572381D01*
X18392518Y18612558D01*
X18317647Y18659603D01*
X18162905Y18713749D01*
X18162899Y18713750D01*
X18000004Y18732103D01*
X17999996Y18732103D01*
X17837100Y18713750D01*
X17837094Y18713749D01*
X17682352Y18659603D01*
X17543540Y18572381D01*
X17427619Y18456460D01*
X17340397Y18317648D01*
X17286251Y18162906D01*
X17286250Y18162900D01*
X17267897Y18000004D01*
X16732103Y18000004D01*
X16713749Y18162900D01*
X16713748Y18162906D01*
X16713748Y18162908D01*
X16659602Y18317648D01*
X16572381Y18456459D01*
X16456459Y18572381D01*
X16392518Y18612558D01*
X16317647Y18659603D01*
X16162905Y18713749D01*
X16162899Y18713750D01*
X16000004Y18732103D01*
X15999996Y18732103D01*
X15837100Y18713750D01*
X15837094Y18713749D01*
X15682352Y18659603D01*
X15543540Y18572381D01*
X15427619Y18456460D01*
X15340397Y18317648D01*
X15286251Y18162906D01*
X15286250Y18162900D01*
X15267897Y18000004D01*
X13567888Y18000004D01*
X13699987Y18042926D01*
X13882659Y18136002D01*
X14048522Y18256508D01*
X14193492Y18401478D01*
X14313998Y18567341D01*
X14407074Y18750013D01*
X14470429Y18944997D01*
X14490406Y19071132D01*
X14502500Y19147487D01*
X14502500Y19352514D01*
X21047500Y19352514D01*
X21047500Y19147487D01*
X21079570Y18945003D01*
X21079571Y18944997D01*
X21111245Y18847516D01*
X21142927Y18750009D01*
X21236004Y18567338D01*
X21356502Y18401485D01*
X21356506Y18401480D01*
X21501479Y18256507D01*
X21501484Y18256503D01*
X21589726Y18192392D01*
X21667341Y18136002D01*
X21783738Y18076695D01*
X21850008Y18042928D01*
X21850010Y18042928D01*
X21850013Y18042926D01*
X22044997Y17979571D01*
X22157493Y17961754D01*
X22247487Y17947500D01*
X22247491Y17947500D01*
X22452513Y17947500D01*
X22533506Y17960329D01*
X22655003Y17979571D01*
X22849987Y18042926D01*
X23032659Y18136002D01*
X23077956Y18168913D01*
X23143759Y18192392D01*
X23211813Y18176568D01*
X23260509Y18126463D01*
X23274385Y18057985D01*
X23274061Y18054712D01*
X23270529Y18023369D01*
X23267898Y18000004D01*
X23267897Y17999997D01*
X23286250Y17837101D01*
X23286251Y17837095D01*
X23340397Y17682353D01*
X23340398Y17682352D01*
X23427619Y17543541D01*
X23543541Y17427619D01*
X23682352Y17340398D01*
X23837092Y17286252D01*
X23837098Y17286252D01*
X23837100Y17286251D01*
X23999996Y17267897D01*
X24000000Y17267897D01*
X24000004Y17267897D01*
X24162899Y17286251D01*
X24162898Y17286251D01*
X24162908Y17286252D01*
X24317648Y17340398D01*
X24456459Y17427619D01*
X24572381Y17543541D01*
X24659602Y17682352D01*
X24713748Y17837092D01*
X24726188Y17947500D01*
X24732103Y17999997D01*
X24732103Y18000004D01*
X25267897Y18000004D01*
X25267897Y17999997D01*
X25286250Y17837101D01*
X25286251Y17837095D01*
X25340397Y17682353D01*
X25340398Y17682352D01*
X25427619Y17543541D01*
X25543541Y17427619D01*
X25682352Y17340398D01*
X25837092Y17286252D01*
X25837098Y17286252D01*
X25837100Y17286251D01*
X25999996Y17267897D01*
X26000000Y17267897D01*
X26000004Y17267897D01*
X26162899Y17286251D01*
X26162898Y17286251D01*
X26162908Y17286252D01*
X26317648Y17340398D01*
X26456459Y17427619D01*
X26572381Y17543541D01*
X26659602Y17682352D01*
X26713748Y17837092D01*
X26726188Y17947500D01*
X26732103Y17999997D01*
X26732103Y18000004D01*
X27267897Y18000004D01*
X27267897Y17999997D01*
X27286250Y17837101D01*
X27286251Y17837095D01*
X27340397Y17682353D01*
X27340398Y17682352D01*
X27427619Y17543541D01*
X27543541Y17427619D01*
X27682352Y17340398D01*
X27837092Y17286252D01*
X27837098Y17286252D01*
X27837100Y17286251D01*
X27999996Y17267897D01*
X28000000Y17267897D01*
X28000004Y17267897D01*
X28162899Y17286251D01*
X28162898Y17286251D01*
X28162908Y17286252D01*
X28317648Y17340398D01*
X28456459Y17427619D01*
X28572381Y17543541D01*
X28659602Y17682352D01*
X28713748Y17837092D01*
X28726188Y17947500D01*
X28732103Y17999997D01*
X28732103Y18000004D01*
X29267897Y18000004D01*
X29267897Y17999997D01*
X29286250Y17837101D01*
X29286251Y17837095D01*
X29340397Y17682353D01*
X29340398Y17682352D01*
X29427619Y17543541D01*
X29543541Y17427619D01*
X29682352Y17340398D01*
X29837092Y17286252D01*
X29837098Y17286252D01*
X29837100Y17286251D01*
X29999996Y17267897D01*
X30000000Y17267897D01*
X30000004Y17267897D01*
X30162899Y17286251D01*
X30162898Y17286251D01*
X30162908Y17286252D01*
X30317648Y17340398D01*
X30456459Y17427619D01*
X30572381Y17543541D01*
X30659602Y17682352D01*
X30713748Y17837092D01*
X30726188Y17947500D01*
X30732103Y17999997D01*
X30732103Y18000004D01*
X30713749Y18162900D01*
X30713748Y18162906D01*
X30713748Y18162908D01*
X30659602Y18317648D01*
X30572381Y18456459D01*
X30456459Y18572381D01*
X30392518Y18612558D01*
X30317647Y18659603D01*
X30162905Y18713749D01*
X30162899Y18713750D01*
X30000004Y18732103D01*
X29999996Y18732103D01*
X29837100Y18713750D01*
X29837094Y18713749D01*
X29682352Y18659603D01*
X29543540Y18572381D01*
X29427619Y18456460D01*
X29340397Y18317648D01*
X29286251Y18162906D01*
X29286250Y18162900D01*
X29267897Y18000004D01*
X28732103Y18000004D01*
X28713749Y18162900D01*
X28713748Y18162906D01*
X28713748Y18162908D01*
X28659602Y18317648D01*
X28572381Y18456459D01*
X28456459Y18572381D01*
X28392518Y18612558D01*
X28317647Y18659603D01*
X28162905Y18713749D01*
X28162899Y18713750D01*
X28000004Y18732103D01*
X27999996Y18732103D01*
X27837100Y18713750D01*
X27837094Y18713749D01*
X27682352Y18659603D01*
X27543540Y18572381D01*
X27427619Y18456460D01*
X27340397Y18317648D01*
X27286251Y18162906D01*
X27286250Y18162900D01*
X27267897Y18000004D01*
X26732103Y18000004D01*
X26713749Y18162900D01*
X26713748Y18162906D01*
X26713748Y18162908D01*
X26659602Y18317648D01*
X26572381Y18456459D01*
X26456459Y18572381D01*
X26392518Y18612558D01*
X26317647Y18659603D01*
X26162905Y18713749D01*
X26162899Y18713750D01*
X26000004Y18732103D01*
X25999996Y18732103D01*
X25837100Y18713750D01*
X25837094Y18713749D01*
X25682352Y18659603D01*
X25543540Y18572381D01*
X25427619Y18456460D01*
X25340397Y18317648D01*
X25286251Y18162906D01*
X25286250Y18162900D01*
X25267897Y18000004D01*
X24732103Y18000004D01*
X24713749Y18162900D01*
X24713748Y18162906D01*
X24713748Y18162908D01*
X24659602Y18317648D01*
X24572381Y18456459D01*
X24456459Y18572381D01*
X24392518Y18612558D01*
X24317647Y18659603D01*
X24162905Y18713749D01*
X24162899Y18713750D01*
X24000004Y18732103D01*
X23999996Y18732103D01*
X23837100Y18713750D01*
X23837094Y18713749D01*
X23744080Y18681202D01*
X23674301Y18677641D01*
X23613674Y18712370D01*
X23581447Y18774364D01*
X23585194Y18836559D01*
X23620429Y18944997D01*
X23640406Y19071132D01*
X23652500Y19147487D01*
X23652500Y19352514D01*
X23631732Y19483635D01*
X23620429Y19555003D01*
X23585194Y19663441D01*
X23583200Y19733279D01*
X23619280Y19793112D01*
X23681981Y19823941D01*
X23744077Y19818800D01*
X23837092Y19786252D01*
X23837098Y19786252D01*
X23837099Y19786251D01*
X23999996Y19767897D01*
X24000000Y19767897D01*
X24000004Y19767897D01*
X24162899Y19786251D01*
X24162898Y19786251D01*
X24162908Y19786252D01*
X24317648Y19840398D01*
X24456459Y19927619D01*
X24572381Y20043541D01*
X24659602Y20182352D01*
X24713748Y20337092D01*
X24725939Y20445289D01*
X24732103Y20499997D01*
X24732103Y20500004D01*
X24713749Y20662900D01*
X24713748Y20662906D01*
X24713748Y20662908D01*
X24659602Y20817648D01*
X24572381Y20956459D01*
X24456459Y21072381D01*
X24317647Y21159603D01*
X24162905Y21213749D01*
X24162899Y21213750D01*
X24000004Y21232103D01*
X23999996Y21232103D01*
X23837100Y21213750D01*
X23837094Y21213749D01*
X23682352Y21159603D01*
X23543540Y21072381D01*
X23427619Y20956460D01*
X23340397Y20817648D01*
X23286251Y20662906D01*
X23286250Y20662900D01*
X23267896Y20500004D01*
X23274061Y20445289D01*
X23262005Y20376467D01*
X23214655Y20325088D01*
X23147044Y20307465D01*
X23080639Y20329193D01*
X23077973Y20331076D01*
X23032659Y20363998D01*
X23008187Y20376467D01*
X22849991Y20457073D01*
X22803211Y20472273D01*
X22655003Y20520429D01*
X22654997Y20520430D01*
X22452513Y20552500D01*
X22452509Y20552500D01*
X22247491Y20552500D01*
X22247487Y20552500D01*
X22045002Y20520430D01*
X22045000Y20520430D01*
X22044997Y20520429D01*
X21982115Y20499997D01*
X21850008Y20457073D01*
X21667337Y20363996D01*
X21501484Y20243498D01*
X21501479Y20243494D01*
X21356506Y20098521D01*
X21356502Y20098516D01*
X21236004Y19932663D01*
X21142927Y19749992D01*
X21137497Y19733279D01*
X21079571Y19555003D01*
X21079570Y19555000D01*
X21079570Y19554998D01*
X21047500Y19352514D01*
X14502500Y19352514D01*
X14481732Y19483635D01*
X14470429Y19555003D01*
X14407074Y19749987D01*
X14407072Y19749990D01*
X14407072Y19749992D01*
X14361007Y19840398D01*
X14313998Y19932659D01*
X14233438Y20043541D01*
X14193497Y20098516D01*
X14193493Y20098521D01*
X14048520Y20243494D01*
X14048515Y20243498D01*
X13882662Y20363996D01*
X13882661Y20363997D01*
X13882659Y20363998D01*
X13825613Y20393064D01*
X13699991Y20457073D01*
X13653211Y20472273D01*
X13567864Y20500004D01*
X15267897Y20500004D01*
X15267897Y20499997D01*
X15286250Y20337101D01*
X15286251Y20337095D01*
X15340397Y20182353D01*
X15340398Y20182352D01*
X15427619Y20043541D01*
X15543541Y19927619D01*
X15682352Y19840398D01*
X15837092Y19786252D01*
X15837098Y19786252D01*
X15837100Y19786251D01*
X15999996Y19767897D01*
X16000000Y19767897D01*
X16000004Y19767897D01*
X16162899Y19786251D01*
X16162898Y19786251D01*
X16162908Y19786252D01*
X16317648Y19840398D01*
X16456459Y19927619D01*
X16572381Y20043541D01*
X16659602Y20182352D01*
X16713748Y20337092D01*
X16725939Y20445289D01*
X16732103Y20499997D01*
X16732103Y20500004D01*
X17267897Y20500004D01*
X17267897Y20499997D01*
X17286250Y20337101D01*
X17286251Y20337095D01*
X17340397Y20182353D01*
X17340398Y20182352D01*
X17427619Y20043541D01*
X17543541Y19927619D01*
X17682352Y19840398D01*
X17837092Y19786252D01*
X17837098Y19786252D01*
X17837100Y19786251D01*
X17999996Y19767897D01*
X18000000Y19767897D01*
X18000004Y19767897D01*
X18162899Y19786251D01*
X18162898Y19786251D01*
X18162908Y19786252D01*
X18317648Y19840398D01*
X18456459Y19927619D01*
X18572381Y20043541D01*
X18659602Y20182352D01*
X18713748Y20337092D01*
X18725939Y20445289D01*
X18732103Y20499997D01*
X18732103Y20500004D01*
X19267897Y20500004D01*
X19267897Y20499997D01*
X19286250Y20337101D01*
X19286251Y20337095D01*
X19340397Y20182353D01*
X19340398Y20182352D01*
X19427619Y20043541D01*
X19543541Y19927619D01*
X19682352Y19840398D01*
X19837092Y19786252D01*
X19837098Y19786252D01*
X19837100Y19786251D01*
X19999996Y19767897D01*
X20000000Y19767897D01*
X20000004Y19767897D01*
X20162899Y19786251D01*
X20162898Y19786251D01*
X20162908Y19786252D01*
X20317648Y19840398D01*
X20456459Y19927619D01*
X20572381Y20043541D01*
X20659602Y20182352D01*
X20713748Y20337092D01*
X20725939Y20445289D01*
X20732103Y20499997D01*
X20732103Y20500004D01*
X20713749Y20662900D01*
X20713748Y20662906D01*
X20713748Y20662908D01*
X20659602Y20817648D01*
X20572381Y20956459D01*
X20456459Y21072381D01*
X20317647Y21159603D01*
X20162905Y21213749D01*
X20162899Y21213750D01*
X20000004Y21232103D01*
X19999996Y21232103D01*
X19837100Y21213750D01*
X19837094Y21213749D01*
X19682352Y21159603D01*
X19543540Y21072381D01*
X19427619Y20956460D01*
X19340397Y20817648D01*
X19286251Y20662906D01*
X19286250Y20662900D01*
X19267897Y20500004D01*
X18732103Y20500004D01*
X18713749Y20662900D01*
X18713748Y20662906D01*
X18713748Y20662908D01*
X18659602Y20817648D01*
X18572381Y20956459D01*
X18456459Y21072381D01*
X18317647Y21159603D01*
X18162905Y21213749D01*
X18162899Y21213750D01*
X18000004Y21232103D01*
X17999996Y21232103D01*
X17837100Y21213750D01*
X17837094Y21213749D01*
X17682352Y21159603D01*
X17543540Y21072381D01*
X17427619Y20956460D01*
X17340397Y20817648D01*
X17286251Y20662906D01*
X17286250Y20662900D01*
X17267897Y20500004D01*
X16732103Y20500004D01*
X16713749Y20662900D01*
X16713748Y20662906D01*
X16713748Y20662908D01*
X16659602Y20817648D01*
X16572381Y20956459D01*
X16456459Y21072381D01*
X16317647Y21159603D01*
X16162905Y21213749D01*
X16162899Y21213750D01*
X16000004Y21232103D01*
X15999996Y21232103D01*
X15837100Y21213750D01*
X15837094Y21213749D01*
X15682352Y21159603D01*
X15543540Y21072381D01*
X15427619Y20956460D01*
X15340397Y20817648D01*
X15286251Y20662906D01*
X15286250Y20662900D01*
X15267897Y20500004D01*
X13567864Y20500004D01*
X13505003Y20520429D01*
X13504997Y20520430D01*
X13302513Y20552500D01*
X13302509Y20552500D01*
X13097491Y20552500D01*
X13097487Y20552500D01*
X12895002Y20520430D01*
X12895000Y20520430D01*
X12894997Y20520429D01*
X12832115Y20499997D01*
X12700008Y20457073D01*
X12517337Y20363996D01*
X12351484Y20243498D01*
X12351479Y20243494D01*
X12206506Y20098521D01*
X12206502Y20098516D01*
X12086004Y19932663D01*
X11992927Y19749992D01*
X11987497Y19733279D01*
X11929571Y19555003D01*
X11929570Y19555000D01*
X11929570Y19554998D01*
X11897500Y19352514D01*
X5987415Y19352514D01*
X5984460Y22500004D01*
X14267897Y22500004D01*
X14267897Y22499997D01*
X14286250Y22337101D01*
X14286251Y22337095D01*
X14340397Y22182353D01*
X14340398Y22182352D01*
X14427619Y22043541D01*
X14543541Y21927619D01*
X14682352Y21840398D01*
X14837092Y21786252D01*
X14837098Y21786252D01*
X14837100Y21786251D01*
X14999996Y21767897D01*
X15000000Y21767897D01*
X15000004Y21767897D01*
X15162899Y21786251D01*
X15162898Y21786251D01*
X15162908Y21786252D01*
X15317648Y21840398D01*
X15456459Y21927619D01*
X15572381Y22043541D01*
X15659602Y22182352D01*
X15713748Y22337092D01*
X15732103Y22500000D01*
X15732103Y22500004D01*
X16267897Y22500004D01*
X16267897Y22499997D01*
X16286250Y22337101D01*
X16286251Y22337095D01*
X16340397Y22182353D01*
X16340398Y22182352D01*
X16427619Y22043541D01*
X16543541Y21927619D01*
X16682352Y21840398D01*
X16837092Y21786252D01*
X16837098Y21786252D01*
X16837100Y21786251D01*
X16999996Y21767897D01*
X17000000Y21767897D01*
X17000004Y21767897D01*
X17162899Y21786251D01*
X17162898Y21786251D01*
X17162908Y21786252D01*
X17317648Y21840398D01*
X17456459Y21927619D01*
X17572381Y22043541D01*
X17659602Y22182352D01*
X17713748Y22337092D01*
X17732103Y22500000D01*
X17732103Y22500004D01*
X18267897Y22500004D01*
X18267897Y22499997D01*
X18286250Y22337101D01*
X18286251Y22337095D01*
X18340397Y22182353D01*
X18340398Y22182352D01*
X18427619Y22043541D01*
X18543541Y21927619D01*
X18682352Y21840398D01*
X18837092Y21786252D01*
X18837098Y21786252D01*
X18837100Y21786251D01*
X18999996Y21767897D01*
X19000000Y21767897D01*
X19000004Y21767897D01*
X19162899Y21786251D01*
X19162898Y21786251D01*
X19162908Y21786252D01*
X19317648Y21840398D01*
X19456459Y21927619D01*
X19572381Y22043541D01*
X19659602Y22182352D01*
X19713748Y22337092D01*
X19732103Y22500000D01*
X19732103Y22500004D01*
X20267897Y22500004D01*
X20267897Y22499997D01*
X20286250Y22337101D01*
X20286251Y22337095D01*
X20340397Y22182353D01*
X20340398Y22182352D01*
X20427619Y22043541D01*
X20543541Y21927619D01*
X20682352Y21840398D01*
X20837092Y21786252D01*
X20837098Y21786252D01*
X20837100Y21786251D01*
X20999996Y21767897D01*
X21000000Y21767897D01*
X21000004Y21767897D01*
X21162899Y21786251D01*
X21162898Y21786251D01*
X21162908Y21786252D01*
X21317648Y21840398D01*
X21456459Y21927619D01*
X21572381Y22043541D01*
X21659602Y22182352D01*
X21713748Y22337092D01*
X21732103Y22500000D01*
X21713748Y22662908D01*
X21659602Y22817648D01*
X21572381Y22956459D01*
X21456459Y23072381D01*
X21317647Y23159603D01*
X21162905Y23213749D01*
X21162899Y23213750D01*
X21000004Y23232103D01*
X20999996Y23232103D01*
X20837100Y23213750D01*
X20837094Y23213749D01*
X20682352Y23159603D01*
X20543540Y23072381D01*
X20427619Y22956460D01*
X20340397Y22817648D01*
X20286251Y22662906D01*
X20286250Y22662900D01*
X20267897Y22500004D01*
X19732103Y22500004D01*
X19713748Y22662908D01*
X19659602Y22817648D01*
X19572381Y22956459D01*
X19456459Y23072381D01*
X19317647Y23159603D01*
X19162905Y23213749D01*
X19162899Y23213750D01*
X19000004Y23232103D01*
X18999996Y23232103D01*
X18837100Y23213750D01*
X18837094Y23213749D01*
X18682352Y23159603D01*
X18543540Y23072381D01*
X18427619Y22956460D01*
X18340397Y22817648D01*
X18286251Y22662906D01*
X18286250Y22662900D01*
X18267897Y22500004D01*
X17732103Y22500004D01*
X17713748Y22662908D01*
X17659602Y22817648D01*
X17572381Y22956459D01*
X17456459Y23072381D01*
X17317647Y23159603D01*
X17162905Y23213749D01*
X17162899Y23213750D01*
X17000004Y23232103D01*
X16999996Y23232103D01*
X16837100Y23213750D01*
X16837094Y23213749D01*
X16682352Y23159603D01*
X16543540Y23072381D01*
X16427619Y22956460D01*
X16340397Y22817648D01*
X16286251Y22662906D01*
X16286250Y22662900D01*
X16267897Y22500004D01*
X15732103Y22500004D01*
X15713748Y22662908D01*
X15659602Y22817648D01*
X15572381Y22956459D01*
X15456459Y23072381D01*
X15317647Y23159603D01*
X15162905Y23213749D01*
X15162899Y23213750D01*
X15000004Y23232103D01*
X14999996Y23232103D01*
X14837100Y23213750D01*
X14837094Y23213749D01*
X14682352Y23159603D01*
X14543540Y23072381D01*
X14427619Y22956460D01*
X14340397Y22817648D01*
X14286251Y22662906D01*
X14286250Y22662900D01*
X14267897Y22500004D01*
X5984460Y22500004D01*
X5980323Y26905908D01*
X20124012Y26905908D01*
X20141506Y26784230D01*
X20141507Y26784226D01*
X20192573Y26672409D01*
X20192574Y26672407D01*
X20273076Y26579503D01*
X20376492Y26513042D01*
X20494443Y26478408D01*
X20617373Y26478408D01*
X20735324Y26513042D01*
X20838740Y26579503D01*
X20919242Y26672407D01*
X20970309Y26784229D01*
X20987804Y26905908D01*
X20982789Y26940784D01*
X20992730Y27009941D01*
X21017842Y27046111D01*
X21852785Y27881052D01*
X21914108Y27914537D01*
X21940466Y27917371D01*
X22056336Y27917371D01*
X22174287Y27952005D01*
X22277703Y28018466D01*
X22358205Y28111370D01*
X22409272Y28223192D01*
X22426767Y28344871D01*
X22409272Y28466550D01*
X22409271Y28466554D01*
X22358205Y28578371D01*
X22358205Y28578372D01*
X22277703Y28671276D01*
X22174287Y28737737D01*
X22056336Y28772371D01*
X21933406Y28772371D01*
X21815455Y28737737D01*
X21815453Y28737737D01*
X21815453Y28737736D01*
X21712040Y28671277D01*
X21631538Y28578374D01*
X21631536Y28578371D01*
X21580470Y28466554D01*
X21580469Y28466550D01*
X21562975Y28344871D01*
X21562975Y28344870D01*
X21567989Y28309994D01*
X21558045Y28240835D01*
X21532932Y28204667D01*
X20697993Y27369727D01*
X20636670Y27336242D01*
X20610312Y27333408D01*
X20494443Y27333408D01*
X20376492Y27298774D01*
X20376490Y27298774D01*
X20376490Y27298773D01*
X20273077Y27232314D01*
X20192575Y27139411D01*
X20192573Y27139408D01*
X20141507Y27027591D01*
X20141506Y27027587D01*
X20124012Y26905908D01*
X5980323Y26905908D01*
X5978753Y28578374D01*
X5965542Y42648384D01*
X5985164Y42715441D01*
X6037925Y42761246D01*
X6089542Y42772500D01*
X12324838Y42772500D01*
X12391877Y42752815D01*
X12418547Y42729707D01*
X12467168Y42673595D01*
X12570584Y42607134D01*
X12688535Y42572500D01*
X12811465Y42572500D01*
X12929416Y42607134D01*
X13032832Y42673595D01*
X13113334Y42766499D01*
X13164401Y42878321D01*
X13181896Y43000000D01*
X13164401Y43121679D01*
X13164400Y43121683D01*
X13131505Y43193712D01*
X13113334Y43233501D01*
X13032832Y43326405D01*
X12929416Y43392866D01*
X12811465Y43427500D01*
X12688535Y43427500D01*
X12570584Y43392866D01*
X12570582Y43392866D01*
X12570582Y43392865D01*
X12467169Y43326406D01*
X12467168Y43326406D01*
X12467168Y43326405D01*
X12418548Y43270296D01*
X12359773Y43232523D01*
X12324838Y43227500D01*
X6088882Y43227500D01*
X6021843Y43247185D01*
X5976088Y43299989D01*
X5964882Y43351384D01*
X5950000Y59200000D01*
X5950000Y60250000D01*
X11318104Y60250000D01*
X11335598Y60128322D01*
X11335599Y60128318D01*
X11386665Y60016501D01*
X11386666Y60016499D01*
X11467168Y59923595D01*
X11570584Y59857134D01*
X11688535Y59822500D01*
X11804405Y59822500D01*
X11871444Y59802815D01*
X11892086Y59786181D01*
X12871132Y58807134D01*
X12871134Y58807132D01*
X12935801Y58780348D01*
X12954747Y58772500D01*
X12954749Y58772500D01*
X16545252Y58772500D01*
X16545253Y58772500D01*
X16628868Y58807135D01*
X16857914Y59036181D01*
X16919237Y59069666D01*
X16945595Y59072500D01*
X17061465Y59072500D01*
X17179416Y59107134D01*
X17282832Y59173595D01*
X17363334Y59266499D01*
X17399676Y59346078D01*
X17414400Y59378318D01*
X17414401Y59378322D01*
X17431896Y59500000D01*
X17414401Y59621679D01*
X17414400Y59621683D01*
X17363334Y59733500D01*
X17363334Y59733501D01*
X17282832Y59826405D01*
X17179416Y59892866D01*
X17061465Y59927500D01*
X16938535Y59927500D01*
X16820584Y59892866D01*
X16820582Y59892866D01*
X16820582Y59892865D01*
X16717169Y59826406D01*
X16636667Y59733503D01*
X16636665Y59733500D01*
X16585599Y59621683D01*
X16585598Y59621679D01*
X16568104Y59500000D01*
X16568104Y59499999D01*
X16573118Y59465123D01*
X16563174Y59395964D01*
X16538062Y59359797D01*
X16442087Y59263820D01*
X16380764Y59230334D01*
X16354405Y59227500D01*
X13145596Y59227500D01*
X13078557Y59247185D01*
X13057915Y59263819D01*
X12211938Y60109795D01*
X12178453Y60171118D01*
X12176881Y60215124D01*
X12181896Y60250000D01*
X12164401Y60371679D01*
X12164400Y60371683D01*
X12113334Y60483500D01*
X12113334Y60483501D01*
X12032832Y60576405D01*
X11929416Y60642866D01*
X11811465Y60677500D01*
X11688535Y60677500D01*
X11570584Y60642866D01*
X11570582Y60642866D01*
X11570582Y60642865D01*
X11467169Y60576406D01*
X11386667Y60483503D01*
X11386665Y60483500D01*
X11335599Y60371683D01*
X11335598Y60371679D01*
X11318104Y60250000D01*
X5950000Y60250000D01*
X5950000Y68875500D01*
X5969685Y68942539D01*
X6022489Y68988294D01*
X6074000Y68999500D01*
X9526000Y68999500D01*
X9593039Y68979815D01*
G37*
%TD.AperFunction*%
%TD*%
M02*
