M48
; DRILL file {KiCad 8.0.8} date 2025-07-23T18:15:38+0200
; FORMAT={-:-/ absolute / inch / decimal}
; #@! TF.CreationDate,2025-07-23T18:15:38+02:00
; #@! TF.GenerationSoftware,Kicad,Pcbnew,8.0.8
; #@! TF.FileFunction,Plated,1,2,PTH
FMAT,2
INCH
; #@! TA.AperFunction,Plated,PTH,ViaDrill
T1C0.0079
; #@! TA.AperFunction,Plated,PTH,ViaDrill
T2C0.0118
; #@! TA.AperFunction,Plated,PTH,ComponentDrill
T3C0.0236
; #@! TA.AperFunction,Plated,PTH,ComponentDrill
T4C0.0276
%
G90
G05
T1
X0.3805Y2.2441
X0.3976Y2.4803
X0.4035Y2.4291
X0.4626Y2.4291
X0.4724Y2.4803
X0.502Y2.4291
X0.5315Y2.4803
X0.6112Y2.2441
X0.6358Y1.9317
X0.6398Y2.4291
X0.6437Y2.4803
X0.6634Y2.0085
X0.6693Y2.0795
X0.7409Y1.4764
X0.8425Y2.1349
X0.9065Y2.0856
X0.9232Y1.8957
X1.0197Y2.377
X1.0827Y2.0992
X1.6181Y2.1358
X1.6504Y0.7264
T2
X0.4626Y2.372
X0.502Y1.6929
X0.6693Y2.3425
X0.7087Y1.7126
X0.75Y1.5394
X0.7874Y1.8701
X0.8093Y1.0593
X0.8659Y1.1159
X0.8701Y1.6654
X1.1358Y2.4291
X1.1358Y2.4035
X1.2815Y2.2933
X1.3091Y2.2933
X1.8445Y2.3642
T4
X0.5906Y0.8858
X0.5906Y0.6299
X0.6299Y0.8071
X0.6299Y0.7087
X0.6693Y0.8858
X0.6693Y0.6299
X0.7087Y0.8071
X0.7087Y0.7087
X0.748Y0.8858
X0.748Y0.6299
X0.7874Y0.8071
X0.7874Y0.7087
X0.8268Y0.8858
X0.8268Y0.6299
X0.9449Y0.8071
X0.9449Y0.7087
X0.9843Y0.8858
X0.9843Y0.6299
X1.0236Y0.8071
X1.0236Y0.7087
X1.063Y0.8858
X1.063Y0.6299
X1.1024Y0.8071
X1.1024Y0.7087
X1.1417Y0.8858
X1.1417Y0.6299
X1.1811Y0.8071
X1.1811Y0.7087
X1.2205Y0.8858
X1.2205Y0.6299
X1.2598Y0.8071
X1.2598Y0.7087
X1.2992Y0.8858
X1.2992Y0.6299
X1.3386Y0.8071
X1.3386Y0.7087
T3
G00X0.3516Y2.6268
M15
G01X0.3516Y2.6858
M16
G05
G00X0.3516Y2.4256
M15
G01X0.3516Y2.465
M16
G05
G00X0.6917Y2.6268
M15
G01X0.6917Y2.6858
M16
G05
G00X0.6917Y2.4256
M15
G01X0.6917Y2.465
M16
G05
M30
