%TF.GenerationSoftware,KiCad,Pcbnew,8.0.8*%
%TF.CreationDate,2025-07-23T18:15:36+02:00*%
%TF.ProjectId,CartridgeMk3ReaderMk6,43617274-7269-4646-9765-4d6b33526561,rev?*%
%TF.SameCoordinates,PX30a32c0PY5466720*%
%TF.FileFunction,Soldermask,Bot*%
%TF.FilePolarity,Negative*%
%FSLAX46Y46*%
G04 Gerber Fmt 4.6, Leading zero omitted, Abs format (unit mm)*
G04 Created by KiCad (PCBNEW 8.0.8) date 2025-07-23 18:15:36*
%MOMM*%
%LPD*%
G01*
G04 APERTURE LIST*
%ADD10C,2.350000*%
%ADD11R,1.200000X1.200000*%
%ADD12C,1.200000*%
%ADD13O,1.100000X2.100000*%
%ADD14O,1.100000X2.600000*%
G04 APERTURE END LIST*
D10*
%TO.C,J1*%
X22350000Y19250000D03*
X13200000Y19250000D03*
D11*
X34000000Y18000000D03*
D12*
X33000000Y16000000D03*
X32000000Y18000000D03*
X31000000Y16000000D03*
X30000000Y18000000D03*
X29000000Y16000000D03*
X28000000Y18000000D03*
X27000000Y16000000D03*
X26000000Y18000000D03*
X25000000Y16000000D03*
X24000000Y18000000D03*
X21000000Y16000000D03*
X20000000Y18000000D03*
X19000000Y16000000D03*
X18000000Y18000000D03*
X17000000Y16000000D03*
X16000000Y18000000D03*
X15000000Y16000000D03*
X34000000Y20500000D03*
X33000000Y22500000D03*
X32000000Y20500000D03*
X31000000Y22500000D03*
X30000000Y20500000D03*
X29000000Y22500000D03*
X28000000Y20500000D03*
X27000000Y22500000D03*
X26000000Y20500000D03*
X25000000Y22500000D03*
X24000000Y20500000D03*
X21000000Y22500000D03*
X20000000Y20500000D03*
X19000000Y22500000D03*
X18000000Y20500000D03*
X17000000Y22500000D03*
X16000000Y20500000D03*
X15000000Y22500000D03*
%TD*%
D13*
%TO.C,J2*%
X17570000Y62110000D03*
D14*
X17570000Y67470000D03*
D13*
X8930000Y62110000D03*
D14*
X8930000Y67470000D03*
%TD*%
M02*
