%TF.GenerationSoftware,KiCad,Pcbnew,8.0.8*%
%TF.CreationDate,2025-08-13T22:48:38+02:00*%
%TF.ProjectId,RetroConsoleMk3,52657472-6f43-46f6-9e73-6f6c654d6b33,rev?*%
%TF.SameCoordinates,PX237a085PY9f06730*%
%TF.FileFunction,Legend,Top*%
%TF.FilePolarity,Positive*%
%FSLAX46Y46*%
G04 Gerber Fmt 4.6, Leading zero omitted, Abs format (unit mm)*
G04 Created by KiCad (PCBNEW 8.0.8) date 2025-08-13 22:48:38*
%MOMM*%
%LPD*%
G01*
G04 APERTURE LIST*
%ADD10C,0.249999*%
%ADD11C,0.000000*%
%ADD12C,0.024999*%
%ADD13C,0.100000*%
%ADD14C,0.150000*%
%ADD15C,0.080000*%
%ADD16C,0.254000*%
%ADD17C,0.120000*%
%ADD18C,0.127000*%
%ADD19C,0.200000*%
%ADD20C,0.250000*%
G04 APERTURE END LIST*
D10*
X59450215Y77500000D02*
X59450215Y79100001D01*
X77149992Y94200000D02*
X77149992Y62400002D01*
D11*
G36*
X17199995Y78350000D02*
G01*
X19850422Y75940341D01*
X16476887Y75940341D01*
X12380671Y78590761D01*
X17199995Y78350000D01*
G37*
D12*
X77149992Y62400002D02*
X45349995Y62400002D01*
X45349995Y63800003D01*
X45349995Y92800000D01*
X46749995Y92800000D01*
X46749995Y63800003D01*
X75749991Y63800003D01*
X75749991Y92800000D01*
X46749995Y92800000D01*
X45349995Y92800000D01*
X45349995Y94200000D01*
X77149992Y94200000D01*
X77149992Y62400002D01*
G36*
X77149992Y62400002D02*
G01*
X45349995Y62400002D01*
X45349995Y63800003D01*
X45349995Y92800000D01*
X46749995Y92800000D01*
X46749995Y63800003D01*
X75749991Y63800003D01*
X75749991Y92800000D01*
X46749995Y92800000D01*
X45349995Y92800000D01*
X45349995Y94200000D01*
X77149992Y94200000D01*
X77149992Y62400002D01*
G37*
D11*
G36*
X23366996Y78916034D02*
G01*
X25801814Y75944462D01*
X21203047Y75944462D01*
X14074229Y82457353D01*
X23366996Y78916034D01*
G37*
D10*
X46749995Y92800000D02*
X46749995Y63800003D01*
X45349995Y94200000D02*
X77149992Y94200000D01*
D12*
X57550215Y77500000D02*
X50350195Y77500000D01*
X50350195Y79100001D01*
X57550215Y79100001D01*
X57550215Y77500000D01*
G36*
X57550215Y77500000D02*
G01*
X50350195Y77500000D01*
X50350195Y79100001D01*
X57550215Y79100001D01*
X57550215Y77500000D01*
G37*
D11*
G36*
X20291950Y71281753D02*
G01*
X11562330Y75128595D01*
X24145759Y75128595D01*
X20291950Y71281753D01*
G37*
G36*
X38057902Y74668515D02*
G01*
X41558000Y72639987D01*
X43884379Y69119485D01*
X38847379Y70926840D01*
X33646714Y71891195D01*
X33646714Y72715017D01*
X33646714Y74868048D01*
X34736320Y74868048D01*
X34736320Y72715017D01*
X39071647Y71961654D01*
X41320945Y71183468D01*
X40691422Y71982101D01*
X37714079Y73676947D01*
X34736320Y74868048D01*
X33646714Y74868048D01*
X33646714Y75128595D01*
X34462577Y76027325D01*
X38057902Y74668515D01*
G37*
G36*
X27154438Y73505609D02*
G01*
X25420469Y73505609D01*
X20904154Y68989090D01*
X20904154Y65660745D01*
X21445039Y65660745D01*
X21445039Y63496667D01*
X19281083Y63496667D01*
X19281083Y64578726D01*
X19821974Y64578726D01*
X19822678Y64550902D01*
X19824769Y64523442D01*
X19828212Y64496379D01*
X19832972Y64469747D01*
X19839017Y64443581D01*
X19846312Y64417914D01*
X19854822Y64392781D01*
X19864513Y64368215D01*
X19875352Y64344252D01*
X19887305Y64320925D01*
X19900336Y64298267D01*
X19914413Y64276314D01*
X19929500Y64255100D01*
X19945564Y64234657D01*
X19962571Y64215022D01*
X19980487Y64196227D01*
X19999277Y64178306D01*
X20018907Y64161295D01*
X20039343Y64145227D01*
X20060552Y64130136D01*
X20082499Y64116056D01*
X20105149Y64103022D01*
X20128469Y64091067D01*
X20152425Y64080225D01*
X20176982Y64070532D01*
X20202106Y64062020D01*
X20227764Y64054724D01*
X20253921Y64048678D01*
X20280543Y64043916D01*
X20307596Y64040473D01*
X20335046Y64038381D01*
X20362858Y64037677D01*
X20390708Y64038381D01*
X20418192Y64040473D01*
X20445278Y64043916D01*
X20471931Y64048678D01*
X20498116Y64054724D01*
X20523800Y64062020D01*
X20548950Y64070532D01*
X20573529Y64080225D01*
X20597506Y64091067D01*
X20620845Y64103022D01*
X20643513Y64116056D01*
X20665475Y64130136D01*
X20686698Y64145227D01*
X20707148Y64161295D01*
X20726789Y64178306D01*
X20745590Y64196227D01*
X20763514Y64215022D01*
X20780529Y64234657D01*
X20796600Y64255100D01*
X20811693Y64276314D01*
X20825775Y64298267D01*
X20838811Y64320925D01*
X20850766Y64344252D01*
X20861608Y64368215D01*
X20871302Y64392781D01*
X20879814Y64417914D01*
X20887109Y64443581D01*
X20893155Y64469747D01*
X20897916Y64496379D01*
X20901359Y64523442D01*
X20903450Y64550902D01*
X20904154Y64578726D01*
X20903450Y64606550D01*
X20901359Y64634010D01*
X20897916Y64661073D01*
X20893155Y64687704D01*
X20887109Y64713870D01*
X20879814Y64739535D01*
X20871302Y64764667D01*
X20861608Y64789232D01*
X20850766Y64813194D01*
X20838811Y64836520D01*
X20825775Y64859175D01*
X20811693Y64881126D01*
X20796600Y64902339D01*
X20780529Y64922780D01*
X20763514Y64942414D01*
X20745590Y64961207D01*
X20726789Y64979125D01*
X20707148Y64996134D01*
X20686698Y65012201D01*
X20665475Y65027290D01*
X20643513Y65041368D01*
X20620845Y65054400D01*
X20597506Y65066354D01*
X20573529Y65077194D01*
X20548950Y65086886D01*
X20523800Y65095397D01*
X20498116Y65102691D01*
X20471931Y65108736D01*
X20445278Y65113497D01*
X20418192Y65116940D01*
X20390708Y65119031D01*
X20362858Y65119736D01*
X20335046Y65119031D01*
X20307596Y65116940D01*
X20280543Y65113497D01*
X20253921Y65108736D01*
X20227764Y65102691D01*
X20202106Y65095397D01*
X20176982Y65086886D01*
X20152425Y65077194D01*
X20128469Y65066354D01*
X20105149Y65054400D01*
X20082499Y65041368D01*
X20060552Y65027290D01*
X20039343Y65012201D01*
X20018907Y64996134D01*
X19999277Y64979125D01*
X19980487Y64961207D01*
X19962571Y64942414D01*
X19945564Y64922780D01*
X19929500Y64902339D01*
X19914413Y64881126D01*
X19900336Y64859175D01*
X19887305Y64836520D01*
X19875352Y64813194D01*
X19864513Y64789232D01*
X19854822Y64764667D01*
X19846312Y64739535D01*
X19839017Y64713870D01*
X19832972Y64687704D01*
X19828212Y64661073D01*
X19824769Y64634010D01*
X19822678Y64606550D01*
X19821974Y64578726D01*
X19281083Y64578726D01*
X19281083Y65660745D01*
X19821974Y65660745D01*
X19821974Y68365875D01*
X15493647Y68365875D01*
X15493647Y67824865D01*
X13329688Y67824865D01*
X13329688Y68906885D01*
X13870579Y68906885D01*
X13871283Y68879061D01*
X13873374Y68851601D01*
X13876817Y68824539D01*
X13881578Y68797907D01*
X13887624Y68771742D01*
X13894919Y68746076D01*
X13903431Y68720944D01*
X13913124Y68696380D01*
X13923966Y68672418D01*
X13935922Y68649092D01*
X13948957Y68626437D01*
X13963038Y68604485D01*
X13978132Y68583272D01*
X13994203Y68562832D01*
X14011217Y68543198D01*
X14029142Y68524405D01*
X14047942Y68506487D01*
X14067584Y68489477D01*
X14088033Y68473411D01*
X14109256Y68458322D01*
X14131218Y68444243D01*
X14153886Y68431211D01*
X14177226Y68419257D01*
X14201203Y68408417D01*
X14225783Y68398725D01*
X14250932Y68390214D01*
X14276617Y68382919D01*
X14302803Y68376874D01*
X14329456Y68372113D01*
X14356542Y68368670D01*
X14384028Y68366580D01*
X14411878Y68365875D01*
X14439690Y68366580D01*
X14467140Y68368670D01*
X14494192Y68372113D01*
X14520814Y68376874D01*
X14546971Y68382919D01*
X14572629Y68390214D01*
X14597753Y68398725D01*
X14622310Y68408417D01*
X14646266Y68419257D01*
X14669586Y68431211D01*
X14692236Y68444243D01*
X14714183Y68458322D01*
X14735392Y68473411D01*
X14755828Y68489477D01*
X14775458Y68506487D01*
X14794248Y68524405D01*
X14812164Y68543198D01*
X14829171Y68562832D01*
X14845235Y68583272D01*
X14860323Y68604485D01*
X14874399Y68626437D01*
X14887431Y68649092D01*
X14899383Y68672418D01*
X14910222Y68696380D01*
X14919914Y68720944D01*
X14928424Y68746076D01*
X14935719Y68771742D01*
X14941764Y68797907D01*
X14946525Y68824539D01*
X14949967Y68851601D01*
X14952058Y68879061D01*
X14952763Y68906885D01*
X14952058Y68934708D01*
X14949967Y68962168D01*
X14946525Y68989232D01*
X14941764Y69015864D01*
X14935719Y69042030D01*
X14928424Y69067697D01*
X14919914Y69092830D01*
X14910222Y69117396D01*
X14899383Y69141359D01*
X14887431Y69164687D01*
X14874399Y69187344D01*
X14860323Y69209297D01*
X14845235Y69230512D01*
X14829171Y69250954D01*
X14812164Y69270590D01*
X14794248Y69289385D01*
X14775458Y69307306D01*
X14755828Y69324317D01*
X14735392Y69340385D01*
X14714183Y69355477D01*
X14692236Y69369557D01*
X14669586Y69382591D01*
X14646266Y69394546D01*
X14622310Y69405388D01*
X14597753Y69415082D01*
X14572629Y69423594D01*
X14546971Y69430890D01*
X14520814Y69436936D01*
X14494192Y69441698D01*
X14467140Y69445141D01*
X14439690Y69447232D01*
X14411878Y69447937D01*
X14384028Y69447232D01*
X14356542Y69445141D01*
X14329456Y69441698D01*
X14302803Y69436936D01*
X14276617Y69430890D01*
X14250932Y69423594D01*
X14225783Y69415082D01*
X14201203Y69405388D01*
X14177226Y69394546D01*
X14153886Y69382591D01*
X14131218Y69369557D01*
X14109256Y69355477D01*
X14088033Y69340385D01*
X14067584Y69324317D01*
X14047942Y69307306D01*
X14029142Y69289385D01*
X14011217Y69270590D01*
X13994203Y69250954D01*
X13978132Y69230512D01*
X13963038Y69209297D01*
X13948957Y69187344D01*
X13935922Y69164687D01*
X13923966Y69141359D01*
X13913124Y69117396D01*
X13903431Y69092830D01*
X13894919Y69067697D01*
X13887624Y69042030D01*
X13881578Y69015864D01*
X13876817Y68989232D01*
X13873374Y68962168D01*
X13871283Y68934708D01*
X13870579Y68906885D01*
X13329688Y68906885D01*
X13329688Y69988943D01*
X15493647Y69988943D01*
X15493647Y69447937D01*
X19832688Y69447937D01*
X24972343Y74587710D01*
X24990067Y74569983D01*
X24990067Y74587710D01*
X27154438Y74587710D01*
X27154438Y73505609D01*
G37*
D13*
X110299995Y72250000D02*
X110299995Y69350000D01*
D11*
G36*
X27154438Y69718417D02*
G01*
X27695323Y69718417D01*
X27695323Y68636401D01*
X24988007Y65931271D01*
X24996662Y68852426D01*
X26447407Y70259469D01*
X27154438Y70259469D01*
X27154438Y69718417D01*
G37*
G36*
X57550215Y77500000D02*
G01*
X50350195Y77500000D01*
X50350195Y79100001D01*
X57550215Y79100001D01*
X57550215Y77500000D01*
G37*
G36*
X27154438Y71341528D02*
G01*
X25966300Y71341528D01*
X23879438Y69254873D01*
X23879438Y62955615D01*
X24449183Y62955615D01*
X24449183Y60791537D01*
X22285227Y60791537D01*
X22285227Y61873596D01*
X22826112Y61873596D01*
X22826816Y61845772D01*
X22828907Y61818312D01*
X22832350Y61791248D01*
X22837111Y61764616D01*
X22843155Y61738450D01*
X22850450Y61712783D01*
X22858960Y61687649D01*
X22868652Y61663084D01*
X22879491Y61639120D01*
X22891443Y61615793D01*
X22904474Y61593135D01*
X22918551Y61571182D01*
X22933638Y61549967D01*
X22949703Y61529525D01*
X22966710Y61509889D01*
X22984625Y61491094D01*
X23003415Y61473174D01*
X23023045Y61456162D01*
X23043482Y61440094D01*
X23064690Y61425003D01*
X23086637Y61410923D01*
X23109287Y61397889D01*
X23132607Y61385934D01*
X23156563Y61375092D01*
X23181120Y61365398D01*
X23206245Y61356887D01*
X23231902Y61349591D01*
X23258059Y61343545D01*
X23284681Y61338783D01*
X23311734Y61335339D01*
X23339184Y61333248D01*
X23366996Y61332544D01*
X23394846Y61333248D01*
X23422331Y61335339D01*
X23449416Y61338783D01*
X23476069Y61343545D01*
X23502255Y61349591D01*
X23527939Y61356887D01*
X23553088Y61365398D01*
X23577669Y61375092D01*
X23601645Y61385934D01*
X23624985Y61397889D01*
X23647653Y61410923D01*
X23669615Y61425003D01*
X23690839Y61440094D01*
X23711288Y61456162D01*
X23730930Y61473174D01*
X23749731Y61491094D01*
X23767656Y61509889D01*
X23784671Y61529525D01*
X23800742Y61549967D01*
X23815836Y61571182D01*
X23829918Y61593135D01*
X23842953Y61615793D01*
X23854909Y61639120D01*
X23865751Y61663084D01*
X23875445Y61687649D01*
X23883957Y61712783D01*
X23891253Y61738450D01*
X23897299Y61764616D01*
X23902060Y61791248D01*
X23905503Y61818312D01*
X23907594Y61845772D01*
X23908299Y61873596D01*
X23907594Y61901419D01*
X23905503Y61928879D01*
X23902060Y61955942D01*
X23897299Y61982573D01*
X23891253Y62008739D01*
X23883957Y62034405D01*
X23875445Y62059537D01*
X23865751Y62084101D01*
X23854909Y62108063D01*
X23842953Y62131389D01*
X23829918Y62154045D01*
X23815836Y62175996D01*
X23800742Y62197209D01*
X23784671Y62217650D01*
X23767656Y62237284D01*
X23749731Y62256077D01*
X23730930Y62273995D01*
X23711288Y62291005D01*
X23690839Y62307072D01*
X23669615Y62322161D01*
X23647653Y62336239D01*
X23624985Y62349272D01*
X23601645Y62361226D01*
X23577669Y62372066D01*
X23553088Y62381758D01*
X23527939Y62390269D01*
X23502255Y62397564D01*
X23476069Y62403609D01*
X23449416Y62408370D01*
X23422331Y62411813D01*
X23394846Y62413904D01*
X23366996Y62414609D01*
X23339184Y62413904D01*
X23311734Y62411813D01*
X23284681Y62408370D01*
X23258059Y62403609D01*
X23231902Y62397564D01*
X23206245Y62390269D01*
X23181120Y62381758D01*
X23156563Y62372066D01*
X23132607Y62361226D01*
X23109287Y62349272D01*
X23086637Y62336239D01*
X23064690Y62322161D01*
X23043482Y62307072D01*
X23023045Y62291005D01*
X23003415Y62273995D01*
X22984625Y62256077D01*
X22966710Y62237284D01*
X22949703Y62217650D01*
X22933638Y62197209D01*
X22918551Y62175996D01*
X22904474Y62154045D01*
X22891443Y62131389D01*
X22879491Y62108063D01*
X22868652Y62084101D01*
X22858960Y62059537D01*
X22850450Y62034405D01*
X22843155Y62008739D01*
X22837111Y61982573D01*
X22832350Y61955942D01*
X22828907Y61928879D01*
X22826816Y61901419D01*
X22826112Y61873596D01*
X22285227Y61873596D01*
X22285227Y62955615D01*
X22797669Y62955615D01*
X22797669Y69718417D01*
X22812922Y69718417D01*
X25518174Y72423550D01*
X25531367Y72410440D01*
X25531367Y72423550D01*
X27154438Y72423550D01*
X27154438Y71341528D01*
G37*
G36*
X32023643Y66849911D02*
G01*
X32012928Y66849911D01*
X29859272Y64696466D01*
X29859272Y63975915D01*
X30849528Y62985916D01*
X32023643Y62985916D01*
X32023643Y60821838D01*
X29859272Y60821838D01*
X29859272Y61903900D01*
X30400578Y61903900D01*
X30401282Y61876076D01*
X30403373Y61848616D01*
X30406816Y61821552D01*
X30411577Y61794920D01*
X30417621Y61768753D01*
X30424916Y61743086D01*
X30433426Y61717953D01*
X30443118Y61693388D01*
X30453957Y61669424D01*
X30465909Y61646097D01*
X30478940Y61623439D01*
X30493017Y61601486D01*
X30508104Y61580271D01*
X30524169Y61559829D01*
X30541175Y61540193D01*
X30559091Y61521398D01*
X30577881Y61503478D01*
X30597511Y61486466D01*
X30617948Y61470398D01*
X30639156Y61455307D01*
X30661103Y61441227D01*
X30683753Y61428193D01*
X30707073Y61416238D01*
X30731029Y61405396D01*
X30755586Y61395702D01*
X30780711Y61387191D01*
X30806368Y61379895D01*
X30832525Y61373849D01*
X30859147Y61369087D01*
X30886200Y61365643D01*
X30913650Y61363552D01*
X30941462Y61362848D01*
X30969274Y61363552D01*
X30996724Y61365643D01*
X31023777Y61369087D01*
X31050399Y61373849D01*
X31076556Y61379895D01*
X31102214Y61387191D01*
X31127338Y61395702D01*
X31151895Y61405396D01*
X31175851Y61416238D01*
X31199171Y61428193D01*
X31221821Y61441227D01*
X31243768Y61455307D01*
X31264977Y61470398D01*
X31285413Y61486466D01*
X31305043Y61503478D01*
X31323833Y61521398D01*
X31341749Y61540193D01*
X31358756Y61559829D01*
X31374820Y61580271D01*
X31389907Y61601486D01*
X31403984Y61623439D01*
X31417015Y61646097D01*
X31428968Y61669424D01*
X31439807Y61693388D01*
X31449498Y61717953D01*
X31458008Y61743086D01*
X31465303Y61768753D01*
X31471348Y61794920D01*
X31476108Y61821552D01*
X31479551Y61848616D01*
X31481642Y61876076D01*
X31482346Y61903900D01*
X31481642Y61931723D01*
X31479551Y61959183D01*
X31476108Y61986246D01*
X31471348Y62012877D01*
X31465303Y62039043D01*
X31458008Y62064708D01*
X31449498Y62089840D01*
X31439807Y62114404D01*
X31428968Y62138366D01*
X31417015Y62161692D01*
X31403984Y62184348D01*
X31389907Y62206299D01*
X31374820Y62227512D01*
X31358756Y62247952D01*
X31341749Y62267586D01*
X31323833Y62286379D01*
X31305043Y62304298D01*
X31285413Y62321307D01*
X31264977Y62337374D01*
X31243768Y62352463D01*
X31221821Y62366541D01*
X31199171Y62379574D01*
X31175851Y62391527D01*
X31151895Y62402367D01*
X31127338Y62412060D01*
X31102214Y62420570D01*
X31076556Y62427865D01*
X31050399Y62433910D01*
X31023777Y62438671D01*
X30996724Y62442114D01*
X30969274Y62444205D01*
X30941462Y62444909D01*
X30913650Y62444205D01*
X30886200Y62442114D01*
X30859147Y62438671D01*
X30832525Y62433910D01*
X30806368Y62427865D01*
X30780711Y62420570D01*
X30755586Y62412060D01*
X30731029Y62402367D01*
X30707073Y62391527D01*
X30683753Y62379574D01*
X30661103Y62366541D01*
X30639156Y62352463D01*
X30617948Y62337374D01*
X30597511Y62321307D01*
X30577881Y62304298D01*
X30559091Y62286379D01*
X30541175Y62267586D01*
X30524169Y62247952D01*
X30508104Y62227512D01*
X30493017Y62206299D01*
X30478940Y62184348D01*
X30465909Y62161692D01*
X30453957Y62138366D01*
X30443118Y62114404D01*
X30433426Y62089840D01*
X30424916Y62064708D01*
X30417621Y62039043D01*
X30411577Y62012877D01*
X30406816Y61986246D01*
X30403373Y61959183D01*
X30401282Y61931723D01*
X30400578Y61903900D01*
X29859272Y61903900D01*
X29859272Y62445648D01*
X28778330Y63526968D01*
X28777503Y63526968D01*
X28777503Y65129303D01*
X28769676Y65136966D01*
X28777503Y65144678D01*
X28777503Y65210269D01*
X28843055Y65210269D01*
X30941462Y67308755D01*
X30941462Y69718417D01*
X32023643Y69718417D01*
X32023643Y66849911D01*
G37*
D10*
X77149992Y62400002D02*
X45349995Y62400002D01*
D11*
G36*
X32564527Y70800482D02*
G01*
X28236207Y70800482D01*
X28236207Y72964602D01*
X28236207Y74046618D01*
X29318388Y74046618D01*
X29318388Y72964602D01*
X31482346Y71882541D01*
X31482346Y74046618D01*
X29318388Y74046618D01*
X28236207Y74046618D01*
X28236207Y75128595D01*
X32564527Y75128595D01*
X32564527Y70800482D01*
G37*
D10*
X57550215Y79100001D02*
X57550215Y77500000D01*
D11*
G36*
X31349595Y79267692D02*
G01*
X33646714Y76751665D01*
X33105412Y76210780D01*
X27154438Y76210780D01*
X27154438Y75669896D01*
X22032511Y81929655D01*
X31349595Y79267692D01*
G37*
D10*
X70650214Y79100001D02*
X59450215Y79100001D01*
X50350195Y77500000D02*
X50350195Y79100001D01*
X45349995Y62400002D02*
X45349995Y94200000D01*
D11*
G36*
X43648576Y69024832D02*
G01*
X33105412Y67192212D01*
X33105412Y68363357D01*
X34095255Y68363357D01*
X37988639Y68958871D01*
X34095255Y68821423D01*
X34095255Y68363357D01*
X33105412Y68363357D01*
X33105412Y68821423D01*
X33105412Y69718417D01*
X37974632Y69772549D01*
X43648576Y69024832D01*
G37*
D12*
X70650214Y77500000D02*
X59450215Y77500000D01*
X59450215Y79100001D01*
X70650214Y79100001D01*
X70650214Y77500000D01*
G36*
X70650214Y77500000D02*
G01*
X59450215Y77500000D01*
X59450215Y79100001D01*
X70650214Y79100001D01*
X70650214Y77500000D01*
G37*
D10*
X57550215Y79100001D02*
X50350195Y79100001D01*
X75749991Y63800003D02*
X75749991Y92800000D01*
D11*
G36*
X70650214Y77500000D02*
G01*
X59450215Y77500000D01*
X59450215Y79100001D01*
X70650214Y79100001D01*
X70650214Y77500000D01*
G37*
D13*
X110349995Y84150000D02*
X110349995Y81050000D01*
D10*
X70650214Y79100001D02*
X70650214Y77500000D01*
X57550215Y77500000D02*
X50350195Y77500000D01*
X70650214Y77500000D02*
X59450215Y77500000D01*
D11*
G36*
X29859272Y67711618D02*
G01*
X29858454Y67711618D01*
X29859272Y67710669D01*
X27695323Y65546591D01*
X27695323Y62144082D01*
X28236207Y62144082D01*
X28236207Y59980002D01*
X26072251Y59980002D01*
X26072251Y61062060D01*
X26613136Y61062060D01*
X26613840Y61034237D01*
X26615931Y61006776D01*
X26619374Y60979713D01*
X26624136Y60953082D01*
X26630181Y60926915D01*
X26637477Y60901248D01*
X26645989Y60876115D01*
X26655683Y60851550D01*
X26666525Y60827586D01*
X26678481Y60804259D01*
X26691517Y60781602D01*
X26705598Y60759649D01*
X26720692Y60738434D01*
X26736763Y60717992D01*
X26753779Y60698356D01*
X26771703Y60679561D01*
X26790504Y60661641D01*
X26810146Y60644630D01*
X26830596Y60628561D01*
X26851819Y60613470D01*
X26873782Y60599390D01*
X26896450Y60586356D01*
X26919789Y60574401D01*
X26943766Y60563560D01*
X26968346Y60553866D01*
X26993495Y60545354D01*
X27019180Y60538058D01*
X27045365Y60532012D01*
X27072018Y60527250D01*
X27099104Y60523807D01*
X27126588Y60521716D01*
X27154438Y60521011D01*
X27182250Y60521716D01*
X27209699Y60523807D01*
X27236751Y60527250D01*
X27263373Y60532012D01*
X27289530Y60538058D01*
X27315187Y60545354D01*
X27340312Y60553866D01*
X27364869Y60563560D01*
X27388824Y60574401D01*
X27412145Y60586356D01*
X27434795Y60599390D01*
X27456741Y60613470D01*
X27477950Y60628561D01*
X27498387Y60644630D01*
X27518017Y60661641D01*
X27536807Y60679561D01*
X27554723Y60698356D01*
X27571730Y60717992D01*
X27587794Y60738434D01*
X27602882Y60759649D01*
X27616958Y60781602D01*
X27629990Y60804259D01*
X27641943Y60827586D01*
X27652782Y60851550D01*
X27662474Y60876115D01*
X27670984Y60901248D01*
X27678279Y60926915D01*
X27684323Y60953082D01*
X27689084Y60979713D01*
X27692527Y61006776D01*
X27694618Y61034237D01*
X27695323Y61062060D01*
X27694618Y61089884D01*
X27692527Y61117344D01*
X27689084Y61144407D01*
X27684323Y61171038D01*
X27678279Y61197204D01*
X27670984Y61222870D01*
X27662474Y61248002D01*
X27652782Y61272566D01*
X27641943Y61296528D01*
X27629990Y61319854D01*
X27616958Y61342510D01*
X27602882Y61364461D01*
X27587794Y61385674D01*
X27571730Y61406114D01*
X27554723Y61425748D01*
X27536807Y61444541D01*
X27518017Y61462459D01*
X27498387Y61479469D01*
X27477950Y61495535D01*
X27456741Y61510624D01*
X27434795Y61524702D01*
X27412145Y61537735D01*
X27388824Y61549688D01*
X27364869Y61560528D01*
X27340312Y61570220D01*
X27315187Y61578731D01*
X27289530Y61586026D01*
X27263373Y61592071D01*
X27236751Y61596832D01*
X27209699Y61600275D01*
X27182250Y61602365D01*
X27154438Y61603070D01*
X27126588Y61602365D01*
X27099104Y61600275D01*
X27072018Y61596832D01*
X27045365Y61592071D01*
X27019180Y61586026D01*
X26993495Y61578731D01*
X26968346Y61570220D01*
X26943766Y61560528D01*
X26919789Y61549688D01*
X26896450Y61537735D01*
X26873782Y61524702D01*
X26851819Y61510624D01*
X26830596Y61495535D01*
X26810146Y61479469D01*
X26790504Y61462459D01*
X26771703Y61444541D01*
X26753779Y61425748D01*
X26736763Y61406114D01*
X26720692Y61385674D01*
X26705598Y61364461D01*
X26691517Y61342510D01*
X26678481Y61319854D01*
X26666525Y61296528D01*
X26655683Y61272566D01*
X26645989Y61248002D01*
X26637477Y61222870D01*
X26630181Y61197204D01*
X26624136Y61171038D01*
X26619374Y61144407D01*
X26615931Y61117344D01*
X26613840Y61089884D01*
X26613136Y61062060D01*
X26072251Y61062060D01*
X26072251Y62144082D01*
X26613136Y62144082D01*
X26613136Y65987094D01*
X26609428Y65990924D01*
X26613136Y65994760D01*
X26613136Y66042706D01*
X26661375Y66042706D01*
X28777503Y68158877D01*
X28777503Y69718417D01*
X29859272Y69718417D01*
X29859272Y67711618D01*
G37*
D10*
X46749995Y63800003D02*
X75749991Y63800003D01*
X75749991Y92800000D02*
X46749995Y92800000D01*
D13*
X36622301Y101132644D02*
X37193729Y101132644D01*
X36908015Y101132644D02*
X36908015Y100132644D01*
X36908015Y100132644D02*
X37003253Y100275501D01*
X37003253Y100275501D02*
X37098491Y100370739D01*
X37098491Y100370739D02*
X37193729Y100418358D01*
X37193729Y103447770D02*
X37146110Y103400151D01*
X37146110Y103400151D02*
X37050872Y103352532D01*
X37050872Y103352532D02*
X36812777Y103352532D01*
X36812777Y103352532D02*
X36717539Y103400151D01*
X36717539Y103400151D02*
X36669920Y103447770D01*
X36669920Y103447770D02*
X36622301Y103543008D01*
X36622301Y103543008D02*
X36622301Y103638246D01*
X36622301Y103638246D02*
X36669920Y103781103D01*
X36669920Y103781103D02*
X37241348Y104352532D01*
X37241348Y104352532D02*
X36622301Y104352532D01*
X37241348Y106572420D02*
X36622301Y106572420D01*
X36622301Y106572420D02*
X36955634Y106953372D01*
X36955634Y106953372D02*
X36812777Y106953372D01*
X36812777Y106953372D02*
X36717539Y107000991D01*
X36717539Y107000991D02*
X36669920Y107048610D01*
X36669920Y107048610D02*
X36622301Y107143848D01*
X36622301Y107143848D02*
X36622301Y107381943D01*
X36622301Y107381943D02*
X36669920Y107477181D01*
X36669920Y107477181D02*
X36717539Y107524800D01*
X36717539Y107524800D02*
X36812777Y107572420D01*
X36812777Y107572420D02*
X37098491Y107572420D01*
X37098491Y107572420D02*
X37193729Y107524800D01*
X37193729Y107524800D02*
X37241348Y107477181D01*
X59177688Y48239626D02*
X59082450Y48287245D01*
X59082450Y48287245D02*
X58939593Y48287245D01*
X58939593Y48287245D02*
X58796736Y48239626D01*
X58796736Y48239626D02*
X58701498Y48144388D01*
X58701498Y48144388D02*
X58653879Y48049150D01*
X58653879Y48049150D02*
X58606260Y47858674D01*
X58606260Y47858674D02*
X58606260Y47715817D01*
X58606260Y47715817D02*
X58653879Y47525341D01*
X58653879Y47525341D02*
X58701498Y47430103D01*
X58701498Y47430103D02*
X58796736Y47334864D01*
X58796736Y47334864D02*
X58939593Y47287245D01*
X58939593Y47287245D02*
X59034831Y47287245D01*
X59034831Y47287245D02*
X59177688Y47334864D01*
X59177688Y47334864D02*
X59225307Y47382484D01*
X59225307Y47382484D02*
X59225307Y47715817D01*
X59225307Y47715817D02*
X59034831Y47715817D01*
X59653879Y47287245D02*
X59653879Y48287245D01*
X59653879Y48287245D02*
X60225307Y47287245D01*
X60225307Y47287245D02*
X60225307Y48287245D01*
X60701498Y47287245D02*
X60701498Y48287245D01*
X60701498Y48287245D02*
X60939593Y48287245D01*
X60939593Y48287245D02*
X61082450Y48239626D01*
X61082450Y48239626D02*
X61177688Y48144388D01*
X61177688Y48144388D02*
X61225307Y48049150D01*
X61225307Y48049150D02*
X61272926Y47858674D01*
X61272926Y47858674D02*
X61272926Y47715817D01*
X61272926Y47715817D02*
X61225307Y47525341D01*
X61225307Y47525341D02*
X61177688Y47430103D01*
X61177688Y47430103D02*
X61082450Y47334864D01*
X61082450Y47334864D02*
X60939593Y47287245D01*
X60939593Y47287245D02*
X60701498Y47287245D01*
X59320545Y43972119D02*
X59225307Y44019738D01*
X59225307Y44019738D02*
X59130069Y44114976D01*
X59130069Y44114976D02*
X58987212Y44257834D01*
X58987212Y44257834D02*
X58891974Y44305453D01*
X58891974Y44305453D02*
X58796736Y44305453D01*
X58844355Y44067357D02*
X58749117Y44114976D01*
X58749117Y44114976D02*
X58653879Y44210215D01*
X58653879Y44210215D02*
X58606260Y44400691D01*
X58606260Y44400691D02*
X58606260Y44734024D01*
X58606260Y44734024D02*
X58653879Y44924500D01*
X58653879Y44924500D02*
X58749117Y45019738D01*
X58749117Y45019738D02*
X58844355Y45067357D01*
X58844355Y45067357D02*
X59034831Y45067357D01*
X59034831Y45067357D02*
X59130069Y45019738D01*
X59130069Y45019738D02*
X59225307Y44924500D01*
X59225307Y44924500D02*
X59272926Y44734024D01*
X59272926Y44734024D02*
X59272926Y44400691D01*
X59272926Y44400691D02*
X59225307Y44210215D01*
X59225307Y44210215D02*
X59130069Y44114976D01*
X59130069Y44114976D02*
X59034831Y44067357D01*
X59034831Y44067357D02*
X58844355Y44067357D01*
X59701498Y45067357D02*
X59701498Y44257834D01*
X59701498Y44257834D02*
X59749117Y44162596D01*
X59749117Y44162596D02*
X59796736Y44114976D01*
X59796736Y44114976D02*
X59891974Y44067357D01*
X59891974Y44067357D02*
X60082450Y44067357D01*
X60082450Y44067357D02*
X60177688Y44114976D01*
X60177688Y44114976D02*
X60225307Y44162596D01*
X60225307Y44162596D02*
X60272926Y44257834D01*
X60272926Y44257834D02*
X60272926Y45067357D01*
X60749117Y44067357D02*
X60749117Y45067357D01*
X61082450Y45067357D02*
X61653878Y45067357D01*
X61368164Y44067357D02*
X61368164Y45067357D01*
X59225307Y40847469D02*
X58891974Y41323660D01*
X58653879Y40847469D02*
X58653879Y41847469D01*
X58653879Y41847469D02*
X59034831Y41847469D01*
X59034831Y41847469D02*
X59130069Y41799850D01*
X59130069Y41799850D02*
X59177688Y41752231D01*
X59177688Y41752231D02*
X59225307Y41656993D01*
X59225307Y41656993D02*
X59225307Y41514136D01*
X59225307Y41514136D02*
X59177688Y41418898D01*
X59177688Y41418898D02*
X59130069Y41371279D01*
X59130069Y41371279D02*
X59034831Y41323660D01*
X59034831Y41323660D02*
X58653879Y41323660D01*
X59653879Y41371279D02*
X59987212Y41371279D01*
X60130069Y40847469D02*
X59653879Y40847469D01*
X59653879Y40847469D02*
X59653879Y41847469D01*
X59653879Y41847469D02*
X60130069Y41847469D01*
X60511022Y40895088D02*
X60653879Y40847469D01*
X60653879Y40847469D02*
X60891974Y40847469D01*
X60891974Y40847469D02*
X60987212Y40895088D01*
X60987212Y40895088D02*
X61034831Y40942708D01*
X61034831Y40942708D02*
X61082450Y41037946D01*
X61082450Y41037946D02*
X61082450Y41133184D01*
X61082450Y41133184D02*
X61034831Y41228422D01*
X61034831Y41228422D02*
X60987212Y41276041D01*
X60987212Y41276041D02*
X60891974Y41323660D01*
X60891974Y41323660D02*
X60701498Y41371279D01*
X60701498Y41371279D02*
X60606260Y41418898D01*
X60606260Y41418898D02*
X60558641Y41466517D01*
X60558641Y41466517D02*
X60511022Y41561755D01*
X60511022Y41561755D02*
X60511022Y41656993D01*
X60511022Y41656993D02*
X60558641Y41752231D01*
X60558641Y41752231D02*
X60606260Y41799850D01*
X60606260Y41799850D02*
X60701498Y41847469D01*
X60701498Y41847469D02*
X60939593Y41847469D01*
X60939593Y41847469D02*
X61082450Y41799850D01*
X61511022Y41371279D02*
X61844355Y41371279D01*
X61987212Y40847469D02*
X61511022Y40847469D01*
X61511022Y40847469D02*
X61511022Y41847469D01*
X61511022Y41847469D02*
X61987212Y41847469D01*
X62272927Y41847469D02*
X62844355Y41847469D01*
X62558641Y40847469D02*
X62558641Y41847469D01*
X58606260Y37675200D02*
X58749117Y37627581D01*
X58749117Y37627581D02*
X58987212Y37627581D01*
X58987212Y37627581D02*
X59082450Y37675200D01*
X59082450Y37675200D02*
X59130069Y37722820D01*
X59130069Y37722820D02*
X59177688Y37818058D01*
X59177688Y37818058D02*
X59177688Y37913296D01*
X59177688Y37913296D02*
X59130069Y38008534D01*
X59130069Y38008534D02*
X59082450Y38056153D01*
X59082450Y38056153D02*
X58987212Y38103772D01*
X58987212Y38103772D02*
X58796736Y38151391D01*
X58796736Y38151391D02*
X58701498Y38199010D01*
X58701498Y38199010D02*
X58653879Y38246629D01*
X58653879Y38246629D02*
X58606260Y38341867D01*
X58606260Y38341867D02*
X58606260Y38437105D01*
X58606260Y38437105D02*
X58653879Y38532343D01*
X58653879Y38532343D02*
X58701498Y38579962D01*
X58701498Y38579962D02*
X58796736Y38627581D01*
X58796736Y38627581D02*
X59034831Y38627581D01*
X59034831Y38627581D02*
X59177688Y38579962D01*
X59606260Y37627581D02*
X59606260Y38627581D01*
X59606260Y38151391D02*
X60177688Y38151391D01*
X60177688Y37627581D02*
X60177688Y38627581D01*
X60653879Y38627581D02*
X60653879Y37818058D01*
X60653879Y37818058D02*
X60701498Y37722820D01*
X60701498Y37722820D02*
X60749117Y37675200D01*
X60749117Y37675200D02*
X60844355Y37627581D01*
X60844355Y37627581D02*
X61034831Y37627581D01*
X61034831Y37627581D02*
X61130069Y37675200D01*
X61130069Y37675200D02*
X61177688Y37722820D01*
X61177688Y37722820D02*
X61225307Y37818058D01*
X61225307Y37818058D02*
X61225307Y38627581D01*
X61558641Y38627581D02*
X62130069Y38627581D01*
X61844355Y37627581D02*
X61844355Y38627581D01*
X62463403Y37627581D02*
X62463403Y38627581D01*
X62463403Y38627581D02*
X62701498Y38627581D01*
X62701498Y38627581D02*
X62844355Y38579962D01*
X62844355Y38579962D02*
X62939593Y38484724D01*
X62939593Y38484724D02*
X62987212Y38389486D01*
X62987212Y38389486D02*
X63034831Y38199010D01*
X63034831Y38199010D02*
X63034831Y38056153D01*
X63034831Y38056153D02*
X62987212Y37865677D01*
X62987212Y37865677D02*
X62939593Y37770439D01*
X62939593Y37770439D02*
X62844355Y37675200D01*
X62844355Y37675200D02*
X62701498Y37627581D01*
X62701498Y37627581D02*
X62463403Y37627581D01*
X63653879Y38627581D02*
X63844355Y38627581D01*
X63844355Y38627581D02*
X63939593Y38579962D01*
X63939593Y38579962D02*
X64034831Y38484724D01*
X64034831Y38484724D02*
X64082450Y38294248D01*
X64082450Y38294248D02*
X64082450Y37960915D01*
X64082450Y37960915D02*
X64034831Y37770439D01*
X64034831Y37770439D02*
X63939593Y37675200D01*
X63939593Y37675200D02*
X63844355Y37627581D01*
X63844355Y37627581D02*
X63653879Y37627581D01*
X63653879Y37627581D02*
X63558641Y37675200D01*
X63558641Y37675200D02*
X63463403Y37770439D01*
X63463403Y37770439D02*
X63415784Y37960915D01*
X63415784Y37960915D02*
X63415784Y38294248D01*
X63415784Y38294248D02*
X63463403Y38484724D01*
X63463403Y38484724D02*
X63558641Y38579962D01*
X63558641Y38579962D02*
X63653879Y38627581D01*
X64415784Y38627581D02*
X64653879Y37627581D01*
X64653879Y37627581D02*
X64844355Y38341867D01*
X64844355Y38341867D02*
X65034831Y37627581D01*
X65034831Y37627581D02*
X65272927Y38627581D01*
X65653879Y37627581D02*
X65653879Y38627581D01*
X65653879Y38627581D02*
X66225307Y37627581D01*
X66225307Y37627581D02*
X66225307Y38627581D01*
X44825307Y124427581D02*
X44491974Y124903772D01*
X44253879Y124427581D02*
X44253879Y125427581D01*
X44253879Y125427581D02*
X44634831Y125427581D01*
X44634831Y125427581D02*
X44730069Y125379962D01*
X44730069Y125379962D02*
X44777688Y125332343D01*
X44777688Y125332343D02*
X44825307Y125237105D01*
X44825307Y125237105D02*
X44825307Y125094248D01*
X44825307Y125094248D02*
X44777688Y124999010D01*
X44777688Y124999010D02*
X44730069Y124951391D01*
X44730069Y124951391D02*
X44634831Y124903772D01*
X44634831Y124903772D02*
X44253879Y124903772D01*
X45396736Y124427581D02*
X45301498Y124475200D01*
X45301498Y124475200D02*
X45253879Y124522820D01*
X45253879Y124522820D02*
X45206260Y124618058D01*
X45206260Y124618058D02*
X45206260Y124903772D01*
X45206260Y124903772D02*
X45253879Y124999010D01*
X45253879Y124999010D02*
X45301498Y125046629D01*
X45301498Y125046629D02*
X45396736Y125094248D01*
X45396736Y125094248D02*
X45539593Y125094248D01*
X45539593Y125094248D02*
X45634831Y125046629D01*
X45634831Y125046629D02*
X45682450Y124999010D01*
X45682450Y124999010D02*
X45730069Y124903772D01*
X45730069Y124903772D02*
X45730069Y124618058D01*
X45730069Y124618058D02*
X45682450Y124522820D01*
X45682450Y124522820D02*
X45634831Y124475200D01*
X45634831Y124475200D02*
X45539593Y124427581D01*
X45539593Y124427581D02*
X45396736Y124427581D01*
X46301498Y124427581D02*
X46206260Y124475200D01*
X46206260Y124475200D02*
X46158641Y124522820D01*
X46158641Y124522820D02*
X46111022Y124618058D01*
X46111022Y124618058D02*
X46111022Y124903772D01*
X46111022Y124903772D02*
X46158641Y124999010D01*
X46158641Y124999010D02*
X46206260Y125046629D01*
X46206260Y125046629D02*
X46301498Y125094248D01*
X46301498Y125094248D02*
X46444355Y125094248D01*
X46444355Y125094248D02*
X46539593Y125046629D01*
X46539593Y125046629D02*
X46587212Y124999010D01*
X46587212Y124999010D02*
X46634831Y124903772D01*
X46634831Y124903772D02*
X46634831Y124618058D01*
X46634831Y124618058D02*
X46587212Y124522820D01*
X46587212Y124522820D02*
X46539593Y124475200D01*
X46539593Y124475200D02*
X46444355Y124427581D01*
X46444355Y124427581D02*
X46301498Y124427581D01*
X47063403Y124427581D02*
X47063403Y125427581D01*
X47634831Y124427581D02*
X47206260Y124999010D01*
X47634831Y125427581D02*
X47063403Y124856153D01*
X48825308Y124427581D02*
X48825308Y125427581D01*
X48825308Y125427581D02*
X49158641Y124713296D01*
X49158641Y124713296D02*
X49491974Y125427581D01*
X49491974Y125427581D02*
X49491974Y124427581D01*
X49968165Y124427581D02*
X49968165Y125427581D01*
X50063403Y124808534D02*
X50349117Y124427581D01*
X50349117Y125094248D02*
X49968165Y124713296D01*
X50682451Y125427581D02*
X51301498Y125427581D01*
X51301498Y125427581D02*
X50968165Y125046629D01*
X50968165Y125046629D02*
X51111022Y125046629D01*
X51111022Y125046629D02*
X51206260Y124999010D01*
X51206260Y124999010D02*
X51253879Y124951391D01*
X51253879Y124951391D02*
X51301498Y124856153D01*
X51301498Y124856153D02*
X51301498Y124618058D01*
X51301498Y124618058D02*
X51253879Y124522820D01*
X51253879Y124522820D02*
X51206260Y124475200D01*
X51206260Y124475200D02*
X51111022Y124427581D01*
X51111022Y124427581D02*
X50825308Y124427581D01*
X50825308Y124427581D02*
X50730070Y124475200D01*
X50730070Y124475200D02*
X50682451Y124522820D01*
X45525307Y109082484D02*
X45477688Y109034864D01*
X45477688Y109034864D02*
X45334831Y108987245D01*
X45334831Y108987245D02*
X45239593Y108987245D01*
X45239593Y108987245D02*
X45096736Y109034864D01*
X45096736Y109034864D02*
X45001498Y109130103D01*
X45001498Y109130103D02*
X44953879Y109225341D01*
X44953879Y109225341D02*
X44906260Y109415817D01*
X44906260Y109415817D02*
X44906260Y109558674D01*
X44906260Y109558674D02*
X44953879Y109749150D01*
X44953879Y109749150D02*
X45001498Y109844388D01*
X45001498Y109844388D02*
X45096736Y109939626D01*
X45096736Y109939626D02*
X45239593Y109987245D01*
X45239593Y109987245D02*
X45334831Y109987245D01*
X45334831Y109987245D02*
X45477688Y109939626D01*
X45477688Y109939626D02*
X45525307Y109892007D01*
X46096736Y108987245D02*
X46001498Y109034864D01*
X46001498Y109034864D02*
X45953879Y109082484D01*
X45953879Y109082484D02*
X45906260Y109177722D01*
X45906260Y109177722D02*
X45906260Y109463436D01*
X45906260Y109463436D02*
X45953879Y109558674D01*
X45953879Y109558674D02*
X46001498Y109606293D01*
X46001498Y109606293D02*
X46096736Y109653912D01*
X46096736Y109653912D02*
X46239593Y109653912D01*
X46239593Y109653912D02*
X46334831Y109606293D01*
X46334831Y109606293D02*
X46382450Y109558674D01*
X46382450Y109558674D02*
X46430069Y109463436D01*
X46430069Y109463436D02*
X46430069Y109177722D01*
X46430069Y109177722D02*
X46382450Y109082484D01*
X46382450Y109082484D02*
X46334831Y109034864D01*
X46334831Y109034864D02*
X46239593Y108987245D01*
X46239593Y108987245D02*
X46096736Y108987245D01*
X46858641Y109653912D02*
X46858641Y108987245D01*
X46858641Y109558674D02*
X46906260Y109606293D01*
X46906260Y109606293D02*
X47001498Y109653912D01*
X47001498Y109653912D02*
X47144355Y109653912D01*
X47144355Y109653912D02*
X47239593Y109606293D01*
X47239593Y109606293D02*
X47287212Y109511055D01*
X47287212Y109511055D02*
X47287212Y108987245D01*
X47763403Y109653912D02*
X47763403Y108987245D01*
X47763403Y109558674D02*
X47811022Y109606293D01*
X47811022Y109606293D02*
X47906260Y109653912D01*
X47906260Y109653912D02*
X48049117Y109653912D01*
X48049117Y109653912D02*
X48144355Y109606293D01*
X48144355Y109606293D02*
X48191974Y109511055D01*
X48191974Y109511055D02*
X48191974Y108987245D01*
X49049117Y109034864D02*
X48953879Y108987245D01*
X48953879Y108987245D02*
X48763403Y108987245D01*
X48763403Y108987245D02*
X48668165Y109034864D01*
X48668165Y109034864D02*
X48620546Y109130103D01*
X48620546Y109130103D02*
X48620546Y109511055D01*
X48620546Y109511055D02*
X48668165Y109606293D01*
X48668165Y109606293D02*
X48763403Y109653912D01*
X48763403Y109653912D02*
X48953879Y109653912D01*
X48953879Y109653912D02*
X49049117Y109606293D01*
X49049117Y109606293D02*
X49096736Y109511055D01*
X49096736Y109511055D02*
X49096736Y109415817D01*
X49096736Y109415817D02*
X48620546Y109320579D01*
X49953879Y109034864D02*
X49858641Y108987245D01*
X49858641Y108987245D02*
X49668165Y108987245D01*
X49668165Y108987245D02*
X49572927Y109034864D01*
X49572927Y109034864D02*
X49525308Y109082484D01*
X49525308Y109082484D02*
X49477689Y109177722D01*
X49477689Y109177722D02*
X49477689Y109463436D01*
X49477689Y109463436D02*
X49525308Y109558674D01*
X49525308Y109558674D02*
X49572927Y109606293D01*
X49572927Y109606293D02*
X49668165Y109653912D01*
X49668165Y109653912D02*
X49858641Y109653912D01*
X49858641Y109653912D02*
X49953879Y109606293D01*
X50239594Y109653912D02*
X50620546Y109653912D01*
X50382451Y109987245D02*
X50382451Y109130103D01*
X50382451Y109130103D02*
X50430070Y109034864D01*
X50430070Y109034864D02*
X50525308Y108987245D01*
X50525308Y108987245D02*
X50620546Y108987245D01*
X50953880Y108987245D02*
X50953880Y109653912D01*
X50953880Y109987245D02*
X50906261Y109939626D01*
X50906261Y109939626D02*
X50953880Y109892007D01*
X50953880Y109892007D02*
X51001499Y109939626D01*
X51001499Y109939626D02*
X50953880Y109987245D01*
X50953880Y109987245D02*
X50953880Y109892007D01*
X51572927Y108987245D02*
X51477689Y109034864D01*
X51477689Y109034864D02*
X51430070Y109082484D01*
X51430070Y109082484D02*
X51382451Y109177722D01*
X51382451Y109177722D02*
X51382451Y109463436D01*
X51382451Y109463436D02*
X51430070Y109558674D01*
X51430070Y109558674D02*
X51477689Y109606293D01*
X51477689Y109606293D02*
X51572927Y109653912D01*
X51572927Y109653912D02*
X51715784Y109653912D01*
X51715784Y109653912D02*
X51811022Y109606293D01*
X51811022Y109606293D02*
X51858641Y109558674D01*
X51858641Y109558674D02*
X51906260Y109463436D01*
X51906260Y109463436D02*
X51906260Y109177722D01*
X51906260Y109177722D02*
X51858641Y109082484D01*
X51858641Y109082484D02*
X51811022Y109034864D01*
X51811022Y109034864D02*
X51715784Y108987245D01*
X51715784Y108987245D02*
X51572927Y108987245D01*
X52334832Y109653912D02*
X52334832Y108987245D01*
X52334832Y109558674D02*
X52382451Y109606293D01*
X52382451Y109606293D02*
X52477689Y109653912D01*
X52477689Y109653912D02*
X52620546Y109653912D01*
X52620546Y109653912D02*
X52715784Y109606293D01*
X52715784Y109606293D02*
X52763403Y109511055D01*
X52763403Y109511055D02*
X52763403Y108987245D01*
X54715784Y110034864D02*
X53858642Y108749150D01*
X55811023Y108987245D02*
X55811023Y109987245D01*
X55811023Y109987245D02*
X56144356Y109272960D01*
X56144356Y109272960D02*
X56477689Y109987245D01*
X56477689Y109987245D02*
X56477689Y108987245D01*
X57096737Y108987245D02*
X57001499Y109034864D01*
X57001499Y109034864D02*
X56953880Y109082484D01*
X56953880Y109082484D02*
X56906261Y109177722D01*
X56906261Y109177722D02*
X56906261Y109463436D01*
X56906261Y109463436D02*
X56953880Y109558674D01*
X56953880Y109558674D02*
X57001499Y109606293D01*
X57001499Y109606293D02*
X57096737Y109653912D01*
X57096737Y109653912D02*
X57239594Y109653912D01*
X57239594Y109653912D02*
X57334832Y109606293D01*
X57334832Y109606293D02*
X57382451Y109558674D01*
X57382451Y109558674D02*
X57430070Y109463436D01*
X57430070Y109463436D02*
X57430070Y109177722D01*
X57430070Y109177722D02*
X57382451Y109082484D01*
X57382451Y109082484D02*
X57334832Y109034864D01*
X57334832Y109034864D02*
X57239594Y108987245D01*
X57239594Y108987245D02*
X57096737Y108987245D01*
X58287213Y108987245D02*
X58287213Y109987245D01*
X58287213Y109034864D02*
X58191975Y108987245D01*
X58191975Y108987245D02*
X58001499Y108987245D01*
X58001499Y108987245D02*
X57906261Y109034864D01*
X57906261Y109034864D02*
X57858642Y109082484D01*
X57858642Y109082484D02*
X57811023Y109177722D01*
X57811023Y109177722D02*
X57811023Y109463436D01*
X57811023Y109463436D02*
X57858642Y109558674D01*
X57858642Y109558674D02*
X57906261Y109606293D01*
X57906261Y109606293D02*
X58001499Y109653912D01*
X58001499Y109653912D02*
X58191975Y109653912D01*
X58191975Y109653912D02*
X58287213Y109606293D01*
X59144356Y109034864D02*
X59049118Y108987245D01*
X59049118Y108987245D02*
X58858642Y108987245D01*
X58858642Y108987245D02*
X58763404Y109034864D01*
X58763404Y109034864D02*
X58715785Y109130103D01*
X58715785Y109130103D02*
X58715785Y109511055D01*
X58715785Y109511055D02*
X58763404Y109606293D01*
X58763404Y109606293D02*
X58858642Y109653912D01*
X58858642Y109653912D02*
X59049118Y109653912D01*
X59049118Y109653912D02*
X59144356Y109606293D01*
X59144356Y109606293D02*
X59191975Y109511055D01*
X59191975Y109511055D02*
X59191975Y109415817D01*
X59191975Y109415817D02*
X58715785Y109320579D01*
X45477688Y107377301D02*
X44906260Y107377301D01*
X45191974Y107377301D02*
X45191974Y108377301D01*
X45191974Y108377301D02*
X45096736Y108234444D01*
X45096736Y108234444D02*
X45001498Y108139206D01*
X45001498Y108139206D02*
X44906260Y108091587D01*
X46668165Y107758254D02*
X47430070Y107758254D01*
X48620546Y108282063D02*
X48668165Y108329682D01*
X48668165Y108329682D02*
X48763403Y108377301D01*
X48763403Y108377301D02*
X49001498Y108377301D01*
X49001498Y108377301D02*
X49096736Y108329682D01*
X49096736Y108329682D02*
X49144355Y108282063D01*
X49144355Y108282063D02*
X49191974Y108186825D01*
X49191974Y108186825D02*
X49191974Y108091587D01*
X49191974Y108091587D02*
X49144355Y107948730D01*
X49144355Y107948730D02*
X48572927Y107377301D01*
X48572927Y107377301D02*
X49191974Y107377301D01*
X51096736Y108424920D02*
X50239594Y107139206D01*
X52763403Y107472540D02*
X52715784Y107424920D01*
X52715784Y107424920D02*
X52572927Y107377301D01*
X52572927Y107377301D02*
X52477689Y107377301D01*
X52477689Y107377301D02*
X52334832Y107424920D01*
X52334832Y107424920D02*
X52239594Y107520159D01*
X52239594Y107520159D02*
X52191975Y107615397D01*
X52191975Y107615397D02*
X52144356Y107805873D01*
X52144356Y107805873D02*
X52144356Y107948730D01*
X52144356Y107948730D02*
X52191975Y108139206D01*
X52191975Y108139206D02*
X52239594Y108234444D01*
X52239594Y108234444D02*
X52334832Y108329682D01*
X52334832Y108329682D02*
X52477689Y108377301D01*
X52477689Y108377301D02*
X52572927Y108377301D01*
X52572927Y108377301D02*
X52715784Y108329682D01*
X52715784Y108329682D02*
X52763403Y108282063D01*
X53620546Y107377301D02*
X53620546Y107901111D01*
X53620546Y107901111D02*
X53572927Y107996349D01*
X53572927Y107996349D02*
X53477689Y108043968D01*
X53477689Y108043968D02*
X53287213Y108043968D01*
X53287213Y108043968D02*
X53191975Y107996349D01*
X53620546Y107424920D02*
X53525308Y107377301D01*
X53525308Y107377301D02*
X53287213Y107377301D01*
X53287213Y107377301D02*
X53191975Y107424920D01*
X53191975Y107424920D02*
X53144356Y107520159D01*
X53144356Y107520159D02*
X53144356Y107615397D01*
X53144356Y107615397D02*
X53191975Y107710635D01*
X53191975Y107710635D02*
X53287213Y107758254D01*
X53287213Y107758254D02*
X53525308Y107758254D01*
X53525308Y107758254D02*
X53620546Y107805873D01*
X54096737Y107377301D02*
X54096737Y108043968D01*
X54096737Y107853492D02*
X54144356Y107948730D01*
X54144356Y107948730D02*
X54191975Y107996349D01*
X54191975Y107996349D02*
X54287213Y108043968D01*
X54287213Y108043968D02*
X54382451Y108043968D01*
X54572928Y108043968D02*
X54953880Y108043968D01*
X54715785Y108377301D02*
X54715785Y107520159D01*
X54715785Y107520159D02*
X54763404Y107424920D01*
X54763404Y107424920D02*
X54858642Y107377301D01*
X54858642Y107377301D02*
X54953880Y107377301D01*
X55287214Y107377301D02*
X55287214Y108043968D01*
X55287214Y107853492D02*
X55334833Y107948730D01*
X55334833Y107948730D02*
X55382452Y107996349D01*
X55382452Y107996349D02*
X55477690Y108043968D01*
X55477690Y108043968D02*
X55572928Y108043968D01*
X55906262Y107377301D02*
X55906262Y108043968D01*
X55906262Y108377301D02*
X55858643Y108329682D01*
X55858643Y108329682D02*
X55906262Y108282063D01*
X55906262Y108282063D02*
X55953881Y108329682D01*
X55953881Y108329682D02*
X55906262Y108377301D01*
X55906262Y108377301D02*
X55906262Y108282063D01*
X56811023Y107377301D02*
X56811023Y108377301D01*
X56811023Y107424920D02*
X56715785Y107377301D01*
X56715785Y107377301D02*
X56525309Y107377301D01*
X56525309Y107377301D02*
X56430071Y107424920D01*
X56430071Y107424920D02*
X56382452Y107472540D01*
X56382452Y107472540D02*
X56334833Y107567778D01*
X56334833Y107567778D02*
X56334833Y107853492D01*
X56334833Y107853492D02*
X56382452Y107948730D01*
X56382452Y107948730D02*
X56430071Y107996349D01*
X56430071Y107996349D02*
X56525309Y108043968D01*
X56525309Y108043968D02*
X56715785Y108043968D01*
X56715785Y108043968D02*
X56811023Y107996349D01*
X57715785Y108043968D02*
X57715785Y107234444D01*
X57715785Y107234444D02*
X57668166Y107139206D01*
X57668166Y107139206D02*
X57620547Y107091587D01*
X57620547Y107091587D02*
X57525309Y107043968D01*
X57525309Y107043968D02*
X57382452Y107043968D01*
X57382452Y107043968D02*
X57287214Y107091587D01*
X57715785Y107424920D02*
X57620547Y107377301D01*
X57620547Y107377301D02*
X57430071Y107377301D01*
X57430071Y107377301D02*
X57334833Y107424920D01*
X57334833Y107424920D02*
X57287214Y107472540D01*
X57287214Y107472540D02*
X57239595Y107567778D01*
X57239595Y107567778D02*
X57239595Y107853492D01*
X57239595Y107853492D02*
X57287214Y107948730D01*
X57287214Y107948730D02*
X57334833Y107996349D01*
X57334833Y107996349D02*
X57430071Y108043968D01*
X57430071Y108043968D02*
X57620547Y108043968D01*
X57620547Y108043968D02*
X57715785Y107996349D01*
X58572928Y107424920D02*
X58477690Y107377301D01*
X58477690Y107377301D02*
X58287214Y107377301D01*
X58287214Y107377301D02*
X58191976Y107424920D01*
X58191976Y107424920D02*
X58144357Y107520159D01*
X58144357Y107520159D02*
X58144357Y107901111D01*
X58144357Y107901111D02*
X58191976Y107996349D01*
X58191976Y107996349D02*
X58287214Y108043968D01*
X58287214Y108043968D02*
X58477690Y108043968D01*
X58477690Y108043968D02*
X58572928Y107996349D01*
X58572928Y107996349D02*
X58620547Y107901111D01*
X58620547Y107901111D02*
X58620547Y107805873D01*
X58620547Y107805873D02*
X58144357Y107710635D01*
X59811024Y107377301D02*
X59811024Y108377301D01*
X59811024Y108377301D02*
X60144357Y107663016D01*
X60144357Y107663016D02*
X60477690Y108377301D01*
X60477690Y108377301D02*
X60477690Y107377301D01*
X61096738Y107377301D02*
X61001500Y107424920D01*
X61001500Y107424920D02*
X60953881Y107472540D01*
X60953881Y107472540D02*
X60906262Y107567778D01*
X60906262Y107567778D02*
X60906262Y107853492D01*
X60906262Y107853492D02*
X60953881Y107948730D01*
X60953881Y107948730D02*
X61001500Y107996349D01*
X61001500Y107996349D02*
X61096738Y108043968D01*
X61096738Y108043968D02*
X61239595Y108043968D01*
X61239595Y108043968D02*
X61334833Y107996349D01*
X61334833Y107996349D02*
X61382452Y107948730D01*
X61382452Y107948730D02*
X61430071Y107853492D01*
X61430071Y107853492D02*
X61430071Y107567778D01*
X61430071Y107567778D02*
X61382452Y107472540D01*
X61382452Y107472540D02*
X61334833Y107424920D01*
X61334833Y107424920D02*
X61239595Y107377301D01*
X61239595Y107377301D02*
X61096738Y107377301D01*
X62287214Y107377301D02*
X62287214Y108377301D01*
X62287214Y107424920D02*
X62191976Y107377301D01*
X62191976Y107377301D02*
X62001500Y107377301D01*
X62001500Y107377301D02*
X61906262Y107424920D01*
X61906262Y107424920D02*
X61858643Y107472540D01*
X61858643Y107472540D02*
X61811024Y107567778D01*
X61811024Y107567778D02*
X61811024Y107853492D01*
X61811024Y107853492D02*
X61858643Y107948730D01*
X61858643Y107948730D02*
X61906262Y107996349D01*
X61906262Y107996349D02*
X62001500Y108043968D01*
X62001500Y108043968D02*
X62191976Y108043968D01*
X62191976Y108043968D02*
X62287214Y107996349D01*
X63144357Y107424920D02*
X63049119Y107377301D01*
X63049119Y107377301D02*
X62858643Y107377301D01*
X62858643Y107377301D02*
X62763405Y107424920D01*
X62763405Y107424920D02*
X62715786Y107520159D01*
X62715786Y107520159D02*
X62715786Y107901111D01*
X62715786Y107901111D02*
X62763405Y107996349D01*
X62763405Y107996349D02*
X62858643Y108043968D01*
X62858643Y108043968D02*
X63049119Y108043968D01*
X63049119Y108043968D02*
X63144357Y107996349D01*
X63144357Y107996349D02*
X63191976Y107901111D01*
X63191976Y107901111D02*
X63191976Y107805873D01*
X63191976Y107805873D02*
X62715786Y107710635D01*
X44906260Y106672119D02*
X44953879Y106719738D01*
X44953879Y106719738D02*
X45049117Y106767357D01*
X45049117Y106767357D02*
X45287212Y106767357D01*
X45287212Y106767357D02*
X45382450Y106719738D01*
X45382450Y106719738D02*
X45430069Y106672119D01*
X45430069Y106672119D02*
X45477688Y106576881D01*
X45477688Y106576881D02*
X45477688Y106481643D01*
X45477688Y106481643D02*
X45430069Y106338786D01*
X45430069Y106338786D02*
X44858641Y105767357D01*
X44858641Y105767357D02*
X45477688Y105767357D01*
X46668165Y106148310D02*
X47430070Y106148310D01*
X48572927Y106767357D02*
X49191974Y106767357D01*
X49191974Y106767357D02*
X48858641Y106386405D01*
X48858641Y106386405D02*
X49001498Y106386405D01*
X49001498Y106386405D02*
X49096736Y106338786D01*
X49096736Y106338786D02*
X49144355Y106291167D01*
X49144355Y106291167D02*
X49191974Y106195929D01*
X49191974Y106195929D02*
X49191974Y105957834D01*
X49191974Y105957834D02*
X49144355Y105862596D01*
X49144355Y105862596D02*
X49096736Y105814976D01*
X49096736Y105814976D02*
X49001498Y105767357D01*
X49001498Y105767357D02*
X48715784Y105767357D01*
X48715784Y105767357D02*
X48620546Y105814976D01*
X48620546Y105814976D02*
X48572927Y105862596D01*
X51096736Y106814976D02*
X50239594Y105529262D01*
X52144356Y105814976D02*
X52287213Y105767357D01*
X52287213Y105767357D02*
X52525308Y105767357D01*
X52525308Y105767357D02*
X52620546Y105814976D01*
X52620546Y105814976D02*
X52668165Y105862596D01*
X52668165Y105862596D02*
X52715784Y105957834D01*
X52715784Y105957834D02*
X52715784Y106053072D01*
X52715784Y106053072D02*
X52668165Y106148310D01*
X52668165Y106148310D02*
X52620546Y106195929D01*
X52620546Y106195929D02*
X52525308Y106243548D01*
X52525308Y106243548D02*
X52334832Y106291167D01*
X52334832Y106291167D02*
X52239594Y106338786D01*
X52239594Y106338786D02*
X52191975Y106386405D01*
X52191975Y106386405D02*
X52144356Y106481643D01*
X52144356Y106481643D02*
X52144356Y106576881D01*
X52144356Y106576881D02*
X52191975Y106672119D01*
X52191975Y106672119D02*
X52239594Y106719738D01*
X52239594Y106719738D02*
X52334832Y106767357D01*
X52334832Y106767357D02*
X52572927Y106767357D01*
X52572927Y106767357D02*
X52715784Y106719738D01*
X53001499Y106434024D02*
X53382451Y106434024D01*
X53144356Y106767357D02*
X53144356Y105910215D01*
X53144356Y105910215D02*
X53191975Y105814976D01*
X53191975Y105814976D02*
X53287213Y105767357D01*
X53287213Y105767357D02*
X53382451Y105767357D01*
X54144356Y105767357D02*
X54144356Y106291167D01*
X54144356Y106291167D02*
X54096737Y106386405D01*
X54096737Y106386405D02*
X54001499Y106434024D01*
X54001499Y106434024D02*
X53811023Y106434024D01*
X53811023Y106434024D02*
X53715785Y106386405D01*
X54144356Y105814976D02*
X54049118Y105767357D01*
X54049118Y105767357D02*
X53811023Y105767357D01*
X53811023Y105767357D02*
X53715785Y105814976D01*
X53715785Y105814976D02*
X53668166Y105910215D01*
X53668166Y105910215D02*
X53668166Y106005453D01*
X53668166Y106005453D02*
X53715785Y106100691D01*
X53715785Y106100691D02*
X53811023Y106148310D01*
X53811023Y106148310D02*
X54049118Y106148310D01*
X54049118Y106148310D02*
X54144356Y106195929D01*
X54620547Y106434024D02*
X54620547Y105767357D01*
X54620547Y106338786D02*
X54668166Y106386405D01*
X54668166Y106386405D02*
X54763404Y106434024D01*
X54763404Y106434024D02*
X54906261Y106434024D01*
X54906261Y106434024D02*
X55001499Y106386405D01*
X55001499Y106386405D02*
X55049118Y106291167D01*
X55049118Y106291167D02*
X55049118Y105767357D01*
X55953880Y105767357D02*
X55953880Y106767357D01*
X55953880Y105814976D02*
X55858642Y105767357D01*
X55858642Y105767357D02*
X55668166Y105767357D01*
X55668166Y105767357D02*
X55572928Y105814976D01*
X55572928Y105814976D02*
X55525309Y105862596D01*
X55525309Y105862596D02*
X55477690Y105957834D01*
X55477690Y105957834D02*
X55477690Y106243548D01*
X55477690Y106243548D02*
X55525309Y106338786D01*
X55525309Y106338786D02*
X55572928Y106386405D01*
X55572928Y106386405D02*
X55668166Y106434024D01*
X55668166Y106434024D02*
X55858642Y106434024D01*
X55858642Y106434024D02*
X55953880Y106386405D01*
X56858642Y105767357D02*
X56858642Y106291167D01*
X56858642Y106291167D02*
X56811023Y106386405D01*
X56811023Y106386405D02*
X56715785Y106434024D01*
X56715785Y106434024D02*
X56525309Y106434024D01*
X56525309Y106434024D02*
X56430071Y106386405D01*
X56858642Y105814976D02*
X56763404Y105767357D01*
X56763404Y105767357D02*
X56525309Y105767357D01*
X56525309Y105767357D02*
X56430071Y105814976D01*
X56430071Y105814976D02*
X56382452Y105910215D01*
X56382452Y105910215D02*
X56382452Y106005453D01*
X56382452Y106005453D02*
X56430071Y106100691D01*
X56430071Y106100691D02*
X56525309Y106148310D01*
X56525309Y106148310D02*
X56763404Y106148310D01*
X56763404Y106148310D02*
X56858642Y106195929D01*
X57477690Y105767357D02*
X57382452Y105814976D01*
X57382452Y105814976D02*
X57334833Y105910215D01*
X57334833Y105910215D02*
X57334833Y106767357D01*
X58001500Y105767357D02*
X57906262Y105814976D01*
X57906262Y105814976D02*
X57858643Y105862596D01*
X57858643Y105862596D02*
X57811024Y105957834D01*
X57811024Y105957834D02*
X57811024Y106243548D01*
X57811024Y106243548D02*
X57858643Y106338786D01*
X57858643Y106338786D02*
X57906262Y106386405D01*
X57906262Y106386405D02*
X58001500Y106434024D01*
X58001500Y106434024D02*
X58144357Y106434024D01*
X58144357Y106434024D02*
X58239595Y106386405D01*
X58239595Y106386405D02*
X58287214Y106338786D01*
X58287214Y106338786D02*
X58334833Y106243548D01*
X58334833Y106243548D02*
X58334833Y105957834D01*
X58334833Y105957834D02*
X58287214Y105862596D01*
X58287214Y105862596D02*
X58239595Y105814976D01*
X58239595Y105814976D02*
X58144357Y105767357D01*
X58144357Y105767357D02*
X58001500Y105767357D01*
X58763405Y106434024D02*
X58763405Y105767357D01*
X58763405Y106338786D02*
X58811024Y106386405D01*
X58811024Y106386405D02*
X58906262Y106434024D01*
X58906262Y106434024D02*
X59049119Y106434024D01*
X59049119Y106434024D02*
X59144357Y106386405D01*
X59144357Y106386405D02*
X59191976Y106291167D01*
X59191976Y106291167D02*
X59191976Y105767357D01*
X60049119Y105814976D02*
X59953881Y105767357D01*
X59953881Y105767357D02*
X59763405Y105767357D01*
X59763405Y105767357D02*
X59668167Y105814976D01*
X59668167Y105814976D02*
X59620548Y105910215D01*
X59620548Y105910215D02*
X59620548Y106291167D01*
X59620548Y106291167D02*
X59668167Y106386405D01*
X59668167Y106386405D02*
X59763405Y106434024D01*
X59763405Y106434024D02*
X59953881Y106434024D01*
X59953881Y106434024D02*
X60049119Y106386405D01*
X60049119Y106386405D02*
X60096738Y106291167D01*
X60096738Y106291167D02*
X60096738Y106195929D01*
X60096738Y106195929D02*
X59620548Y106100691D01*
X61287215Y105767357D02*
X61287215Y106767357D01*
X61287215Y106767357D02*
X61620548Y106053072D01*
X61620548Y106053072D02*
X61953881Y106767357D01*
X61953881Y106767357D02*
X61953881Y105767357D01*
X62572929Y105767357D02*
X62477691Y105814976D01*
X62477691Y105814976D02*
X62430072Y105862596D01*
X62430072Y105862596D02*
X62382453Y105957834D01*
X62382453Y105957834D02*
X62382453Y106243548D01*
X62382453Y106243548D02*
X62430072Y106338786D01*
X62430072Y106338786D02*
X62477691Y106386405D01*
X62477691Y106386405D02*
X62572929Y106434024D01*
X62572929Y106434024D02*
X62715786Y106434024D01*
X62715786Y106434024D02*
X62811024Y106386405D01*
X62811024Y106386405D02*
X62858643Y106338786D01*
X62858643Y106338786D02*
X62906262Y106243548D01*
X62906262Y106243548D02*
X62906262Y105957834D01*
X62906262Y105957834D02*
X62858643Y105862596D01*
X62858643Y105862596D02*
X62811024Y105814976D01*
X62811024Y105814976D02*
X62715786Y105767357D01*
X62715786Y105767357D02*
X62572929Y105767357D01*
X63763405Y105767357D02*
X63763405Y106767357D01*
X63763405Y105814976D02*
X63668167Y105767357D01*
X63668167Y105767357D02*
X63477691Y105767357D01*
X63477691Y105767357D02*
X63382453Y105814976D01*
X63382453Y105814976D02*
X63334834Y105862596D01*
X63334834Y105862596D02*
X63287215Y105957834D01*
X63287215Y105957834D02*
X63287215Y106243548D01*
X63287215Y106243548D02*
X63334834Y106338786D01*
X63334834Y106338786D02*
X63382453Y106386405D01*
X63382453Y106386405D02*
X63477691Y106434024D01*
X63477691Y106434024D02*
X63668167Y106434024D01*
X63668167Y106434024D02*
X63763405Y106386405D01*
X64620548Y105814976D02*
X64525310Y105767357D01*
X64525310Y105767357D02*
X64334834Y105767357D01*
X64334834Y105767357D02*
X64239596Y105814976D01*
X64239596Y105814976D02*
X64191977Y105910215D01*
X64191977Y105910215D02*
X64191977Y106291167D01*
X64191977Y106291167D02*
X64239596Y106386405D01*
X64239596Y106386405D02*
X64334834Y106434024D01*
X64334834Y106434024D02*
X64525310Y106434024D01*
X64525310Y106434024D02*
X64620548Y106386405D01*
X64620548Y106386405D02*
X64668167Y106291167D01*
X64668167Y106291167D02*
X64668167Y106195929D01*
X64668167Y106195929D02*
X64191977Y106100691D01*
X44953879Y102547469D02*
X44953879Y103214136D01*
X44953879Y103023660D02*
X45001498Y103118898D01*
X45001498Y103118898D02*
X45049117Y103166517D01*
X45049117Y103166517D02*
X45144355Y103214136D01*
X45144355Y103214136D02*
X45239593Y103214136D01*
X45953879Y102595088D02*
X45858641Y102547469D01*
X45858641Y102547469D02*
X45668165Y102547469D01*
X45668165Y102547469D02*
X45572927Y102595088D01*
X45572927Y102595088D02*
X45525308Y102690327D01*
X45525308Y102690327D02*
X45525308Y103071279D01*
X45525308Y103071279D02*
X45572927Y103166517D01*
X45572927Y103166517D02*
X45668165Y103214136D01*
X45668165Y103214136D02*
X45858641Y103214136D01*
X45858641Y103214136D02*
X45953879Y103166517D01*
X45953879Y103166517D02*
X46001498Y103071279D01*
X46001498Y103071279D02*
X46001498Y102976041D01*
X46001498Y102976041D02*
X45525308Y102880803D01*
X46430070Y102547469D02*
X46430070Y103214136D01*
X46430070Y103118898D02*
X46477689Y103166517D01*
X46477689Y103166517D02*
X46572927Y103214136D01*
X46572927Y103214136D02*
X46715784Y103214136D01*
X46715784Y103214136D02*
X46811022Y103166517D01*
X46811022Y103166517D02*
X46858641Y103071279D01*
X46858641Y103071279D02*
X46858641Y102547469D01*
X46858641Y103071279D02*
X46906260Y103166517D01*
X46906260Y103166517D02*
X47001498Y103214136D01*
X47001498Y103214136D02*
X47144355Y103214136D01*
X47144355Y103214136D02*
X47239594Y103166517D01*
X47239594Y103166517D02*
X47287213Y103071279D01*
X47287213Y103071279D02*
X47287213Y102547469D01*
X47906260Y102547469D02*
X47811022Y102595088D01*
X47811022Y102595088D02*
X47763403Y102642708D01*
X47763403Y102642708D02*
X47715784Y102737946D01*
X47715784Y102737946D02*
X47715784Y103023660D01*
X47715784Y103023660D02*
X47763403Y103118898D01*
X47763403Y103118898D02*
X47811022Y103166517D01*
X47811022Y103166517D02*
X47906260Y103214136D01*
X47906260Y103214136D02*
X48049117Y103214136D01*
X48049117Y103214136D02*
X48144355Y103166517D01*
X48144355Y103166517D02*
X48191974Y103118898D01*
X48191974Y103118898D02*
X48239593Y103023660D01*
X48239593Y103023660D02*
X48239593Y102737946D01*
X48239593Y102737946D02*
X48191974Y102642708D01*
X48191974Y102642708D02*
X48144355Y102595088D01*
X48144355Y102595088D02*
X48049117Y102547469D01*
X48049117Y102547469D02*
X47906260Y102547469D01*
X48572927Y103214136D02*
X48811022Y102547469D01*
X48811022Y102547469D02*
X49049117Y103214136D01*
X49811022Y102595088D02*
X49715784Y102547469D01*
X49715784Y102547469D02*
X49525308Y102547469D01*
X49525308Y102547469D02*
X49430070Y102595088D01*
X49430070Y102595088D02*
X49382451Y102690327D01*
X49382451Y102690327D02*
X49382451Y103071279D01*
X49382451Y103071279D02*
X49430070Y103166517D01*
X49430070Y103166517D02*
X49525308Y103214136D01*
X49525308Y103214136D02*
X49715784Y103214136D01*
X49715784Y103214136D02*
X49811022Y103166517D01*
X49811022Y103166517D02*
X49858641Y103071279D01*
X49858641Y103071279D02*
X49858641Y102976041D01*
X49858641Y102976041D02*
X49382451Y102880803D01*
X51001499Y102595088D02*
X51144356Y102547469D01*
X51144356Y102547469D02*
X51382451Y102547469D01*
X51382451Y102547469D02*
X51477689Y102595088D01*
X51477689Y102595088D02*
X51525308Y102642708D01*
X51525308Y102642708D02*
X51572927Y102737946D01*
X51572927Y102737946D02*
X51572927Y102833184D01*
X51572927Y102833184D02*
X51525308Y102928422D01*
X51525308Y102928422D02*
X51477689Y102976041D01*
X51477689Y102976041D02*
X51382451Y103023660D01*
X51382451Y103023660D02*
X51191975Y103071279D01*
X51191975Y103071279D02*
X51096737Y103118898D01*
X51096737Y103118898D02*
X51049118Y103166517D01*
X51049118Y103166517D02*
X51001499Y103261755D01*
X51001499Y103261755D02*
X51001499Y103356993D01*
X51001499Y103356993D02*
X51049118Y103452231D01*
X51049118Y103452231D02*
X51096737Y103499850D01*
X51096737Y103499850D02*
X51191975Y103547469D01*
X51191975Y103547469D02*
X51430070Y103547469D01*
X51430070Y103547469D02*
X51572927Y103499850D01*
X52001499Y102547469D02*
X52001499Y103547469D01*
X52001499Y103547469D02*
X52239594Y103547469D01*
X52239594Y103547469D02*
X52382451Y103499850D01*
X52382451Y103499850D02*
X52477689Y103404612D01*
X52477689Y103404612D02*
X52525308Y103309374D01*
X52525308Y103309374D02*
X52572927Y103118898D01*
X52572927Y103118898D02*
X52572927Y102976041D01*
X52572927Y102976041D02*
X52525308Y102785565D01*
X52525308Y102785565D02*
X52477689Y102690327D01*
X52477689Y102690327D02*
X52382451Y102595088D01*
X52382451Y102595088D02*
X52239594Y102547469D01*
X52239594Y102547469D02*
X52001499Y102547469D01*
X54191975Y102595088D02*
X54096737Y102547469D01*
X54096737Y102547469D02*
X53906261Y102547469D01*
X53906261Y102547469D02*
X53811023Y102595088D01*
X53811023Y102595088D02*
X53763404Y102642708D01*
X53763404Y102642708D02*
X53715785Y102737946D01*
X53715785Y102737946D02*
X53715785Y103023660D01*
X53715785Y103023660D02*
X53763404Y103118898D01*
X53763404Y103118898D02*
X53811023Y103166517D01*
X53811023Y103166517D02*
X53906261Y103214136D01*
X53906261Y103214136D02*
X54096737Y103214136D01*
X54096737Y103214136D02*
X54191975Y103166517D01*
X55049118Y102547469D02*
X55049118Y103071279D01*
X55049118Y103071279D02*
X55001499Y103166517D01*
X55001499Y103166517D02*
X54906261Y103214136D01*
X54906261Y103214136D02*
X54715785Y103214136D01*
X54715785Y103214136D02*
X54620547Y103166517D01*
X55049118Y102595088D02*
X54953880Y102547469D01*
X54953880Y102547469D02*
X54715785Y102547469D01*
X54715785Y102547469D02*
X54620547Y102595088D01*
X54620547Y102595088D02*
X54572928Y102690327D01*
X54572928Y102690327D02*
X54572928Y102785565D01*
X54572928Y102785565D02*
X54620547Y102880803D01*
X54620547Y102880803D02*
X54715785Y102928422D01*
X54715785Y102928422D02*
X54953880Y102928422D01*
X54953880Y102928422D02*
X55049118Y102976041D01*
X55525309Y102547469D02*
X55525309Y103214136D01*
X55525309Y103023660D02*
X55572928Y103118898D01*
X55572928Y103118898D02*
X55620547Y103166517D01*
X55620547Y103166517D02*
X55715785Y103214136D01*
X55715785Y103214136D02*
X55811023Y103214136D01*
X56572928Y102547469D02*
X56572928Y103547469D01*
X56572928Y102595088D02*
X56477690Y102547469D01*
X56477690Y102547469D02*
X56287214Y102547469D01*
X56287214Y102547469D02*
X56191976Y102595088D01*
X56191976Y102595088D02*
X56144357Y102642708D01*
X56144357Y102642708D02*
X56096738Y102737946D01*
X56096738Y102737946D02*
X56096738Y103023660D01*
X56096738Y103023660D02*
X56144357Y103118898D01*
X56144357Y103118898D02*
X56191976Y103166517D01*
X56191976Y103166517D02*
X56287214Y103214136D01*
X56287214Y103214136D02*
X56477690Y103214136D01*
X56477690Y103214136D02*
X56572928Y103166517D01*
X57668167Y103214136D02*
X58049119Y103214136D01*
X57811024Y102547469D02*
X57811024Y103404612D01*
X57811024Y103404612D02*
X57858643Y103499850D01*
X57858643Y103499850D02*
X57953881Y103547469D01*
X57953881Y103547469D02*
X58049119Y103547469D01*
X58382453Y102547469D02*
X58382453Y103214136D01*
X58382453Y103023660D02*
X58430072Y103118898D01*
X58430072Y103118898D02*
X58477691Y103166517D01*
X58477691Y103166517D02*
X58572929Y103214136D01*
X58572929Y103214136D02*
X58668167Y103214136D01*
X59144358Y102547469D02*
X59049120Y102595088D01*
X59049120Y102595088D02*
X59001501Y102642708D01*
X59001501Y102642708D02*
X58953882Y102737946D01*
X58953882Y102737946D02*
X58953882Y103023660D01*
X58953882Y103023660D02*
X59001501Y103118898D01*
X59001501Y103118898D02*
X59049120Y103166517D01*
X59049120Y103166517D02*
X59144358Y103214136D01*
X59144358Y103214136D02*
X59287215Y103214136D01*
X59287215Y103214136D02*
X59382453Y103166517D01*
X59382453Y103166517D02*
X59430072Y103118898D01*
X59430072Y103118898D02*
X59477691Y103023660D01*
X59477691Y103023660D02*
X59477691Y102737946D01*
X59477691Y102737946D02*
X59430072Y102642708D01*
X59430072Y102642708D02*
X59382453Y102595088D01*
X59382453Y102595088D02*
X59287215Y102547469D01*
X59287215Y102547469D02*
X59144358Y102547469D01*
X59906263Y102547469D02*
X59906263Y103214136D01*
X59906263Y103118898D02*
X59953882Y103166517D01*
X59953882Y103166517D02*
X60049120Y103214136D01*
X60049120Y103214136D02*
X60191977Y103214136D01*
X60191977Y103214136D02*
X60287215Y103166517D01*
X60287215Y103166517D02*
X60334834Y103071279D01*
X60334834Y103071279D02*
X60334834Y102547469D01*
X60334834Y103071279D02*
X60382453Y103166517D01*
X60382453Y103166517D02*
X60477691Y103214136D01*
X60477691Y103214136D02*
X60620548Y103214136D01*
X60620548Y103214136D02*
X60715787Y103166517D01*
X60715787Y103166517D02*
X60763406Y103071279D01*
X60763406Y103071279D02*
X60763406Y102547469D01*
X62001501Y102547469D02*
X62001501Y103214136D01*
X62001501Y103547469D02*
X61953882Y103499850D01*
X61953882Y103499850D02*
X62001501Y103452231D01*
X62001501Y103452231D02*
X62049120Y103499850D01*
X62049120Y103499850D02*
X62001501Y103547469D01*
X62001501Y103547469D02*
X62001501Y103452231D01*
X62477691Y103214136D02*
X62477691Y102547469D01*
X62477691Y103118898D02*
X62525310Y103166517D01*
X62525310Y103166517D02*
X62620548Y103214136D01*
X62620548Y103214136D02*
X62763405Y103214136D01*
X62763405Y103214136D02*
X62858643Y103166517D01*
X62858643Y103166517D02*
X62906262Y103071279D01*
X62906262Y103071279D02*
X62906262Y102547469D01*
X63239596Y103214136D02*
X63620548Y103214136D01*
X63382453Y103547469D02*
X63382453Y102690327D01*
X63382453Y102690327D02*
X63430072Y102595088D01*
X63430072Y102595088D02*
X63525310Y102547469D01*
X63525310Y102547469D02*
X63620548Y102547469D01*
X64334834Y102595088D02*
X64239596Y102547469D01*
X64239596Y102547469D02*
X64049120Y102547469D01*
X64049120Y102547469D02*
X63953882Y102595088D01*
X63953882Y102595088D02*
X63906263Y102690327D01*
X63906263Y102690327D02*
X63906263Y103071279D01*
X63906263Y103071279D02*
X63953882Y103166517D01*
X63953882Y103166517D02*
X64049120Y103214136D01*
X64049120Y103214136D02*
X64239596Y103214136D01*
X64239596Y103214136D02*
X64334834Y103166517D01*
X64334834Y103166517D02*
X64382453Y103071279D01*
X64382453Y103071279D02*
X64382453Y102976041D01*
X64382453Y102976041D02*
X63906263Y102880803D01*
X64811025Y102547469D02*
X64811025Y103214136D01*
X64811025Y103023660D02*
X64858644Y103118898D01*
X64858644Y103118898D02*
X64906263Y103166517D01*
X64906263Y103166517D02*
X65001501Y103214136D01*
X65001501Y103214136D02*
X65096739Y103214136D01*
X65430073Y103214136D02*
X65430073Y102547469D01*
X65430073Y103118898D02*
X65477692Y103166517D01*
X65477692Y103166517D02*
X65572930Y103214136D01*
X65572930Y103214136D02*
X65715787Y103214136D01*
X65715787Y103214136D02*
X65811025Y103166517D01*
X65811025Y103166517D02*
X65858644Y103071279D01*
X65858644Y103071279D02*
X65858644Y102547469D01*
X66763406Y102547469D02*
X66763406Y103071279D01*
X66763406Y103071279D02*
X66715787Y103166517D01*
X66715787Y103166517D02*
X66620549Y103214136D01*
X66620549Y103214136D02*
X66430073Y103214136D01*
X66430073Y103214136D02*
X66334835Y103166517D01*
X66763406Y102595088D02*
X66668168Y102547469D01*
X66668168Y102547469D02*
X66430073Y102547469D01*
X66430073Y102547469D02*
X66334835Y102595088D01*
X66334835Y102595088D02*
X66287216Y102690327D01*
X66287216Y102690327D02*
X66287216Y102785565D01*
X66287216Y102785565D02*
X66334835Y102880803D01*
X66334835Y102880803D02*
X66430073Y102928422D01*
X66430073Y102928422D02*
X66668168Y102928422D01*
X66668168Y102928422D02*
X66763406Y102976041D01*
X67382454Y102547469D02*
X67287216Y102595088D01*
X67287216Y102595088D02*
X67239597Y102690327D01*
X67239597Y102690327D02*
X67239597Y103547469D01*
X44906260Y100985144D02*
X45049117Y100937525D01*
X45049117Y100937525D02*
X45287212Y100937525D01*
X45287212Y100937525D02*
X45382450Y100985144D01*
X45382450Y100985144D02*
X45430069Y101032764D01*
X45430069Y101032764D02*
X45477688Y101128002D01*
X45477688Y101128002D02*
X45477688Y101223240D01*
X45477688Y101223240D02*
X45430069Y101318478D01*
X45430069Y101318478D02*
X45382450Y101366097D01*
X45382450Y101366097D02*
X45287212Y101413716D01*
X45287212Y101413716D02*
X45096736Y101461335D01*
X45096736Y101461335D02*
X45001498Y101508954D01*
X45001498Y101508954D02*
X44953879Y101556573D01*
X44953879Y101556573D02*
X44906260Y101651811D01*
X44906260Y101651811D02*
X44906260Y101747049D01*
X44906260Y101747049D02*
X44953879Y101842287D01*
X44953879Y101842287D02*
X45001498Y101889906D01*
X45001498Y101889906D02*
X45096736Y101937525D01*
X45096736Y101937525D02*
X45334831Y101937525D01*
X45334831Y101937525D02*
X45477688Y101889906D01*
X46049117Y100937525D02*
X45953879Y100985144D01*
X45953879Y100985144D02*
X45906260Y101080383D01*
X45906260Y101080383D02*
X45906260Y101937525D01*
X46572927Y100937525D02*
X46477689Y100985144D01*
X46477689Y100985144D02*
X46430070Y101032764D01*
X46430070Y101032764D02*
X46382451Y101128002D01*
X46382451Y101128002D02*
X46382451Y101413716D01*
X46382451Y101413716D02*
X46430070Y101508954D01*
X46430070Y101508954D02*
X46477689Y101556573D01*
X46477689Y101556573D02*
X46572927Y101604192D01*
X46572927Y101604192D02*
X46715784Y101604192D01*
X46715784Y101604192D02*
X46811022Y101556573D01*
X46811022Y101556573D02*
X46858641Y101508954D01*
X46858641Y101508954D02*
X46906260Y101413716D01*
X46906260Y101413716D02*
X46906260Y101128002D01*
X46906260Y101128002D02*
X46858641Y101032764D01*
X46858641Y101032764D02*
X46811022Y100985144D01*
X46811022Y100985144D02*
X46715784Y100937525D01*
X46715784Y100937525D02*
X46572927Y100937525D01*
X47191975Y101604192D02*
X47572927Y101604192D01*
X47334832Y101937525D02*
X47334832Y101080383D01*
X47334832Y101080383D02*
X47382451Y100985144D01*
X47382451Y100985144D02*
X47477689Y100937525D01*
X47477689Y100937525D02*
X47572927Y100937525D01*
X48572928Y101604192D02*
X48763404Y100937525D01*
X48763404Y100937525D02*
X48953880Y101413716D01*
X48953880Y101413716D02*
X49144356Y100937525D01*
X49144356Y100937525D02*
X49334832Y101604192D01*
X49715785Y100937525D02*
X49715785Y101937525D01*
X50144356Y100937525D02*
X50144356Y101461335D01*
X50144356Y101461335D02*
X50096737Y101556573D01*
X50096737Y101556573D02*
X50001499Y101604192D01*
X50001499Y101604192D02*
X49858642Y101604192D01*
X49858642Y101604192D02*
X49763404Y101556573D01*
X49763404Y101556573D02*
X49715785Y101508954D01*
X51001499Y100985144D02*
X50906261Y100937525D01*
X50906261Y100937525D02*
X50715785Y100937525D01*
X50715785Y100937525D02*
X50620547Y100985144D01*
X50620547Y100985144D02*
X50572928Y101080383D01*
X50572928Y101080383D02*
X50572928Y101461335D01*
X50572928Y101461335D02*
X50620547Y101556573D01*
X50620547Y101556573D02*
X50715785Y101604192D01*
X50715785Y101604192D02*
X50906261Y101604192D01*
X50906261Y101604192D02*
X51001499Y101556573D01*
X51001499Y101556573D02*
X51049118Y101461335D01*
X51049118Y101461335D02*
X51049118Y101366097D01*
X51049118Y101366097D02*
X50572928Y101270859D01*
X51477690Y101604192D02*
X51477690Y100937525D01*
X51477690Y101508954D02*
X51525309Y101556573D01*
X51525309Y101556573D02*
X51620547Y101604192D01*
X51620547Y101604192D02*
X51763404Y101604192D01*
X51763404Y101604192D02*
X51858642Y101556573D01*
X51858642Y101556573D02*
X51906261Y101461335D01*
X51906261Y101461335D02*
X51906261Y100937525D01*
X53096738Y100985144D02*
X53191976Y100937525D01*
X53191976Y100937525D02*
X53382452Y100937525D01*
X53382452Y100937525D02*
X53477690Y100985144D01*
X53477690Y100985144D02*
X53525309Y101080383D01*
X53525309Y101080383D02*
X53525309Y101128002D01*
X53525309Y101128002D02*
X53477690Y101223240D01*
X53477690Y101223240D02*
X53382452Y101270859D01*
X53382452Y101270859D02*
X53239595Y101270859D01*
X53239595Y101270859D02*
X53144357Y101318478D01*
X53144357Y101318478D02*
X53096738Y101413716D01*
X53096738Y101413716D02*
X53096738Y101461335D01*
X53096738Y101461335D02*
X53144357Y101556573D01*
X53144357Y101556573D02*
X53239595Y101604192D01*
X53239595Y101604192D02*
X53382452Y101604192D01*
X53382452Y101604192D02*
X53477690Y101556573D01*
X54334833Y100985144D02*
X54239595Y100937525D01*
X54239595Y100937525D02*
X54049119Y100937525D01*
X54049119Y100937525D02*
X53953881Y100985144D01*
X53953881Y100985144D02*
X53906262Y101080383D01*
X53906262Y101080383D02*
X53906262Y101461335D01*
X53906262Y101461335D02*
X53953881Y101556573D01*
X53953881Y101556573D02*
X54049119Y101604192D01*
X54049119Y101604192D02*
X54239595Y101604192D01*
X54239595Y101604192D02*
X54334833Y101556573D01*
X54334833Y101556573D02*
X54382452Y101461335D01*
X54382452Y101461335D02*
X54382452Y101366097D01*
X54382452Y101366097D02*
X53906262Y101270859D01*
X54953881Y100937525D02*
X54858643Y100985144D01*
X54858643Y100985144D02*
X54811024Y101080383D01*
X54811024Y101080383D02*
X54811024Y101937525D01*
X55715786Y100985144D02*
X55620548Y100937525D01*
X55620548Y100937525D02*
X55430072Y100937525D01*
X55430072Y100937525D02*
X55334834Y100985144D01*
X55334834Y100985144D02*
X55287215Y101080383D01*
X55287215Y101080383D02*
X55287215Y101461335D01*
X55287215Y101461335D02*
X55334834Y101556573D01*
X55334834Y101556573D02*
X55430072Y101604192D01*
X55430072Y101604192D02*
X55620548Y101604192D01*
X55620548Y101604192D02*
X55715786Y101556573D01*
X55715786Y101556573D02*
X55763405Y101461335D01*
X55763405Y101461335D02*
X55763405Y101366097D01*
X55763405Y101366097D02*
X55287215Y101270859D01*
X56620548Y100985144D02*
X56525310Y100937525D01*
X56525310Y100937525D02*
X56334834Y100937525D01*
X56334834Y100937525D02*
X56239596Y100985144D01*
X56239596Y100985144D02*
X56191977Y101032764D01*
X56191977Y101032764D02*
X56144358Y101128002D01*
X56144358Y101128002D02*
X56144358Y101413716D01*
X56144358Y101413716D02*
X56191977Y101508954D01*
X56191977Y101508954D02*
X56239596Y101556573D01*
X56239596Y101556573D02*
X56334834Y101604192D01*
X56334834Y101604192D02*
X56525310Y101604192D01*
X56525310Y101604192D02*
X56620548Y101556573D01*
X56906263Y101604192D02*
X57287215Y101604192D01*
X57049120Y101937525D02*
X57049120Y101080383D01*
X57049120Y101080383D02*
X57096739Y100985144D01*
X57096739Y100985144D02*
X57191977Y100937525D01*
X57191977Y100937525D02*
X57287215Y100937525D01*
X57620549Y100937525D02*
X57620549Y101604192D01*
X57620549Y101937525D02*
X57572930Y101889906D01*
X57572930Y101889906D02*
X57620549Y101842287D01*
X57620549Y101842287D02*
X57668168Y101889906D01*
X57668168Y101889906D02*
X57620549Y101937525D01*
X57620549Y101937525D02*
X57620549Y101842287D01*
X58096739Y101604192D02*
X58096739Y100937525D01*
X58096739Y101508954D02*
X58144358Y101556573D01*
X58144358Y101556573D02*
X58239596Y101604192D01*
X58239596Y101604192D02*
X58382453Y101604192D01*
X58382453Y101604192D02*
X58477691Y101556573D01*
X58477691Y101556573D02*
X58525310Y101461335D01*
X58525310Y101461335D02*
X58525310Y100937525D01*
X59430072Y101604192D02*
X59430072Y100794668D01*
X59430072Y100794668D02*
X59382453Y100699430D01*
X59382453Y100699430D02*
X59334834Y100651811D01*
X59334834Y100651811D02*
X59239596Y100604192D01*
X59239596Y100604192D02*
X59096739Y100604192D01*
X59096739Y100604192D02*
X59001501Y100651811D01*
X59430072Y100985144D02*
X59334834Y100937525D01*
X59334834Y100937525D02*
X59144358Y100937525D01*
X59144358Y100937525D02*
X59049120Y100985144D01*
X59049120Y100985144D02*
X59001501Y101032764D01*
X59001501Y101032764D02*
X58953882Y101128002D01*
X58953882Y101128002D02*
X58953882Y101413716D01*
X58953882Y101413716D02*
X59001501Y101508954D01*
X59001501Y101508954D02*
X59049120Y101556573D01*
X59049120Y101556573D02*
X59144358Y101604192D01*
X59144358Y101604192D02*
X59334834Y101604192D01*
X59334834Y101604192D02*
X59430072Y101556573D01*
X45525307Y99422820D02*
X45477688Y99375200D01*
X45477688Y99375200D02*
X45334831Y99327581D01*
X45334831Y99327581D02*
X45239593Y99327581D01*
X45239593Y99327581D02*
X45096736Y99375200D01*
X45096736Y99375200D02*
X45001498Y99470439D01*
X45001498Y99470439D02*
X44953879Y99565677D01*
X44953879Y99565677D02*
X44906260Y99756153D01*
X44906260Y99756153D02*
X44906260Y99899010D01*
X44906260Y99899010D02*
X44953879Y100089486D01*
X44953879Y100089486D02*
X45001498Y100184724D01*
X45001498Y100184724D02*
X45096736Y100279962D01*
X45096736Y100279962D02*
X45239593Y100327581D01*
X45239593Y100327581D02*
X45334831Y100327581D01*
X45334831Y100327581D02*
X45477688Y100279962D01*
X45477688Y100279962D02*
X45525307Y100232343D01*
X46382450Y99327581D02*
X46382450Y99851391D01*
X46382450Y99851391D02*
X46334831Y99946629D01*
X46334831Y99946629D02*
X46239593Y99994248D01*
X46239593Y99994248D02*
X46049117Y99994248D01*
X46049117Y99994248D02*
X45953879Y99946629D01*
X46382450Y99375200D02*
X46287212Y99327581D01*
X46287212Y99327581D02*
X46049117Y99327581D01*
X46049117Y99327581D02*
X45953879Y99375200D01*
X45953879Y99375200D02*
X45906260Y99470439D01*
X45906260Y99470439D02*
X45906260Y99565677D01*
X45906260Y99565677D02*
X45953879Y99660915D01*
X45953879Y99660915D02*
X46049117Y99708534D01*
X46049117Y99708534D02*
X46287212Y99708534D01*
X46287212Y99708534D02*
X46382450Y99756153D01*
X46858641Y99327581D02*
X46858641Y99994248D01*
X46858641Y99803772D02*
X46906260Y99899010D01*
X46906260Y99899010D02*
X46953879Y99946629D01*
X46953879Y99946629D02*
X47049117Y99994248D01*
X47049117Y99994248D02*
X47144355Y99994248D01*
X47334832Y99994248D02*
X47715784Y99994248D01*
X47477689Y100327581D02*
X47477689Y99470439D01*
X47477689Y99470439D02*
X47525308Y99375200D01*
X47525308Y99375200D02*
X47620546Y99327581D01*
X47620546Y99327581D02*
X47715784Y99327581D01*
X48049118Y99327581D02*
X48049118Y99994248D01*
X48049118Y99803772D02*
X48096737Y99899010D01*
X48096737Y99899010D02*
X48144356Y99946629D01*
X48144356Y99946629D02*
X48239594Y99994248D01*
X48239594Y99994248D02*
X48334832Y99994248D01*
X48668166Y99327581D02*
X48668166Y99994248D01*
X48668166Y100327581D02*
X48620547Y100279962D01*
X48620547Y100279962D02*
X48668166Y100232343D01*
X48668166Y100232343D02*
X48715785Y100279962D01*
X48715785Y100279962D02*
X48668166Y100327581D01*
X48668166Y100327581D02*
X48668166Y100232343D01*
X49572927Y99327581D02*
X49572927Y100327581D01*
X49572927Y99375200D02*
X49477689Y99327581D01*
X49477689Y99327581D02*
X49287213Y99327581D01*
X49287213Y99327581D02*
X49191975Y99375200D01*
X49191975Y99375200D02*
X49144356Y99422820D01*
X49144356Y99422820D02*
X49096737Y99518058D01*
X49096737Y99518058D02*
X49096737Y99803772D01*
X49096737Y99803772D02*
X49144356Y99899010D01*
X49144356Y99899010D02*
X49191975Y99946629D01*
X49191975Y99946629D02*
X49287213Y99994248D01*
X49287213Y99994248D02*
X49477689Y99994248D01*
X49477689Y99994248D02*
X49572927Y99946629D01*
X50477689Y99994248D02*
X50477689Y99184724D01*
X50477689Y99184724D02*
X50430070Y99089486D01*
X50430070Y99089486D02*
X50382451Y99041867D01*
X50382451Y99041867D02*
X50287213Y98994248D01*
X50287213Y98994248D02*
X50144356Y98994248D01*
X50144356Y98994248D02*
X50049118Y99041867D01*
X50477689Y99375200D02*
X50382451Y99327581D01*
X50382451Y99327581D02*
X50191975Y99327581D01*
X50191975Y99327581D02*
X50096737Y99375200D01*
X50096737Y99375200D02*
X50049118Y99422820D01*
X50049118Y99422820D02*
X50001499Y99518058D01*
X50001499Y99518058D02*
X50001499Y99803772D01*
X50001499Y99803772D02*
X50049118Y99899010D01*
X50049118Y99899010D02*
X50096737Y99946629D01*
X50096737Y99946629D02*
X50191975Y99994248D01*
X50191975Y99994248D02*
X50382451Y99994248D01*
X50382451Y99994248D02*
X50477689Y99946629D01*
X51334832Y99375200D02*
X51239594Y99327581D01*
X51239594Y99327581D02*
X51049118Y99327581D01*
X51049118Y99327581D02*
X50953880Y99375200D01*
X50953880Y99375200D02*
X50906261Y99470439D01*
X50906261Y99470439D02*
X50906261Y99851391D01*
X50906261Y99851391D02*
X50953880Y99946629D01*
X50953880Y99946629D02*
X51049118Y99994248D01*
X51049118Y99994248D02*
X51239594Y99994248D01*
X51239594Y99994248D02*
X51334832Y99946629D01*
X51334832Y99946629D02*
X51382451Y99851391D01*
X51382451Y99851391D02*
X51382451Y99756153D01*
X51382451Y99756153D02*
X50906261Y99660915D01*
X52572928Y99327581D02*
X52572928Y100327581D01*
X52572928Y100327581D02*
X52906261Y99613296D01*
X52906261Y99613296D02*
X53239594Y100327581D01*
X53239594Y100327581D02*
X53239594Y99327581D01*
X53858642Y99327581D02*
X53763404Y99375200D01*
X53763404Y99375200D02*
X53715785Y99422820D01*
X53715785Y99422820D02*
X53668166Y99518058D01*
X53668166Y99518058D02*
X53668166Y99803772D01*
X53668166Y99803772D02*
X53715785Y99899010D01*
X53715785Y99899010D02*
X53763404Y99946629D01*
X53763404Y99946629D02*
X53858642Y99994248D01*
X53858642Y99994248D02*
X54001499Y99994248D01*
X54001499Y99994248D02*
X54096737Y99946629D01*
X54096737Y99946629D02*
X54144356Y99899010D01*
X54144356Y99899010D02*
X54191975Y99803772D01*
X54191975Y99803772D02*
X54191975Y99518058D01*
X54191975Y99518058D02*
X54144356Y99422820D01*
X54144356Y99422820D02*
X54096737Y99375200D01*
X54096737Y99375200D02*
X54001499Y99327581D01*
X54001499Y99327581D02*
X53858642Y99327581D01*
X55049118Y99327581D02*
X55049118Y100327581D01*
X55049118Y99375200D02*
X54953880Y99327581D01*
X54953880Y99327581D02*
X54763404Y99327581D01*
X54763404Y99327581D02*
X54668166Y99375200D01*
X54668166Y99375200D02*
X54620547Y99422820D01*
X54620547Y99422820D02*
X54572928Y99518058D01*
X54572928Y99518058D02*
X54572928Y99803772D01*
X54572928Y99803772D02*
X54620547Y99899010D01*
X54620547Y99899010D02*
X54668166Y99946629D01*
X54668166Y99946629D02*
X54763404Y99994248D01*
X54763404Y99994248D02*
X54953880Y99994248D01*
X54953880Y99994248D02*
X55049118Y99946629D01*
X55906261Y99375200D02*
X55811023Y99327581D01*
X55811023Y99327581D02*
X55620547Y99327581D01*
X55620547Y99327581D02*
X55525309Y99375200D01*
X55525309Y99375200D02*
X55477690Y99470439D01*
X55477690Y99470439D02*
X55477690Y99851391D01*
X55477690Y99851391D02*
X55525309Y99946629D01*
X55525309Y99946629D02*
X55620547Y99994248D01*
X55620547Y99994248D02*
X55811023Y99994248D01*
X55811023Y99994248D02*
X55906261Y99946629D01*
X55906261Y99946629D02*
X55953880Y99851391D01*
X55953880Y99851391D02*
X55953880Y99756153D01*
X55953880Y99756153D02*
X55477690Y99660915D01*
D14*
X75054814Y18157143D02*
X74578623Y17823810D01*
X75054814Y17585715D02*
X74054814Y17585715D01*
X74054814Y17585715D02*
X74054814Y17966667D01*
X74054814Y17966667D02*
X74102433Y18061905D01*
X74102433Y18061905D02*
X74150052Y18109524D01*
X74150052Y18109524D02*
X74245290Y18157143D01*
X74245290Y18157143D02*
X74388147Y18157143D01*
X74388147Y18157143D02*
X74483385Y18109524D01*
X74483385Y18109524D02*
X74531004Y18061905D01*
X74531004Y18061905D02*
X74578623Y17966667D01*
X74578623Y17966667D02*
X74578623Y17585715D01*
X75054814Y19109524D02*
X75054814Y18538096D01*
X75054814Y18823810D02*
X74054814Y18823810D01*
X74054814Y18823810D02*
X74197671Y18728572D01*
X74197671Y18728572D02*
X74292909Y18633334D01*
X74292909Y18633334D02*
X74340528Y18538096D01*
X74054814Y19442858D02*
X74054814Y20061905D01*
X74054814Y20061905D02*
X74435766Y19728572D01*
X74435766Y19728572D02*
X74435766Y19871429D01*
X74435766Y19871429D02*
X74483385Y19966667D01*
X74483385Y19966667D02*
X74531004Y20014286D01*
X74531004Y20014286D02*
X74626242Y20061905D01*
X74626242Y20061905D02*
X74864337Y20061905D01*
X74864337Y20061905D02*
X74959575Y20014286D01*
X74959575Y20014286D02*
X75007195Y19966667D01*
X75007195Y19966667D02*
X75054814Y19871429D01*
X75054814Y19871429D02*
X75054814Y19585715D01*
X75054814Y19585715D02*
X75007195Y19490477D01*
X75007195Y19490477D02*
X74959575Y19442858D01*
X11538090Y56543181D02*
X12109518Y56543181D01*
X11823804Y55543181D02*
X11823804Y56543181D01*
X12442852Y55543181D02*
X12442852Y56543181D01*
X12442852Y56543181D02*
X12823804Y56543181D01*
X12823804Y56543181D02*
X12919042Y56495562D01*
X12919042Y56495562D02*
X12966661Y56447943D01*
X12966661Y56447943D02*
X13014280Y56352705D01*
X13014280Y56352705D02*
X13014280Y56209848D01*
X13014280Y56209848D02*
X12966661Y56114610D01*
X12966661Y56114610D02*
X12919042Y56066991D01*
X12919042Y56066991D02*
X12823804Y56019372D01*
X12823804Y56019372D02*
X12442852Y56019372D01*
X13347614Y56543181D02*
X13966661Y56543181D01*
X13966661Y56543181D02*
X13633328Y56162229D01*
X13633328Y56162229D02*
X13776185Y56162229D01*
X13776185Y56162229D02*
X13871423Y56114610D01*
X13871423Y56114610D02*
X13919042Y56066991D01*
X13919042Y56066991D02*
X13966661Y55971753D01*
X13966661Y55971753D02*
X13966661Y55733658D01*
X13966661Y55733658D02*
X13919042Y55638420D01*
X13919042Y55638420D02*
X13871423Y55590800D01*
X13871423Y55590800D02*
X13776185Y55543181D01*
X13776185Y55543181D02*
X13490471Y55543181D01*
X13490471Y55543181D02*
X13395233Y55590800D01*
X13395233Y55590800D02*
X13347614Y55638420D01*
X77859575Y105583334D02*
X77907195Y105535715D01*
X77907195Y105535715D02*
X77954814Y105392858D01*
X77954814Y105392858D02*
X77954814Y105297620D01*
X77954814Y105297620D02*
X77907195Y105154763D01*
X77907195Y105154763D02*
X77811956Y105059525D01*
X77811956Y105059525D02*
X77716718Y105011906D01*
X77716718Y105011906D02*
X77526242Y104964287D01*
X77526242Y104964287D02*
X77383385Y104964287D01*
X77383385Y104964287D02*
X77192909Y105011906D01*
X77192909Y105011906D02*
X77097671Y105059525D01*
X77097671Y105059525D02*
X77002433Y105154763D01*
X77002433Y105154763D02*
X76954814Y105297620D01*
X76954814Y105297620D02*
X76954814Y105392858D01*
X76954814Y105392858D02*
X77002433Y105535715D01*
X77002433Y105535715D02*
X77050052Y105583334D01*
X76954814Y105916668D02*
X76954814Y106535715D01*
X76954814Y106535715D02*
X77335766Y106202382D01*
X77335766Y106202382D02*
X77335766Y106345239D01*
X77335766Y106345239D02*
X77383385Y106440477D01*
X77383385Y106440477D02*
X77431004Y106488096D01*
X77431004Y106488096D02*
X77526242Y106535715D01*
X77526242Y106535715D02*
X77764337Y106535715D01*
X77764337Y106535715D02*
X77859575Y106488096D01*
X77859575Y106488096D02*
X77907195Y106440477D01*
X77907195Y106440477D02*
X77954814Y106345239D01*
X77954814Y106345239D02*
X77954814Y106059525D01*
X77954814Y106059525D02*
X77907195Y105964287D01*
X77907195Y105964287D02*
X77859575Y105916668D01*
X109216661Y13095181D02*
X109216661Y12380896D01*
X109216661Y12380896D02*
X109169042Y12238039D01*
X109169042Y12238039D02*
X109073804Y12142800D01*
X109073804Y12142800D02*
X108930947Y12095181D01*
X108930947Y12095181D02*
X108835709Y12095181D01*
X109597614Y13095181D02*
X110264280Y13095181D01*
X110264280Y13095181D02*
X109835709Y12095181D01*
D15*
X37558768Y42457654D02*
X37558768Y41742879D01*
X37558768Y41742879D02*
X37511116Y41599924D01*
X37511116Y41599924D02*
X37415813Y41504620D01*
X37415813Y41504620D02*
X37272858Y41456969D01*
X37272858Y41456969D02*
X37177555Y41456969D01*
X37987633Y42362350D02*
X38035285Y42410002D01*
X38035285Y42410002D02*
X38130588Y42457654D01*
X38130588Y42457654D02*
X38368847Y42457654D01*
X38368847Y42457654D02*
X38464150Y42410002D01*
X38464150Y42410002D02*
X38511802Y42362350D01*
X38511802Y42362350D02*
X38559453Y42267047D01*
X38559453Y42267047D02*
X38559453Y42171744D01*
X38559453Y42171744D02*
X38511802Y42028789D01*
X38511802Y42028789D02*
X37939982Y41456969D01*
X37939982Y41456969D02*
X38559453Y41456969D01*
D14*
X108490471Y69195181D02*
X108490471Y68480896D01*
X108490471Y68480896D02*
X108442852Y68338039D01*
X108442852Y68338039D02*
X108347614Y68242800D01*
X108347614Y68242800D02*
X108204757Y68195181D01*
X108204757Y68195181D02*
X108109519Y68195181D01*
X109490471Y68195181D02*
X108919043Y68195181D01*
X109204757Y68195181D02*
X109204757Y69195181D01*
X109204757Y69195181D02*
X109109519Y69052324D01*
X109109519Y69052324D02*
X109014281Y68957086D01*
X109014281Y68957086D02*
X108919043Y68909467D01*
X110442852Y68195181D02*
X109871424Y68195181D01*
X110157138Y68195181D02*
X110157138Y69195181D01*
X110157138Y69195181D02*
X110061900Y69052324D01*
X110061900Y69052324D02*
X109966662Y68957086D01*
X109966662Y68957086D02*
X109871424Y68909467D01*
X108061899Y61295181D02*
X107728566Y61771372D01*
X107490471Y61295181D02*
X107490471Y62295181D01*
X107490471Y62295181D02*
X107871423Y62295181D01*
X107871423Y62295181D02*
X107966661Y62247562D01*
X107966661Y62247562D02*
X108014280Y62199943D01*
X108014280Y62199943D02*
X108061899Y62104705D01*
X108061899Y62104705D02*
X108061899Y61961848D01*
X108061899Y61961848D02*
X108014280Y61866610D01*
X108014280Y61866610D02*
X107966661Y61818991D01*
X107966661Y61818991D02*
X107871423Y61771372D01*
X107871423Y61771372D02*
X107490471Y61771372D01*
X108871423Y61342800D02*
X108776185Y61295181D01*
X108776185Y61295181D02*
X108585709Y61295181D01*
X108585709Y61295181D02*
X108490471Y61342800D01*
X108490471Y61342800D02*
X108442852Y61438039D01*
X108442852Y61438039D02*
X108442852Y61818991D01*
X108442852Y61818991D02*
X108490471Y61914229D01*
X108490471Y61914229D02*
X108585709Y61961848D01*
X108585709Y61961848D02*
X108776185Y61961848D01*
X108776185Y61961848D02*
X108871423Y61914229D01*
X108871423Y61914229D02*
X108919042Y61818991D01*
X108919042Y61818991D02*
X108919042Y61723753D01*
X108919042Y61723753D02*
X108442852Y61628515D01*
X109299995Y61342800D02*
X109395233Y61295181D01*
X109395233Y61295181D02*
X109585709Y61295181D01*
X109585709Y61295181D02*
X109680947Y61342800D01*
X109680947Y61342800D02*
X109728566Y61438039D01*
X109728566Y61438039D02*
X109728566Y61485658D01*
X109728566Y61485658D02*
X109680947Y61580896D01*
X109680947Y61580896D02*
X109585709Y61628515D01*
X109585709Y61628515D02*
X109442852Y61628515D01*
X109442852Y61628515D02*
X109347614Y61676134D01*
X109347614Y61676134D02*
X109299995Y61771372D01*
X109299995Y61771372D02*
X109299995Y61818991D01*
X109299995Y61818991D02*
X109347614Y61914229D01*
X109347614Y61914229D02*
X109442852Y61961848D01*
X109442852Y61961848D02*
X109585709Y61961848D01*
X109585709Y61961848D02*
X109680947Y61914229D01*
X110538090Y61342800D02*
X110442852Y61295181D01*
X110442852Y61295181D02*
X110252376Y61295181D01*
X110252376Y61295181D02*
X110157138Y61342800D01*
X110157138Y61342800D02*
X110109519Y61438039D01*
X110109519Y61438039D02*
X110109519Y61818991D01*
X110109519Y61818991D02*
X110157138Y61914229D01*
X110157138Y61914229D02*
X110252376Y61961848D01*
X110252376Y61961848D02*
X110442852Y61961848D01*
X110442852Y61961848D02*
X110538090Y61914229D01*
X110538090Y61914229D02*
X110585709Y61818991D01*
X110585709Y61818991D02*
X110585709Y61723753D01*
X110585709Y61723753D02*
X110109519Y61628515D01*
X110871424Y61961848D02*
X111252376Y61961848D01*
X111014281Y62295181D02*
X111014281Y61438039D01*
X111014281Y61438039D02*
X111061900Y61342800D01*
X111061900Y61342800D02*
X111157138Y61295181D01*
X111157138Y61295181D02*
X111252376Y61295181D01*
X83909575Y116933334D02*
X83957195Y116885715D01*
X83957195Y116885715D02*
X84004814Y116742858D01*
X84004814Y116742858D02*
X84004814Y116647620D01*
X84004814Y116647620D02*
X83957195Y116504763D01*
X83957195Y116504763D02*
X83861956Y116409525D01*
X83861956Y116409525D02*
X83766718Y116361906D01*
X83766718Y116361906D02*
X83576242Y116314287D01*
X83576242Y116314287D02*
X83433385Y116314287D01*
X83433385Y116314287D02*
X83242909Y116361906D01*
X83242909Y116361906D02*
X83147671Y116409525D01*
X83147671Y116409525D02*
X83052433Y116504763D01*
X83052433Y116504763D02*
X83004814Y116647620D01*
X83004814Y116647620D02*
X83004814Y116742858D01*
X83004814Y116742858D02*
X83052433Y116885715D01*
X83052433Y116885715D02*
X83100052Y116933334D01*
X83004814Y117266668D02*
X83004814Y117933334D01*
X83004814Y117933334D02*
X84004814Y117504763D01*
D16*
X64854813Y124722406D02*
X65761956Y124722406D01*
X65761956Y124722406D02*
X65943384Y124661929D01*
X65943384Y124661929D02*
X66064337Y124540977D01*
X66064337Y124540977D02*
X66124813Y124359548D01*
X66124813Y124359548D02*
X66124813Y124238596D01*
X66124813Y125992406D02*
X66124813Y125266691D01*
X66124813Y125629548D02*
X64854813Y125629548D01*
X64854813Y125629548D02*
X65036241Y125508596D01*
X65036241Y125508596D02*
X65157194Y125387644D01*
X65157194Y125387644D02*
X65217670Y125266691D01*
X64854813Y126778596D02*
X64854813Y126899549D01*
X64854813Y126899549D02*
X64915289Y127020501D01*
X64915289Y127020501D02*
X64975765Y127080977D01*
X64975765Y127080977D02*
X65096717Y127141453D01*
X65096717Y127141453D02*
X65338622Y127201930D01*
X65338622Y127201930D02*
X65641003Y127201930D01*
X65641003Y127201930D02*
X65882908Y127141453D01*
X65882908Y127141453D02*
X66003860Y127080977D01*
X66003860Y127080977D02*
X66064337Y127020501D01*
X66064337Y127020501D02*
X66124813Y126899549D01*
X66124813Y126899549D02*
X66124813Y126778596D01*
X66124813Y126778596D02*
X66064337Y126657644D01*
X66064337Y126657644D02*
X66003860Y126597168D01*
X66003860Y126597168D02*
X65882908Y126536691D01*
X65882908Y126536691D02*
X65641003Y126476215D01*
X65641003Y126476215D02*
X65338622Y126476215D01*
X65338622Y126476215D02*
X65096717Y126536691D01*
X65096717Y126536691D02*
X64975765Y126597168D01*
X64975765Y126597168D02*
X64915289Y126657644D01*
X64915289Y126657644D02*
X64854813Y126778596D01*
X89763805Y19245682D02*
X89763805Y18338539D01*
X89763805Y18338539D02*
X89703328Y18157111D01*
X89703328Y18157111D02*
X89582376Y18036158D01*
X89582376Y18036158D02*
X89400947Y17975682D01*
X89400947Y17975682D02*
X89279995Y17975682D01*
X90549995Y19245682D02*
X90549995Y18943301D01*
X90247614Y19064254D02*
X90549995Y18943301D01*
X90549995Y18943301D02*
X90852376Y19064254D01*
X90368566Y18701397D02*
X90549995Y18943301D01*
X90549995Y18943301D02*
X90731424Y18701397D01*
X91517614Y19245682D02*
X91517614Y18943301D01*
X91215233Y19064254D02*
X91517614Y18943301D01*
X91517614Y18943301D02*
X91819995Y19064254D01*
X91336185Y18701397D02*
X91517614Y18943301D01*
X91517614Y18943301D02*
X91699043Y18701397D01*
X24604313Y127326668D02*
X25511456Y127326668D01*
X25511456Y127326668D02*
X25692884Y127266191D01*
X25692884Y127266191D02*
X25813837Y127145239D01*
X25813837Y127145239D02*
X25874313Y126963810D01*
X25874313Y126963810D02*
X25874313Y126842858D01*
X25148598Y128112858D02*
X25088122Y127991906D01*
X25088122Y127991906D02*
X25027646Y127931429D01*
X25027646Y127931429D02*
X24906694Y127870953D01*
X24906694Y127870953D02*
X24846217Y127870953D01*
X24846217Y127870953D02*
X24725265Y127931429D01*
X24725265Y127931429D02*
X24664789Y127991906D01*
X24664789Y127991906D02*
X24604313Y128112858D01*
X24604313Y128112858D02*
X24604313Y128354763D01*
X24604313Y128354763D02*
X24664789Y128475715D01*
X24664789Y128475715D02*
X24725265Y128536191D01*
X24725265Y128536191D02*
X24846217Y128596668D01*
X24846217Y128596668D02*
X24906694Y128596668D01*
X24906694Y128596668D02*
X25027646Y128536191D01*
X25027646Y128536191D02*
X25088122Y128475715D01*
X25088122Y128475715D02*
X25148598Y128354763D01*
X25148598Y128354763D02*
X25148598Y128112858D01*
X25148598Y128112858D02*
X25209075Y127991906D01*
X25209075Y127991906D02*
X25269551Y127931429D01*
X25269551Y127931429D02*
X25390503Y127870953D01*
X25390503Y127870953D02*
X25632408Y127870953D01*
X25632408Y127870953D02*
X25753360Y127931429D01*
X25753360Y127931429D02*
X25813837Y127991906D01*
X25813837Y127991906D02*
X25874313Y128112858D01*
X25874313Y128112858D02*
X25874313Y128354763D01*
X25874313Y128354763D02*
X25813837Y128475715D01*
X25813837Y128475715D02*
X25753360Y128536191D01*
X25753360Y128536191D02*
X25632408Y128596668D01*
X25632408Y128596668D02*
X25390503Y128596668D01*
X25390503Y128596668D02*
X25269551Y128536191D01*
X25269551Y128536191D02*
X25209075Y128475715D01*
X25209075Y128475715D02*
X25148598Y128354763D01*
D14*
X81163328Y105440181D02*
X80829995Y105916372D01*
X80591900Y105440181D02*
X80591900Y106440181D01*
X80591900Y106440181D02*
X80972852Y106440181D01*
X80972852Y106440181D02*
X81068090Y106392562D01*
X81068090Y106392562D02*
X81115709Y106344943D01*
X81115709Y106344943D02*
X81163328Y106249705D01*
X81163328Y106249705D02*
X81163328Y106106848D01*
X81163328Y106106848D02*
X81115709Y106011610D01*
X81115709Y106011610D02*
X81068090Y105963991D01*
X81068090Y105963991D02*
X80972852Y105916372D01*
X80972852Y105916372D02*
X80591900Y105916372D01*
X81496662Y106440181D02*
X82163328Y106440181D01*
X82163328Y106440181D02*
X81734757Y105440181D01*
X87332137Y14745181D02*
X86998804Y15221372D01*
X86760709Y14745181D02*
X86760709Y15745181D01*
X86760709Y15745181D02*
X87141661Y15745181D01*
X87141661Y15745181D02*
X87236899Y15697562D01*
X87236899Y15697562D02*
X87284518Y15649943D01*
X87284518Y15649943D02*
X87332137Y15554705D01*
X87332137Y15554705D02*
X87332137Y15411848D01*
X87332137Y15411848D02*
X87284518Y15316610D01*
X87284518Y15316610D02*
X87236899Y15268991D01*
X87236899Y15268991D02*
X87141661Y15221372D01*
X87141661Y15221372D02*
X86760709Y15221372D01*
X88284518Y14745181D02*
X87713090Y14745181D01*
X87998804Y14745181D02*
X87998804Y15745181D01*
X87998804Y15745181D02*
X87903566Y15602324D01*
X87903566Y15602324D02*
X87808328Y15507086D01*
X87808328Y15507086D02*
X87713090Y15459467D01*
X88665471Y15649943D02*
X88713090Y15697562D01*
X88713090Y15697562D02*
X88808328Y15745181D01*
X88808328Y15745181D02*
X89046423Y15745181D01*
X89046423Y15745181D02*
X89141661Y15697562D01*
X89141661Y15697562D02*
X89189280Y15649943D01*
X89189280Y15649943D02*
X89236899Y15554705D01*
X89236899Y15554705D02*
X89236899Y15459467D01*
X89236899Y15459467D02*
X89189280Y15316610D01*
X89189280Y15316610D02*
X88617852Y14745181D01*
X88617852Y14745181D02*
X89236899Y14745181D01*
D16*
X24520233Y27893444D02*
X24520233Y27288682D01*
X24096900Y28558682D02*
X24520233Y27893444D01*
X24520233Y27893444D02*
X24943567Y28558682D01*
X26032138Y27288682D02*
X25306423Y27288682D01*
X25669280Y27288682D02*
X25669280Y28558682D01*
X25669280Y28558682D02*
X25548328Y28377254D01*
X25548328Y28377254D02*
X25427376Y28256301D01*
X25427376Y28256301D02*
X25306423Y28195825D01*
D14*
X53288328Y31595181D02*
X52954995Y32071372D01*
X52716900Y31595181D02*
X52716900Y32595181D01*
X52716900Y32595181D02*
X53097852Y32595181D01*
X53097852Y32595181D02*
X53193090Y32547562D01*
X53193090Y32547562D02*
X53240709Y32499943D01*
X53240709Y32499943D02*
X53288328Y32404705D01*
X53288328Y32404705D02*
X53288328Y32261848D01*
X53288328Y32261848D02*
X53240709Y32166610D01*
X53240709Y32166610D02*
X53193090Y32118991D01*
X53193090Y32118991D02*
X53097852Y32071372D01*
X53097852Y32071372D02*
X52716900Y32071372D01*
X54240709Y31595181D02*
X53669281Y31595181D01*
X53954995Y31595181D02*
X53954995Y32595181D01*
X53954995Y32595181D02*
X53859757Y32452324D01*
X53859757Y32452324D02*
X53764519Y32357086D01*
X53764519Y32357086D02*
X53669281Y32309467D01*
X45216661Y13095181D02*
X45216661Y12380896D01*
X45216661Y12380896D02*
X45169042Y12238039D01*
X45169042Y12238039D02*
X45073804Y12142800D01*
X45073804Y12142800D02*
X44930947Y12095181D01*
X44930947Y12095181D02*
X44835709Y12095181D01*
X46169042Y13095181D02*
X45692852Y13095181D01*
X45692852Y13095181D02*
X45645233Y12618991D01*
X45645233Y12618991D02*
X45692852Y12666610D01*
X45692852Y12666610D02*
X45788090Y12714229D01*
X45788090Y12714229D02*
X46026185Y12714229D01*
X46026185Y12714229D02*
X46121423Y12666610D01*
X46121423Y12666610D02*
X46169042Y12618991D01*
X46169042Y12618991D02*
X46216661Y12523753D01*
X46216661Y12523753D02*
X46216661Y12285658D01*
X46216661Y12285658D02*
X46169042Y12190420D01*
X46169042Y12190420D02*
X46121423Y12142800D01*
X46121423Y12142800D02*
X46026185Y12095181D01*
X46026185Y12095181D02*
X45788090Y12095181D01*
X45788090Y12095181D02*
X45692852Y12142800D01*
X45692852Y12142800D02*
X45645233Y12190420D01*
X108490471Y92495181D02*
X108490471Y91780896D01*
X108490471Y91780896D02*
X108442852Y91638039D01*
X108442852Y91638039D02*
X108347614Y91542800D01*
X108347614Y91542800D02*
X108204757Y91495181D01*
X108204757Y91495181D02*
X108109519Y91495181D01*
X109490471Y91495181D02*
X108919043Y91495181D01*
X109204757Y91495181D02*
X109204757Y92495181D01*
X109204757Y92495181D02*
X109109519Y92352324D01*
X109109519Y92352324D02*
X109014281Y92257086D01*
X109014281Y92257086D02*
X108919043Y92209467D01*
X109823805Y92495181D02*
X110442852Y92495181D01*
X110442852Y92495181D02*
X110109519Y92114229D01*
X110109519Y92114229D02*
X110252376Y92114229D01*
X110252376Y92114229D02*
X110347614Y92066610D01*
X110347614Y92066610D02*
X110395233Y92018991D01*
X110395233Y92018991D02*
X110442852Y91923753D01*
X110442852Y91923753D02*
X110442852Y91685658D01*
X110442852Y91685658D02*
X110395233Y91590420D01*
X110395233Y91590420D02*
X110347614Y91542800D01*
X110347614Y91542800D02*
X110252376Y91495181D01*
X110252376Y91495181D02*
X109966662Y91495181D01*
X109966662Y91495181D02*
X109871424Y91542800D01*
X109871424Y91542800D02*
X109823805Y91590420D01*
X108704756Y84499943D02*
X108609518Y84547562D01*
X108609518Y84547562D02*
X108514280Y84642800D01*
X108514280Y84642800D02*
X108371423Y84785658D01*
X108371423Y84785658D02*
X108276185Y84833277D01*
X108276185Y84833277D02*
X108180947Y84833277D01*
X108228566Y84595181D02*
X108133328Y84642800D01*
X108133328Y84642800D02*
X108038090Y84738039D01*
X108038090Y84738039D02*
X107990471Y84928515D01*
X107990471Y84928515D02*
X107990471Y85261848D01*
X107990471Y85261848D02*
X108038090Y85452324D01*
X108038090Y85452324D02*
X108133328Y85547562D01*
X108133328Y85547562D02*
X108228566Y85595181D01*
X108228566Y85595181D02*
X108419042Y85595181D01*
X108419042Y85595181D02*
X108514280Y85547562D01*
X108514280Y85547562D02*
X108609518Y85452324D01*
X108609518Y85452324D02*
X108657137Y85261848D01*
X108657137Y85261848D02*
X108657137Y84928515D01*
X108657137Y84928515D02*
X108609518Y84738039D01*
X108609518Y84738039D02*
X108514280Y84642800D01*
X108514280Y84642800D02*
X108419042Y84595181D01*
X108419042Y84595181D02*
X108228566Y84595181D01*
X109514280Y85261848D02*
X109514280Y84595181D01*
X109085709Y85261848D02*
X109085709Y84738039D01*
X109085709Y84738039D02*
X109133328Y84642800D01*
X109133328Y84642800D02*
X109228566Y84595181D01*
X109228566Y84595181D02*
X109371423Y84595181D01*
X109371423Y84595181D02*
X109466661Y84642800D01*
X109466661Y84642800D02*
X109514280Y84690420D01*
X109990471Y84595181D02*
X109990471Y85261848D01*
X109990471Y85595181D02*
X109942852Y85547562D01*
X109942852Y85547562D02*
X109990471Y85499943D01*
X109990471Y85499943D02*
X110038090Y85547562D01*
X110038090Y85547562D02*
X109990471Y85595181D01*
X109990471Y85595181D02*
X109990471Y85499943D01*
X110323804Y85261848D02*
X110704756Y85261848D01*
X110466661Y85595181D02*
X110466661Y84738039D01*
X110466661Y84738039D02*
X110514280Y84642800D01*
X110514280Y84642800D02*
X110609518Y84595181D01*
X110609518Y84595181D02*
X110704756Y84595181D01*
X11538090Y49443181D02*
X12109518Y49443181D01*
X11823804Y48443181D02*
X11823804Y49443181D01*
X12442852Y48443181D02*
X12442852Y49443181D01*
X12442852Y49443181D02*
X12823804Y49443181D01*
X12823804Y49443181D02*
X12919042Y49395562D01*
X12919042Y49395562D02*
X12966661Y49347943D01*
X12966661Y49347943D02*
X13014280Y49252705D01*
X13014280Y49252705D02*
X13014280Y49109848D01*
X13014280Y49109848D02*
X12966661Y49014610D01*
X12966661Y49014610D02*
X12919042Y48966991D01*
X12919042Y48966991D02*
X12823804Y48919372D01*
X12823804Y48919372D02*
X12442852Y48919372D01*
X13871423Y49109848D02*
X13871423Y48443181D01*
X13633328Y49490800D02*
X13395233Y48776515D01*
X13395233Y48776515D02*
X14014280Y48776515D01*
X76428328Y114195181D02*
X76094995Y114671372D01*
X75856900Y114195181D02*
X75856900Y115195181D01*
X75856900Y115195181D02*
X76237852Y115195181D01*
X76237852Y115195181D02*
X76333090Y115147562D01*
X76333090Y115147562D02*
X76380709Y115099943D01*
X76380709Y115099943D02*
X76428328Y115004705D01*
X76428328Y115004705D02*
X76428328Y114861848D01*
X76428328Y114861848D02*
X76380709Y114766610D01*
X76380709Y114766610D02*
X76333090Y114718991D01*
X76333090Y114718991D02*
X76237852Y114671372D01*
X76237852Y114671372D02*
X75856900Y114671372D01*
X77333090Y115195181D02*
X76856900Y115195181D01*
X76856900Y115195181D02*
X76809281Y114718991D01*
X76809281Y114718991D02*
X76856900Y114766610D01*
X76856900Y114766610D02*
X76952138Y114814229D01*
X76952138Y114814229D02*
X77190233Y114814229D01*
X77190233Y114814229D02*
X77285471Y114766610D01*
X77285471Y114766610D02*
X77333090Y114718991D01*
X77333090Y114718991D02*
X77380709Y114623753D01*
X77380709Y114623753D02*
X77380709Y114385658D01*
X77380709Y114385658D02*
X77333090Y114290420D01*
X77333090Y114290420D02*
X77285471Y114242800D01*
X77285471Y114242800D02*
X77190233Y114195181D01*
X77190233Y114195181D02*
X76952138Y114195181D01*
X76952138Y114195181D02*
X76856900Y114242800D01*
X76856900Y114242800D02*
X76809281Y114290420D01*
D16*
X76174313Y100260238D02*
X74904313Y100260238D01*
X76053360Y101590715D02*
X76113837Y101530239D01*
X76113837Y101530239D02*
X76174313Y101348810D01*
X76174313Y101348810D02*
X76174313Y101227858D01*
X76174313Y101227858D02*
X76113837Y101046429D01*
X76113837Y101046429D02*
X75992884Y100925477D01*
X75992884Y100925477D02*
X75871932Y100865000D01*
X75871932Y100865000D02*
X75630027Y100804524D01*
X75630027Y100804524D02*
X75448598Y100804524D01*
X75448598Y100804524D02*
X75206694Y100865000D01*
X75206694Y100865000D02*
X75085741Y100925477D01*
X75085741Y100925477D02*
X74964789Y101046429D01*
X74964789Y101046429D02*
X74904313Y101227858D01*
X74904313Y101227858D02*
X74904313Y101348810D01*
X74904313Y101348810D02*
X74964789Y101530239D01*
X74964789Y101530239D02*
X75025265Y101590715D01*
X75025265Y102074524D02*
X74964789Y102135000D01*
X74964789Y102135000D02*
X74904313Y102255953D01*
X74904313Y102255953D02*
X74904313Y102558334D01*
X74904313Y102558334D02*
X74964789Y102679286D01*
X74964789Y102679286D02*
X75025265Y102739762D01*
X75025265Y102739762D02*
X75146217Y102800239D01*
X75146217Y102800239D02*
X75267170Y102800239D01*
X75267170Y102800239D02*
X75448598Y102739762D01*
X75448598Y102739762D02*
X76174313Y102014048D01*
X76174313Y102014048D02*
X76174313Y102800239D01*
D14*
X76363328Y120995181D02*
X76029995Y121471372D01*
X75791900Y120995181D02*
X75791900Y121995181D01*
X75791900Y121995181D02*
X76172852Y121995181D01*
X76172852Y121995181D02*
X76268090Y121947562D01*
X76268090Y121947562D02*
X76315709Y121899943D01*
X76315709Y121899943D02*
X76363328Y121804705D01*
X76363328Y121804705D02*
X76363328Y121661848D01*
X76363328Y121661848D02*
X76315709Y121566610D01*
X76315709Y121566610D02*
X76268090Y121518991D01*
X76268090Y121518991D02*
X76172852Y121471372D01*
X76172852Y121471372D02*
X75791900Y121471372D01*
X77220471Y121995181D02*
X77029995Y121995181D01*
X77029995Y121995181D02*
X76934757Y121947562D01*
X76934757Y121947562D02*
X76887138Y121899943D01*
X76887138Y121899943D02*
X76791900Y121757086D01*
X76791900Y121757086D02*
X76744281Y121566610D01*
X76744281Y121566610D02*
X76744281Y121185658D01*
X76744281Y121185658D02*
X76791900Y121090420D01*
X76791900Y121090420D02*
X76839519Y121042800D01*
X76839519Y121042800D02*
X76934757Y120995181D01*
X76934757Y120995181D02*
X77125233Y120995181D01*
X77125233Y120995181D02*
X77220471Y121042800D01*
X77220471Y121042800D02*
X77268090Y121090420D01*
X77268090Y121090420D02*
X77315709Y121185658D01*
X77315709Y121185658D02*
X77315709Y121423753D01*
X77315709Y121423753D02*
X77268090Y121518991D01*
X77268090Y121518991D02*
X77220471Y121566610D01*
X77220471Y121566610D02*
X77125233Y121614229D01*
X77125233Y121614229D02*
X76934757Y121614229D01*
X76934757Y121614229D02*
X76839519Y121566610D01*
X76839519Y121566610D02*
X76791900Y121518991D01*
X76791900Y121518991D02*
X76744281Y121423753D01*
X104112852Y36925181D02*
X104112852Y37925181D01*
X104112852Y37925181D02*
X104446185Y37210896D01*
X104446185Y37210896D02*
X104779518Y37925181D01*
X104779518Y37925181D02*
X104779518Y36925181D01*
X105398566Y36925181D02*
X105303328Y36972800D01*
X105303328Y36972800D02*
X105255709Y37020420D01*
X105255709Y37020420D02*
X105208090Y37115658D01*
X105208090Y37115658D02*
X105208090Y37401372D01*
X105208090Y37401372D02*
X105255709Y37496610D01*
X105255709Y37496610D02*
X105303328Y37544229D01*
X105303328Y37544229D02*
X105398566Y37591848D01*
X105398566Y37591848D02*
X105541423Y37591848D01*
X105541423Y37591848D02*
X105636661Y37544229D01*
X105636661Y37544229D02*
X105684280Y37496610D01*
X105684280Y37496610D02*
X105731899Y37401372D01*
X105731899Y37401372D02*
X105731899Y37115658D01*
X105731899Y37115658D02*
X105684280Y37020420D01*
X105684280Y37020420D02*
X105636661Y36972800D01*
X105636661Y36972800D02*
X105541423Y36925181D01*
X105541423Y36925181D02*
X105398566Y36925181D01*
X106589042Y36925181D02*
X106589042Y37925181D01*
X106589042Y36972800D02*
X106493804Y36925181D01*
X106493804Y36925181D02*
X106303328Y36925181D01*
X106303328Y36925181D02*
X106208090Y36972800D01*
X106208090Y36972800D02*
X106160471Y37020420D01*
X106160471Y37020420D02*
X106112852Y37115658D01*
X106112852Y37115658D02*
X106112852Y37401372D01*
X106112852Y37401372D02*
X106160471Y37496610D01*
X106160471Y37496610D02*
X106208090Y37544229D01*
X106208090Y37544229D02*
X106303328Y37591848D01*
X106303328Y37591848D02*
X106493804Y37591848D01*
X106493804Y37591848D02*
X106589042Y37544229D01*
X107493804Y37591848D02*
X107493804Y36925181D01*
X107065233Y37591848D02*
X107065233Y37068039D01*
X107065233Y37068039D02*
X107112852Y36972800D01*
X107112852Y36972800D02*
X107208090Y36925181D01*
X107208090Y36925181D02*
X107350947Y36925181D01*
X107350947Y36925181D02*
X107446185Y36972800D01*
X107446185Y36972800D02*
X107493804Y37020420D01*
X108112852Y36925181D02*
X108017614Y36972800D01*
X108017614Y36972800D02*
X107969995Y37068039D01*
X107969995Y37068039D02*
X107969995Y37925181D01*
X108874757Y36972800D02*
X108779519Y36925181D01*
X108779519Y36925181D02*
X108589043Y36925181D01*
X108589043Y36925181D02*
X108493805Y36972800D01*
X108493805Y36972800D02*
X108446186Y37068039D01*
X108446186Y37068039D02*
X108446186Y37448991D01*
X108446186Y37448991D02*
X108493805Y37544229D01*
X108493805Y37544229D02*
X108589043Y37591848D01*
X108589043Y37591848D02*
X108779519Y37591848D01*
X108779519Y37591848D02*
X108874757Y37544229D01*
X108874757Y37544229D02*
X108922376Y37448991D01*
X108922376Y37448991D02*
X108922376Y37353753D01*
X108922376Y37353753D02*
X108446186Y37258515D01*
X109874757Y36925181D02*
X109303329Y36925181D01*
X109589043Y36925181D02*
X109589043Y37925181D01*
X109589043Y37925181D02*
X109493805Y37782324D01*
X109493805Y37782324D02*
X109398567Y37687086D01*
X109398567Y37687086D02*
X109303329Y37639467D01*
X52729400Y33395181D02*
X52729400Y34395181D01*
X52729400Y34395181D02*
X52967495Y34395181D01*
X52967495Y34395181D02*
X53110352Y34347562D01*
X53110352Y34347562D02*
X53205590Y34252324D01*
X53205590Y34252324D02*
X53253209Y34157086D01*
X53253209Y34157086D02*
X53300828Y33966610D01*
X53300828Y33966610D02*
X53300828Y33823753D01*
X53300828Y33823753D02*
X53253209Y33633277D01*
X53253209Y33633277D02*
X53205590Y33538039D01*
X53205590Y33538039D02*
X53110352Y33442800D01*
X53110352Y33442800D02*
X52967495Y33395181D01*
X52967495Y33395181D02*
X52729400Y33395181D01*
X54253209Y33395181D02*
X53681781Y33395181D01*
X53967495Y33395181D02*
X53967495Y34395181D01*
X53967495Y34395181D02*
X53872257Y34252324D01*
X53872257Y34252324D02*
X53777019Y34157086D01*
X53777019Y34157086D02*
X53681781Y34109467D01*
X81128328Y108690420D02*
X81080709Y108642800D01*
X81080709Y108642800D02*
X80937852Y108595181D01*
X80937852Y108595181D02*
X80842614Y108595181D01*
X80842614Y108595181D02*
X80699757Y108642800D01*
X80699757Y108642800D02*
X80604519Y108738039D01*
X80604519Y108738039D02*
X80556900Y108833277D01*
X80556900Y108833277D02*
X80509281Y109023753D01*
X80509281Y109023753D02*
X80509281Y109166610D01*
X80509281Y109166610D02*
X80556900Y109357086D01*
X80556900Y109357086D02*
X80604519Y109452324D01*
X80604519Y109452324D02*
X80699757Y109547562D01*
X80699757Y109547562D02*
X80842614Y109595181D01*
X80842614Y109595181D02*
X80937852Y109595181D01*
X80937852Y109595181D02*
X81080709Y109547562D01*
X81080709Y109547562D02*
X81128328Y109499943D01*
X81985471Y109595181D02*
X81794995Y109595181D01*
X81794995Y109595181D02*
X81699757Y109547562D01*
X81699757Y109547562D02*
X81652138Y109499943D01*
X81652138Y109499943D02*
X81556900Y109357086D01*
X81556900Y109357086D02*
X81509281Y109166610D01*
X81509281Y109166610D02*
X81509281Y108785658D01*
X81509281Y108785658D02*
X81556900Y108690420D01*
X81556900Y108690420D02*
X81604519Y108642800D01*
X81604519Y108642800D02*
X81699757Y108595181D01*
X81699757Y108595181D02*
X81890233Y108595181D01*
X81890233Y108595181D02*
X81985471Y108642800D01*
X81985471Y108642800D02*
X82033090Y108690420D01*
X82033090Y108690420D02*
X82080709Y108785658D01*
X82080709Y108785658D02*
X82080709Y109023753D01*
X82080709Y109023753D02*
X82033090Y109118991D01*
X82033090Y109118991D02*
X81985471Y109166610D01*
X81985471Y109166610D02*
X81890233Y109214229D01*
X81890233Y109214229D02*
X81699757Y109214229D01*
X81699757Y109214229D02*
X81604519Y109166610D01*
X81604519Y109166610D02*
X81556900Y109118991D01*
X81556900Y109118991D02*
X81509281Y109023753D01*
X81128328Y112095181D02*
X80794995Y112571372D01*
X80556900Y112095181D02*
X80556900Y113095181D01*
X80556900Y113095181D02*
X80937852Y113095181D01*
X80937852Y113095181D02*
X81033090Y113047562D01*
X81033090Y113047562D02*
X81080709Y112999943D01*
X81080709Y112999943D02*
X81128328Y112904705D01*
X81128328Y112904705D02*
X81128328Y112761848D01*
X81128328Y112761848D02*
X81080709Y112666610D01*
X81080709Y112666610D02*
X81033090Y112618991D01*
X81033090Y112618991D02*
X80937852Y112571372D01*
X80937852Y112571372D02*
X80556900Y112571372D01*
X81699757Y112666610D02*
X81604519Y112714229D01*
X81604519Y112714229D02*
X81556900Y112761848D01*
X81556900Y112761848D02*
X81509281Y112857086D01*
X81509281Y112857086D02*
X81509281Y112904705D01*
X81509281Y112904705D02*
X81556900Y112999943D01*
X81556900Y112999943D02*
X81604519Y113047562D01*
X81604519Y113047562D02*
X81699757Y113095181D01*
X81699757Y113095181D02*
X81890233Y113095181D01*
X81890233Y113095181D02*
X81985471Y113047562D01*
X81985471Y113047562D02*
X82033090Y112999943D01*
X82033090Y112999943D02*
X82080709Y112904705D01*
X82080709Y112904705D02*
X82080709Y112857086D01*
X82080709Y112857086D02*
X82033090Y112761848D01*
X82033090Y112761848D02*
X81985471Y112714229D01*
X81985471Y112714229D02*
X81890233Y112666610D01*
X81890233Y112666610D02*
X81699757Y112666610D01*
X81699757Y112666610D02*
X81604519Y112618991D01*
X81604519Y112618991D02*
X81556900Y112571372D01*
X81556900Y112571372D02*
X81509281Y112476134D01*
X81509281Y112476134D02*
X81509281Y112285658D01*
X81509281Y112285658D02*
X81556900Y112190420D01*
X81556900Y112190420D02*
X81604519Y112142800D01*
X81604519Y112142800D02*
X81699757Y112095181D01*
X81699757Y112095181D02*
X81890233Y112095181D01*
X81890233Y112095181D02*
X81985471Y112142800D01*
X81985471Y112142800D02*
X82033090Y112190420D01*
X82033090Y112190420D02*
X82080709Y112285658D01*
X82080709Y112285658D02*
X82080709Y112476134D01*
X82080709Y112476134D02*
X82033090Y112571372D01*
X82033090Y112571372D02*
X81985471Y112618991D01*
X81985471Y112618991D02*
X81890233Y112666610D01*
X89637137Y14145181D02*
X89303804Y14621372D01*
X89065709Y14145181D02*
X89065709Y15145181D01*
X89065709Y15145181D02*
X89446661Y15145181D01*
X89446661Y15145181D02*
X89541899Y15097562D01*
X89541899Y15097562D02*
X89589518Y15049943D01*
X89589518Y15049943D02*
X89637137Y14954705D01*
X89637137Y14954705D02*
X89637137Y14811848D01*
X89637137Y14811848D02*
X89589518Y14716610D01*
X89589518Y14716610D02*
X89541899Y14668991D01*
X89541899Y14668991D02*
X89446661Y14621372D01*
X89446661Y14621372D02*
X89065709Y14621372D01*
X90589518Y14145181D02*
X90018090Y14145181D01*
X90303804Y14145181D02*
X90303804Y15145181D01*
X90303804Y15145181D02*
X90208566Y15002324D01*
X90208566Y15002324D02*
X90113328Y14907086D01*
X90113328Y14907086D02*
X90018090Y14859467D01*
X91494280Y15145181D02*
X91018090Y15145181D01*
X91018090Y15145181D02*
X90970471Y14668991D01*
X90970471Y14668991D02*
X91018090Y14716610D01*
X91018090Y14716610D02*
X91113328Y14764229D01*
X91113328Y14764229D02*
X91351423Y14764229D01*
X91351423Y14764229D02*
X91446661Y14716610D01*
X91446661Y14716610D02*
X91494280Y14668991D01*
X91494280Y14668991D02*
X91541899Y14573753D01*
X91541899Y14573753D02*
X91541899Y14335658D01*
X91541899Y14335658D02*
X91494280Y14240420D01*
X91494280Y14240420D02*
X91446661Y14192800D01*
X91446661Y14192800D02*
X91351423Y14145181D01*
X91351423Y14145181D02*
X91113328Y14145181D01*
X91113328Y14145181D02*
X91018090Y14192800D01*
X91018090Y14192800D02*
X90970471Y14240420D01*
X34638090Y24143181D02*
X35209518Y24143181D01*
X34923804Y23143181D02*
X34923804Y24143181D01*
X35542852Y23143181D02*
X35542852Y24143181D01*
X35542852Y24143181D02*
X35923804Y24143181D01*
X35923804Y24143181D02*
X36019042Y24095562D01*
X36019042Y24095562D02*
X36066661Y24047943D01*
X36066661Y24047943D02*
X36114280Y23952705D01*
X36114280Y23952705D02*
X36114280Y23809848D01*
X36114280Y23809848D02*
X36066661Y23714610D01*
X36066661Y23714610D02*
X36019042Y23666991D01*
X36019042Y23666991D02*
X35923804Y23619372D01*
X35923804Y23619372D02*
X35542852Y23619372D01*
X37066661Y23143181D02*
X36495233Y23143181D01*
X36780947Y23143181D02*
X36780947Y24143181D01*
X36780947Y24143181D02*
X36685709Y24000324D01*
X36685709Y24000324D02*
X36590471Y23905086D01*
X36590471Y23905086D02*
X36495233Y23857467D01*
X81183328Y118895181D02*
X80849995Y119371372D01*
X80611900Y118895181D02*
X80611900Y119895181D01*
X80611900Y119895181D02*
X80992852Y119895181D01*
X80992852Y119895181D02*
X81088090Y119847562D01*
X81088090Y119847562D02*
X81135709Y119799943D01*
X81135709Y119799943D02*
X81183328Y119704705D01*
X81183328Y119704705D02*
X81183328Y119561848D01*
X81183328Y119561848D02*
X81135709Y119466610D01*
X81135709Y119466610D02*
X81088090Y119418991D01*
X81088090Y119418991D02*
X80992852Y119371372D01*
X80992852Y119371372D02*
X80611900Y119371372D01*
X81659519Y118895181D02*
X81849995Y118895181D01*
X81849995Y118895181D02*
X81945233Y118942800D01*
X81945233Y118942800D02*
X81992852Y118990420D01*
X81992852Y118990420D02*
X82088090Y119133277D01*
X82088090Y119133277D02*
X82135709Y119323753D01*
X82135709Y119323753D02*
X82135709Y119704705D01*
X82135709Y119704705D02*
X82088090Y119799943D01*
X82088090Y119799943D02*
X82040471Y119847562D01*
X82040471Y119847562D02*
X81945233Y119895181D01*
X81945233Y119895181D02*
X81754757Y119895181D01*
X81754757Y119895181D02*
X81659519Y119847562D01*
X81659519Y119847562D02*
X81611900Y119799943D01*
X81611900Y119799943D02*
X81564281Y119704705D01*
X81564281Y119704705D02*
X81564281Y119466610D01*
X81564281Y119466610D02*
X81611900Y119371372D01*
X81611900Y119371372D02*
X81659519Y119323753D01*
X81659519Y119323753D02*
X81754757Y119276134D01*
X81754757Y119276134D02*
X81945233Y119276134D01*
X81945233Y119276134D02*
X82040471Y119323753D01*
X82040471Y119323753D02*
X82088090Y119371372D01*
X82088090Y119371372D02*
X82135709Y119466610D01*
X88752137Y15395181D02*
X88418804Y15871372D01*
X88180709Y15395181D02*
X88180709Y16395181D01*
X88180709Y16395181D02*
X88561661Y16395181D01*
X88561661Y16395181D02*
X88656899Y16347562D01*
X88656899Y16347562D02*
X88704518Y16299943D01*
X88704518Y16299943D02*
X88752137Y16204705D01*
X88752137Y16204705D02*
X88752137Y16061848D01*
X88752137Y16061848D02*
X88704518Y15966610D01*
X88704518Y15966610D02*
X88656899Y15918991D01*
X88656899Y15918991D02*
X88561661Y15871372D01*
X88561661Y15871372D02*
X88180709Y15871372D01*
X89704518Y15395181D02*
X89133090Y15395181D01*
X89418804Y15395181D02*
X89418804Y16395181D01*
X89418804Y16395181D02*
X89323566Y16252324D01*
X89323566Y16252324D02*
X89228328Y16157086D01*
X89228328Y16157086D02*
X89133090Y16109467D01*
X90656899Y15395181D02*
X90085471Y15395181D01*
X90371185Y15395181D02*
X90371185Y16395181D01*
X90371185Y16395181D02*
X90275947Y16252324D01*
X90275947Y16252324D02*
X90180709Y16157086D01*
X90180709Y16157086D02*
X90085471Y16109467D01*
X15712137Y110245181D02*
X15378804Y110721372D01*
X15140709Y110245181D02*
X15140709Y111245181D01*
X15140709Y111245181D02*
X15521661Y111245181D01*
X15521661Y111245181D02*
X15616899Y111197562D01*
X15616899Y111197562D02*
X15664518Y111149943D01*
X15664518Y111149943D02*
X15712137Y111054705D01*
X15712137Y111054705D02*
X15712137Y110911848D01*
X15712137Y110911848D02*
X15664518Y110816610D01*
X15664518Y110816610D02*
X15616899Y110768991D01*
X15616899Y110768991D02*
X15521661Y110721372D01*
X15521661Y110721372D02*
X15140709Y110721372D01*
X16664518Y110245181D02*
X16093090Y110245181D01*
X16378804Y110245181D02*
X16378804Y111245181D01*
X16378804Y111245181D02*
X16283566Y111102324D01*
X16283566Y111102324D02*
X16188328Y111007086D01*
X16188328Y111007086D02*
X16093090Y110959467D01*
X17283566Y111245181D02*
X17378804Y111245181D01*
X17378804Y111245181D02*
X17474042Y111197562D01*
X17474042Y111197562D02*
X17521661Y111149943D01*
X17521661Y111149943D02*
X17569280Y111054705D01*
X17569280Y111054705D02*
X17616899Y110864229D01*
X17616899Y110864229D02*
X17616899Y110626134D01*
X17616899Y110626134D02*
X17569280Y110435658D01*
X17569280Y110435658D02*
X17521661Y110340420D01*
X17521661Y110340420D02*
X17474042Y110292800D01*
X17474042Y110292800D02*
X17378804Y110245181D01*
X17378804Y110245181D02*
X17283566Y110245181D01*
X17283566Y110245181D02*
X17188328Y110292800D01*
X17188328Y110292800D02*
X17140709Y110340420D01*
X17140709Y110340420D02*
X17093090Y110435658D01*
X17093090Y110435658D02*
X17045471Y110626134D01*
X17045471Y110626134D02*
X17045471Y110864229D01*
X17045471Y110864229D02*
X17093090Y111054705D01*
X17093090Y111054705D02*
X17140709Y111149943D01*
X17140709Y111149943D02*
X17188328Y111197562D01*
X17188328Y111197562D02*
X17283566Y111245181D01*
X108590471Y80745181D02*
X108590471Y80030896D01*
X108590471Y80030896D02*
X108542852Y79888039D01*
X108542852Y79888039D02*
X108447614Y79792800D01*
X108447614Y79792800D02*
X108304757Y79745181D01*
X108304757Y79745181D02*
X108209519Y79745181D01*
X109590471Y79745181D02*
X109019043Y79745181D01*
X109304757Y79745181D02*
X109304757Y80745181D01*
X109304757Y80745181D02*
X109209519Y80602324D01*
X109209519Y80602324D02*
X109114281Y80507086D01*
X109114281Y80507086D02*
X109019043Y80459467D01*
X109971424Y80649943D02*
X110019043Y80697562D01*
X110019043Y80697562D02*
X110114281Y80745181D01*
X110114281Y80745181D02*
X110352376Y80745181D01*
X110352376Y80745181D02*
X110447614Y80697562D01*
X110447614Y80697562D02*
X110495233Y80649943D01*
X110495233Y80649943D02*
X110542852Y80554705D01*
X110542852Y80554705D02*
X110542852Y80459467D01*
X110542852Y80459467D02*
X110495233Y80316610D01*
X110495233Y80316610D02*
X109923805Y79745181D01*
X109923805Y79745181D02*
X110542852Y79745181D01*
X106042852Y72892800D02*
X106185709Y72845181D01*
X106185709Y72845181D02*
X106423804Y72845181D01*
X106423804Y72845181D02*
X106519042Y72892800D01*
X106519042Y72892800D02*
X106566661Y72940420D01*
X106566661Y72940420D02*
X106614280Y73035658D01*
X106614280Y73035658D02*
X106614280Y73130896D01*
X106614280Y73130896D02*
X106566661Y73226134D01*
X106566661Y73226134D02*
X106519042Y73273753D01*
X106519042Y73273753D02*
X106423804Y73321372D01*
X106423804Y73321372D02*
X106233328Y73368991D01*
X106233328Y73368991D02*
X106138090Y73416610D01*
X106138090Y73416610D02*
X106090471Y73464229D01*
X106090471Y73464229D02*
X106042852Y73559467D01*
X106042852Y73559467D02*
X106042852Y73654705D01*
X106042852Y73654705D02*
X106090471Y73749943D01*
X106090471Y73749943D02*
X106138090Y73797562D01*
X106138090Y73797562D02*
X106233328Y73845181D01*
X106233328Y73845181D02*
X106471423Y73845181D01*
X106471423Y73845181D02*
X106614280Y73797562D01*
X107042852Y72845181D02*
X107042852Y73845181D01*
X107471423Y72845181D02*
X107471423Y73368991D01*
X107471423Y73368991D02*
X107423804Y73464229D01*
X107423804Y73464229D02*
X107328566Y73511848D01*
X107328566Y73511848D02*
X107185709Y73511848D01*
X107185709Y73511848D02*
X107090471Y73464229D01*
X107090471Y73464229D02*
X107042852Y73416610D01*
X108376185Y73511848D02*
X108376185Y72845181D01*
X107947614Y73511848D02*
X107947614Y72988039D01*
X107947614Y72988039D02*
X107995233Y72892800D01*
X107995233Y72892800D02*
X108090471Y72845181D01*
X108090471Y72845181D02*
X108233328Y72845181D01*
X108233328Y72845181D02*
X108328566Y72892800D01*
X108328566Y72892800D02*
X108376185Y72940420D01*
X108709519Y73511848D02*
X109090471Y73511848D01*
X108852376Y73845181D02*
X108852376Y72988039D01*
X108852376Y72988039D02*
X108899995Y72892800D01*
X108899995Y72892800D02*
X108995233Y72845181D01*
X108995233Y72845181D02*
X109090471Y72845181D01*
X109852376Y72845181D02*
X109852376Y73845181D01*
X109852376Y72892800D02*
X109757138Y72845181D01*
X109757138Y72845181D02*
X109566662Y72845181D01*
X109566662Y72845181D02*
X109471424Y72892800D01*
X109471424Y72892800D02*
X109423805Y72940420D01*
X109423805Y72940420D02*
X109376186Y73035658D01*
X109376186Y73035658D02*
X109376186Y73321372D01*
X109376186Y73321372D02*
X109423805Y73416610D01*
X109423805Y73416610D02*
X109471424Y73464229D01*
X109471424Y73464229D02*
X109566662Y73511848D01*
X109566662Y73511848D02*
X109757138Y73511848D01*
X109757138Y73511848D02*
X109852376Y73464229D01*
X110471424Y72845181D02*
X110376186Y72892800D01*
X110376186Y72892800D02*
X110328567Y72940420D01*
X110328567Y72940420D02*
X110280948Y73035658D01*
X110280948Y73035658D02*
X110280948Y73321372D01*
X110280948Y73321372D02*
X110328567Y73416610D01*
X110328567Y73416610D02*
X110376186Y73464229D01*
X110376186Y73464229D02*
X110471424Y73511848D01*
X110471424Y73511848D02*
X110614281Y73511848D01*
X110614281Y73511848D02*
X110709519Y73464229D01*
X110709519Y73464229D02*
X110757138Y73416610D01*
X110757138Y73416610D02*
X110804757Y73321372D01*
X110804757Y73321372D02*
X110804757Y73035658D01*
X110804757Y73035658D02*
X110757138Y72940420D01*
X110757138Y72940420D02*
X110709519Y72892800D01*
X110709519Y72892800D02*
X110614281Y72845181D01*
X110614281Y72845181D02*
X110471424Y72845181D01*
X111138091Y73511848D02*
X111328567Y72845181D01*
X111328567Y72845181D02*
X111519043Y73321372D01*
X111519043Y73321372D02*
X111709519Y72845181D01*
X111709519Y72845181D02*
X111899995Y73511848D01*
X112280948Y73511848D02*
X112280948Y72845181D01*
X112280948Y73416610D02*
X112328567Y73464229D01*
X112328567Y73464229D02*
X112423805Y73511848D01*
X112423805Y73511848D02*
X112566662Y73511848D01*
X112566662Y73511848D02*
X112661900Y73464229D01*
X112661900Y73464229D02*
X112709519Y73368991D01*
X112709519Y73368991D02*
X112709519Y72845181D01*
X28309575Y31628334D02*
X28357195Y31580715D01*
X28357195Y31580715D02*
X28404814Y31437858D01*
X28404814Y31437858D02*
X28404814Y31342620D01*
X28404814Y31342620D02*
X28357195Y31199763D01*
X28357195Y31199763D02*
X28261956Y31104525D01*
X28261956Y31104525D02*
X28166718Y31056906D01*
X28166718Y31056906D02*
X27976242Y31009287D01*
X27976242Y31009287D02*
X27833385Y31009287D01*
X27833385Y31009287D02*
X27642909Y31056906D01*
X27642909Y31056906D02*
X27547671Y31104525D01*
X27547671Y31104525D02*
X27452433Y31199763D01*
X27452433Y31199763D02*
X27404814Y31342620D01*
X27404814Y31342620D02*
X27404814Y31437858D01*
X27404814Y31437858D02*
X27452433Y31580715D01*
X27452433Y31580715D02*
X27500052Y31628334D01*
X28404814Y32580715D02*
X28404814Y32009287D01*
X28404814Y32295001D02*
X27404814Y32295001D01*
X27404814Y32295001D02*
X27547671Y32199763D01*
X27547671Y32199763D02*
X27642909Y32104525D01*
X27642909Y32104525D02*
X27690528Y32009287D01*
X20488090Y115743181D02*
X21059518Y115743181D01*
X20773804Y114743181D02*
X20773804Y115743181D01*
X21392852Y114743181D02*
X21392852Y115743181D01*
X21392852Y115743181D02*
X21773804Y115743181D01*
X21773804Y115743181D02*
X21869042Y115695562D01*
X21869042Y115695562D02*
X21916661Y115647943D01*
X21916661Y115647943D02*
X21964280Y115552705D01*
X21964280Y115552705D02*
X21964280Y115409848D01*
X21964280Y115409848D02*
X21916661Y115314610D01*
X21916661Y115314610D02*
X21869042Y115266991D01*
X21869042Y115266991D02*
X21773804Y115219372D01*
X21773804Y115219372D02*
X21392852Y115219372D01*
X22869042Y115743181D02*
X22392852Y115743181D01*
X22392852Y115743181D02*
X22345233Y115266991D01*
X22345233Y115266991D02*
X22392852Y115314610D01*
X22392852Y115314610D02*
X22488090Y115362229D01*
X22488090Y115362229D02*
X22726185Y115362229D01*
X22726185Y115362229D02*
X22821423Y115314610D01*
X22821423Y115314610D02*
X22869042Y115266991D01*
X22869042Y115266991D02*
X22916661Y115171753D01*
X22916661Y115171753D02*
X22916661Y114933658D01*
X22916661Y114933658D02*
X22869042Y114838420D01*
X22869042Y114838420D02*
X22821423Y114790800D01*
X22821423Y114790800D02*
X22726185Y114743181D01*
X22726185Y114743181D02*
X22488090Y114743181D01*
X22488090Y114743181D02*
X22392852Y114790800D01*
X22392852Y114790800D02*
X22345233Y114838420D01*
X77216661Y13095181D02*
X77216661Y12380896D01*
X77216661Y12380896D02*
X77169042Y12238039D01*
X77169042Y12238039D02*
X77073804Y12142800D01*
X77073804Y12142800D02*
X76930947Y12095181D01*
X76930947Y12095181D02*
X76835709Y12095181D01*
X78121423Y13095181D02*
X77930947Y13095181D01*
X77930947Y13095181D02*
X77835709Y13047562D01*
X77835709Y13047562D02*
X77788090Y12999943D01*
X77788090Y12999943D02*
X77692852Y12857086D01*
X77692852Y12857086D02*
X77645233Y12666610D01*
X77645233Y12666610D02*
X77645233Y12285658D01*
X77645233Y12285658D02*
X77692852Y12190420D01*
X77692852Y12190420D02*
X77740471Y12142800D01*
X77740471Y12142800D02*
X77835709Y12095181D01*
X77835709Y12095181D02*
X78026185Y12095181D01*
X78026185Y12095181D02*
X78121423Y12142800D01*
X78121423Y12142800D02*
X78169042Y12190420D01*
X78169042Y12190420D02*
X78216661Y12285658D01*
X78216661Y12285658D02*
X78216661Y12523753D01*
X78216661Y12523753D02*
X78169042Y12618991D01*
X78169042Y12618991D02*
X78121423Y12666610D01*
X78121423Y12666610D02*
X78026185Y12714229D01*
X78026185Y12714229D02*
X77835709Y12714229D01*
X77835709Y12714229D02*
X77740471Y12666610D01*
X77740471Y12666610D02*
X77692852Y12618991D01*
X77692852Y12618991D02*
X77645233Y12523753D01*
X33816661Y99515181D02*
X33816661Y98800896D01*
X33816661Y98800896D02*
X33769042Y98658039D01*
X33769042Y98658039D02*
X33673804Y98562800D01*
X33673804Y98562800D02*
X33530947Y98515181D01*
X33530947Y98515181D02*
X33435709Y98515181D01*
X34816661Y98515181D02*
X34245233Y98515181D01*
X34530947Y98515181D02*
X34530947Y99515181D01*
X34530947Y99515181D02*
X34435709Y99372324D01*
X34435709Y99372324D02*
X34340471Y99277086D01*
X34340471Y99277086D02*
X34245233Y99229467D01*
X76238328Y110790420D02*
X76190709Y110742800D01*
X76190709Y110742800D02*
X76047852Y110695181D01*
X76047852Y110695181D02*
X75952614Y110695181D01*
X75952614Y110695181D02*
X75809757Y110742800D01*
X75809757Y110742800D02*
X75714519Y110838039D01*
X75714519Y110838039D02*
X75666900Y110933277D01*
X75666900Y110933277D02*
X75619281Y111123753D01*
X75619281Y111123753D02*
X75619281Y111266610D01*
X75619281Y111266610D02*
X75666900Y111457086D01*
X75666900Y111457086D02*
X75714519Y111552324D01*
X75714519Y111552324D02*
X75809757Y111647562D01*
X75809757Y111647562D02*
X75952614Y111695181D01*
X75952614Y111695181D02*
X76047852Y111695181D01*
X76047852Y111695181D02*
X76190709Y111647562D01*
X76190709Y111647562D02*
X76238328Y111599943D01*
X77095471Y111361848D02*
X77095471Y110695181D01*
X76857376Y111742800D02*
X76619281Y111028515D01*
X76619281Y111028515D02*
X77238328Y111028515D01*
D16*
X59451662Y79370685D02*
X59451662Y78463542D01*
X59451662Y78463542D02*
X59391185Y78282114D01*
X59391185Y78282114D02*
X59270233Y78161161D01*
X59270233Y78161161D02*
X59088804Y78100685D01*
X59088804Y78100685D02*
X58967852Y78100685D01*
X60116900Y78100685D02*
X60358804Y78100685D01*
X60358804Y78100685D02*
X60479757Y78161161D01*
X60479757Y78161161D02*
X60540233Y78221638D01*
X60540233Y78221638D02*
X60661185Y78403066D01*
X60661185Y78403066D02*
X60721662Y78644971D01*
X60721662Y78644971D02*
X60721662Y79128781D01*
X60721662Y79128781D02*
X60661185Y79249733D01*
X60661185Y79249733D02*
X60600709Y79310209D01*
X60600709Y79310209D02*
X60479757Y79370685D01*
X60479757Y79370685D02*
X60237852Y79370685D01*
X60237852Y79370685D02*
X60116900Y79310209D01*
X60116900Y79310209D02*
X60056423Y79249733D01*
X60056423Y79249733D02*
X59995947Y79128781D01*
X59995947Y79128781D02*
X59995947Y78826400D01*
X59995947Y78826400D02*
X60056423Y78705447D01*
X60056423Y78705447D02*
X60116900Y78644971D01*
X60116900Y78644971D02*
X60237852Y78584495D01*
X60237852Y78584495D02*
X60479757Y78584495D01*
X60479757Y78584495D02*
X60600709Y78644971D01*
X60600709Y78644971D02*
X60661185Y78705447D01*
X60661185Y78705447D02*
X60721662Y78826400D01*
D14*
X86754814Y126946667D02*
X87469099Y126946667D01*
X87469099Y126946667D02*
X87611956Y126899048D01*
X87611956Y126899048D02*
X87707195Y126803810D01*
X87707195Y126803810D02*
X87754814Y126660953D01*
X87754814Y126660953D02*
X87754814Y126565715D01*
X87088147Y127851429D02*
X87754814Y127851429D01*
X86707195Y127613334D02*
X87421480Y127375239D01*
X87421480Y127375239D02*
X87421480Y127994286D01*
D16*
X15469042Y95969730D02*
X15348090Y96030206D01*
X15348090Y96030206D02*
X15227137Y96151158D01*
X15227137Y96151158D02*
X15045709Y96332587D01*
X15045709Y96332587D02*
X14924756Y96393063D01*
X14924756Y96393063D02*
X14803804Y96393063D01*
X14864280Y96090682D02*
X14743328Y96151158D01*
X14743328Y96151158D02*
X14622375Y96272111D01*
X14622375Y96272111D02*
X14561899Y96514016D01*
X14561899Y96514016D02*
X14561899Y96937349D01*
X14561899Y96937349D02*
X14622375Y97179254D01*
X14622375Y97179254D02*
X14743328Y97300206D01*
X14743328Y97300206D02*
X14864280Y97360682D01*
X14864280Y97360682D02*
X15106185Y97360682D01*
X15106185Y97360682D02*
X15227137Y97300206D01*
X15227137Y97300206D02*
X15348090Y97179254D01*
X15348090Y97179254D02*
X15408566Y96937349D01*
X15408566Y96937349D02*
X15408566Y96514016D01*
X15408566Y96514016D02*
X15348090Y96272111D01*
X15348090Y96272111D02*
X15227137Y96151158D01*
X15227137Y96151158D02*
X15106185Y96090682D01*
X15106185Y96090682D02*
X14864280Y96090682D01*
X16618090Y96090682D02*
X15892375Y96090682D01*
X16255232Y96090682D02*
X16255232Y97360682D01*
X16255232Y97360682D02*
X16134280Y97179254D01*
X16134280Y97179254D02*
X16013328Y97058301D01*
X16013328Y97058301D02*
X15892375Y96997825D01*
D14*
X51204814Y42040477D02*
X51919099Y42040477D01*
X51919099Y42040477D02*
X52061956Y41992858D01*
X52061956Y41992858D02*
X52157195Y41897620D01*
X52157195Y41897620D02*
X52204814Y41754763D01*
X52204814Y41754763D02*
X52204814Y41659525D01*
X52204814Y43040477D02*
X52204814Y42469049D01*
X52204814Y42754763D02*
X51204814Y42754763D01*
X51204814Y42754763D02*
X51347671Y42659525D01*
X51347671Y42659525D02*
X51442909Y42564287D01*
X51442909Y42564287D02*
X51490528Y42469049D01*
X51538147Y43897620D02*
X52204814Y43897620D01*
X51157195Y43659525D02*
X51871480Y43421430D01*
X51871480Y43421430D02*
X51871480Y44040477D01*
X11588090Y63543181D02*
X12159518Y63543181D01*
X11873804Y62543181D02*
X11873804Y63543181D01*
X12492852Y62543181D02*
X12492852Y63543181D01*
X12492852Y63543181D02*
X12873804Y63543181D01*
X12873804Y63543181D02*
X12969042Y63495562D01*
X12969042Y63495562D02*
X13016661Y63447943D01*
X13016661Y63447943D02*
X13064280Y63352705D01*
X13064280Y63352705D02*
X13064280Y63209848D01*
X13064280Y63209848D02*
X13016661Y63114610D01*
X13016661Y63114610D02*
X12969042Y63066991D01*
X12969042Y63066991D02*
X12873804Y63019372D01*
X12873804Y63019372D02*
X12492852Y63019372D01*
X13445233Y63447943D02*
X13492852Y63495562D01*
X13492852Y63495562D02*
X13588090Y63543181D01*
X13588090Y63543181D02*
X13826185Y63543181D01*
X13826185Y63543181D02*
X13921423Y63495562D01*
X13921423Y63495562D02*
X13969042Y63447943D01*
X13969042Y63447943D02*
X14016661Y63352705D01*
X14016661Y63352705D02*
X14016661Y63257467D01*
X14016661Y63257467D02*
X13969042Y63114610D01*
X13969042Y63114610D02*
X13397614Y62543181D01*
X13397614Y62543181D02*
X14016661Y62543181D01*
X75754814Y18507143D02*
X75278623Y18173810D01*
X75754814Y17935715D02*
X74754814Y17935715D01*
X74754814Y17935715D02*
X74754814Y18316667D01*
X74754814Y18316667D02*
X74802433Y18411905D01*
X74802433Y18411905D02*
X74850052Y18459524D01*
X74850052Y18459524D02*
X74945290Y18507143D01*
X74945290Y18507143D02*
X75088147Y18507143D01*
X75088147Y18507143D02*
X75183385Y18459524D01*
X75183385Y18459524D02*
X75231004Y18411905D01*
X75231004Y18411905D02*
X75278623Y18316667D01*
X75278623Y18316667D02*
X75278623Y17935715D01*
X75754814Y19459524D02*
X75754814Y18888096D01*
X75754814Y19173810D02*
X74754814Y19173810D01*
X74754814Y19173810D02*
X74897671Y19078572D01*
X74897671Y19078572D02*
X74992909Y18983334D01*
X74992909Y18983334D02*
X75040528Y18888096D01*
X75088147Y20316667D02*
X75754814Y20316667D01*
X74707195Y20078572D02*
X75421480Y19840477D01*
X75421480Y19840477D02*
X75421480Y20459524D01*
X76303328Y107540181D02*
X75969995Y108016372D01*
X75731900Y107540181D02*
X75731900Y108540181D01*
X75731900Y108540181D02*
X76112852Y108540181D01*
X76112852Y108540181D02*
X76208090Y108492562D01*
X76208090Y108492562D02*
X76255709Y108444943D01*
X76255709Y108444943D02*
X76303328Y108349705D01*
X76303328Y108349705D02*
X76303328Y108206848D01*
X76303328Y108206848D02*
X76255709Y108111610D01*
X76255709Y108111610D02*
X76208090Y108063991D01*
X76208090Y108063991D02*
X76112852Y108016372D01*
X76112852Y108016372D02*
X75731900Y108016372D01*
X77160471Y108206848D02*
X77160471Y107540181D01*
X76922376Y108587800D02*
X76684281Y107873515D01*
X76684281Y107873515D02*
X77303328Y107873515D01*
X13216661Y13095181D02*
X13216661Y12380896D01*
X13216661Y12380896D02*
X13169042Y12238039D01*
X13169042Y12238039D02*
X13073804Y12142800D01*
X13073804Y12142800D02*
X12930947Y12095181D01*
X12930947Y12095181D02*
X12835709Y12095181D01*
X13597614Y13095181D02*
X14216661Y13095181D01*
X14216661Y13095181D02*
X13883328Y12714229D01*
X13883328Y12714229D02*
X14026185Y12714229D01*
X14026185Y12714229D02*
X14121423Y12666610D01*
X14121423Y12666610D02*
X14169042Y12618991D01*
X14169042Y12618991D02*
X14216661Y12523753D01*
X14216661Y12523753D02*
X14216661Y12285658D01*
X14216661Y12285658D02*
X14169042Y12190420D01*
X14169042Y12190420D02*
X14121423Y12142800D01*
X14121423Y12142800D02*
X14026185Y12095181D01*
X14026185Y12095181D02*
X13740471Y12095181D01*
X13740471Y12095181D02*
X13645233Y12142800D01*
X13645233Y12142800D02*
X13597614Y12190420D01*
X77457137Y20995181D02*
X77123804Y21471372D01*
X76885709Y20995181D02*
X76885709Y21995181D01*
X76885709Y21995181D02*
X77266661Y21995181D01*
X77266661Y21995181D02*
X77361899Y21947562D01*
X77361899Y21947562D02*
X77409518Y21899943D01*
X77409518Y21899943D02*
X77457137Y21804705D01*
X77457137Y21804705D02*
X77457137Y21661848D01*
X77457137Y21661848D02*
X77409518Y21566610D01*
X77409518Y21566610D02*
X77361899Y21518991D01*
X77361899Y21518991D02*
X77266661Y21471372D01*
X77266661Y21471372D02*
X76885709Y21471372D01*
X78409518Y20995181D02*
X77838090Y20995181D01*
X78123804Y20995181D02*
X78123804Y21995181D01*
X78123804Y21995181D02*
X78028566Y21852324D01*
X78028566Y21852324D02*
X77933328Y21757086D01*
X77933328Y21757086D02*
X77838090Y21709467D01*
X79266661Y21995181D02*
X79076185Y21995181D01*
X79076185Y21995181D02*
X78980947Y21947562D01*
X78980947Y21947562D02*
X78933328Y21899943D01*
X78933328Y21899943D02*
X78838090Y21757086D01*
X78838090Y21757086D02*
X78790471Y21566610D01*
X78790471Y21566610D02*
X78790471Y21185658D01*
X78790471Y21185658D02*
X78838090Y21090420D01*
X78838090Y21090420D02*
X78885709Y21042800D01*
X78885709Y21042800D02*
X78980947Y20995181D01*
X78980947Y20995181D02*
X79171423Y20995181D01*
X79171423Y20995181D02*
X79266661Y21042800D01*
X79266661Y21042800D02*
X79314280Y21090420D01*
X79314280Y21090420D02*
X79361899Y21185658D01*
X79361899Y21185658D02*
X79361899Y21423753D01*
X79361899Y21423753D02*
X79314280Y21518991D01*
X79314280Y21518991D02*
X79266661Y21566610D01*
X79266661Y21566610D02*
X79171423Y21614229D01*
X79171423Y21614229D02*
X78980947Y21614229D01*
X78980947Y21614229D02*
X78885709Y21566610D01*
X78885709Y21566610D02*
X78838090Y21518991D01*
X78838090Y21518991D02*
X78790471Y21423753D01*
X31254814Y23178334D02*
X30778623Y22845001D01*
X31254814Y22606906D02*
X30254814Y22606906D01*
X30254814Y22606906D02*
X30254814Y22987858D01*
X30254814Y22987858D02*
X30302433Y23083096D01*
X30302433Y23083096D02*
X30350052Y23130715D01*
X30350052Y23130715D02*
X30445290Y23178334D01*
X30445290Y23178334D02*
X30588147Y23178334D01*
X30588147Y23178334D02*
X30683385Y23130715D01*
X30683385Y23130715D02*
X30731004Y23083096D01*
X30731004Y23083096D02*
X30778623Y22987858D01*
X30778623Y22987858D02*
X30778623Y22606906D01*
X30350052Y23559287D02*
X30302433Y23606906D01*
X30302433Y23606906D02*
X30254814Y23702144D01*
X30254814Y23702144D02*
X30254814Y23940239D01*
X30254814Y23940239D02*
X30302433Y24035477D01*
X30302433Y24035477D02*
X30350052Y24083096D01*
X30350052Y24083096D02*
X30445290Y24130715D01*
X30445290Y24130715D02*
X30540528Y24130715D01*
X30540528Y24130715D02*
X30683385Y24083096D01*
X30683385Y24083096D02*
X31254814Y23511668D01*
X31254814Y23511668D02*
X31254814Y24130715D01*
X78259575Y116833334D02*
X78307195Y116785715D01*
X78307195Y116785715D02*
X78354814Y116642858D01*
X78354814Y116642858D02*
X78354814Y116547620D01*
X78354814Y116547620D02*
X78307195Y116404763D01*
X78307195Y116404763D02*
X78211956Y116309525D01*
X78211956Y116309525D02*
X78116718Y116261906D01*
X78116718Y116261906D02*
X77926242Y116214287D01*
X77926242Y116214287D02*
X77783385Y116214287D01*
X77783385Y116214287D02*
X77592909Y116261906D01*
X77592909Y116261906D02*
X77497671Y116309525D01*
X77497671Y116309525D02*
X77402433Y116404763D01*
X77402433Y116404763D02*
X77354814Y116547620D01*
X77354814Y116547620D02*
X77354814Y116642858D01*
X77354814Y116642858D02*
X77402433Y116785715D01*
X77402433Y116785715D02*
X77450052Y116833334D01*
X77354814Y117738096D02*
X77354814Y117261906D01*
X77354814Y117261906D02*
X77831004Y117214287D01*
X77831004Y117214287D02*
X77783385Y117261906D01*
X77783385Y117261906D02*
X77735766Y117357144D01*
X77735766Y117357144D02*
X77735766Y117595239D01*
X77735766Y117595239D02*
X77783385Y117690477D01*
X77783385Y117690477D02*
X77831004Y117738096D01*
X77831004Y117738096D02*
X77926242Y117785715D01*
X77926242Y117785715D02*
X78164337Y117785715D01*
X78164337Y117785715D02*
X78259575Y117738096D01*
X78259575Y117738096D02*
X78307195Y117690477D01*
X78307195Y117690477D02*
X78354814Y117595239D01*
X78354814Y117595239D02*
X78354814Y117357144D01*
X78354814Y117357144D02*
X78307195Y117261906D01*
X78307195Y117261906D02*
X78259575Y117214287D01*
X19659575Y27903334D02*
X19707195Y27855715D01*
X19707195Y27855715D02*
X19754814Y27712858D01*
X19754814Y27712858D02*
X19754814Y27617620D01*
X19754814Y27617620D02*
X19707195Y27474763D01*
X19707195Y27474763D02*
X19611956Y27379525D01*
X19611956Y27379525D02*
X19516718Y27331906D01*
X19516718Y27331906D02*
X19326242Y27284287D01*
X19326242Y27284287D02*
X19183385Y27284287D01*
X19183385Y27284287D02*
X18992909Y27331906D01*
X18992909Y27331906D02*
X18897671Y27379525D01*
X18897671Y27379525D02*
X18802433Y27474763D01*
X18802433Y27474763D02*
X18754814Y27617620D01*
X18754814Y27617620D02*
X18754814Y27712858D01*
X18754814Y27712858D02*
X18802433Y27855715D01*
X18802433Y27855715D02*
X18850052Y27903334D01*
X18850052Y28284287D02*
X18802433Y28331906D01*
X18802433Y28331906D02*
X18754814Y28427144D01*
X18754814Y28427144D02*
X18754814Y28665239D01*
X18754814Y28665239D02*
X18802433Y28760477D01*
X18802433Y28760477D02*
X18850052Y28808096D01*
X18850052Y28808096D02*
X18945290Y28855715D01*
X18945290Y28855715D02*
X19040528Y28855715D01*
X19040528Y28855715D02*
X19183385Y28808096D01*
X19183385Y28808096D02*
X19754814Y28236668D01*
X19754814Y28236668D02*
X19754814Y28855715D01*
D16*
X89763805Y53145682D02*
X89763805Y52238539D01*
X89763805Y52238539D02*
X89703328Y52057111D01*
X89703328Y52057111D02*
X89582376Y51936158D01*
X89582376Y51936158D02*
X89400947Y51875682D01*
X89400947Y51875682D02*
X89279995Y51875682D01*
X90549995Y53145682D02*
X90549995Y52843301D01*
X90247614Y52964254D02*
X90549995Y52843301D01*
X90549995Y52843301D02*
X90852376Y52964254D01*
X90368566Y52601397D02*
X90549995Y52843301D01*
X90549995Y52843301D02*
X90731424Y52601397D01*
X91517614Y53145682D02*
X91517614Y52843301D01*
X91215233Y52964254D02*
X91517614Y52843301D01*
X91517614Y52843301D02*
X91819995Y52964254D01*
X91336185Y52601397D02*
X91517614Y52843301D01*
X91517614Y52843301D02*
X91699043Y52601397D01*
D14*
X19204814Y23833334D02*
X18728623Y23500001D01*
X19204814Y23261906D02*
X18204814Y23261906D01*
X18204814Y23261906D02*
X18204814Y23642858D01*
X18204814Y23642858D02*
X18252433Y23738096D01*
X18252433Y23738096D02*
X18300052Y23785715D01*
X18300052Y23785715D02*
X18395290Y23833334D01*
X18395290Y23833334D02*
X18538147Y23833334D01*
X18538147Y23833334D02*
X18633385Y23785715D01*
X18633385Y23785715D02*
X18681004Y23738096D01*
X18681004Y23738096D02*
X18728623Y23642858D01*
X18728623Y23642858D02*
X18728623Y23261906D01*
X18204814Y24166668D02*
X18204814Y24785715D01*
X18204814Y24785715D02*
X18585766Y24452382D01*
X18585766Y24452382D02*
X18585766Y24595239D01*
X18585766Y24595239D02*
X18633385Y24690477D01*
X18633385Y24690477D02*
X18681004Y24738096D01*
X18681004Y24738096D02*
X18776242Y24785715D01*
X18776242Y24785715D02*
X19014337Y24785715D01*
X19014337Y24785715D02*
X19109575Y24738096D01*
X19109575Y24738096D02*
X19157195Y24690477D01*
X19157195Y24690477D02*
X19204814Y24595239D01*
X19204814Y24595239D02*
X19204814Y24309525D01*
X19204814Y24309525D02*
X19157195Y24214287D01*
X19157195Y24214287D02*
X19109575Y24166668D01*
D16*
X24510232Y19175682D02*
X24510232Y20445682D01*
X25840709Y19296635D02*
X25780233Y19236158D01*
X25780233Y19236158D02*
X25598804Y19175682D01*
X25598804Y19175682D02*
X25477852Y19175682D01*
X25477852Y19175682D02*
X25296423Y19236158D01*
X25296423Y19236158D02*
X25175471Y19357111D01*
X25175471Y19357111D02*
X25114994Y19478063D01*
X25114994Y19478063D02*
X25054518Y19719968D01*
X25054518Y19719968D02*
X25054518Y19901397D01*
X25054518Y19901397D02*
X25114994Y20143301D01*
X25114994Y20143301D02*
X25175471Y20264254D01*
X25175471Y20264254D02*
X25296423Y20385206D01*
X25296423Y20385206D02*
X25477852Y20445682D01*
X25477852Y20445682D02*
X25598804Y20445682D01*
X25598804Y20445682D02*
X25780233Y20385206D01*
X25780233Y20385206D02*
X25840709Y20324730D01*
X27050233Y19175682D02*
X26324518Y19175682D01*
X26687375Y19175682D02*
X26687375Y20445682D01*
X26687375Y20445682D02*
X26566423Y20264254D01*
X26566423Y20264254D02*
X26445471Y20143301D01*
X26445471Y20143301D02*
X26324518Y20082825D01*
D17*
%TO.C,TP3*%
X14549995Y53600000D02*
G75*
G02*
X11049995Y53600000I-1750000J0D01*
G01*
X11049995Y53600000D02*
G75*
G02*
X14549995Y53600000I1750000J0D01*
G01*
%TO.C,J7*%
X102239995Y-3220000D02*
X102239995Y-3740000D01*
X102239995Y-3740000D02*
X116859995Y-3740000D01*
X102889995Y11740000D02*
X102889995Y8410000D01*
X102889995Y11740000D02*
X116209995Y11740000D01*
X102889995Y-3220000D02*
X102239995Y-3220000D01*
X102889995Y-3220000D02*
X102889995Y4890000D01*
X105149995Y11960000D02*
X106949995Y11960000D01*
X116209995Y11740000D02*
X116209995Y8410000D01*
X116209995Y4890000D02*
X116209995Y-3220000D01*
X116859995Y-3220000D02*
X116209995Y-3220000D01*
X116859995Y-3740000D02*
X116859995Y-3220000D01*
D18*
%TO.C,J2*%
X35249995Y40525000D02*
X48349995Y40525000D01*
X35249995Y37825000D02*
X35249995Y34925000D01*
X35249995Y31925000D02*
X35249995Y29825000D01*
X35923995Y26475000D02*
X36925995Y26475000D01*
X42673995Y26475000D02*
X47675995Y26475000D01*
D19*
X39519995Y40975000D02*
G75*
G02*
X39319995Y40975000I-100000J0D01*
G01*
X39319995Y40975000D02*
G75*
G02*
X39519995Y40975000I100000J0D01*
G01*
D17*
%TO.C,J11*%
X105939995Y67860000D02*
X105939995Y66610000D01*
X106239995Y67560000D02*
X106239995Y62840000D01*
X106239995Y66250000D02*
X106849995Y66250000D01*
X106239995Y64950000D02*
X106849995Y64950000D01*
X106239995Y62840000D02*
X112359995Y62840000D01*
X106849995Y66950000D02*
X106849995Y63450000D01*
X106849995Y63450000D02*
X111749995Y63450000D01*
X107189995Y67860000D02*
X105939995Y67860000D01*
X107699995Y67760000D02*
X107699995Y67560000D01*
X107999995Y67760000D02*
X107699995Y67760000D01*
X107999995Y67660000D02*
X107699995Y67660000D01*
X107999995Y67560000D02*
X107999995Y67760000D01*
X108799995Y67560000D02*
X108799995Y66950000D01*
X108799995Y66950000D02*
X106849995Y66950000D01*
X109199995Y63950000D02*
X109399995Y63950000D01*
X109199995Y63450000D02*
X109199995Y63950000D01*
X109299995Y63450000D02*
X109299995Y63950000D01*
X109399995Y63950000D02*
X109399995Y63450000D01*
X109799995Y66950000D02*
X109799995Y67560000D01*
X111749995Y66950000D02*
X109799995Y66950000D01*
X111749995Y63450000D02*
X111749995Y66950000D01*
X112359995Y67560000D02*
X106239995Y67560000D01*
X112359995Y66250000D02*
X111749995Y66250000D01*
X112359995Y64950000D02*
X111749995Y64950000D01*
X112359995Y62840000D02*
X112359995Y67560000D01*
%TO.C,C7*%
X80789995Y117811252D02*
X80789995Y116388748D01*
X82609995Y117811252D02*
X82609995Y116388748D01*
D13*
%TO.C,J10*%
X61134495Y130256500D02*
X61134495Y130256500D01*
X61234495Y130256500D02*
X61234495Y130256500D01*
D19*
X62474495Y132656500D02*
X68674495Y132656500D01*
X62474495Y131856500D02*
X62474495Y132656500D01*
X62474495Y122856500D02*
X62474495Y128456500D01*
X62474495Y118156500D02*
X62474495Y119056500D01*
X63074495Y135156500D02*
X63074495Y132656500D01*
X64234495Y118156500D02*
X62474495Y118156500D01*
X68074495Y135156500D02*
X63074495Y135156500D01*
X68074495Y132656500D02*
X68074495Y135156500D01*
X68674495Y132656500D02*
X68674495Y130056500D01*
X68674495Y126656500D02*
X68674495Y118156500D01*
X68674495Y118156500D02*
X68234495Y118156500D01*
D13*
X61134495Y130256500D02*
G75*
G02*
X61234495Y130256500I50000J0D01*
G01*
X61234495Y130256500D02*
G75*
G02*
X61134495Y130256500I-50000J0D01*
G01*
%TO.C,J\u002A\u002A*%
X79249995Y19990000D02*
X79249995Y17110000D01*
X79249995Y17110000D02*
X80049995Y17110000D01*
X80049995Y19990000D02*
X79249995Y19990000D01*
X101049995Y19990000D02*
X101849995Y19990000D01*
X101849995Y19990000D02*
X101849995Y17110000D01*
X101849995Y17110000D02*
X101049995Y17110000D01*
D19*
%TO.C,J8*%
X20799995Y135100000D02*
X20799995Y131500000D01*
X20799995Y128700000D02*
X20799995Y125300000D01*
X20799995Y122500000D02*
X20799995Y120400000D01*
X20799995Y120400000D02*
X23799995Y120400000D01*
X23799995Y121251000D02*
X30326995Y121251000D01*
X23799995Y120400000D02*
X23799995Y121251000D01*
X29799995Y135100000D02*
X20799995Y135100000D01*
X29799995Y131500000D02*
X29799995Y135100000D01*
X29799995Y128700000D02*
X29799995Y125300000D01*
X30326995Y121251000D02*
X30326995Y122500000D01*
D13*
X32199995Y130100000D02*
X32199995Y130100000D01*
X32299995Y130100000D02*
X32299995Y130100000D01*
X32199995Y130100000D02*
G75*
G02*
X32299995Y130100000I50000J0D01*
G01*
X32299995Y130100000D02*
G75*
G02*
X32199995Y130100000I-50000J0D01*
G01*
%TO.C,Y1*%
X25949995Y29463000D02*
X25949995Y29463000D01*
X25949995Y29363000D02*
X25949995Y29363000D01*
X25949995Y29463000D02*
G75*
G02*
X25949995Y29363000I0J-50000D01*
G01*
X25949995Y29363000D02*
G75*
G02*
X25949995Y29463000I0J50000D01*
G01*
D17*
%TO.C,J5*%
X38239995Y-3220000D02*
X38239995Y-3740000D01*
X38239995Y-3740000D02*
X52859995Y-3740000D01*
X38889995Y11740000D02*
X38889995Y8410000D01*
X38889995Y11740000D02*
X52209995Y11740000D01*
X38889995Y-3220000D02*
X38239995Y-3220000D01*
X38889995Y-3220000D02*
X38889995Y4890000D01*
X41149995Y11960000D02*
X42949995Y11960000D01*
X52209995Y11740000D02*
X52209995Y8410000D01*
X52209995Y4890000D02*
X52209995Y-3220000D01*
X52859995Y-3220000D02*
X52209995Y-3220000D01*
X52859995Y-3740000D02*
X52859995Y-3220000D01*
%TO.C,J13*%
X105939995Y91160000D02*
X105939995Y89910000D01*
X106239995Y90860000D02*
X106239995Y86140000D01*
X106239995Y89550000D02*
X106849995Y89550000D01*
X106239995Y88250000D02*
X106849995Y88250000D01*
X106239995Y86140000D02*
X112359995Y86140000D01*
X106849995Y90250000D02*
X106849995Y86750000D01*
X106849995Y86750000D02*
X111749995Y86750000D01*
X107189995Y91160000D02*
X105939995Y91160000D01*
X107699995Y91060000D02*
X107699995Y90860000D01*
X107999995Y91060000D02*
X107699995Y91060000D01*
X107999995Y90960000D02*
X107699995Y90960000D01*
X107999995Y90860000D02*
X107999995Y91060000D01*
X108799995Y90860000D02*
X108799995Y90250000D01*
X108799995Y90250000D02*
X106849995Y90250000D01*
X109199995Y87250000D02*
X109399995Y87250000D01*
X109199995Y86750000D02*
X109199995Y87250000D01*
X109299995Y86750000D02*
X109299995Y87250000D01*
X109399995Y87250000D02*
X109399995Y86750000D01*
X109799995Y90250000D02*
X109799995Y90860000D01*
X111749995Y90250000D02*
X109799995Y90250000D01*
X111749995Y86750000D02*
X111749995Y90250000D01*
X112359995Y90860000D02*
X106239995Y90860000D01*
X112359995Y89550000D02*
X111749995Y89550000D01*
X112359995Y88250000D02*
X111749995Y88250000D01*
X112359995Y86140000D02*
X112359995Y90860000D01*
%TO.C,TP4*%
X14549995Y46500000D02*
G75*
G02*
X11049995Y46500000I-1750000J0D01*
G01*
X11049995Y46500000D02*
G75*
G02*
X14549995Y46500000I1750000J0D01*
G01*
D19*
%TO.C,IC2*%
X76899995Y100000000D02*
X76899995Y101200000D01*
D17*
%TO.C,Module1*%
X60549995Y52000000D02*
X60549995Y19000000D01*
X64049995Y15500000D02*
X112049995Y15500000D01*
X79149995Y54350000D02*
X80149995Y54350000D01*
X79149995Y50570000D02*
X79149995Y54350000D01*
X79149995Y50570000D02*
X80149995Y50570000D01*
X79149995Y16650000D02*
X79149995Y20430000D01*
X101949995Y54350000D02*
X100949995Y54350000D01*
X101949995Y50570000D02*
X100949995Y50570000D01*
X101949995Y50570000D02*
X101949995Y54350000D01*
X101949995Y20430000D02*
X100949995Y20430000D01*
X101949995Y16650000D02*
X100949995Y16650000D01*
X101949995Y16650000D02*
X101949995Y20430000D01*
X112049995Y55500000D02*
X64049995Y55500000D01*
X115549995Y19000000D02*
X115549995Y52000000D01*
X60549995Y52000000D02*
G75*
G02*
X64049995Y55500000I3500000J0D01*
G01*
X64049995Y15500000D02*
G75*
G02*
X60549995Y19000000I-1J3499999D01*
G01*
X112049995Y55500000D02*
G75*
G02*
X115549995Y52000000I0J-3500000D01*
G01*
X115549995Y19000000D02*
G75*
G02*
X112049995Y15500000I-3499999J-1D01*
G01*
D13*
%TO.C,D1*%
X52657495Y32800000D02*
G75*
G02*
X52557495Y32800000I-50000J0D01*
G01*
X52557495Y32800000D02*
G75*
G02*
X52657495Y32800000I50000J0D01*
G01*
D17*
%TO.C,TP1*%
X37649995Y21200000D02*
G75*
G02*
X34149995Y21200000I-1750000J0D01*
G01*
X34149995Y21200000D02*
G75*
G02*
X37649995Y21200000I1750000J0D01*
G01*
%TO.C,J12*%
X106039995Y79410000D02*
X106039995Y78160000D01*
X106339995Y79110000D02*
X106339995Y74390000D01*
X106339995Y77800000D02*
X106949995Y77800000D01*
X106339995Y76500000D02*
X106949995Y76500000D01*
X106339995Y74390000D02*
X112459995Y74390000D01*
X106949995Y78500000D02*
X106949995Y75000000D01*
X106949995Y75000000D02*
X111849995Y75000000D01*
X107289995Y79410000D02*
X106039995Y79410000D01*
X107799995Y79310000D02*
X107799995Y79110000D01*
X108099995Y79310000D02*
X107799995Y79310000D01*
X108099995Y79210000D02*
X107799995Y79210000D01*
X108099995Y79110000D02*
X108099995Y79310000D01*
X108899995Y79110000D02*
X108899995Y78500000D01*
X108899995Y78500000D02*
X106949995Y78500000D01*
X109299995Y75500000D02*
X109499995Y75500000D01*
X109299995Y75000000D02*
X109299995Y75500000D01*
X109399995Y75000000D02*
X109399995Y75500000D01*
X109499995Y75500000D02*
X109499995Y75000000D01*
X109899995Y78500000D02*
X109899995Y79110000D01*
X111849995Y78500000D02*
X109899995Y78500000D01*
X111849995Y75000000D02*
X111849995Y78500000D01*
X112459995Y79110000D02*
X106339995Y79110000D01*
X112459995Y77800000D02*
X111849995Y77800000D01*
X112459995Y76500000D02*
X111849995Y76500000D01*
X112459995Y74390000D02*
X112459995Y79110000D01*
%TO.C,TP5*%
X23499995Y112800000D02*
G75*
G02*
X19999995Y112800000I-1750000J0D01*
G01*
X19999995Y112800000D02*
G75*
G02*
X23499995Y112800000I1750000J0D01*
G01*
%TO.C,J6*%
X70239995Y-3220000D02*
X70239995Y-3740000D01*
X70239995Y-3740000D02*
X84859995Y-3740000D01*
X70889995Y11740000D02*
X70889995Y8410000D01*
X70889995Y11740000D02*
X84209995Y11740000D01*
X70889995Y-3220000D02*
X70239995Y-3220000D01*
X70889995Y-3220000D02*
X70889995Y4890000D01*
X73149995Y11960000D02*
X74949995Y11960000D01*
X84209995Y11740000D02*
X84209995Y8410000D01*
X84209995Y4890000D02*
X84209995Y-3220000D01*
X84859995Y-3220000D02*
X84209995Y-3220000D01*
X84859995Y-3740000D02*
X84859995Y-3220000D01*
%TO.C,J1*%
X32819995Y102570000D02*
X32819995Y107710000D01*
X35479995Y107710000D02*
X32819995Y107710000D01*
X35479995Y102570000D02*
X32819995Y102570000D01*
X35479995Y102570000D02*
X35479995Y107710000D01*
X35479995Y101300000D02*
X35479995Y99970000D01*
X35479995Y99970000D02*
X34149995Y99970000D01*
D19*
%TO.C,J9*%
X47349995Y83150003D02*
X47349995Y74300003D01*
X47349995Y74300003D02*
X50399995Y74300003D01*
X70199995Y74300003D02*
X72349995Y74300003D01*
X72349995Y74300003D02*
X72399995Y83150003D01*
X72399995Y83150003D02*
X47349995Y83150003D01*
D13*
X72849995Y76800003D02*
X72849995Y76800003D01*
X72949995Y76800003D02*
X72949995Y76800003D01*
X72849995Y76800003D02*
G75*
G02*
X72949995Y76800003I50000J0D01*
G01*
X72949995Y76800003D02*
G75*
G02*
X72849995Y76800003I-50000J0D01*
G01*
D17*
%TO.C,J4*%
X88689995Y130380000D02*
X88689995Y132480000D01*
X88689995Y124880000D02*
X88689995Y127680000D01*
X91399995Y121330000D02*
X89599995Y121330000D01*
X91399995Y120580000D02*
X91399995Y121330000D01*
X102999995Y121330000D02*
X101199995Y121330000D01*
X103909995Y130380000D02*
X103909995Y132480000D01*
X103909995Y124880000D02*
X103909995Y127680000D01*
D13*
%TO.C,Q1*%
X10382995Y100305000D02*
X10382995Y96805000D01*
D19*
X17989995Y105705000D02*
X17989995Y105705000D01*
X18189995Y105705000D02*
X18189995Y105705000D01*
D13*
X20796995Y100305000D02*
X10382995Y100305000D01*
X20796995Y96805000D02*
X20796995Y100305000D01*
D19*
X17989995Y105705000D02*
G75*
G02*
X18189995Y105705000I100000J0D01*
G01*
X18189995Y105705000D02*
G75*
G02*
X17989995Y105705000I-100000J0D01*
G01*
D17*
%TO.C,J14*%
X52539995Y38740000D02*
X52539995Y37490000D01*
X52539995Y37490000D02*
X53789995Y37490000D01*
X52639995Y39550000D02*
X52639995Y39250000D01*
X52639995Y39250000D02*
X52839995Y39250000D01*
X52739995Y39550000D02*
X52739995Y39250000D01*
X52839995Y47910000D02*
X52839995Y37790000D01*
X52839995Y40350000D02*
X53449995Y40350000D01*
X52839995Y39550000D02*
X52639995Y39550000D01*
X52839995Y37790000D02*
X57559995Y37790000D01*
X53449995Y47300000D02*
X53449995Y45350000D01*
X53449995Y45350000D02*
X52839995Y45350000D01*
X53449995Y40350000D02*
X53449995Y38400000D01*
X53449995Y38400000D02*
X56949995Y38400000D01*
X54149995Y47910000D02*
X54149995Y47300000D01*
X54149995Y37790000D02*
X54149995Y38400000D01*
X55449995Y47910000D02*
X55449995Y47300000D01*
X55449995Y37790000D02*
X55449995Y38400000D01*
X56449995Y44950000D02*
X56949995Y44950000D01*
X56449995Y44750000D02*
X56449995Y44950000D01*
X56449995Y42950000D02*
X56949995Y42950000D01*
X56449995Y42750000D02*
X56449995Y42950000D01*
X56449995Y40950000D02*
X56949995Y40950000D01*
X56449995Y40750000D02*
X56449995Y40950000D01*
X56949995Y47300000D02*
X53449995Y47300000D01*
X56949995Y44850000D02*
X56449995Y44850000D01*
X56949995Y44750000D02*
X56449995Y44750000D01*
X56949995Y42850000D02*
X56449995Y42850000D01*
X56949995Y42750000D02*
X56449995Y42750000D01*
X56949995Y40850000D02*
X56449995Y40850000D01*
X56949995Y40750000D02*
X56449995Y40750000D01*
X56949995Y38400000D02*
X56949995Y47300000D01*
X57559995Y47910000D02*
X52839995Y47910000D01*
X57559995Y37790000D02*
X57559995Y47910000D01*
%TO.C,TP2*%
X14599995Y60600000D02*
G75*
G02*
X11099995Y60600000I-1750000J0D01*
G01*
X11099995Y60600000D02*
G75*
G02*
X14599995Y60600000I1750000J0D01*
G01*
%TO.C,J3*%
X6239995Y-3220000D02*
X6239995Y-3740000D01*
X6239995Y-3740000D02*
X20859995Y-3740000D01*
X6889995Y11740000D02*
X6889995Y8410000D01*
X6889995Y11740000D02*
X20209995Y11740000D01*
X6889995Y-3220000D02*
X6239995Y-3220000D01*
X6889995Y-3220000D02*
X6889995Y4890000D01*
X9149995Y11960000D02*
X10949995Y11960000D01*
X20209995Y11740000D02*
X20209995Y8410000D01*
X20209995Y4890000D02*
X20209995Y-3220000D01*
X20859995Y-3220000D02*
X20209995Y-3220000D01*
X20859995Y-3740000D02*
X20859995Y-3220000D01*
%TO.C,C5*%
X75139995Y117711252D02*
X75139995Y116288748D01*
X76959995Y117711252D02*
X76959995Y116288748D01*
D13*
%TO.C,J\u002A\u002A*%
X79249995Y53890000D02*
X79249995Y51010000D01*
X79249995Y51010000D02*
X80049995Y51010000D01*
X80049995Y53890000D02*
X79249995Y53890000D01*
X101049995Y53890000D02*
X101849995Y53890000D01*
X101849995Y53890000D02*
X101849995Y51010000D01*
X101849995Y51010000D02*
X101049995Y51010000D01*
D20*
%TO.C,IC1*%
X22524995Y22500000D02*
G75*
G02*
X22274995Y22500000I-125000J0D01*
G01*
X22274995Y22500000D02*
G75*
G02*
X22524995Y22500000I125000J0D01*
G01*
%TD*%
M02*
