%TF.GenerationSoftware,KiCad,Pcbnew,8.0.8*%
%TF.CreationDate,2025-06-04T22:45:29+02:00*%
%TF.ProjectId,KeyswitchCarrierMk3,4b657973-7769-4746-9368-436172726965,rev?*%
%TF.SameCoordinates,Original*%
%TF.FileFunction,Legend,Bot*%
%TF.FilePolarity,Positive*%
%FSLAX46Y46*%
G04 Gerber Fmt 4.6, Leading zero omitted, Abs format (unit mm)*
G04 Created by KiCad (PCBNEW 8.0.8) date 2025-06-04 22:45:29*
%MOMM*%
%LPD*%
G01*
G04 APERTURE LIST*
%ADD10C,0.100000*%
%ADD11C,0.150000*%
%ADD12C,0.120000*%
G04 APERTURE END LIST*
D10*
X146150000Y-87675000D02*
X146150000Y-86425000D01*
X160350000Y-87749940D02*
X153250000Y-87700000D01*
X174400000Y-87750000D02*
X160350000Y-87749940D01*
X153250000Y-87700000D02*
X146150000Y-87700000D01*
X160250000Y-87750000D02*
X160250000Y-86250000D01*
X174400000Y-86450000D02*
X174400000Y-87750000D01*
X153250000Y-87700000D02*
X153250000Y-86300000D01*
X179917544Y-87405752D02*
X179917544Y-88072419D01*
X180155639Y-87024800D02*
X180393734Y-87739085D01*
X180393734Y-87739085D02*
X179774687Y-87739085D01*
X178727067Y-87072419D02*
X178108020Y-87072419D01*
X178108020Y-87072419D02*
X178441353Y-87453371D01*
X178441353Y-87453371D02*
X178298496Y-87453371D01*
X178298496Y-87453371D02*
X178203258Y-87500990D01*
X178203258Y-87500990D02*
X178155639Y-87548609D01*
X178155639Y-87548609D02*
X178108020Y-87643847D01*
X178108020Y-87643847D02*
X178108020Y-87881942D01*
X178108020Y-87881942D02*
X178155639Y-87977180D01*
X178155639Y-87977180D02*
X178203258Y-88024800D01*
X178203258Y-88024800D02*
X178298496Y-88072419D01*
X178298496Y-88072419D02*
X178584210Y-88072419D01*
X178584210Y-88072419D02*
X178679448Y-88024800D01*
X178679448Y-88024800D02*
X178727067Y-87977180D01*
X176965162Y-87167657D02*
X176917543Y-87120038D01*
X176917543Y-87120038D02*
X176822305Y-87072419D01*
X176822305Y-87072419D02*
X176584210Y-87072419D01*
X176584210Y-87072419D02*
X176488972Y-87120038D01*
X176488972Y-87120038D02*
X176441353Y-87167657D01*
X176441353Y-87167657D02*
X176393734Y-87262895D01*
X176393734Y-87262895D02*
X176393734Y-87358133D01*
X176393734Y-87358133D02*
X176441353Y-87500990D01*
X176441353Y-87500990D02*
X177012781Y-88072419D01*
X177012781Y-88072419D02*
X176393734Y-88072419D01*
X174679448Y-88072419D02*
X175250876Y-88072419D01*
X174965162Y-88072419D02*
X174965162Y-87072419D01*
X174965162Y-87072419D02*
X175060400Y-87215276D01*
X175060400Y-87215276D02*
X175155638Y-87310514D01*
X175155638Y-87310514D02*
X175250876Y-87358133D01*
X121424687Y-84812475D02*
X121758020Y-84336284D01*
X121996115Y-84812475D02*
X121996115Y-83812475D01*
X121996115Y-83812475D02*
X121615163Y-83812475D01*
X121615163Y-83812475D02*
X121519925Y-83860094D01*
X121519925Y-83860094D02*
X121472306Y-83907713D01*
X121472306Y-83907713D02*
X121424687Y-84002951D01*
X121424687Y-84002951D02*
X121424687Y-84145808D01*
X121424687Y-84145808D02*
X121472306Y-84241046D01*
X121472306Y-84241046D02*
X121519925Y-84288665D01*
X121519925Y-84288665D02*
X121615163Y-84336284D01*
X121615163Y-84336284D02*
X121996115Y-84336284D01*
X120853258Y-84812475D02*
X120948496Y-84764856D01*
X120948496Y-84764856D02*
X120996115Y-84717236D01*
X120996115Y-84717236D02*
X121043734Y-84621998D01*
X121043734Y-84621998D02*
X121043734Y-84336284D01*
X121043734Y-84336284D02*
X120996115Y-84241046D01*
X120996115Y-84241046D02*
X120948496Y-84193427D01*
X120948496Y-84193427D02*
X120853258Y-84145808D01*
X120853258Y-84145808D02*
X120710401Y-84145808D01*
X120710401Y-84145808D02*
X120615163Y-84193427D01*
X120615163Y-84193427D02*
X120567544Y-84241046D01*
X120567544Y-84241046D02*
X120519925Y-84336284D01*
X120519925Y-84336284D02*
X120519925Y-84621998D01*
X120519925Y-84621998D02*
X120567544Y-84717236D01*
X120567544Y-84717236D02*
X120615163Y-84764856D01*
X120615163Y-84764856D02*
X120710401Y-84812475D01*
X120710401Y-84812475D02*
X120853258Y-84812475D01*
X119948496Y-84812475D02*
X120043734Y-84764856D01*
X120043734Y-84764856D02*
X120091353Y-84717236D01*
X120091353Y-84717236D02*
X120138972Y-84621998D01*
X120138972Y-84621998D02*
X120138972Y-84336284D01*
X120138972Y-84336284D02*
X120091353Y-84241046D01*
X120091353Y-84241046D02*
X120043734Y-84193427D01*
X120043734Y-84193427D02*
X119948496Y-84145808D01*
X119948496Y-84145808D02*
X119805639Y-84145808D01*
X119805639Y-84145808D02*
X119710401Y-84193427D01*
X119710401Y-84193427D02*
X119662782Y-84241046D01*
X119662782Y-84241046D02*
X119615163Y-84336284D01*
X119615163Y-84336284D02*
X119615163Y-84621998D01*
X119615163Y-84621998D02*
X119662782Y-84717236D01*
X119662782Y-84717236D02*
X119710401Y-84764856D01*
X119710401Y-84764856D02*
X119805639Y-84812475D01*
X119805639Y-84812475D02*
X119948496Y-84812475D01*
X119186591Y-84812475D02*
X119186591Y-83812475D01*
X118615163Y-84812475D02*
X119043734Y-84241046D01*
X118615163Y-83812475D02*
X119186591Y-84383903D01*
X121996115Y-86422419D02*
X121996115Y-85422419D01*
X121424687Y-86422419D02*
X121853258Y-85850990D01*
X121424687Y-85422419D02*
X121996115Y-85993847D01*
X120615163Y-86374800D02*
X120710401Y-86422419D01*
X120710401Y-86422419D02*
X120900877Y-86422419D01*
X120900877Y-86422419D02*
X120996115Y-86374800D01*
X120996115Y-86374800D02*
X121043734Y-86279561D01*
X121043734Y-86279561D02*
X121043734Y-85898609D01*
X121043734Y-85898609D02*
X120996115Y-85803371D01*
X120996115Y-85803371D02*
X120900877Y-85755752D01*
X120900877Y-85755752D02*
X120710401Y-85755752D01*
X120710401Y-85755752D02*
X120615163Y-85803371D01*
X120615163Y-85803371D02*
X120567544Y-85898609D01*
X120567544Y-85898609D02*
X120567544Y-85993847D01*
X120567544Y-85993847D02*
X121043734Y-86089085D01*
X120234210Y-85755752D02*
X119996115Y-86422419D01*
X119758020Y-85755752D02*
X119996115Y-86422419D01*
X119996115Y-86422419D02*
X120091353Y-86660514D01*
X120091353Y-86660514D02*
X120138972Y-86708133D01*
X120138972Y-86708133D02*
X120234210Y-86755752D01*
X119424686Y-86374800D02*
X119329448Y-86422419D01*
X119329448Y-86422419D02*
X119138972Y-86422419D01*
X119138972Y-86422419D02*
X119043734Y-86374800D01*
X119043734Y-86374800D02*
X118996115Y-86279561D01*
X118996115Y-86279561D02*
X118996115Y-86231942D01*
X118996115Y-86231942D02*
X119043734Y-86136704D01*
X119043734Y-86136704D02*
X119138972Y-86089085D01*
X119138972Y-86089085D02*
X119281829Y-86089085D01*
X119281829Y-86089085D02*
X119377067Y-86041466D01*
X119377067Y-86041466D02*
X119424686Y-85946228D01*
X119424686Y-85946228D02*
X119424686Y-85898609D01*
X119424686Y-85898609D02*
X119377067Y-85803371D01*
X119377067Y-85803371D02*
X119281829Y-85755752D01*
X119281829Y-85755752D02*
X119138972Y-85755752D01*
X119138972Y-85755752D02*
X119043734Y-85803371D01*
X118662781Y-85755752D02*
X118472305Y-86422419D01*
X118472305Y-86422419D02*
X118281829Y-85946228D01*
X118281829Y-85946228D02*
X118091353Y-86422419D01*
X118091353Y-86422419D02*
X117900877Y-85755752D01*
X117519924Y-86422419D02*
X117519924Y-85755752D01*
X117519924Y-85422419D02*
X117567543Y-85470038D01*
X117567543Y-85470038D02*
X117519924Y-85517657D01*
X117519924Y-85517657D02*
X117472305Y-85470038D01*
X117472305Y-85470038D02*
X117519924Y-85422419D01*
X117519924Y-85422419D02*
X117519924Y-85517657D01*
X117186591Y-85755752D02*
X116805639Y-85755752D01*
X117043734Y-85422419D02*
X117043734Y-86279561D01*
X117043734Y-86279561D02*
X116996115Y-86374800D01*
X116996115Y-86374800D02*
X116900877Y-86422419D01*
X116900877Y-86422419D02*
X116805639Y-86422419D01*
X116043734Y-86374800D02*
X116138972Y-86422419D01*
X116138972Y-86422419D02*
X116329448Y-86422419D01*
X116329448Y-86422419D02*
X116424686Y-86374800D01*
X116424686Y-86374800D02*
X116472305Y-86327180D01*
X116472305Y-86327180D02*
X116519924Y-86231942D01*
X116519924Y-86231942D02*
X116519924Y-85946228D01*
X116519924Y-85946228D02*
X116472305Y-85850990D01*
X116472305Y-85850990D02*
X116424686Y-85803371D01*
X116424686Y-85803371D02*
X116329448Y-85755752D01*
X116329448Y-85755752D02*
X116138972Y-85755752D01*
X116138972Y-85755752D02*
X116043734Y-85803371D01*
X115615162Y-86422419D02*
X115615162Y-85422419D01*
X115186591Y-86422419D02*
X115186591Y-85898609D01*
X115186591Y-85898609D02*
X115234210Y-85803371D01*
X115234210Y-85803371D02*
X115329448Y-85755752D01*
X115329448Y-85755752D02*
X115472305Y-85755752D01*
X115472305Y-85755752D02*
X115567543Y-85803371D01*
X115567543Y-85803371D02*
X115615162Y-85850990D01*
X113377067Y-86327180D02*
X113424686Y-86374800D01*
X113424686Y-86374800D02*
X113567543Y-86422419D01*
X113567543Y-86422419D02*
X113662781Y-86422419D01*
X113662781Y-86422419D02*
X113805638Y-86374800D01*
X113805638Y-86374800D02*
X113900876Y-86279561D01*
X113900876Y-86279561D02*
X113948495Y-86184323D01*
X113948495Y-86184323D02*
X113996114Y-85993847D01*
X113996114Y-85993847D02*
X113996114Y-85850990D01*
X113996114Y-85850990D02*
X113948495Y-85660514D01*
X113948495Y-85660514D02*
X113900876Y-85565276D01*
X113900876Y-85565276D02*
X113805638Y-85470038D01*
X113805638Y-85470038D02*
X113662781Y-85422419D01*
X113662781Y-85422419D02*
X113567543Y-85422419D01*
X113567543Y-85422419D02*
X113424686Y-85470038D01*
X113424686Y-85470038D02*
X113377067Y-85517657D01*
X112519924Y-86422419D02*
X112519924Y-85898609D01*
X112519924Y-85898609D02*
X112567543Y-85803371D01*
X112567543Y-85803371D02*
X112662781Y-85755752D01*
X112662781Y-85755752D02*
X112853257Y-85755752D01*
X112853257Y-85755752D02*
X112948495Y-85803371D01*
X112519924Y-86374800D02*
X112615162Y-86422419D01*
X112615162Y-86422419D02*
X112853257Y-86422419D01*
X112853257Y-86422419D02*
X112948495Y-86374800D01*
X112948495Y-86374800D02*
X112996114Y-86279561D01*
X112996114Y-86279561D02*
X112996114Y-86184323D01*
X112996114Y-86184323D02*
X112948495Y-86089085D01*
X112948495Y-86089085D02*
X112853257Y-86041466D01*
X112853257Y-86041466D02*
X112615162Y-86041466D01*
X112615162Y-86041466D02*
X112519924Y-85993847D01*
X112043733Y-86422419D02*
X112043733Y-85755752D01*
X112043733Y-85946228D02*
X111996114Y-85850990D01*
X111996114Y-85850990D02*
X111948495Y-85803371D01*
X111948495Y-85803371D02*
X111853257Y-85755752D01*
X111853257Y-85755752D02*
X111758019Y-85755752D01*
X111424685Y-86422419D02*
X111424685Y-85755752D01*
X111424685Y-85946228D02*
X111377066Y-85850990D01*
X111377066Y-85850990D02*
X111329447Y-85803371D01*
X111329447Y-85803371D02*
X111234209Y-85755752D01*
X111234209Y-85755752D02*
X111138971Y-85755752D01*
X110805637Y-86422419D02*
X110805637Y-85755752D01*
X110805637Y-85422419D02*
X110853256Y-85470038D01*
X110853256Y-85470038D02*
X110805637Y-85517657D01*
X110805637Y-85517657D02*
X110758018Y-85470038D01*
X110758018Y-85470038D02*
X110805637Y-85422419D01*
X110805637Y-85422419D02*
X110805637Y-85517657D01*
X109948495Y-86374800D02*
X110043733Y-86422419D01*
X110043733Y-86422419D02*
X110234209Y-86422419D01*
X110234209Y-86422419D02*
X110329447Y-86374800D01*
X110329447Y-86374800D02*
X110377066Y-86279561D01*
X110377066Y-86279561D02*
X110377066Y-85898609D01*
X110377066Y-85898609D02*
X110329447Y-85803371D01*
X110329447Y-85803371D02*
X110234209Y-85755752D01*
X110234209Y-85755752D02*
X110043733Y-85755752D01*
X110043733Y-85755752D02*
X109948495Y-85803371D01*
X109948495Y-85803371D02*
X109900876Y-85898609D01*
X109900876Y-85898609D02*
X109900876Y-85993847D01*
X109900876Y-85993847D02*
X110377066Y-86089085D01*
X109472304Y-86422419D02*
X109472304Y-85755752D01*
X109472304Y-85946228D02*
X109424685Y-85850990D01*
X109424685Y-85850990D02*
X109377066Y-85803371D01*
X109377066Y-85803371D02*
X109281828Y-85755752D01*
X109281828Y-85755752D02*
X109186590Y-85755752D01*
X108091351Y-86422419D02*
X108091351Y-85422419D01*
X108091351Y-85422419D02*
X107758018Y-86136704D01*
X107758018Y-86136704D02*
X107424685Y-85422419D01*
X107424685Y-85422419D02*
X107424685Y-86422419D01*
X106948494Y-86422419D02*
X106948494Y-85422419D01*
X106853256Y-86041466D02*
X106567542Y-86422419D01*
X106567542Y-85755752D02*
X106948494Y-86136704D01*
X106234208Y-85422419D02*
X105615161Y-85422419D01*
X105615161Y-85422419D02*
X105948494Y-85803371D01*
X105948494Y-85803371D02*
X105805637Y-85803371D01*
X105805637Y-85803371D02*
X105710399Y-85850990D01*
X105710399Y-85850990D02*
X105662780Y-85898609D01*
X105662780Y-85898609D02*
X105615161Y-85993847D01*
X105615161Y-85993847D02*
X105615161Y-86231942D01*
X105615161Y-86231942D02*
X105662780Y-86327180D01*
X105662780Y-86327180D02*
X105710399Y-86374800D01*
X105710399Y-86374800D02*
X105805637Y-86422419D01*
X105805637Y-86422419D02*
X106091351Y-86422419D01*
X106091351Y-86422419D02*
X106186589Y-86374800D01*
X106186589Y-86374800D02*
X106234208Y-86327180D01*
X137667544Y-80515976D02*
X137667544Y-81182643D01*
X137905639Y-80135024D02*
X138143734Y-80849309D01*
X138143734Y-80849309D02*
X137524687Y-80849309D01*
X137143734Y-80801690D02*
X136381830Y-80801690D01*
X135905639Y-81182643D02*
X135905639Y-80182643D01*
X135905639Y-80182643D02*
X135524687Y-80182643D01*
X135524687Y-80182643D02*
X135429449Y-80230262D01*
X135429449Y-80230262D02*
X135381830Y-80277881D01*
X135381830Y-80277881D02*
X135334211Y-80373119D01*
X135334211Y-80373119D02*
X135334211Y-80515976D01*
X135334211Y-80515976D02*
X135381830Y-80611214D01*
X135381830Y-80611214D02*
X135429449Y-80658833D01*
X135429449Y-80658833D02*
X135524687Y-80706452D01*
X135524687Y-80706452D02*
X135905639Y-80706452D01*
X134762782Y-81182643D02*
X134858020Y-81135024D01*
X134858020Y-81135024D02*
X134905639Y-81087404D01*
X134905639Y-81087404D02*
X134953258Y-80992166D01*
X134953258Y-80992166D02*
X134953258Y-80706452D01*
X134953258Y-80706452D02*
X134905639Y-80611214D01*
X134905639Y-80611214D02*
X134858020Y-80563595D01*
X134858020Y-80563595D02*
X134762782Y-80515976D01*
X134762782Y-80515976D02*
X134619925Y-80515976D01*
X134619925Y-80515976D02*
X134524687Y-80563595D01*
X134524687Y-80563595D02*
X134477068Y-80611214D01*
X134477068Y-80611214D02*
X134429449Y-80706452D01*
X134429449Y-80706452D02*
X134429449Y-80992166D01*
X134429449Y-80992166D02*
X134477068Y-81087404D01*
X134477068Y-81087404D02*
X134524687Y-81135024D01*
X134524687Y-81135024D02*
X134619925Y-81182643D01*
X134619925Y-81182643D02*
X134762782Y-81182643D01*
X134000877Y-81182643D02*
X134000877Y-80515976D01*
X134000877Y-80706452D02*
X133953258Y-80611214D01*
X133953258Y-80611214D02*
X133905639Y-80563595D01*
X133905639Y-80563595D02*
X133810401Y-80515976D01*
X133810401Y-80515976D02*
X133715163Y-80515976D01*
X133524686Y-80515976D02*
X133143734Y-80515976D01*
X133381829Y-80182643D02*
X133381829Y-81039785D01*
X133381829Y-81039785D02*
X133334210Y-81135024D01*
X133334210Y-81135024D02*
X133238972Y-81182643D01*
X133238972Y-81182643D02*
X133143734Y-81182643D01*
X132810400Y-80801690D02*
X132048496Y-80801690D01*
X131572305Y-81182643D02*
X131572305Y-80182643D01*
X131572305Y-80182643D02*
X131191353Y-80182643D01*
X131191353Y-80182643D02*
X131096115Y-80230262D01*
X131096115Y-80230262D02*
X131048496Y-80277881D01*
X131048496Y-80277881D02*
X131000877Y-80373119D01*
X131000877Y-80373119D02*
X131000877Y-80515976D01*
X131000877Y-80515976D02*
X131048496Y-80611214D01*
X131048496Y-80611214D02*
X131096115Y-80658833D01*
X131096115Y-80658833D02*
X131191353Y-80706452D01*
X131191353Y-80706452D02*
X131572305Y-80706452D01*
X130572305Y-81182643D02*
X130572305Y-80515976D01*
X130572305Y-80182643D02*
X130619924Y-80230262D01*
X130619924Y-80230262D02*
X130572305Y-80277881D01*
X130572305Y-80277881D02*
X130524686Y-80230262D01*
X130524686Y-80230262D02*
X130572305Y-80182643D01*
X130572305Y-80182643D02*
X130572305Y-80277881D01*
X130096115Y-80515976D02*
X130096115Y-81182643D01*
X130096115Y-80611214D02*
X130048496Y-80563595D01*
X130048496Y-80563595D02*
X129953258Y-80515976D01*
X129953258Y-80515976D02*
X129810401Y-80515976D01*
X129810401Y-80515976D02*
X129715163Y-80563595D01*
X129715163Y-80563595D02*
X129667544Y-80658833D01*
X129667544Y-80658833D02*
X129667544Y-81182643D01*
X129048496Y-81182643D02*
X129143734Y-81135024D01*
X129143734Y-81135024D02*
X129191353Y-81087404D01*
X129191353Y-81087404D02*
X129238972Y-80992166D01*
X129238972Y-80992166D02*
X129238972Y-80706452D01*
X129238972Y-80706452D02*
X129191353Y-80611214D01*
X129191353Y-80611214D02*
X129143734Y-80563595D01*
X129143734Y-80563595D02*
X129048496Y-80515976D01*
X129048496Y-80515976D02*
X128905639Y-80515976D01*
X128905639Y-80515976D02*
X128810401Y-80563595D01*
X128810401Y-80563595D02*
X128762782Y-80611214D01*
X128762782Y-80611214D02*
X128715163Y-80706452D01*
X128715163Y-80706452D02*
X128715163Y-80992166D01*
X128715163Y-80992166D02*
X128762782Y-81087404D01*
X128762782Y-81087404D02*
X128810401Y-81135024D01*
X128810401Y-81135024D02*
X128905639Y-81182643D01*
X128905639Y-81182643D02*
X129048496Y-81182643D01*
X127858020Y-80515976D02*
X127858020Y-81182643D01*
X128286591Y-80515976D02*
X128286591Y-81039785D01*
X128286591Y-81039785D02*
X128238972Y-81135024D01*
X128238972Y-81135024D02*
X128143734Y-81182643D01*
X128143734Y-81182643D02*
X128000877Y-81182643D01*
X128000877Y-81182643D02*
X127905639Y-81135024D01*
X127905639Y-81135024D02*
X127858020Y-81087404D01*
X127524686Y-80515976D02*
X127143734Y-80515976D01*
X127381829Y-80182643D02*
X127381829Y-81039785D01*
X127381829Y-81039785D02*
X127334210Y-81135024D01*
X127334210Y-81135024D02*
X127238972Y-81182643D01*
X127238972Y-81182643D02*
X127143734Y-81182643D01*
X137572306Y-82792587D02*
X138143734Y-82792587D01*
X137858020Y-82792587D02*
X137858020Y-81792587D01*
X137858020Y-81792587D02*
X137953258Y-81935444D01*
X137953258Y-81935444D02*
X138048496Y-82030682D01*
X138048496Y-82030682D02*
X138143734Y-82078301D01*
X136381829Y-82411634D02*
X135619925Y-82411634D01*
X133810401Y-82697348D02*
X133858020Y-82744968D01*
X133858020Y-82744968D02*
X134000877Y-82792587D01*
X134000877Y-82792587D02*
X134096115Y-82792587D01*
X134096115Y-82792587D02*
X134238972Y-82744968D01*
X134238972Y-82744968D02*
X134334210Y-82649729D01*
X134334210Y-82649729D02*
X134381829Y-82554491D01*
X134381829Y-82554491D02*
X134429448Y-82364015D01*
X134429448Y-82364015D02*
X134429448Y-82221158D01*
X134429448Y-82221158D02*
X134381829Y-82030682D01*
X134381829Y-82030682D02*
X134334210Y-81935444D01*
X134334210Y-81935444D02*
X134238972Y-81840206D01*
X134238972Y-81840206D02*
X134096115Y-81792587D01*
X134096115Y-81792587D02*
X134000877Y-81792587D01*
X134000877Y-81792587D02*
X133858020Y-81840206D01*
X133858020Y-81840206D02*
X133810401Y-81887825D01*
X133238972Y-82792587D02*
X133334210Y-82744968D01*
X133334210Y-82744968D02*
X133381829Y-82697348D01*
X133381829Y-82697348D02*
X133429448Y-82602110D01*
X133429448Y-82602110D02*
X133429448Y-82316396D01*
X133429448Y-82316396D02*
X133381829Y-82221158D01*
X133381829Y-82221158D02*
X133334210Y-82173539D01*
X133334210Y-82173539D02*
X133238972Y-82125920D01*
X133238972Y-82125920D02*
X133096115Y-82125920D01*
X133096115Y-82125920D02*
X133000877Y-82173539D01*
X133000877Y-82173539D02*
X132953258Y-82221158D01*
X132953258Y-82221158D02*
X132905639Y-82316396D01*
X132905639Y-82316396D02*
X132905639Y-82602110D01*
X132905639Y-82602110D02*
X132953258Y-82697348D01*
X132953258Y-82697348D02*
X133000877Y-82744968D01*
X133000877Y-82744968D02*
X133096115Y-82792587D01*
X133096115Y-82792587D02*
X133238972Y-82792587D01*
X132477067Y-82792587D02*
X132477067Y-82125920D01*
X132477067Y-82221158D02*
X132429448Y-82173539D01*
X132429448Y-82173539D02*
X132334210Y-82125920D01*
X132334210Y-82125920D02*
X132191353Y-82125920D01*
X132191353Y-82125920D02*
X132096115Y-82173539D01*
X132096115Y-82173539D02*
X132048496Y-82268777D01*
X132048496Y-82268777D02*
X132048496Y-82792587D01*
X132048496Y-82268777D02*
X132000877Y-82173539D01*
X132000877Y-82173539D02*
X131905639Y-82125920D01*
X131905639Y-82125920D02*
X131762782Y-82125920D01*
X131762782Y-82125920D02*
X131667543Y-82173539D01*
X131667543Y-82173539D02*
X131619924Y-82268777D01*
X131619924Y-82268777D02*
X131619924Y-82792587D01*
X131143734Y-82792587D02*
X131143734Y-82125920D01*
X131143734Y-82221158D02*
X131096115Y-82173539D01*
X131096115Y-82173539D02*
X131000877Y-82125920D01*
X131000877Y-82125920D02*
X130858020Y-82125920D01*
X130858020Y-82125920D02*
X130762782Y-82173539D01*
X130762782Y-82173539D02*
X130715163Y-82268777D01*
X130715163Y-82268777D02*
X130715163Y-82792587D01*
X130715163Y-82268777D02*
X130667544Y-82173539D01*
X130667544Y-82173539D02*
X130572306Y-82125920D01*
X130572306Y-82125920D02*
X130429449Y-82125920D01*
X130429449Y-82125920D02*
X130334210Y-82173539D01*
X130334210Y-82173539D02*
X130286591Y-82268777D01*
X130286591Y-82268777D02*
X130286591Y-82792587D01*
X129667544Y-82792587D02*
X129762782Y-82744968D01*
X129762782Y-82744968D02*
X129810401Y-82697348D01*
X129810401Y-82697348D02*
X129858020Y-82602110D01*
X129858020Y-82602110D02*
X129858020Y-82316396D01*
X129858020Y-82316396D02*
X129810401Y-82221158D01*
X129810401Y-82221158D02*
X129762782Y-82173539D01*
X129762782Y-82173539D02*
X129667544Y-82125920D01*
X129667544Y-82125920D02*
X129524687Y-82125920D01*
X129524687Y-82125920D02*
X129429449Y-82173539D01*
X129429449Y-82173539D02*
X129381830Y-82221158D01*
X129381830Y-82221158D02*
X129334211Y-82316396D01*
X129334211Y-82316396D02*
X129334211Y-82602110D01*
X129334211Y-82602110D02*
X129381830Y-82697348D01*
X129381830Y-82697348D02*
X129429449Y-82744968D01*
X129429449Y-82744968D02*
X129524687Y-82792587D01*
X129524687Y-82792587D02*
X129667544Y-82792587D01*
X128905639Y-82125920D02*
X128905639Y-82792587D01*
X128905639Y-82221158D02*
X128858020Y-82173539D01*
X128858020Y-82173539D02*
X128762782Y-82125920D01*
X128762782Y-82125920D02*
X128619925Y-82125920D01*
X128619925Y-82125920D02*
X128524687Y-82173539D01*
X128524687Y-82173539D02*
X128477068Y-82268777D01*
X128477068Y-82268777D02*
X128477068Y-82792587D01*
X126715163Y-81840206D02*
X126810401Y-81792587D01*
X126810401Y-81792587D02*
X126953258Y-81792587D01*
X126953258Y-81792587D02*
X127096115Y-81840206D01*
X127096115Y-81840206D02*
X127191353Y-81935444D01*
X127191353Y-81935444D02*
X127238972Y-82030682D01*
X127238972Y-82030682D02*
X127286591Y-82221158D01*
X127286591Y-82221158D02*
X127286591Y-82364015D01*
X127286591Y-82364015D02*
X127238972Y-82554491D01*
X127238972Y-82554491D02*
X127191353Y-82649729D01*
X127191353Y-82649729D02*
X127096115Y-82744968D01*
X127096115Y-82744968D02*
X126953258Y-82792587D01*
X126953258Y-82792587D02*
X126858020Y-82792587D01*
X126858020Y-82792587D02*
X126715163Y-82744968D01*
X126715163Y-82744968D02*
X126667544Y-82697348D01*
X126667544Y-82697348D02*
X126667544Y-82364015D01*
X126667544Y-82364015D02*
X126858020Y-82364015D01*
X126238972Y-82792587D02*
X126238972Y-82125920D01*
X126238972Y-82316396D02*
X126191353Y-82221158D01*
X126191353Y-82221158D02*
X126143734Y-82173539D01*
X126143734Y-82173539D02*
X126048496Y-82125920D01*
X126048496Y-82125920D02*
X125953258Y-82125920D01*
X125477067Y-82792587D02*
X125572305Y-82744968D01*
X125572305Y-82744968D02*
X125619924Y-82697348D01*
X125619924Y-82697348D02*
X125667543Y-82602110D01*
X125667543Y-82602110D02*
X125667543Y-82316396D01*
X125667543Y-82316396D02*
X125619924Y-82221158D01*
X125619924Y-82221158D02*
X125572305Y-82173539D01*
X125572305Y-82173539D02*
X125477067Y-82125920D01*
X125477067Y-82125920D02*
X125334210Y-82125920D01*
X125334210Y-82125920D02*
X125238972Y-82173539D01*
X125238972Y-82173539D02*
X125191353Y-82221158D01*
X125191353Y-82221158D02*
X125143734Y-82316396D01*
X125143734Y-82316396D02*
X125143734Y-82602110D01*
X125143734Y-82602110D02*
X125191353Y-82697348D01*
X125191353Y-82697348D02*
X125238972Y-82744968D01*
X125238972Y-82744968D02*
X125334210Y-82792587D01*
X125334210Y-82792587D02*
X125477067Y-82792587D01*
X124286591Y-82125920D02*
X124286591Y-82792587D01*
X124715162Y-82125920D02*
X124715162Y-82649729D01*
X124715162Y-82649729D02*
X124667543Y-82744968D01*
X124667543Y-82744968D02*
X124572305Y-82792587D01*
X124572305Y-82792587D02*
X124429448Y-82792587D01*
X124429448Y-82792587D02*
X124334210Y-82744968D01*
X124334210Y-82744968D02*
X124286591Y-82697348D01*
X123810400Y-82125920D02*
X123810400Y-82792587D01*
X123810400Y-82221158D02*
X123762781Y-82173539D01*
X123762781Y-82173539D02*
X123667543Y-82125920D01*
X123667543Y-82125920D02*
X123524686Y-82125920D01*
X123524686Y-82125920D02*
X123429448Y-82173539D01*
X123429448Y-82173539D02*
X123381829Y-82268777D01*
X123381829Y-82268777D02*
X123381829Y-82792587D01*
X122477067Y-82792587D02*
X122477067Y-81792587D01*
X122477067Y-82744968D02*
X122572305Y-82792587D01*
X122572305Y-82792587D02*
X122762781Y-82792587D01*
X122762781Y-82792587D02*
X122858019Y-82744968D01*
X122858019Y-82744968D02*
X122905638Y-82697348D01*
X122905638Y-82697348D02*
X122953257Y-82602110D01*
X122953257Y-82602110D02*
X122953257Y-82316396D01*
X122953257Y-82316396D02*
X122905638Y-82221158D01*
X122905638Y-82221158D02*
X122858019Y-82173539D01*
X122858019Y-82173539D02*
X122762781Y-82125920D01*
X122762781Y-82125920D02*
X122572305Y-82125920D01*
X122572305Y-82125920D02*
X122477067Y-82173539D01*
X138143734Y-83497769D02*
X138096115Y-83450150D01*
X138096115Y-83450150D02*
X138000877Y-83402531D01*
X138000877Y-83402531D02*
X137762782Y-83402531D01*
X137762782Y-83402531D02*
X137667544Y-83450150D01*
X137667544Y-83450150D02*
X137619925Y-83497769D01*
X137619925Y-83497769D02*
X137572306Y-83593007D01*
X137572306Y-83593007D02*
X137572306Y-83688245D01*
X137572306Y-83688245D02*
X137619925Y-83831102D01*
X137619925Y-83831102D02*
X138191353Y-84402531D01*
X138191353Y-84402531D02*
X137572306Y-84402531D01*
X136381829Y-84021578D02*
X135619925Y-84021578D01*
X133715163Y-84497769D02*
X133810401Y-84450150D01*
X133810401Y-84450150D02*
X133905639Y-84354912D01*
X133905639Y-84354912D02*
X134048496Y-84212054D01*
X134048496Y-84212054D02*
X134143734Y-84164435D01*
X134143734Y-84164435D02*
X134238972Y-84164435D01*
X134191353Y-84402531D02*
X134286591Y-84354912D01*
X134286591Y-84354912D02*
X134381829Y-84259673D01*
X134381829Y-84259673D02*
X134429448Y-84069197D01*
X134429448Y-84069197D02*
X134429448Y-83735864D01*
X134429448Y-83735864D02*
X134381829Y-83545388D01*
X134381829Y-83545388D02*
X134286591Y-83450150D01*
X134286591Y-83450150D02*
X134191353Y-83402531D01*
X134191353Y-83402531D02*
X134000877Y-83402531D01*
X134000877Y-83402531D02*
X133905639Y-83450150D01*
X133905639Y-83450150D02*
X133810401Y-83545388D01*
X133810401Y-83545388D02*
X133762782Y-83735864D01*
X133762782Y-83735864D02*
X133762782Y-84069197D01*
X133762782Y-84069197D02*
X133810401Y-84259673D01*
X133810401Y-84259673D02*
X133905639Y-84354912D01*
X133905639Y-84354912D02*
X134000877Y-84402531D01*
X134000877Y-84402531D02*
X134191353Y-84402531D01*
X133334210Y-83402531D02*
X133334210Y-84212054D01*
X133334210Y-84212054D02*
X133286591Y-84307292D01*
X133286591Y-84307292D02*
X133238972Y-84354912D01*
X133238972Y-84354912D02*
X133143734Y-84402531D01*
X133143734Y-84402531D02*
X132953258Y-84402531D01*
X132953258Y-84402531D02*
X132858020Y-84354912D01*
X132858020Y-84354912D02*
X132810401Y-84307292D01*
X132810401Y-84307292D02*
X132762782Y-84212054D01*
X132762782Y-84212054D02*
X132762782Y-83402531D01*
X132286591Y-84402531D02*
X132286591Y-83402531D01*
X131953258Y-83402531D02*
X131381830Y-83402531D01*
X131667544Y-84402531D02*
X131667544Y-83402531D01*
X138191353Y-85012475D02*
X137572306Y-85012475D01*
X137572306Y-85012475D02*
X137905639Y-85393427D01*
X137905639Y-85393427D02*
X137762782Y-85393427D01*
X137762782Y-85393427D02*
X137667544Y-85441046D01*
X137667544Y-85441046D02*
X137619925Y-85488665D01*
X137619925Y-85488665D02*
X137572306Y-85583903D01*
X137572306Y-85583903D02*
X137572306Y-85821998D01*
X137572306Y-85821998D02*
X137619925Y-85917236D01*
X137619925Y-85917236D02*
X137667544Y-85964856D01*
X137667544Y-85964856D02*
X137762782Y-86012475D01*
X137762782Y-86012475D02*
X138048496Y-86012475D01*
X138048496Y-86012475D02*
X138143734Y-85964856D01*
X138143734Y-85964856D02*
X138191353Y-85917236D01*
X136381829Y-85631522D02*
X135619925Y-85631522D01*
X133810401Y-86012475D02*
X134143734Y-85536284D01*
X134381829Y-86012475D02*
X134381829Y-85012475D01*
X134381829Y-85012475D02*
X134000877Y-85012475D01*
X134000877Y-85012475D02*
X133905639Y-85060094D01*
X133905639Y-85060094D02*
X133858020Y-85107713D01*
X133858020Y-85107713D02*
X133810401Y-85202951D01*
X133810401Y-85202951D02*
X133810401Y-85345808D01*
X133810401Y-85345808D02*
X133858020Y-85441046D01*
X133858020Y-85441046D02*
X133905639Y-85488665D01*
X133905639Y-85488665D02*
X134000877Y-85536284D01*
X134000877Y-85536284D02*
X134381829Y-85536284D01*
X133381829Y-85488665D02*
X133048496Y-85488665D01*
X132905639Y-86012475D02*
X133381829Y-86012475D01*
X133381829Y-86012475D02*
X133381829Y-85012475D01*
X133381829Y-85012475D02*
X132905639Y-85012475D01*
X132524686Y-85964856D02*
X132381829Y-86012475D01*
X132381829Y-86012475D02*
X132143734Y-86012475D01*
X132143734Y-86012475D02*
X132048496Y-85964856D01*
X132048496Y-85964856D02*
X132000877Y-85917236D01*
X132000877Y-85917236D02*
X131953258Y-85821998D01*
X131953258Y-85821998D02*
X131953258Y-85726760D01*
X131953258Y-85726760D02*
X132000877Y-85631522D01*
X132000877Y-85631522D02*
X132048496Y-85583903D01*
X132048496Y-85583903D02*
X132143734Y-85536284D01*
X132143734Y-85536284D02*
X132334210Y-85488665D01*
X132334210Y-85488665D02*
X132429448Y-85441046D01*
X132429448Y-85441046D02*
X132477067Y-85393427D01*
X132477067Y-85393427D02*
X132524686Y-85298189D01*
X132524686Y-85298189D02*
X132524686Y-85202951D01*
X132524686Y-85202951D02*
X132477067Y-85107713D01*
X132477067Y-85107713D02*
X132429448Y-85060094D01*
X132429448Y-85060094D02*
X132334210Y-85012475D01*
X132334210Y-85012475D02*
X132096115Y-85012475D01*
X132096115Y-85012475D02*
X131953258Y-85060094D01*
X131524686Y-85488665D02*
X131191353Y-85488665D01*
X131048496Y-86012475D02*
X131524686Y-86012475D01*
X131524686Y-86012475D02*
X131524686Y-85012475D01*
X131524686Y-85012475D02*
X131048496Y-85012475D01*
X130762781Y-85012475D02*
X130191353Y-85012475D01*
X130477067Y-86012475D02*
X130477067Y-85012475D01*
X137667544Y-86955752D02*
X137667544Y-87622419D01*
X137905639Y-86574800D02*
X138143734Y-87289085D01*
X138143734Y-87289085D02*
X137524687Y-87289085D01*
X136381829Y-87241466D02*
X135619925Y-87241466D01*
X134429448Y-87574800D02*
X134286591Y-87622419D01*
X134286591Y-87622419D02*
X134048496Y-87622419D01*
X134048496Y-87622419D02*
X133953258Y-87574800D01*
X133953258Y-87574800D02*
X133905639Y-87527180D01*
X133905639Y-87527180D02*
X133858020Y-87431942D01*
X133858020Y-87431942D02*
X133858020Y-87336704D01*
X133858020Y-87336704D02*
X133905639Y-87241466D01*
X133905639Y-87241466D02*
X133953258Y-87193847D01*
X133953258Y-87193847D02*
X134048496Y-87146228D01*
X134048496Y-87146228D02*
X134238972Y-87098609D01*
X134238972Y-87098609D02*
X134334210Y-87050990D01*
X134334210Y-87050990D02*
X134381829Y-87003371D01*
X134381829Y-87003371D02*
X134429448Y-86908133D01*
X134429448Y-86908133D02*
X134429448Y-86812895D01*
X134429448Y-86812895D02*
X134381829Y-86717657D01*
X134381829Y-86717657D02*
X134334210Y-86670038D01*
X134334210Y-86670038D02*
X134238972Y-86622419D01*
X134238972Y-86622419D02*
X134000877Y-86622419D01*
X134000877Y-86622419D02*
X133858020Y-86670038D01*
X133429448Y-87622419D02*
X133429448Y-86622419D01*
X133429448Y-87098609D02*
X132858020Y-87098609D01*
X132858020Y-87622419D02*
X132858020Y-86622419D01*
X132381829Y-86622419D02*
X132381829Y-87431942D01*
X132381829Y-87431942D02*
X132334210Y-87527180D01*
X132334210Y-87527180D02*
X132286591Y-87574800D01*
X132286591Y-87574800D02*
X132191353Y-87622419D01*
X132191353Y-87622419D02*
X132000877Y-87622419D01*
X132000877Y-87622419D02*
X131905639Y-87574800D01*
X131905639Y-87574800D02*
X131858020Y-87527180D01*
X131858020Y-87527180D02*
X131810401Y-87431942D01*
X131810401Y-87431942D02*
X131810401Y-86622419D01*
X131477067Y-86622419D02*
X130905639Y-86622419D01*
X131191353Y-87622419D02*
X131191353Y-86622419D01*
X130572305Y-87622419D02*
X130572305Y-86622419D01*
X130572305Y-86622419D02*
X130334210Y-86622419D01*
X130334210Y-86622419D02*
X130191353Y-86670038D01*
X130191353Y-86670038D02*
X130096115Y-86765276D01*
X130096115Y-86765276D02*
X130048496Y-86860514D01*
X130048496Y-86860514D02*
X130000877Y-87050990D01*
X130000877Y-87050990D02*
X130000877Y-87193847D01*
X130000877Y-87193847D02*
X130048496Y-87384323D01*
X130048496Y-87384323D02*
X130096115Y-87479561D01*
X130096115Y-87479561D02*
X130191353Y-87574800D01*
X130191353Y-87574800D02*
X130334210Y-87622419D01*
X130334210Y-87622419D02*
X130572305Y-87622419D01*
X129381829Y-86622419D02*
X129191353Y-86622419D01*
X129191353Y-86622419D02*
X129096115Y-86670038D01*
X129096115Y-86670038D02*
X129000877Y-86765276D01*
X129000877Y-86765276D02*
X128953258Y-86955752D01*
X128953258Y-86955752D02*
X128953258Y-87289085D01*
X128953258Y-87289085D02*
X129000877Y-87479561D01*
X129000877Y-87479561D02*
X129096115Y-87574800D01*
X129096115Y-87574800D02*
X129191353Y-87622419D01*
X129191353Y-87622419D02*
X129381829Y-87622419D01*
X129381829Y-87622419D02*
X129477067Y-87574800D01*
X129477067Y-87574800D02*
X129572305Y-87479561D01*
X129572305Y-87479561D02*
X129619924Y-87289085D01*
X129619924Y-87289085D02*
X129619924Y-86955752D01*
X129619924Y-86955752D02*
X129572305Y-86765276D01*
X129572305Y-86765276D02*
X129477067Y-86670038D01*
X129477067Y-86670038D02*
X129381829Y-86622419D01*
X128619924Y-86622419D02*
X128381829Y-87622419D01*
X128381829Y-87622419D02*
X128191353Y-86908133D01*
X128191353Y-86908133D02*
X128000877Y-87622419D01*
X128000877Y-87622419D02*
X127762782Y-86622419D01*
X127381829Y-87622419D02*
X127381829Y-86622419D01*
X127381829Y-86622419D02*
X126810401Y-87622419D01*
X126810401Y-87622419D02*
X126810401Y-86622419D01*
D11*
X147583333Y-87004819D02*
X147583333Y-87719104D01*
X147583333Y-87719104D02*
X147630952Y-87861961D01*
X147630952Y-87861961D02*
X147726190Y-87957200D01*
X147726190Y-87957200D02*
X147869047Y-88004819D01*
X147869047Y-88004819D02*
X147964285Y-88004819D01*
X146583333Y-88004819D02*
X147154761Y-88004819D01*
X146869047Y-88004819D02*
X146869047Y-87004819D01*
X146869047Y-87004819D02*
X146964285Y-87147676D01*
X146964285Y-87147676D02*
X147059523Y-87242914D01*
X147059523Y-87242914D02*
X147154761Y-87290533D01*
X151083332Y-77957200D02*
X150940475Y-78004819D01*
X150940475Y-78004819D02*
X150702380Y-78004819D01*
X150702380Y-78004819D02*
X150607142Y-77957200D01*
X150607142Y-77957200D02*
X150559523Y-77909580D01*
X150559523Y-77909580D02*
X150511904Y-77814342D01*
X150511904Y-77814342D02*
X150511904Y-77719104D01*
X150511904Y-77719104D02*
X150559523Y-77623866D01*
X150559523Y-77623866D02*
X150607142Y-77576247D01*
X150607142Y-77576247D02*
X150702380Y-77528628D01*
X150702380Y-77528628D02*
X150892856Y-77481009D01*
X150892856Y-77481009D02*
X150988094Y-77433390D01*
X150988094Y-77433390D02*
X151035713Y-77385771D01*
X151035713Y-77385771D02*
X151083332Y-77290533D01*
X151083332Y-77290533D02*
X151083332Y-77195295D01*
X151083332Y-77195295D02*
X151035713Y-77100057D01*
X151035713Y-77100057D02*
X150988094Y-77052438D01*
X150988094Y-77052438D02*
X150892856Y-77004819D01*
X150892856Y-77004819D02*
X150654761Y-77004819D01*
X150654761Y-77004819D02*
X150511904Y-77052438D01*
X150083332Y-78004819D02*
X150083332Y-77004819D01*
X150083332Y-77481009D02*
X149511904Y-77481009D01*
X149511904Y-78004819D02*
X149511904Y-77004819D01*
X149035713Y-77004819D02*
X149035713Y-77814342D01*
X149035713Y-77814342D02*
X148988094Y-77909580D01*
X148988094Y-77909580D02*
X148940475Y-77957200D01*
X148940475Y-77957200D02*
X148845237Y-78004819D01*
X148845237Y-78004819D02*
X148654761Y-78004819D01*
X148654761Y-78004819D02*
X148559523Y-77957200D01*
X148559523Y-77957200D02*
X148511904Y-77909580D01*
X148511904Y-77909580D02*
X148464285Y-77814342D01*
X148464285Y-77814342D02*
X148464285Y-77004819D01*
X148130951Y-77004819D02*
X147559523Y-77004819D01*
X147845237Y-78004819D02*
X147845237Y-77004819D01*
X147226189Y-78004819D02*
X147226189Y-77004819D01*
X147226189Y-77004819D02*
X146988094Y-77004819D01*
X146988094Y-77004819D02*
X146845237Y-77052438D01*
X146845237Y-77052438D02*
X146749999Y-77147676D01*
X146749999Y-77147676D02*
X146702380Y-77242914D01*
X146702380Y-77242914D02*
X146654761Y-77433390D01*
X146654761Y-77433390D02*
X146654761Y-77576247D01*
X146654761Y-77576247D02*
X146702380Y-77766723D01*
X146702380Y-77766723D02*
X146749999Y-77861961D01*
X146749999Y-77861961D02*
X146845237Y-77957200D01*
X146845237Y-77957200D02*
X146988094Y-78004819D01*
X146988094Y-78004819D02*
X147226189Y-78004819D01*
X146035713Y-77004819D02*
X145845237Y-77004819D01*
X145845237Y-77004819D02*
X145749999Y-77052438D01*
X145749999Y-77052438D02*
X145654761Y-77147676D01*
X145654761Y-77147676D02*
X145607142Y-77338152D01*
X145607142Y-77338152D02*
X145607142Y-77671485D01*
X145607142Y-77671485D02*
X145654761Y-77861961D01*
X145654761Y-77861961D02*
X145749999Y-77957200D01*
X145749999Y-77957200D02*
X145845237Y-78004819D01*
X145845237Y-78004819D02*
X146035713Y-78004819D01*
X146035713Y-78004819D02*
X146130951Y-77957200D01*
X146130951Y-77957200D02*
X146226189Y-77861961D01*
X146226189Y-77861961D02*
X146273808Y-77671485D01*
X146273808Y-77671485D02*
X146273808Y-77338152D01*
X146273808Y-77338152D02*
X146226189Y-77147676D01*
X146226189Y-77147676D02*
X146130951Y-77052438D01*
X146130951Y-77052438D02*
X146035713Y-77004819D01*
X145273808Y-77004819D02*
X145035713Y-78004819D01*
X145035713Y-78004819D02*
X144845237Y-77290533D01*
X144845237Y-77290533D02*
X144654761Y-78004819D01*
X144654761Y-78004819D02*
X144416666Y-77004819D01*
X144035713Y-78004819D02*
X144035713Y-77004819D01*
X144035713Y-77004819D02*
X143464285Y-78004819D01*
X143464285Y-78004819D02*
X143464285Y-77004819D01*
X154533333Y-87004819D02*
X154533333Y-87719104D01*
X154533333Y-87719104D02*
X154580952Y-87861961D01*
X154580952Y-87861961D02*
X154676190Y-87957200D01*
X154676190Y-87957200D02*
X154819047Y-88004819D01*
X154819047Y-88004819D02*
X154914285Y-88004819D01*
X154104761Y-87100057D02*
X154057142Y-87052438D01*
X154057142Y-87052438D02*
X153961904Y-87004819D01*
X153961904Y-87004819D02*
X153723809Y-87004819D01*
X153723809Y-87004819D02*
X153628571Y-87052438D01*
X153628571Y-87052438D02*
X153580952Y-87100057D01*
X153580952Y-87100057D02*
X153533333Y-87195295D01*
X153533333Y-87195295D02*
X153533333Y-87290533D01*
X153533333Y-87290533D02*
X153580952Y-87433390D01*
X153580952Y-87433390D02*
X154152380Y-88004819D01*
X154152380Y-88004819D02*
X153533333Y-88004819D01*
X155652381Y-78004819D02*
X155985714Y-77528628D01*
X156223809Y-78004819D02*
X156223809Y-77004819D01*
X156223809Y-77004819D02*
X155842857Y-77004819D01*
X155842857Y-77004819D02*
X155747619Y-77052438D01*
X155747619Y-77052438D02*
X155700000Y-77100057D01*
X155700000Y-77100057D02*
X155652381Y-77195295D01*
X155652381Y-77195295D02*
X155652381Y-77338152D01*
X155652381Y-77338152D02*
X155700000Y-77433390D01*
X155700000Y-77433390D02*
X155747619Y-77481009D01*
X155747619Y-77481009D02*
X155842857Y-77528628D01*
X155842857Y-77528628D02*
X156223809Y-77528628D01*
X155223809Y-77481009D02*
X154890476Y-77481009D01*
X154747619Y-78004819D02*
X155223809Y-78004819D01*
X155223809Y-78004819D02*
X155223809Y-77004819D01*
X155223809Y-77004819D02*
X154747619Y-77004819D01*
X154366666Y-77957200D02*
X154223809Y-78004819D01*
X154223809Y-78004819D02*
X153985714Y-78004819D01*
X153985714Y-78004819D02*
X153890476Y-77957200D01*
X153890476Y-77957200D02*
X153842857Y-77909580D01*
X153842857Y-77909580D02*
X153795238Y-77814342D01*
X153795238Y-77814342D02*
X153795238Y-77719104D01*
X153795238Y-77719104D02*
X153842857Y-77623866D01*
X153842857Y-77623866D02*
X153890476Y-77576247D01*
X153890476Y-77576247D02*
X153985714Y-77528628D01*
X153985714Y-77528628D02*
X154176190Y-77481009D01*
X154176190Y-77481009D02*
X154271428Y-77433390D01*
X154271428Y-77433390D02*
X154319047Y-77385771D01*
X154319047Y-77385771D02*
X154366666Y-77290533D01*
X154366666Y-77290533D02*
X154366666Y-77195295D01*
X154366666Y-77195295D02*
X154319047Y-77100057D01*
X154319047Y-77100057D02*
X154271428Y-77052438D01*
X154271428Y-77052438D02*
X154176190Y-77004819D01*
X154176190Y-77004819D02*
X153938095Y-77004819D01*
X153938095Y-77004819D02*
X153795238Y-77052438D01*
X153366666Y-77481009D02*
X153033333Y-77481009D01*
X152890476Y-78004819D02*
X153366666Y-78004819D01*
X153366666Y-78004819D02*
X153366666Y-77004819D01*
X153366666Y-77004819D02*
X152890476Y-77004819D01*
X152604761Y-77004819D02*
X152033333Y-77004819D01*
X152319047Y-78004819D02*
X152319047Y-77004819D01*
X161483333Y-87004819D02*
X161483333Y-87719104D01*
X161483333Y-87719104D02*
X161530952Y-87861961D01*
X161530952Y-87861961D02*
X161626190Y-87957200D01*
X161626190Y-87957200D02*
X161769047Y-88004819D01*
X161769047Y-88004819D02*
X161864285Y-88004819D01*
X161102380Y-87004819D02*
X160483333Y-87004819D01*
X160483333Y-87004819D02*
X160816666Y-87385771D01*
X160816666Y-87385771D02*
X160673809Y-87385771D01*
X160673809Y-87385771D02*
X160578571Y-87433390D01*
X160578571Y-87433390D02*
X160530952Y-87481009D01*
X160530952Y-87481009D02*
X160483333Y-87576247D01*
X160483333Y-87576247D02*
X160483333Y-87814342D01*
X160483333Y-87814342D02*
X160530952Y-87909580D01*
X160530952Y-87909580D02*
X160578571Y-87957200D01*
X160578571Y-87957200D02*
X160673809Y-88004819D01*
X160673809Y-88004819D02*
X160959523Y-88004819D01*
X160959523Y-88004819D02*
X161054761Y-87957200D01*
X161054761Y-87957200D02*
X161102380Y-87909580D01*
X161911904Y-78100057D02*
X162007142Y-78052438D01*
X162007142Y-78052438D02*
X162102380Y-77957200D01*
X162102380Y-77957200D02*
X162245237Y-77814342D01*
X162245237Y-77814342D02*
X162340475Y-77766723D01*
X162340475Y-77766723D02*
X162435713Y-77766723D01*
X162388094Y-78004819D02*
X162483332Y-77957200D01*
X162483332Y-77957200D02*
X162578570Y-77861961D01*
X162578570Y-77861961D02*
X162626189Y-77671485D01*
X162626189Y-77671485D02*
X162626189Y-77338152D01*
X162626189Y-77338152D02*
X162578570Y-77147676D01*
X162578570Y-77147676D02*
X162483332Y-77052438D01*
X162483332Y-77052438D02*
X162388094Y-77004819D01*
X162388094Y-77004819D02*
X162197618Y-77004819D01*
X162197618Y-77004819D02*
X162102380Y-77052438D01*
X162102380Y-77052438D02*
X162007142Y-77147676D01*
X162007142Y-77147676D02*
X161959523Y-77338152D01*
X161959523Y-77338152D02*
X161959523Y-77671485D01*
X161959523Y-77671485D02*
X162007142Y-77861961D01*
X162007142Y-77861961D02*
X162102380Y-77957200D01*
X162102380Y-77957200D02*
X162197618Y-78004819D01*
X162197618Y-78004819D02*
X162388094Y-78004819D01*
X161530951Y-77004819D02*
X161530951Y-77814342D01*
X161530951Y-77814342D02*
X161483332Y-77909580D01*
X161483332Y-77909580D02*
X161435713Y-77957200D01*
X161435713Y-77957200D02*
X161340475Y-78004819D01*
X161340475Y-78004819D02*
X161149999Y-78004819D01*
X161149999Y-78004819D02*
X161054761Y-77957200D01*
X161054761Y-77957200D02*
X161007142Y-77909580D01*
X161007142Y-77909580D02*
X160959523Y-77814342D01*
X160959523Y-77814342D02*
X160959523Y-77004819D01*
X160483332Y-78004819D02*
X160483332Y-77004819D01*
X160149999Y-77004819D02*
X159578571Y-77004819D01*
X159864285Y-78004819D02*
X159864285Y-77004819D01*
D12*
%TO.C,J4*%
X172340000Y-78990000D02*
X172340000Y-86810000D01*
X172340000Y-86810000D02*
X173260000Y-86810000D01*
X173100000Y-81250000D02*
X173100000Y-82850000D01*
X173100000Y-82850000D02*
X174100000Y-82850000D01*
X173260000Y-85210000D02*
X172340000Y-85210000D01*
X173260000Y-85210000D02*
X173540000Y-85210000D01*
X173260000Y-86810000D02*
X173260000Y-85210000D01*
X173540000Y-86425000D02*
X173540000Y-85210000D01*
X173600000Y-78990000D02*
X173600000Y-81250000D01*
X174100000Y-78990000D02*
X174100000Y-81250000D01*
X174100000Y-81250000D02*
X173100000Y-81250000D01*
X174100000Y-82850000D02*
X174100000Y-81250000D01*
X174900000Y-83350000D02*
X174900000Y-78990000D01*
X179900000Y-78990000D02*
X179900000Y-83350000D01*
X179900000Y-83350000D02*
X174900000Y-83350000D01*
X180700000Y-81250000D02*
X181700000Y-81250000D01*
X180700000Y-82850000D02*
X180700000Y-81250000D01*
X181260000Y-85210000D02*
X181540000Y-85210000D01*
X181540000Y-85210000D02*
X181540000Y-86810000D01*
X181540000Y-85210000D02*
X182460000Y-85210000D01*
X181540000Y-86810000D02*
X182460000Y-86810000D01*
X181700000Y-81250000D02*
X181700000Y-82850000D01*
X181700000Y-82850000D02*
X180700000Y-82850000D01*
X182460000Y-78990000D02*
X172340000Y-78990000D01*
X182460000Y-86810000D02*
X182460000Y-78990000D01*
%TO.C,J1*%
X144190000Y-78640000D02*
X144190000Y-86460000D01*
X144190000Y-86460000D02*
X145110000Y-86460000D01*
X144950000Y-80900000D02*
X144950000Y-82500000D01*
X144950000Y-82500000D02*
X145950000Y-82500000D01*
X145110000Y-84860000D02*
X144190000Y-84860000D01*
X145110000Y-84860000D02*
X145390000Y-84860000D01*
X145110000Y-86460000D02*
X145110000Y-84860000D01*
X145390000Y-86075000D02*
X145390000Y-84860000D01*
X145450000Y-78640000D02*
X145450000Y-80900000D01*
X145950000Y-78640000D02*
X145950000Y-80900000D01*
X145950000Y-80900000D02*
X144950000Y-80900000D01*
X145950000Y-82500000D02*
X145950000Y-80900000D01*
X146750000Y-83000000D02*
X146750000Y-78640000D01*
X147750000Y-78640000D02*
X147750000Y-83000000D01*
X147750000Y-83000000D02*
X146750000Y-83000000D01*
X148550000Y-80900000D02*
X149550000Y-80900000D01*
X148550000Y-82500000D02*
X148550000Y-80900000D01*
X149110000Y-84860000D02*
X149390000Y-84860000D01*
X149390000Y-84860000D02*
X149390000Y-86460000D01*
X149390000Y-84860000D02*
X150310000Y-84860000D01*
X149390000Y-86460000D02*
X150310000Y-86460000D01*
X149550000Y-80900000D02*
X149550000Y-82500000D01*
X149550000Y-82500000D02*
X148550000Y-82500000D01*
X150310000Y-78640000D02*
X144190000Y-78640000D01*
X150310000Y-86460000D02*
X150310000Y-78640000D01*
%TO.C,J2*%
X151140000Y-78640000D02*
X151140000Y-86460000D01*
X151140000Y-86460000D02*
X152060000Y-86460000D01*
X151900000Y-80900000D02*
X151900000Y-82500000D01*
X151900000Y-82500000D02*
X152900000Y-82500000D01*
X152060000Y-84860000D02*
X151140000Y-84860000D01*
X152060000Y-84860000D02*
X152340000Y-84860000D01*
X152060000Y-86460000D02*
X152060000Y-84860000D01*
X152340000Y-86075000D02*
X152340000Y-84860000D01*
X152400000Y-78640000D02*
X152400000Y-80900000D01*
X152900000Y-78640000D02*
X152900000Y-80900000D01*
X152900000Y-80900000D02*
X151900000Y-80900000D01*
X152900000Y-82500000D02*
X152900000Y-80900000D01*
X153700000Y-83000000D02*
X153700000Y-78640000D01*
X154700000Y-78640000D02*
X154700000Y-83000000D01*
X154700000Y-83000000D02*
X153700000Y-83000000D01*
X155500000Y-80900000D02*
X156500000Y-80900000D01*
X155500000Y-82500000D02*
X155500000Y-80900000D01*
X156060000Y-84860000D02*
X156340000Y-84860000D01*
X156340000Y-84860000D02*
X156340000Y-86460000D01*
X156340000Y-84860000D02*
X157260000Y-84860000D01*
X156340000Y-86460000D02*
X157260000Y-86460000D01*
X156500000Y-80900000D02*
X156500000Y-82500000D01*
X156500000Y-82500000D02*
X155500000Y-82500000D01*
X157260000Y-78640000D02*
X151140000Y-78640000D01*
X157260000Y-86460000D02*
X157260000Y-78640000D01*
%TO.C,J3*%
X158090000Y-78640000D02*
X158090000Y-86460000D01*
X158090000Y-86460000D02*
X159010000Y-86460000D01*
X158850000Y-80900000D02*
X158850000Y-82500000D01*
X158850000Y-82500000D02*
X159850000Y-82500000D01*
X159010000Y-84860000D02*
X158090000Y-84860000D01*
X159010000Y-84860000D02*
X159290000Y-84860000D01*
X159010000Y-86460000D02*
X159010000Y-84860000D01*
X159290000Y-86075000D02*
X159290000Y-84860000D01*
X159350000Y-78640000D02*
X159350000Y-80900000D01*
X159850000Y-78640000D02*
X159850000Y-80900000D01*
X159850000Y-80900000D02*
X158850000Y-80900000D01*
X159850000Y-82500000D02*
X159850000Y-80900000D01*
X160650000Y-83000000D02*
X160650000Y-78640000D01*
X161650000Y-78640000D02*
X161650000Y-83000000D01*
X161650000Y-83000000D02*
X160650000Y-83000000D01*
X162450000Y-80900000D02*
X163450000Y-80900000D01*
X162450000Y-82500000D02*
X162450000Y-80900000D01*
X163010000Y-84860000D02*
X163290000Y-84860000D01*
X163290000Y-84860000D02*
X163290000Y-86460000D01*
X163290000Y-84860000D02*
X164210000Y-84860000D01*
X163290000Y-86460000D02*
X164210000Y-86460000D01*
X163450000Y-80900000D02*
X163450000Y-82500000D01*
X163450000Y-82500000D02*
X162450000Y-82500000D01*
X164210000Y-78640000D02*
X158090000Y-78640000D01*
X164210000Y-86460000D02*
X164210000Y-78640000D01*
%TD*%
M02*
