%TF.GenerationSoftware,KiCad,Pcbnew,8.0.8*%
%TF.CreationDate,2025-06-04T22:45:29+02:00*%
%TF.ProjectId,KeyswitchCarrierMk3,4b657973-7769-4746-9368-436172726965,rev?*%
%TF.SameCoordinates,Original*%
%TF.FileFunction,Copper,L1,Top*%
%TF.FilePolarity,Positive*%
%FSLAX46Y46*%
G04 Gerber Fmt 4.6, Leading zero omitted, Abs format (unit mm)*
G04 Created by KiCad (PCBNEW 8.0.8) date 2025-06-04 22:45:29*
%MOMM*%
%LPD*%
G01*
G04 APERTURE LIST*
G04 Aperture macros list*
%AMRoundRect*
0 Rectangle with rounded corners*
0 $1 Rounding radius*
0 $2 $3 $4 $5 $6 $7 $8 $9 X,Y pos of 4 corners*
0 Add a 4 corners polygon primitive as box body*
4,1,4,$2,$3,$4,$5,$6,$7,$8,$9,$2,$3,0*
0 Add four circle primitives for the rounded corners*
1,1,$1+$1,$2,$3*
1,1,$1+$1,$4,$5*
1,1,$1+$1,$6,$7*
1,1,$1+$1,$8,$9*
0 Add four rect primitives between the rounded corners*
20,1,$1+$1,$2,$3,$4,$5,0*
20,1,$1+$1,$4,$5,$6,$7,0*
20,1,$1+$1,$6,$7,$8,$9,0*
20,1,$1+$1,$8,$9,$2,$3,0*%
G04 Aperture macros list end*
%TA.AperFunction,ComponentPad*%
%ADD10C,2.200000*%
%TD*%
%TA.AperFunction,ComponentPad*%
%ADD11RoundRect,0.250000X-0.350000X-0.625000X0.350000X-0.625000X0.350000X0.625000X-0.350000X0.625000X0*%
%TD*%
%TA.AperFunction,ComponentPad*%
%ADD12O,1.200000X1.750000*%
%TD*%
%TA.AperFunction,Conductor*%
%ADD13C,0.200000*%
%TD*%
G04 APERTURE END LIST*
D10*
%TO.P,SW2,1,1*%
%TO.N,Net-(J2-Pin_2)*%
X141258833Y-66598961D03*
%TO.P,SW2,2,2*%
%TO.N,Net-(J1-Pin_1)*%
X134908833Y-69138961D03*
%TD*%
%TO.P,SW3,1,1*%
%TO.N,Net-(J3-Pin_2)*%
X181308830Y-66608960D03*
%TO.P,SW3,2,2*%
%TO.N,Net-(J1-Pin_1)*%
X174958830Y-69148960D03*
%TD*%
%TO.P,SW1,1,1*%
%TO.N,Net-(J1-Pin_2)*%
X109308834Y-66608960D03*
%TO.P,SW1,2,2*%
%TO.N,Net-(J1-Pin_1)*%
X102958834Y-69148960D03*
%TD*%
D11*
%TO.P,J4,1,Pin_1*%
%TO.N,Net-(J1-Pin_1)*%
X174400000Y-85350000D03*
D12*
%TO.P,J4,2,Pin_2*%
%TO.N,Net-(J3-Pin_2)*%
X176400000Y-85350000D03*
%TO.P,J4,3,Pin_3*%
%TO.N,Net-(J2-Pin_2)*%
X178400000Y-85350000D03*
%TO.P,J4,4,Pin_4*%
%TO.N,Net-(J1-Pin_2)*%
X180400000Y-85350000D03*
%TD*%
D11*
%TO.P,J1,1,Pin_1*%
%TO.N,Net-(J1-Pin_1)*%
X146250000Y-85000000D03*
D12*
%TO.P,J1,2,Pin_2*%
%TO.N,Net-(J1-Pin_2)*%
X148250000Y-85000000D03*
%TD*%
D11*
%TO.P,J2,1,Pin_1*%
%TO.N,Net-(J1-Pin_1)*%
X153200000Y-85000000D03*
D12*
%TO.P,J2,2,Pin_2*%
%TO.N,Net-(J2-Pin_2)*%
X155200000Y-85000000D03*
%TD*%
D11*
%TO.P,J3,1,Pin_1*%
%TO.N,Net-(J1-Pin_1)*%
X160150000Y-85000000D03*
D12*
%TO.P,J3,2,Pin_2*%
%TO.N,Net-(J3-Pin_2)*%
X162150000Y-85000000D03*
%TD*%
D13*
%TO.N,Net-(J1-Pin_2)*%
X150800000Y-87550000D02*
X148250000Y-85000000D01*
X136128961Y-72878961D02*
X115578835Y-72878961D01*
X148250000Y-85000000D02*
X136128961Y-72878961D01*
X178200000Y-87550000D02*
X150800000Y-87550000D01*
X115578835Y-72878961D02*
X109308834Y-66608960D01*
X180400000Y-85350000D02*
X178200000Y-87550000D01*
%TO.N,Net-(J1-Pin_1)*%
X174958830Y-84791170D02*
X174400000Y-85350000D01*
X174958830Y-69148960D02*
X174958830Y-84791170D01*
%TO.N,Net-(J2-Pin_2)*%
X141258833Y-66598961D02*
X141698961Y-66598961D01*
X155200000Y-80540128D02*
X141258833Y-66598961D01*
X178400000Y-85350000D02*
X176750000Y-87000000D01*
X176750000Y-87000000D02*
X157200000Y-87000000D01*
X157200000Y-87000000D02*
X155200000Y-85000000D01*
X155200000Y-85000000D02*
X155200000Y-80540128D01*
%TO.N,Net-(J3-Pin_2)*%
X163675000Y-86525000D02*
X162150000Y-85000000D01*
X181308830Y-80441170D02*
X176400000Y-85350000D01*
X181308830Y-66608960D02*
X181308830Y-80441170D01*
X175225000Y-86525000D02*
X163675000Y-86525000D01*
X176400000Y-85350000D02*
X175225000Y-86525000D01*
%TD*%
M02*
